solid OpenSCAD_Model
  facet normal 0 0 1
    outer loop
      vertex 19 5 -8
      vertex 17.2 3 -8
      vertex 19 -5 -8
    endloop
  endfacet
  facet normal -0 0 1
    outer loop
      vertex 5 5 -8
      vertex 17.2 3 -8
      vertex 19 5 -8
    endloop
  endfacet
  facet normal 0 0 1
    outer loop
      vertex 6.7 3 -8
      vertex 5 5 -8
      vertex 6.7 -3 -8
    endloop
  endfacet
  facet normal 0 0 1
    outer loop
      vertex 17.2 3 -8
      vertex 5 5 -8
      vertex 6.7 3 -8
    endloop
  endfacet
  facet normal -0 0 1
    outer loop
      vertex 17.2 -3 -8
      vertex 19 -5 -8
      vertex 17.2 3 -8
    endloop
  endfacet
  facet normal 0 0 1
    outer loop
      vertex 5 -5 -8
      vertex 17.2 -3 -8
      vertex 6.7 -3 -8
    endloop
  endfacet
  facet normal 0 0 1
    outer loop
      vertex 17.2 -3 -8
      vertex 5 -5 -8
      vertex 19 -5 -8
    endloop
  endfacet
  facet normal 0 0 1
    outer loop
      vertex 5 -5 -8
      vertex 6.7 -3 -8
      vertex 5 5 -8
    endloop
  endfacet
  facet normal 1 -0 0
    outer loop
      vertex 19 -5 -8
      vertex 19 5 -18
      vertex 19 5 -8
    endloop
  endfacet
  facet normal 1 0 0
    outer loop
      vertex 19 5 -18
      vertex 19 -5 -8
      vertex 19 -5 -18
    endloop
  endfacet
  facet normal 0 1 0
    outer loop
      vertex 19 5 -8
      vertex 19 5 -18
      vertex 5 5 -8
    endloop
  endfacet
  facet normal 0 1 0
    outer loop
      vertex 5 5 0
      vertex 3 5 -2
      vertex -5 5 0
    endloop
  endfacet
  facet normal 0 1 -0
    outer loop
      vertex 5 5 -8
      vertex 3 5 -2
      vertex 5 5 0
    endloop
  endfacet
  facet normal 0 1 0
    outer loop
      vertex 5 5 -8
      vertex 3 5 -18
      vertex 3 5 -2
    endloop
  endfacet
  facet normal 0 1 0
    outer loop
      vertex 3 5 -18
      vertex 5 5 -8
      vertex 19 5 -18
    endloop
  endfacet
  facet normal 0 1 -0
    outer loop
      vertex -3 5 -2
      vertex -5 5 0
      vertex 3 5 -2
    endloop
  endfacet
  facet normal 0 1 0
    outer loop
      vertex -3 5 -2
      vertex -5 5 -8
      vertex -5 5 0
    endloop
  endfacet
  facet normal 0 1 -0
    outer loop
      vertex -3 5 -18
      vertex -5 5 -8
      vertex -3 5 -2
    endloop
  endfacet
  facet normal 0 1 0
    outer loop
      vertex -19 5 -18
      vertex -5 5 -8
      vertex -3 5 -18
    endloop
  endfacet
  facet normal 0 1 0
    outer loop
      vertex -5 5 -8
      vertex -19 5 -18
      vertex -19 5 -8
    endloop
  endfacet
  facet normal 0 0 -1
    outer loop
      vertex 19 -5 -18
      vertex 17.2 -3 -18
      vertex 19 5 -18
    endloop
  endfacet
  facet normal 0 0 -1
    outer loop
      vertex 19 -5 -18
      vertex 6.7 -3 -18
      vertex 17.2 -3 -18
    endloop
  endfacet
  facet normal -0 0 -1
    outer loop
      vertex 6.7 -3 -18
      vertex 3 -5 -18
      vertex 6.7 3 -18
    endloop
  endfacet
  facet normal 0 0 -1
    outer loop
      vertex 3 -5 -18
      vertex 6.7 -3 -18
      vertex 19 -5 -18
    endloop
  endfacet
  facet normal 0 0 -1
    outer loop
      vertex 17.2 3 -18
      vertex 19 5 -18
      vertex 17.2 -3 -18
    endloop
  endfacet
  facet normal 0 0 -1
    outer loop
      vertex 6.7 3 -18
      vertex 19 5 -18
      vertex 17.2 3 -18
    endloop
  endfacet
  facet normal 0 0 -1
    outer loop
      vertex 6.7 3 -18
      vertex 3 5 -18
      vertex 19 5 -18
    endloop
  endfacet
  facet normal 0 0 -1
    outer loop
      vertex 3 5 -18
      vertex 6.7 3 -18
      vertex 3 -5 -18
    endloop
  endfacet
  facet normal 0 -1 0
    outer loop
      vertex -19 -5 -8
      vertex -19 -5 -18
      vertex -5 -5 -8
    endloop
  endfacet
  facet normal 0 -1 0
    outer loop
      vertex -5 -5 0
      vertex -3 -5 -2
      vertex 5 -5 0
    endloop
  endfacet
  facet normal 0 -1 0
    outer loop
      vertex -5 -5 -8
      vertex -3 -5 -2
      vertex -5 -5 0
    endloop
  endfacet
  facet normal 0 -1 0
    outer loop
      vertex -5 -5 -8
      vertex -3 -5 -18
      vertex -3 -5 -2
    endloop
  endfacet
  facet normal 0 -1 0
    outer loop
      vertex -3 -5 -18
      vertex -5 -5 -8
      vertex -19 -5 -18
    endloop
  endfacet
  facet normal 0 -1 0
    outer loop
      vertex 3 -5 -2
      vertex 5 -5 0
      vertex -3 -5 -2
    endloop
  endfacet
  facet normal 0 -1 0
    outer loop
      vertex 3 -5 -2
      vertex 5 -5 -8
      vertex 5 -5 0
    endloop
  endfacet
  facet normal 0 -1 0
    outer loop
      vertex 3 -5 -18
      vertex 5 -5 -8
      vertex 3 -5 -2
    endloop
  endfacet
  facet normal 0 -1 0
    outer loop
      vertex 19 -5 -18
      vertex 5 -5 -8
      vertex 3 -5 -18
    endloop
  endfacet
  facet normal 0 -1 0
    outer loop
      vertex 5 -5 -8
      vertex 19 -5 -18
      vertex 19 -5 -8
    endloop
  endfacet
  facet normal 0 0 1
    outer loop
      vertex -5 5 -8
      vertex -6.7 3 -8
      vertex -5 -5 -8
    endloop
  endfacet
  facet normal 0 0 1
    outer loop
      vertex -5 5 -8
      vertex -17.2 3 -8
      vertex -6.7 3 -8
    endloop
  endfacet
  facet normal 0 0 1
    outer loop
      vertex -17.2 3 -8
      vertex -19 5 -8
      vertex -17.2 -3 -8
    endloop
  endfacet
  facet normal -0 0 1
    outer loop
      vertex -19 5 -8
      vertex -17.2 3 -8
      vertex -5 5 -8
    endloop
  endfacet
  facet normal -0 0 1
    outer loop
      vertex -6.7 -3 -8
      vertex -5 -5 -8
      vertex -6.7 3 -8
    endloop
  endfacet
  facet normal -0 0 1
    outer loop
      vertex -17.2 -3 -8
      vertex -5 -5 -8
      vertex -6.7 -3 -8
    endloop
  endfacet
  facet normal 0 0 1
    outer loop
      vertex -17.2 -3 -8
      vertex -19 -5 -8
      vertex -5 -5 -8
    endloop
  endfacet
  facet normal 0 0 1
    outer loop
      vertex -19 -5 -8
      vertex -17.2 -3 -8
      vertex -19 5 -8
    endloop
  endfacet
  facet normal -1 0 0
    outer loop
      vertex -19 -5 -18
      vertex -19 5 -8
      vertex -19 5 -18
    endloop
  endfacet
  facet normal -1 -0 0
    outer loop
      vertex -19 5 -8
      vertex -19 -5 -18
      vertex -19 -5 -8
    endloop
  endfacet
  facet normal 0 0 -1
    outer loop
      vertex -3 -5 -18
      vertex -6.7 -3 -18
      vertex -3 5 -18
    endloop
  endfacet
  facet normal 0 0 -1
    outer loop
      vertex -19 -5 -18
      vertex -6.7 -3 -18
      vertex -3 -5 -18
    endloop
  endfacet
  facet normal -0 0 -1
    outer loop
      vertex -17.2 -3 -18
      vertex -19 -5 -18
      vertex -17.2 3 -18
    endloop
  endfacet
  facet normal -0 0 -1
    outer loop
      vertex -6.7 -3 -18
      vertex -19 -5 -18
      vertex -17.2 -3 -18
    endloop
  endfacet
  facet normal 0 0 -1
    outer loop
      vertex -6.7 3 -18
      vertex -3 5 -18
      vertex -6.7 -3 -18
    endloop
  endfacet
  facet normal 0 0 -1
    outer loop
      vertex -19 5 -18
      vertex -6.7 3 -18
      vertex -17.2 3 -18
    endloop
  endfacet
  facet normal 0 0 -1
    outer loop
      vertex -6.7 3 -18
      vertex -19 5 -18
      vertex -3 5 -18
    endloop
  endfacet
  facet normal 0 0 -1
    outer loop
      vertex -19 5 -18
      vertex -17.2 3 -18
      vertex -19 -5 -18
    endloop
  endfacet
  facet normal -1 0 0
    outer loop
      vertex 3 5 -18
      vertex 3 1.7988 -10
      vertex 3 5 -2
    endloop
  endfacet
  facet normal -1 0 0
    outer loop
      vertex 3 5 -18
      vertex 3 -1.7988 -10
      vertex 3 1.7988 -10
    endloop
  endfacet
  facet normal -1 0 0
    outer loop
      vertex 3 -5 -18
      vertex 3 -1.7988 -10
      vertex 3 5 -18
    endloop
  endfacet
  facet normal -1 0 0
    outer loop
      vertex 3 -5 -2
      vertex 3 -1.7988 -10
      vertex 3 -5 -18
    endloop
  endfacet
  facet normal -1 0 0
    outer loop
      vertex 3 -1.7988 -10
      vertex 3 -5 -2
      vertex 3 -1.7988 -2
    endloop
  endfacet
  facet normal -1 -0 0
    outer loop
      vertex 3 5 -2
      vertex 3 1.7988 -10
      vertex 3 1.7988 -2
    endloop
  endfacet
  facet normal 0 0 1
    outer loop
      vertex 5 5 0
      vertex 3.5 0 0
      vertex 5 -5 0
    endloop
  endfacet
  facet normal 0 0 1
    outer loop
      vertex 5 5 0
      vertex 3.48668 0.305044 0
      vertex 3.5 0 0
    endloop
  endfacet
  facet normal 0 0 1
    outer loop
      vertex 5 5 0
      vertex 3.44683 0.607768 0
      vertex 3.48668 0.305044 0
    endloop
  endfacet
  facet normal 0 0 1
    outer loop
      vertex 5 5 0
      vertex 3.38074 0.905867 0
      vertex 3.44683 0.607768 0
    endloop
  endfacet
  facet normal 0 0 1
    outer loop
      vertex 5 5 0
      vertex 3.28892 1.19707 0
      vertex 3.38074 0.905867 0
    endloop
  endfacet
  facet normal 0 0 1
    outer loop
      vertex 5 5 0
      vertex 3.17208 1.47916 0
      vertex 3.28892 1.19707 0
    endloop
  endfacet
  facet normal 0 0 1
    outer loop
      vertex 5 5 0
      vertex 3.03109 1.75 0
      vertex 3.17208 1.47916 0
    endloop
  endfacet
  facet normal 0 0 1
    outer loop
      vertex 5 5 0
      vertex 2.86703 2.00752 0
      vertex 3.03109 1.75 0
    endloop
  endfacet
  facet normal 0 0 1
    outer loop
      vertex 5 5 0
      vertex 2.68116 2.24976 0
      vertex 2.86703 2.00752 0
    endloop
  endfacet
  facet normal 0 0 1
    outer loop
      vertex 5 5 0
      vertex 2.47487 2.47487 0
      vertex 2.68116 2.24976 0
    endloop
  endfacet
  facet normal 0 0 1
    outer loop
      vertex 5 5 0
      vertex 2.24976 2.68116 0
      vertex 2.47487 2.47487 0
    endloop
  endfacet
  facet normal 0 0 1
    outer loop
      vertex 5 5 0
      vertex 2.00752 2.86703 0
      vertex 2.24976 2.68116 0
    endloop
  endfacet
  facet normal 0 0 1
    outer loop
      vertex 5 5 0
      vertex 1.75 3.03109 0
      vertex 2.00752 2.86703 0
    endloop
  endfacet
  facet normal 0 0 1
    outer loop
      vertex 5 5 0
      vertex 1.47916 3.17208 0
      vertex 1.75 3.03109 0
    endloop
  endfacet
  facet normal 0 0 1
    outer loop
      vertex 5 5 0
      vertex 1.19707 3.28892 0
      vertex 1.47916 3.17208 0
    endloop
  endfacet
  facet normal 0 0 1
    outer loop
      vertex 5 5 0
      vertex 0.905867 3.38074 0
      vertex 1.19707 3.28892 0
    endloop
  endfacet
  facet normal 0 0 1
    outer loop
      vertex 5 5 0
      vertex 0.607768 3.44683 0
      vertex 0.905867 3.38074 0
    endloop
  endfacet
  facet normal 0 0 1
    outer loop
      vertex 5 5 0
      vertex 0.305044 3.48668 0
      vertex 0.607768 3.44683 0
    endloop
  endfacet
  facet normal 0 0 1
    outer loop
      vertex 5 5 0
      vertex 0 3.5 0
      vertex 0.305044 3.48668 0
    endloop
  endfacet
  facet normal -0 0 1
    outer loop
      vertex -5 5 0
      vertex 0 3.5 0
      vertex 5 5 0
    endloop
  endfacet
  facet normal 0 0 1
    outer loop
      vertex 0 3.5 0
      vertex -5 5 0
      vertex -0.305044 3.48668 0
    endloop
  endfacet
  facet normal 0 0 1
    outer loop
      vertex -0.305044 3.48668 0
      vertex -5 5 0
      vertex -0.607768 3.44683 0
    endloop
  endfacet
  facet normal 0 0 1
    outer loop
      vertex -3.48668 0.305044 0
      vertex -5 5 0
      vertex -3.5 0 0
    endloop
  endfacet
  facet normal 0 0 1
    outer loop
      vertex -3.44683 0.607768 0
      vertex -5 5 0
      vertex -3.48668 0.305044 0
    endloop
  endfacet
  facet normal 0 0 1
    outer loop
      vertex -3.38074 0.905867 0
      vertex -5 5 0
      vertex -3.44683 0.607768 0
    endloop
  endfacet
  facet normal 0 0 1
    outer loop
      vertex -3.28892 1.19707 0
      vertex -5 5 0
      vertex -3.38074 0.905867 0
    endloop
  endfacet
  facet normal 0 0 1
    outer loop
      vertex -3.17208 1.47916 0
      vertex -5 5 0
      vertex -3.28892 1.19707 0
    endloop
  endfacet
  facet normal 0 0 1
    outer loop
      vertex -3.03109 1.75 0
      vertex -5 5 0
      vertex -3.17208 1.47916 0
    endloop
  endfacet
  facet normal 0 0 1
    outer loop
      vertex -2.86703 2.00752 0
      vertex -5 5 0
      vertex -3.03109 1.75 0
    endloop
  endfacet
  facet normal 0 0 1
    outer loop
      vertex -2.68116 2.24976 0
      vertex -5 5 0
      vertex -2.86703 2.00752 0
    endloop
  endfacet
  facet normal 0 0 1
    outer loop
      vertex -2.47487 2.47487 0
      vertex -5 5 0
      vertex -2.68116 2.24976 0
    endloop
  endfacet
  facet normal 0 0 1
    outer loop
      vertex -2.24976 2.68116 0
      vertex -5 5 0
      vertex -2.47487 2.47487 0
    endloop
  endfacet
  facet normal 0 0 1
    outer loop
      vertex -2.00752 2.86703 0
      vertex -5 5 0
      vertex -2.24976 2.68116 0
    endloop
  endfacet
  facet normal 0 0 1
    outer loop
      vertex -1.75 3.03109 0
      vertex -5 5 0
      vertex -2.00752 2.86703 0
    endloop
  endfacet
  facet normal 0 0 1
    outer loop
      vertex -1.47916 3.17208 0
      vertex -5 5 0
      vertex -1.75 3.03109 0
    endloop
  endfacet
  facet normal 0 0 1
    outer loop
      vertex -1.19707 3.28892 0
      vertex -5 5 0
      vertex -1.47916 3.17208 0
    endloop
  endfacet
  facet normal 0 0 1
    outer loop
      vertex -0.905867 3.38074 0
      vertex -5 5 0
      vertex -1.19707 3.28892 0
    endloop
  endfacet
  facet normal 0 0 1
    outer loop
      vertex -0.607768 3.44683 0
      vertex -5 5 0
      vertex -0.905867 3.38074 0
    endloop
  endfacet
  facet normal -0 0 1
    outer loop
      vertex 3.48668 -0.305044 0
      vertex 5 -5 0
      vertex 3.5 0 0
    endloop
  endfacet
  facet normal -0 0 1
    outer loop
      vertex 3.44683 -0.607768 0
      vertex 5 -5 0
      vertex 3.48668 -0.305044 0
    endloop
  endfacet
  facet normal -0 0 1
    outer loop
      vertex 3.38074 -0.905867 0
      vertex 5 -5 0
      vertex 3.44683 -0.607768 0
    endloop
  endfacet
  facet normal -0 0 1
    outer loop
      vertex 3.28892 -1.19707 0
      vertex 5 -5 0
      vertex 3.38074 -0.905867 0
    endloop
  endfacet
  facet normal -0 0 1
    outer loop
      vertex 3.17208 -1.47916 0
      vertex 5 -5 0
      vertex 3.28892 -1.19707 0
    endloop
  endfacet
  facet normal -0 0 1
    outer loop
      vertex 3.03109 -1.75 0
      vertex 5 -5 0
      vertex 3.17208 -1.47916 0
    endloop
  endfacet
  facet normal -0 0 1
    outer loop
      vertex 2.86703 -2.00752 0
      vertex 5 -5 0
      vertex 3.03109 -1.75 0
    endloop
  endfacet
  facet normal -0 0 1
    outer loop
      vertex 2.68116 -2.24976 0
      vertex 5 -5 0
      vertex 2.86703 -2.00752 0
    endloop
  endfacet
  facet normal -0 0 1
    outer loop
      vertex 2.47487 -2.47487 0
      vertex 5 -5 0
      vertex 2.68116 -2.24976 0
    endloop
  endfacet
  facet normal -0 0 1
    outer loop
      vertex 2.24976 -2.68116 0
      vertex 5 -5 0
      vertex 2.47487 -2.47487 0
    endloop
  endfacet
  facet normal -0 0 1
    outer loop
      vertex 2.00752 -2.86703 0
      vertex 5 -5 0
      vertex 2.24976 -2.68116 0
    endloop
  endfacet
  facet normal -0 0 1
    outer loop
      vertex 1.75 -3.03109 0
      vertex 5 -5 0
      vertex 2.00752 -2.86703 0
    endloop
  endfacet
  facet normal -0 0 1
    outer loop
      vertex 1.47916 -3.17208 0
      vertex 5 -5 0
      vertex 1.75 -3.03109 0
    endloop
  endfacet
  facet normal -0 0 1
    outer loop
      vertex 1.19707 -3.28892 0
      vertex 5 -5 0
      vertex 1.47916 -3.17208 0
    endloop
  endfacet
  facet normal -0 0 1
    outer loop
      vertex 0.905867 -3.38074 0
      vertex 5 -5 0
      vertex 1.19707 -3.28892 0
    endloop
  endfacet
  facet normal -0 0 1
    outer loop
      vertex 0.607768 -3.44683 0
      vertex 5 -5 0
      vertex 0.905867 -3.38074 0
    endloop
  endfacet
  facet normal -0 0 1
    outer loop
      vertex 0.305044 -3.48668 0
      vertex 5 -5 0
      vertex 0.607768 -3.44683 0
    endloop
  endfacet
  facet normal -0 0 1
    outer loop
      vertex 0 -3.5 0
      vertex 5 -5 0
      vertex 0.305044 -3.48668 0
    endloop
  endfacet
  facet normal 0 0 1
    outer loop
      vertex -5 -5 0
      vertex 0 -3.5 0
      vertex -0.305044 -3.48668 0
    endloop
  endfacet
  facet normal 0 0 1
    outer loop
      vertex -5 -5 0
      vertex -0.305044 -3.48668 0
      vertex -0.607768 -3.44683 0
    endloop
  endfacet
  facet normal 0 0 1
    outer loop
      vertex -5 -5 0
      vertex -0.607768 -3.44683 0
      vertex -0.905867 -3.38074 0
    endloop
  endfacet
  facet normal 0 0 1
    outer loop
      vertex -5 -5 0
      vertex -3.5 0 0
      vertex -5 5 0
    endloop
  endfacet
  facet normal 0 0 1
    outer loop
      vertex -3.5 0 0
      vertex -5 -5 0
      vertex -3.48668 -0.305044 0
    endloop
  endfacet
  facet normal 0 0 1
    outer loop
      vertex -3.48668 -0.305044 0
      vertex -5 -5 0
      vertex -3.44683 -0.607768 0
    endloop
  endfacet
  facet normal 0 0 1
    outer loop
      vertex 0 -3.5 0
      vertex -5 -5 0
      vertex 5 -5 0
    endloop
  endfacet
  facet normal 0 0 1
    outer loop
      vertex -1.19707 -3.28892 0
      vertex -5 -5 0
      vertex -0.905867 -3.38074 0
    endloop
  endfacet
  facet normal 0 0 1
    outer loop
      vertex -1.47916 -3.17208 0
      vertex -5 -5 0
      vertex -1.19707 -3.28892 0
    endloop
  endfacet
  facet normal 0 0 1
    outer loop
      vertex -1.75 -3.03109 0
      vertex -5 -5 0
      vertex -1.47916 -3.17208 0
    endloop
  endfacet
  facet normal 0 0 1
    outer loop
      vertex -2.00752 -2.86703 0
      vertex -5 -5 0
      vertex -1.75 -3.03109 0
    endloop
  endfacet
  facet normal 0 0 1
    outer loop
      vertex -2.24976 -2.68116 0
      vertex -5 -5 0
      vertex -2.00752 -2.86703 0
    endloop
  endfacet
  facet normal 0 0 1
    outer loop
      vertex -2.47487 -2.47487 0
      vertex -5 -5 0
      vertex -2.24976 -2.68116 0
    endloop
  endfacet
  facet normal 0 0 1
    outer loop
      vertex -2.68116 -2.24976 0
      vertex -5 -5 0
      vertex -2.47487 -2.47487 0
    endloop
  endfacet
  facet normal 0 0 1
    outer loop
      vertex -2.86703 -2.00752 0
      vertex -5 -5 0
      vertex -2.68116 -2.24976 0
    endloop
  endfacet
  facet normal 0 0 1
    outer loop
      vertex -3.03109 -1.75 0
      vertex -5 -5 0
      vertex -2.86703 -2.00752 0
    endloop
  endfacet
  facet normal 0 0 1
    outer loop
      vertex -3.17208 -1.47916 0
      vertex -5 -5 0
      vertex -3.03109 -1.75 0
    endloop
  endfacet
  facet normal 0 0 1
    outer loop
      vertex -3.28892 -1.19707 0
      vertex -5 -5 0
      vertex -3.17208 -1.47916 0
    endloop
  endfacet
  facet normal 0 0 1
    outer loop
      vertex -3.38074 -0.905867 0
      vertex -5 -5 0
      vertex -3.28892 -1.19707 0
    endloop
  endfacet
  facet normal 0 0 1
    outer loop
      vertex -3.44683 -0.607768 0
      vertex -5 -5 0
      vertex -3.38074 -0.905867 0
    endloop
  endfacet
  facet normal 1 -0 0
    outer loop
      vertex 5 -5 0
      vertex 5 5 -8
      vertex 5 5 0
    endloop
  endfacet
  facet normal 1 0 0
    outer loop
      vertex 5 5 -8
      vertex 5 -5 0
      vertex 5 -5 -8
    endloop
  endfacet
  facet normal -1 0 0
    outer loop
      vertex -5 -5 -8
      vertex -5 5 0
      vertex -5 5 -8
    endloop
  endfacet
  facet normal -1 -0 0
    outer loop
      vertex -5 5 0
      vertex -5 -5 -8
      vertex -5 -5 0
    endloop
  endfacet
  facet normal 1 0 0
    outer loop
      vertex -3 -1.7988 -2
      vertex -3 -5 -2
      vertex -3 -1.7988 -10
    endloop
  endfacet
  facet normal 1 0 0
    outer loop
      vertex -3 1.7988 -10
      vertex -3 5 -2
      vertex -3 1.7988 -2
    endloop
  endfacet
  facet normal 1 0 0
    outer loop
      vertex -3 5 -2
      vertex -3 1.7988 -10
      vertex -3 5 -18
    endloop
  endfacet
  facet normal 1 -0 0
    outer loop
      vertex -3 -1.7988 -10
      vertex -3 5 -18
      vertex -3 1.7988 -10
    endloop
  endfacet
  facet normal 1 0 0
    outer loop
      vertex -3 -1.7988 -10
      vertex -3 -5 -18
      vertex -3 5 -18
    endloop
  endfacet
  facet normal 1 0 0
    outer loop
      vertex -3 -5 -18
      vertex -3 -1.7988 -10
      vertex -3 -5 -2
    endloop
  endfacet
  facet normal 0 0 -1
    outer loop
      vertex 2.86703 2.00752 -2
      vertex 3 5 -2
      vertex 3 1.7988 -2
    endloop
  endfacet
  facet normal 0 0 -1
    outer loop
      vertex 2.68116 2.24976 -2
      vertex 3 5 -2
      vertex 2.86703 2.00752 -2
    endloop
  endfacet
  facet normal 0 0 -1
    outer loop
      vertex 2.47487 2.47487 -2
      vertex 3 5 -2
      vertex 2.68116 2.24976 -2
    endloop
  endfacet
  facet normal 0 0 -1
    outer loop
      vertex 2.24976 2.68116 -2
      vertex 3 5 -2
      vertex 2.47487 2.47487 -2
    endloop
  endfacet
  facet normal 0 0 -1
    outer loop
      vertex 2.00752 2.86703 -2
      vertex 3 5 -2
      vertex 2.24976 2.68116 -2
    endloop
  endfacet
  facet normal 0 0 -1
    outer loop
      vertex 1.75 3.03109 -2
      vertex 3 5 -2
      vertex 2.00752 2.86703 -2
    endloop
  endfacet
  facet normal 0 0 -1
    outer loop
      vertex 1.47916 3.17208 -2
      vertex 3 5 -2
      vertex 1.75 3.03109 -2
    endloop
  endfacet
  facet normal 0 0 -1
    outer loop
      vertex 1.19707 3.28892 -2
      vertex 3 5 -2
      vertex 1.47916 3.17208 -2
    endloop
  endfacet
  facet normal 0 0 -1
    outer loop
      vertex 0.905867 3.38074 -2
      vertex 3 5 -2
      vertex 1.19707 3.28892 -2
    endloop
  endfacet
  facet normal 0 0 -1
    outer loop
      vertex 0.607768 3.44683 -2
      vertex 3 5 -2
      vertex 0.905867 3.38074 -2
    endloop
  endfacet
  facet normal 0 0 -1
    outer loop
      vertex 0.305044 3.48668 -2
      vertex 3 5 -2
      vertex 0.607768 3.44683 -2
    endloop
  endfacet
  facet normal 0 0 -1
    outer loop
      vertex 0 3.5 -2
      vertex 3 5 -2
      vertex 0.305044 3.48668 -2
    endloop
  endfacet
  facet normal 0 0 -1
    outer loop
      vertex -3 5 -2
      vertex 0 3.5 -2
      vertex -0.305044 3.48668 -2
    endloop
  endfacet
  facet normal 0 0 -1
    outer loop
      vertex -3 5 -2
      vertex -0.305044 3.48668 -2
      vertex -0.607768 3.44683 -2
    endloop
  endfacet
  facet normal 0 0 -1
    outer loop
      vertex -3 5 -2
      vertex -0.607768 3.44683 -2
      vertex -0.905867 3.38074 -2
    endloop
  endfacet
  facet normal 0 0 -1
    outer loop
      vertex -3 5 -2
      vertex -0.905867 3.38074 -2
      vertex -1.19707 3.28892 -2
    endloop
  endfacet
  facet normal 0 0 -1
    outer loop
      vertex 0 3.5 -2
      vertex -3 5 -2
      vertex 3 5 -2
    endloop
  endfacet
  facet normal 0 0 -1
    outer loop
      vertex -1.47916 3.17208 -2
      vertex -3 5 -2
      vertex -1.19707 3.28892 -2
    endloop
  endfacet
  facet normal 0 0 -1
    outer loop
      vertex -1.75 3.03109 -2
      vertex -3 5 -2
      vertex -1.47916 3.17208 -2
    endloop
  endfacet
  facet normal 0 0 -1
    outer loop
      vertex -2.00752 2.86703 -2
      vertex -3 5 -2
      vertex -1.75 3.03109 -2
    endloop
  endfacet
  facet normal 0 0 -1
    outer loop
      vertex -2.24976 2.68116 -2
      vertex -3 5 -2
      vertex -2.00752 2.86703 -2
    endloop
  endfacet
  facet normal 0 0 -1
    outer loop
      vertex -2.47487 2.47487 -2
      vertex -3 5 -2
      vertex -2.24976 2.68116 -2
    endloop
  endfacet
  facet normal 0 0 -1
    outer loop
      vertex -2.68116 2.24976 -2
      vertex -3 5 -2
      vertex -2.47487 2.47487 -2
    endloop
  endfacet
  facet normal 0 0 -1
    outer loop
      vertex -2.86703 2.00752 -2
      vertex -3 5 -2
      vertex -2.68116 2.24976 -2
    endloop
  endfacet
  facet normal 0 0 -1
    outer loop
      vertex -3 5 -2
      vertex -2.86703 2.00752 -2
      vertex -3 1.7988 -2
    endloop
  endfacet
  facet normal 0 0 -1
    outer loop
      vertex 3 -5 -2
      vertex 2.86703 -2.00752 -2
      vertex 3 -1.7988 -2
    endloop
  endfacet
  facet normal 0 0 -1
    outer loop
      vertex 3 -5 -2
      vertex 2.68116 -2.24976 -2
      vertex 2.86703 -2.00752 -2
    endloop
  endfacet
  facet normal 0 0 -1
    outer loop
      vertex 3 -5 -2
      vertex 2.47487 -2.47487 -2
      vertex 2.68116 -2.24976 -2
    endloop
  endfacet
  facet normal 0 0 -1
    outer loop
      vertex 3 -5 -2
      vertex 2.24976 -2.68116 -2
      vertex 2.47487 -2.47487 -2
    endloop
  endfacet
  facet normal 0 0 -1
    outer loop
      vertex 3 -5 -2
      vertex 2.00752 -2.86703 -2
      vertex 2.24976 -2.68116 -2
    endloop
  endfacet
  facet normal 0 0 -1
    outer loop
      vertex 3 -5 -2
      vertex 1.75 -3.03109 -2
      vertex 2.00752 -2.86703 -2
    endloop
  endfacet
  facet normal 0 0 -1
    outer loop
      vertex 3 -5 -2
      vertex 1.47916 -3.17208 -2
      vertex 1.75 -3.03109 -2
    endloop
  endfacet
  facet normal 0 0 -1
    outer loop
      vertex 3 -5 -2
      vertex 1.19707 -3.28892 -2
      vertex 1.47916 -3.17208 -2
    endloop
  endfacet
  facet normal 0 0 -1
    outer loop
      vertex 3 -5 -2
      vertex 0.905867 -3.38074 -2
      vertex 1.19707 -3.28892 -2
    endloop
  endfacet
  facet normal 0 0 -1
    outer loop
      vertex 3 -5 -2
      vertex 0.607768 -3.44683 -2
      vertex 0.905867 -3.38074 -2
    endloop
  endfacet
  facet normal 0 0 -1
    outer loop
      vertex 3 -5 -2
      vertex 0.305044 -3.48668 -2
      vertex 0.607768 -3.44683 -2
    endloop
  endfacet
  facet normal 0 0 -1
    outer loop
      vertex 3 -5 -2
      vertex 0 -3.5 -2
      vertex 0.305044 -3.48668 -2
    endloop
  endfacet
  facet normal 0 0 -1
    outer loop
      vertex -3 -5 -2
      vertex 0 -3.5 -2
      vertex 3 -5 -2
    endloop
  endfacet
  facet normal -0 0 -1
    outer loop
      vertex 0 -3.5 -2
      vertex -3 -5 -2
      vertex -0.305044 -3.48668 -2
    endloop
  endfacet
  facet normal -0 0 -1
    outer loop
      vertex -0.305044 -3.48668 -2
      vertex -3 -5 -2
      vertex -0.607768 -3.44683 -2
    endloop
  endfacet
  facet normal -0 0 -1
    outer loop
      vertex -0.607768 -3.44683 -2
      vertex -3 -5 -2
      vertex -0.905867 -3.38074 -2
    endloop
  endfacet
  facet normal -0 0 -1
    outer loop
      vertex -0.905867 -3.38074 -2
      vertex -3 -5 -2
      vertex -1.19707 -3.28892 -2
    endloop
  endfacet
  facet normal 0 0 -1
    outer loop
      vertex -3 -5 -2
      vertex -1.47916 -3.17208 -2
      vertex -1.19707 -3.28892 -2
    endloop
  endfacet
  facet normal 0 0 -1
    outer loop
      vertex -3 -5 -2
      vertex -1.75 -3.03109 -2
      vertex -1.47916 -3.17208 -2
    endloop
  endfacet
  facet normal 0 0 -1
    outer loop
      vertex -3 -5 -2
      vertex -2.00752 -2.86703 -2
      vertex -1.75 -3.03109 -2
    endloop
  endfacet
  facet normal 0 0 -1
    outer loop
      vertex -3 -5 -2
      vertex -2.24976 -2.68116 -2
      vertex -2.00752 -2.86703 -2
    endloop
  endfacet
  facet normal 0 0 -1
    outer loop
      vertex -3 -5 -2
      vertex -2.47487 -2.47487 -2
      vertex -2.24976 -2.68116 -2
    endloop
  endfacet
  facet normal 0 0 -1
    outer loop
      vertex -3 -5 -2
      vertex -2.68116 -2.24976 -2
      vertex -2.47487 -2.47487 -2
    endloop
  endfacet
  facet normal 0 0 -1
    outer loop
      vertex -3 -5 -2
      vertex -2.86703 -2.00752 -2
      vertex -2.68116 -2.24976 -2
    endloop
  endfacet
  facet normal -0 0 -1
    outer loop
      vertex -2.86703 -2.00752 -2
      vertex -3 -5 -2
      vertex -3 -1.7988 -2
    endloop
  endfacet
  facet normal 1 -0 0
    outer loop
      vertex 6.7 -3 -8
      vertex 6.7 3 -18
      vertex 6.7 3 -8
    endloop
  endfacet
  facet normal 1 0 0
    outer loop
      vertex 6.7 3 -18
      vertex 6.7 -3 -8
      vertex 6.7 -3 -18
    endloop
  endfacet
  facet normal -1 0 0
    outer loop
      vertex 17.2 -3 -18
      vertex 17.2 3 -8
      vertex 17.2 3 -18
    endloop
  endfacet
  facet normal -1 -0 0
    outer loop
      vertex 17.2 3 -8
      vertex 17.2 -3 -18
      vertex 17.2 -3 -8
    endloop
  endfacet
  facet normal 0 -1 0
    outer loop
      vertex 6.7 3 -18
      vertex 17.2 3 -8
      vertex 6.7 3 -8
    endloop
  endfacet
  facet normal 0 -1 -0
    outer loop
      vertex 17.2 3 -8
      vertex 6.7 3 -18
      vertex 17.2 3 -18
    endloop
  endfacet
  facet normal 0 1 -0
    outer loop
      vertex 17.2 -3 -18
      vertex 6.7 -3 -8
      vertex 17.2 -3 -8
    endloop
  endfacet
  facet normal 0 1 0
    outer loop
      vertex 6.7 -3 -8
      vertex 17.2 -3 -18
      vertex 6.7 -3 -18
    endloop
  endfacet
  facet normal 1 -0 0
    outer loop
      vertex -17.2 -3 -8
      vertex -17.2 3 -18
      vertex -17.2 3 -8
    endloop
  endfacet
  facet normal 1 0 0
    outer loop
      vertex -17.2 3 -18
      vertex -17.2 -3 -8
      vertex -17.2 -3 -18
    endloop
  endfacet
  facet normal 0 -1 0
    outer loop
      vertex -17.2 3 -18
      vertex -6.7 3 -8
      vertex -17.2 3 -8
    endloop
  endfacet
  facet normal 0 -1 -0
    outer loop
      vertex -6.7 3 -8
      vertex -17.2 3 -18
      vertex -6.7 3 -18
    endloop
  endfacet
  facet normal -1 0 0
    outer loop
      vertex -6.7 -3 -18
      vertex -6.7 3 -8
      vertex -6.7 3 -18
    endloop
  endfacet
  facet normal -1 -0 0
    outer loop
      vertex -6.7 3 -8
      vertex -6.7 -3 -18
      vertex -6.7 -3 -8
    endloop
  endfacet
  facet normal 0 1 -0
    outer loop
      vertex -6.7 -3 -18
      vertex -17.2 -3 -8
      vertex -6.7 -3 -8
    endloop
  endfacet
  facet normal 0 1 0
    outer loop
      vertex -17.2 -3 -8
      vertex -6.7 -3 -18
      vertex -17.2 -3 -18
    endloop
  endfacet
  facet normal -0.999048 -0.043621 0
    outer loop
      vertex 3.5 0 -10
      vertex 3.48668 0.305044 0
      vertex 3.48668 0.305044 -10
    endloop
  endfacet
  facet normal -0.999048 -0.043621 0
    outer loop
      vertex 3.48668 0.305044 0
      vertex 3.5 0 -10
      vertex 3.5 0 0
    endloop
  endfacet
  facet normal 0.999048 -0.043621 0
    outer loop
      vertex -3.5 0 0
      vertex -3.48668 0.305044 -10
      vertex -3.48668 0.305044 0
    endloop
  endfacet
  facet normal 0.999048 -0.043621 0
    outer loop
      vertex -3.48668 0.305044 -10
      vertex -3.5 0 0
      vertex -3.5 0 -10
    endloop
  endfacet
  facet normal -0.043621 -0.999048 0
    outer loop
      vertex 0 3.5 -2
      vertex 0.305044 3.48668 0
      vertex 0 3.5 0
    endloop
  endfacet
  facet normal -0.043621 -0.999048 -0
    outer loop
      vertex 0.305044 3.48668 0
      vertex 0 3.5 -2
      vertex 0.305044 3.48668 -2
    endloop
  endfacet
  facet normal 0.043621 0.999048 -0
    outer loop
      vertex 0 -3.5 -2
      vertex -0.305044 -3.48668 0
      vertex 0 -3.5 0
    endloop
  endfacet
  facet normal 0.043621 0.999048 0
    outer loop
      vertex -0.305044 -3.48668 0
      vertex 0 -3.5 -2
      vertex -0.305044 -3.48668 -2
    endloop
  endfacet
  facet normal -0.737278 -0.675589 0
    outer loop
      vertex 2.68116 2.24976 -2
      vertex 2.47487 2.47487 0
      vertex 2.47487 2.47487 -2
    endloop
  endfacet
  facet normal -0.737278 -0.675589 0
    outer loop
      vertex 2.47487 2.47487 0
      vertex 2.68116 2.24976 -2
      vertex 2.68116 2.24976 0
    endloop
  endfacet
  facet normal 0.675589 -0.737278 0
    outer loop
      vertex -2.47487 2.47487 -2
      vertex -2.24976 2.68116 0
      vertex -2.47487 2.47487 0
    endloop
  endfacet
  facet normal 0.675589 -0.737278 0
    outer loop
      vertex -2.24976 2.68116 0
      vertex -2.47487 2.47487 -2
      vertex -2.24976 2.68116 -2
    endloop
  endfacet
  facet normal 0.382682 -0.92388 0
    outer loop
      vertex -1.47916 3.17208 -2
      vertex -1.19707 3.28892 0
      vertex -1.47916 3.17208 0
    endloop
  endfacet
  facet normal 0.382682 -0.92388 0
    outer loop
      vertex -1.19707 3.28892 0
      vertex -1.47916 3.17208 -2
      vertex -1.19707 3.28892 -2
    endloop
  endfacet
  facet normal 0.953716 0.300708 0
    outer loop
      vertex -3.28892 -1.19707 0
      vertex -3.38074 -0.905867 -10
      vertex -3.38074 -0.905867 0
    endloop
  endfacet
  facet normal 0.953716 0.300708 0
    outer loop
      vertex -3.38074 -0.905867 -10
      vertex -3.28892 -1.19707 0
      vertex -3.28892 -1.19707 -10
    endloop
  endfacet
  facet normal -0.92388 -0.382682 0
    outer loop
      vertex 3.28892 1.19707 -10
      vertex 3.17208 1.47916 0
      vertex 3.17208 1.47916 -10
    endloop
  endfacet
  facet normal -0.92388 -0.382682 0
    outer loop
      vertex 3.17208 1.47916 0
      vertex 3.28892 1.19707 -10
      vertex 3.28892 1.19707 0
    endloop
  endfacet
  facet normal -0.461748 -0.887011 0
    outer loop
      vertex 1.47916 3.17208 -2
      vertex 1.75 3.03109 0
      vertex 1.47916 3.17208 0
    endloop
  endfacet
  facet normal -0.461748 -0.887011 -0
    outer loop
      vertex 1.75 3.03109 0
      vertex 1.47916 3.17208 -2
      vertex 1.75 3.03109 -2
    endloop
  endfacet
  facet normal 0.843391 -0.537301 0
    outer loop
      vertex -2.86703 2.00752 0
      vertex -3 1.7988 -2
      vertex -2.86703 2.00752 -2
    endloop
  endfacet
  facet normal 0.843391 -0.537301 1.06547e-08
    outer loop
      vertex -3.03109 1.75 0
      vertex -3 1.7988 -2
      vertex -2.86703 2.00752 0
    endloop
  endfacet
  facet normal 0.843391 -0.537301 0
    outer loop
      vertex -3.03109 1.75 -10
      vertex -3 1.7988 -2
      vertex -3.03109 1.75 0
    endloop
  endfacet
  facet normal 0.843391 -0.537301 0
    outer loop
      vertex -3 1.7988 -2
      vertex -3.03109 1.75 -10
      vertex -3 1.7988 -10
    endloop
  endfacet
  facet normal 0.793353 -0.608762 0
    outer loop
      vertex -2.86703 2.00752 0
      vertex -2.68116 2.24976 -2
      vertex -2.68116 2.24976 0
    endloop
  endfacet
  facet normal 0.793353 -0.608762 0
    outer loop
      vertex -2.68116 2.24976 -2
      vertex -2.86703 2.00752 0
      vertex -2.86703 2.00752 -2
    endloop
  endfacet
  facet normal 0.216439 -0.976296 0
    outer loop
      vertex -0.905867 3.38074 -2
      vertex -0.607768 3.44683 0
      vertex -0.905867 3.38074 0
    endloop
  endfacet
  facet normal 0.216439 -0.976296 0
    outer loop
      vertex -0.607768 3.44683 0
      vertex -0.905867 3.38074 -2
      vertex -0.607768 3.44683 -2
    endloop
  endfacet
  facet normal -0.887011 0.461749 0
    outer loop
      vertex 3.03109 -1.75 -10
      vertex 3.17208 -1.47916 0
      vertex 3.17208 -1.47916 -10
    endloop
  endfacet
  facet normal -0.887011 0.461749 0
    outer loop
      vertex 3.17208 -1.47916 0
      vertex 3.03109 -1.75 -10
      vertex 3.03109 -1.75 0
    endloop
  endfacet
  facet normal -0.300708 0.953716 0
    outer loop
      vertex 1.19707 -3.28892 -2
      vertex 0.905867 -3.38074 0
      vertex 1.19707 -3.28892 0
    endloop
  endfacet
  facet normal -0.300708 0.953716 0
    outer loop
      vertex 0.905867 -3.38074 0
      vertex 1.19707 -3.28892 -2
      vertex 0.905867 -3.38074 -2
    endloop
  endfacet
  facet normal -0.675589 0.737278 0
    outer loop
      vertex 2.47487 -2.47487 -2
      vertex 2.24976 -2.68116 0
      vertex 2.47487 -2.47487 0
    endloop
  endfacet
  facet normal -0.675589 0.737278 0
    outer loop
      vertex 2.24976 -2.68116 0
      vertex 2.47487 -2.47487 -2
      vertex 2.24976 -2.68116 -2
    endloop
  endfacet
  facet normal 0.382682 0.92388 -0
    outer loop
      vertex -1.19707 -3.28892 -2
      vertex -1.47916 -3.17208 0
      vertex -1.19707 -3.28892 0
    endloop
  endfacet
  facet normal 0.382682 0.92388 0
    outer loop
      vertex -1.47916 -3.17208 0
      vertex -1.19707 -3.28892 -2
      vertex -1.47916 -3.17208 -2
    endloop
  endfacet
  facet normal 0.793353 0.608762 0
    outer loop
      vertex -2.68116 -2.24976 0
      vertex -2.86703 -2.00752 -2
      vertex -2.86703 -2.00752 0
    endloop
  endfacet
  facet normal 0.793353 0.608762 0
    outer loop
      vertex -2.86703 -2.00752 -2
      vertex -2.68116 -2.24976 0
      vertex -2.68116 -2.24976 -2
    endloop
  endfacet
  facet normal -0.976296 -0.216439 0
    outer loop
      vertex 3.44683 0.607768 -10
      vertex 3.38074 0.905867 0
      vertex 3.38074 0.905867 -10
    endloop
  endfacet
  facet normal -0.976296 -0.216439 0
    outer loop
      vertex 3.38074 0.905867 0
      vertex 3.44683 0.607768 -10
      vertex 3.44683 0.607768 0
    endloop
  endfacet
  facet normal -0.991445 -0.130525 0
    outer loop
      vertex 3.48668 0.305044 -10
      vertex 3.44683 0.607768 0
      vertex 3.44683 0.607768 -10
    endloop
  endfacet
  facet normal -0.991445 -0.130525 0
    outer loop
      vertex 3.44683 0.607768 0
      vertex 3.48668 0.305044 -10
      vertex 3.48668 0.305044 0
    endloop
  endfacet
  facet normal -0.953716 -0.300708 0
    outer loop
      vertex 3.38074 0.905867 -10
      vertex 3.28892 1.19707 0
      vertex 3.28892 1.19707 -10
    endloop
  endfacet
  facet normal -0.953716 -0.300708 0
    outer loop
      vertex 3.28892 1.19707 0
      vertex 3.38074 0.905867 -10
      vertex 3.38074 0.905867 0
    endloop
  endfacet
  facet normal -0.843392 -0.537299 0
    outer loop
      vertex 3 1.7988 -2
      vertex 2.86703 2.00752 0
      vertex 2.86703 2.00752 -2
    endloop
  endfacet
  facet normal -0.843392 -0.537299 -4.84555e-09
    outer loop
      vertex 3 1.7988 -2
      vertex 3.03109 1.75 0
      vertex 2.86703 2.00752 0
    endloop
  endfacet
  facet normal -0.843392 -0.537299 -0
    outer loop
      vertex 3.03109 1.75 0
      vertex 3 1.7988 -2
      vertex 3.03109 1.75 -10
    endloop
  endfacet
  facet normal -0.843392 -0.537299 0
    outer loop
      vertex 3 1.7988 -10
      vertex 3.03109 1.75 -10
      vertex 3 1.7988 -2
    endloop
  endfacet
  facet normal -0.793353 -0.608762 0
    outer loop
      vertex 2.86703 2.00752 -2
      vertex 2.68116 2.24976 0
      vertex 2.68116 2.24976 -2
    endloop
  endfacet
  facet normal -0.793353 -0.608762 0
    outer loop
      vertex 2.68116 2.24976 0
      vertex 2.86703 2.00752 -2
      vertex 2.86703 2.00752 0
    endloop
  endfacet
  facet normal -0.887011 -0.461749 0
    outer loop
      vertex 3.17208 1.47916 -10
      vertex 3.03109 1.75 0
      vertex 3.03109 1.75 -10
    endloop
  endfacet
  facet normal -0.887011 -0.461749 0
    outer loop
      vertex 3.03109 1.75 0
      vertex 3.17208 1.47916 -10
      vertex 3.17208 1.47916 0
    endloop
  endfacet
  facet normal -0.300708 -0.953716 0
    outer loop
      vertex 0.905867 3.38074 -2
      vertex 1.19707 3.28892 0
      vertex 0.905867 3.38074 0
    endloop
  endfacet
  facet normal -0.300708 -0.953716 -0
    outer loop
      vertex 1.19707 3.28892 0
      vertex 0.905867 3.38074 -2
      vertex 1.19707 3.28892 -2
    endloop
  endfacet
  facet normal -0.216439 -0.976296 0
    outer loop
      vertex 0.607768 3.44683 -2
      vertex 0.905867 3.38074 0
      vertex 0.607768 3.44683 0
    endloop
  endfacet
  facet normal -0.216439 -0.976296 -0
    outer loop
      vertex 0.905867 3.38074 0
      vertex 0.607768 3.44683 -2
      vertex 0.905867 3.38074 -2
    endloop
  endfacet
  facet normal -0.608762 -0.793353 0
    outer loop
      vertex 2.00752 2.86703 -2
      vertex 2.24976 2.68116 0
      vertex 2.00752 2.86703 0
    endloop
  endfacet
  facet normal -0.608762 -0.793353 -0
    outer loop
      vertex 2.24976 2.68116 0
      vertex 2.00752 2.86703 -2
      vertex 2.24976 2.68116 -2
    endloop
  endfacet
  facet normal -0.537301 -0.843391 0
    outer loop
      vertex 1.75 3.03109 -2
      vertex 2.00752 2.86703 0
      vertex 1.75 3.03109 0
    endloop
  endfacet
  facet normal -0.537301 -0.843391 -0
    outer loop
      vertex 2.00752 2.86703 0
      vertex 1.75 3.03109 -2
      vertex 2.00752 2.86703 -2
    endloop
  endfacet
  facet normal -0.675589 -0.737278 0
    outer loop
      vertex 2.24976 2.68116 -2
      vertex 2.47487 2.47487 0
      vertex 2.24976 2.68116 0
    endloop
  endfacet
  facet normal -0.675589 -0.737278 -0
    outer loop
      vertex 2.47487 2.47487 0
      vertex 2.24976 2.68116 -2
      vertex 2.47487 2.47487 -2
    endloop
  endfacet
  facet normal 0.953716 -0.300708 0
    outer loop
      vertex -3.38074 0.905867 0
      vertex -3.28892 1.19707 -10
      vertex -3.28892 1.19707 0
    endloop
  endfacet
  facet normal 0.953716 -0.300708 0
    outer loop
      vertex -3.28892 1.19707 -10
      vertex -3.38074 0.905867 0
      vertex -3.38074 0.905867 -10
    endloop
  endfacet
  facet normal 0.887011 -0.461748 0
    outer loop
      vertex -3.17208 1.47916 0
      vertex -3.03109 1.75 -10
      vertex -3.03109 1.75 0
    endloop
  endfacet
  facet normal 0.887011 -0.461748 0
    outer loop
      vertex -3.03109 1.75 -10
      vertex -3.17208 1.47916 0
      vertex -3.17208 1.47916 -10
    endloop
  endfacet
  facet normal 0.976296 -0.216439 0
    outer loop
      vertex -3.44683 0.607768 0
      vertex -3.38074 0.905867 -10
      vertex -3.38074 0.905867 0
    endloop
  endfacet
  facet normal 0.976296 -0.216439 0
    outer loop
      vertex -3.38074 0.905867 -10
      vertex -3.44683 0.607768 0
      vertex -3.44683 0.607768 -10
    endloop
  endfacet
  facet normal 0.537299 -0.843392 0
    outer loop
      vertex -2.00752 2.86703 -2
      vertex -1.75 3.03109 0
      vertex -2.00752 2.86703 0
    endloop
  endfacet
  facet normal 0.537299 -0.843392 0
    outer loop
      vertex -1.75 3.03109 0
      vertex -2.00752 2.86703 -2
      vertex -1.75 3.03109 -2
    endloop
  endfacet
  facet normal 0.608762 -0.793353 0
    outer loop
      vertex -2.24976 2.68116 -2
      vertex -2.00752 2.86703 0
      vertex -2.24976 2.68116 0
    endloop
  endfacet
  facet normal 0.608762 -0.793353 0
    outer loop
      vertex -2.00752 2.86703 0
      vertex -2.24976 2.68116 -2
      vertex -2.00752 2.86703 -2
    endloop
  endfacet
  facet normal 0.300708 -0.953716 0
    outer loop
      vertex -1.19707 3.28892 -2
      vertex -0.905867 3.38074 0
      vertex -1.19707 3.28892 0
    endloop
  endfacet
  facet normal 0.300708 -0.953716 0
    outer loop
      vertex -0.905867 3.38074 0
      vertex -1.19707 3.28892 -2
      vertex -0.905867 3.38074 -2
    endloop
  endfacet
  facet normal 0.130525 -0.991445 0
    outer loop
      vertex -0.607768 3.44683 -2
      vertex -0.305044 3.48668 0
      vertex -0.607768 3.44683 0
    endloop
  endfacet
  facet normal 0.130525 -0.991445 0
    outer loop
      vertex -0.305044 3.48668 0
      vertex -0.607768 3.44683 -2
      vertex -0.305044 3.48668 -2
    endloop
  endfacet
  facet normal -0.461749 0.887011 0
    outer loop
      vertex 1.75 -3.03109 -2
      vertex 1.47916 -3.17208 0
      vertex 1.75 -3.03109 0
    endloop
  endfacet
  facet normal -0.461749 0.887011 0
    outer loop
      vertex 1.47916 -3.17208 0
      vertex 1.75 -3.03109 -2
      vertex 1.47916 -3.17208 -2
    endloop
  endfacet
  facet normal -0.608762 0.793353 0
    outer loop
      vertex 2.24976 -2.68116 -2
      vertex 2.00752 -2.86703 0
      vertex 2.24976 -2.68116 0
    endloop
  endfacet
  facet normal -0.608762 0.793353 0
    outer loop
      vertex 2.00752 -2.86703 0
      vertex 2.24976 -2.68116 -2
      vertex 2.00752 -2.86703 -2
    endloop
  endfacet
  facet normal -0.843392 0.537299 0
    outer loop
      vertex 3 -1.7988 -2
      vertex 3.03109 -1.75 -10
      vertex 3 -1.7988 -10
    endloop
  endfacet
  facet normal -0.843392 0.537299 0
    outer loop
      vertex 3.03109 -1.75 -10
      vertex 3 -1.7988 -2
      vertex 3.03109 -1.75 0
    endloop
  endfacet
  facet normal -0.843392 0.537299 0
    outer loop
      vertex 2.86703 -2.00752 0
      vertex 3 -1.7988 -2
      vertex 2.86703 -2.00752 -2
    endloop
  endfacet
  facet normal -0.843392 0.537299 -4.84555e-09
    outer loop
      vertex 3 -1.7988 -2
      vertex 2.86703 -2.00752 0
      vertex 3.03109 -1.75 0
    endloop
  endfacet
  facet normal -0.976296 0.216439 0
    outer loop
      vertex 3.38074 -0.905867 -10
      vertex 3.44683 -0.607768 0
      vertex 3.44683 -0.607768 -10
    endloop
  endfacet
  facet normal -0.976296 0.216439 0
    outer loop
      vertex 3.44683 -0.607768 0
      vertex 3.38074 -0.905867 -10
      vertex 3.38074 -0.905867 0
    endloop
  endfacet
  facet normal -0.953716 0.300708 0
    outer loop
      vertex 3.28892 -1.19707 -10
      vertex 3.38074 -0.905867 0
      vertex 3.38074 -0.905867 -10
    endloop
  endfacet
  facet normal -0.953716 0.300708 0
    outer loop
      vertex 3.38074 -0.905867 0
      vertex 3.28892 -1.19707 -10
      vertex 3.28892 -1.19707 0
    endloop
  endfacet
  facet normal -0.991445 0.130525 0
    outer loop
      vertex 3.44683 -0.607768 -10
      vertex 3.48668 -0.305044 0
      vertex 3.48668 -0.305044 -10
    endloop
  endfacet
  facet normal -0.991445 0.130525 0
    outer loop
      vertex 3.48668 -0.305044 0
      vertex 3.44683 -0.607768 -10
      vertex 3.44683 -0.607768 0
    endloop
  endfacet
  facet normal 0.675589 0.737278 -0
    outer loop
      vertex -2.24976 -2.68116 -2
      vertex -2.47487 -2.47487 0
      vertex -2.24976 -2.68116 0
    endloop
  endfacet
  facet normal 0.675589 0.737278 0
    outer loop
      vertex -2.47487 -2.47487 0
      vertex -2.24976 -2.68116 -2
      vertex -2.47487 -2.47487 -2
    endloop
  endfacet
  facet normal 0.608762 0.793353 -0
    outer loop
      vertex -2.00752 -2.86703 -2
      vertex -2.24976 -2.68116 0
      vertex -2.00752 -2.86703 0
    endloop
  endfacet
  facet normal 0.608762 0.793353 0
    outer loop
      vertex -2.24976 -2.68116 0
      vertex -2.00752 -2.86703 -2
      vertex -2.24976 -2.68116 -2
    endloop
  endfacet
  facet normal 0.537301 0.843391 -0
    outer loop
      vertex -1.75 -3.03109 -2
      vertex -2.00752 -2.86703 0
      vertex -1.75 -3.03109 0
    endloop
  endfacet
  facet normal 0.537301 0.843391 0
    outer loop
      vertex -2.00752 -2.86703 0
      vertex -1.75 -3.03109 -2
      vertex -2.00752 -2.86703 -2
    endloop
  endfacet
  facet normal 0.216439 0.976296 -0
    outer loop
      vertex -0.607768 -3.44683 -2
      vertex -0.905867 -3.38074 0
      vertex -0.607768 -3.44683 0
    endloop
  endfacet
  facet normal 0.216439 0.976296 0
    outer loop
      vertex -0.905867 -3.38074 0
      vertex -0.607768 -3.44683 -2
      vertex -0.905867 -3.38074 -2
    endloop
  endfacet
  facet normal 0.887011 0.461748 0
    outer loop
      vertex -3.03109 -1.75 0
      vertex -3.17208 -1.47916 -10
      vertex -3.17208 -1.47916 0
    endloop
  endfacet
  facet normal 0.887011 0.461748 0
    outer loop
      vertex -3.17208 -1.47916 -10
      vertex -3.03109 -1.75 0
      vertex -3.03109 -1.75 -10
    endloop
  endfacet
  facet normal 0.92388 0.382682 0
    outer loop
      vertex -3.17208 -1.47916 0
      vertex -3.28892 -1.19707 -10
      vertex -3.28892 -1.19707 0
    endloop
  endfacet
  facet normal 0.92388 0.382682 0
    outer loop
      vertex -3.28892 -1.19707 -10
      vertex -3.17208 -1.47916 0
      vertex -3.17208 -1.47916 -10
    endloop
  endfacet
  facet normal 0 0 1
    outer loop
      vertex 3.48668 0.305044 -10
      vertex 3.48668 -0.305044 -10
      vertex 3.5 0 -10
    endloop
  endfacet
  facet normal 0 0 1
    outer loop
      vertex 3.44683 0.607768 -10
      vertex 3.48668 -0.305044 -10
      vertex 3.48668 0.305044 -10
    endloop
  endfacet
  facet normal 0 0 1
    outer loop
      vertex 3.44683 0.607768 -10
      vertex 3.44683 -0.607768 -10
      vertex 3.48668 -0.305044 -10
    endloop
  endfacet
  facet normal 0 0 1
    outer loop
      vertex 3.38074 0.905867 -10
      vertex 3.44683 -0.607768 -10
      vertex 3.44683 0.607768 -10
    endloop
  endfacet
  facet normal 0 0 1
    outer loop
      vertex 3.38074 0.905867 -10
      vertex 3.38074 -0.905867 -10
      vertex 3.44683 -0.607768 -10
    endloop
  endfacet
  facet normal 0 0 1
    outer loop
      vertex 3.28892 1.19707 -10
      vertex 3.38074 -0.905867 -10
      vertex 3.38074 0.905867 -10
    endloop
  endfacet
  facet normal 0 0 1
    outer loop
      vertex 3.28892 1.19707 -10
      vertex 3.28892 -1.19707 -10
      vertex 3.38074 -0.905867 -10
    endloop
  endfacet
  facet normal 0 0 1
    outer loop
      vertex 3.17208 1.47916 -10
      vertex 3.28892 -1.19707 -10
      vertex 3.28892 1.19707 -10
    endloop
  endfacet
  facet normal 0 0 1
    outer loop
      vertex 3.17208 1.47916 -10
      vertex 3.17208 -1.47916 -10
      vertex 3.28892 -1.19707 -10
    endloop
  endfacet
  facet normal 0 0 1
    outer loop
      vertex 3 1.7988 -10
      vertex 3.17208 1.47916 -10
      vertex 3.03109 1.75 -10
    endloop
  endfacet
  facet normal 0 0 1
    outer loop
      vertex 3.17208 1.47916 -10
      vertex 3 1.7988 -10
      vertex 3.17208 -1.47916 -10
    endloop
  endfacet
  facet normal 0 0 1
    outer loop
      vertex 3 -1.7988 -10
      vertex 3.17208 -1.47916 -10
      vertex 3 1.7988 -10
    endloop
  endfacet
  facet normal 0 0 1
    outer loop
      vertex 3.17208 -1.47916 -10
      vertex 3 -1.7988 -10
      vertex 3.03109 -1.75 -10
    endloop
  endfacet
  facet normal 0 0 1
    outer loop
      vertex -3.17208 1.47916 -10
      vertex -3 1.7988 -10
      vertex -3.03109 1.75 -10
    endloop
  endfacet
  facet normal 0 0 1
    outer loop
      vertex -3 1.7988 -10
      vertex -3.17208 1.47916 -10
      vertex -3 -1.7988 -10
    endloop
  endfacet
  facet normal -0 0 1
    outer loop
      vertex -3.17208 -1.47916 -10
      vertex -3 -1.7988 -10
      vertex -3.17208 1.47916 -10
    endloop
  endfacet
  facet normal 0 0 1
    outer loop
      vertex -3 -1.7988 -10
      vertex -3.17208 -1.47916 -10
      vertex -3.03109 -1.75 -10
    endloop
  endfacet
  facet normal -0 0 1
    outer loop
      vertex -3.28892 1.19707 -10
      vertex -3.17208 -1.47916 -10
      vertex -3.17208 1.47916 -10
    endloop
  endfacet
  facet normal 0 0 1
    outer loop
      vertex -3.28892 1.19707 -10
      vertex -3.28892 -1.19707 -10
      vertex -3.17208 -1.47916 -10
    endloop
  endfacet
  facet normal -0 0 1
    outer loop
      vertex -3.38074 0.905867 -10
      vertex -3.28892 -1.19707 -10
      vertex -3.28892 1.19707 -10
    endloop
  endfacet
  facet normal 0 0 1
    outer loop
      vertex -3.38074 0.905867 -10
      vertex -3.38074 -0.905867 -10
      vertex -3.28892 -1.19707 -10
    endloop
  endfacet
  facet normal -0 0 1
    outer loop
      vertex -3.44683 0.607768 -10
      vertex -3.38074 -0.905867 -10
      vertex -3.38074 0.905867 -10
    endloop
  endfacet
  facet normal 0 0 1
    outer loop
      vertex -3.44683 0.607768 -10
      vertex -3.44683 -0.607768 -10
      vertex -3.38074 -0.905867 -10
    endloop
  endfacet
  facet normal -0 0 1
    outer loop
      vertex -3.48668 0.305044 -10
      vertex -3.44683 -0.607768 -10
      vertex -3.44683 0.607768 -10
    endloop
  endfacet
  facet normal 0 0 1
    outer loop
      vertex -3.48668 0.305044 -10
      vertex -3.48668 -0.305044 -10
      vertex -3.44683 -0.607768 -10
    endloop
  endfacet
  facet normal 0 -0 1
    outer loop
      vertex -3.48668 -0.305044 -10
      vertex -3.48668 0.305044 -10
      vertex -3.5 0 -10
    endloop
  endfacet
  facet normal -0.382682 -0.92388 0
    outer loop
      vertex 1.19707 3.28892 -2
      vertex 1.47916 3.17208 0
      vertex 1.19707 3.28892 0
    endloop
  endfacet
  facet normal -0.382682 -0.92388 -0
    outer loop
      vertex 1.47916 3.17208 0
      vertex 1.19707 3.28892 -2
      vertex 1.47916 3.17208 -2
    endloop
  endfacet
  facet normal -0.130525 -0.991445 0
    outer loop
      vertex 0.305044 3.48668 -2
      vertex 0.607768 3.44683 0
      vertex 0.305044 3.48668 0
    endloop
  endfacet
  facet normal -0.130525 -0.991445 -0
    outer loop
      vertex 0.607768 3.44683 0
      vertex 0.305044 3.48668 -2
      vertex 0.607768 3.44683 -2
    endloop
  endfacet
  facet normal 0.737278 -0.675589 0
    outer loop
      vertex -2.68116 2.24976 0
      vertex -2.47487 2.47487 -2
      vertex -2.47487 2.47487 0
    endloop
  endfacet
  facet normal 0.737278 -0.675589 0
    outer loop
      vertex -2.47487 2.47487 -2
      vertex -2.68116 2.24976 0
      vertex -2.68116 2.24976 -2
    endloop
  endfacet
  facet normal 0.92388 -0.382682 0
    outer loop
      vertex -3.28892 1.19707 0
      vertex -3.17208 1.47916 -10
      vertex -3.17208 1.47916 0
    endloop
  endfacet
  facet normal 0.92388 -0.382682 0
    outer loop
      vertex -3.17208 1.47916 -10
      vertex -3.28892 1.19707 0
      vertex -3.28892 1.19707 -10
    endloop
  endfacet
  facet normal 0.991445 -0.130525 0
    outer loop
      vertex -3.48668 0.305044 0
      vertex -3.44683 0.607768 -10
      vertex -3.44683 0.607768 0
    endloop
  endfacet
  facet normal 0.991445 -0.130525 0
    outer loop
      vertex -3.44683 0.607768 -10
      vertex -3.48668 0.305044 0
      vertex -3.48668 0.305044 -10
    endloop
  endfacet
  facet normal 0.461749 -0.887011 0
    outer loop
      vertex -1.75 3.03109 -2
      vertex -1.47916 3.17208 0
      vertex -1.75 3.03109 0
    endloop
  endfacet
  facet normal 0.461749 -0.887011 0
    outer loop
      vertex -1.47916 3.17208 0
      vertex -1.75 3.03109 -2
      vertex -1.47916 3.17208 -2
    endloop
  endfacet
  facet normal 0.043621 -0.999048 0
    outer loop
      vertex -0.305044 3.48668 -2
      vertex 0 3.5 0
      vertex -0.305044 3.48668 0
    endloop
  endfacet
  facet normal 0.043621 -0.999048 0
    outer loop
      vertex 0 3.5 0
      vertex -0.305044 3.48668 -2
      vertex 0 3.5 -2
    endloop
  endfacet
  facet normal -0.043621 0.999048 0
    outer loop
      vertex 0.305044 -3.48668 -2
      vertex 0 -3.5 0
      vertex 0.305044 -3.48668 0
    endloop
  endfacet
  facet normal -0.043621 0.999048 0
    outer loop
      vertex 0 -3.5 0
      vertex 0.305044 -3.48668 -2
      vertex 0 -3.5 -2
    endloop
  endfacet
  facet normal -0.216439 0.976296 0
    outer loop
      vertex 0.905867 -3.38074 -2
      vertex 0.607768 -3.44683 0
      vertex 0.905867 -3.38074 0
    endloop
  endfacet
  facet normal -0.216439 0.976296 0
    outer loop
      vertex 0.607768 -3.44683 0
      vertex 0.905867 -3.38074 -2
      vertex 0.607768 -3.44683 -2
    endloop
  endfacet
  facet normal -0.382682 0.92388 0
    outer loop
      vertex 1.47916 -3.17208 -2
      vertex 1.19707 -3.28892 0
      vertex 1.47916 -3.17208 0
    endloop
  endfacet
  facet normal -0.382682 0.92388 0
    outer loop
      vertex 1.19707 -3.28892 0
      vertex 1.47916 -3.17208 -2
      vertex 1.19707 -3.28892 -2
    endloop
  endfacet
  facet normal -0.537299 0.843392 0
    outer loop
      vertex 2.00752 -2.86703 -2
      vertex 1.75 -3.03109 0
      vertex 2.00752 -2.86703 0
    endloop
  endfacet
  facet normal -0.537299 0.843392 0
    outer loop
      vertex 1.75 -3.03109 0
      vertex 2.00752 -2.86703 -2
      vertex 1.75 -3.03109 -2
    endloop
  endfacet
  facet normal -0.737278 0.675589 0
    outer loop
      vertex 2.47487 -2.47487 -2
      vertex 2.68116 -2.24976 0
      vertex 2.68116 -2.24976 -2
    endloop
  endfacet
  facet normal -0.737278 0.675589 0
    outer loop
      vertex 2.68116 -2.24976 0
      vertex 2.47487 -2.47487 -2
      vertex 2.47487 -2.47487 0
    endloop
  endfacet
  facet normal -0.92388 0.382682 0
    outer loop
      vertex 3.17208 -1.47916 -10
      vertex 3.28892 -1.19707 0
      vertex 3.28892 -1.19707 -10
    endloop
  endfacet
  facet normal -0.92388 0.382682 0
    outer loop
      vertex 3.28892 -1.19707 0
      vertex 3.17208 -1.47916 -10
      vertex 3.17208 -1.47916 0
    endloop
  endfacet
  facet normal 0.461748 0.887011 -0
    outer loop
      vertex -1.47916 -3.17208 -2
      vertex -1.75 -3.03109 0
      vertex -1.47916 -3.17208 0
    endloop
  endfacet
  facet normal 0.461748 0.887011 0
    outer loop
      vertex -1.75 -3.03109 0
      vertex -1.47916 -3.17208 -2
      vertex -1.75 -3.03109 -2
    endloop
  endfacet
  facet normal 0.300708 0.953716 -0
    outer loop
      vertex -0.905867 -3.38074 -2
      vertex -1.19707 -3.28892 0
      vertex -0.905867 -3.38074 0
    endloop
  endfacet
  facet normal 0.300708 0.953716 0
    outer loop
      vertex -1.19707 -3.28892 0
      vertex -0.905867 -3.38074 -2
      vertex -1.19707 -3.28892 -2
    endloop
  endfacet
  facet normal 0.130525 0.991445 -0
    outer loop
      vertex -0.305044 -3.48668 -2
      vertex -0.607768 -3.44683 0
      vertex -0.305044 -3.48668 0
    endloop
  endfacet
  facet normal 0.130525 0.991445 0
    outer loop
      vertex -0.607768 -3.44683 0
      vertex -0.305044 -3.48668 -2
      vertex -0.607768 -3.44683 -2
    endloop
  endfacet
  facet normal 0.737278 0.675589 0
    outer loop
      vertex -2.47487 -2.47487 0
      vertex -2.68116 -2.24976 -2
      vertex -2.68116 -2.24976 0
    endloop
  endfacet
  facet normal 0.737278 0.675589 0
    outer loop
      vertex -2.68116 -2.24976 -2
      vertex -2.47487 -2.47487 0
      vertex -2.47487 -2.47487 -2
    endloop
  endfacet
  facet normal 0.843391 0.537301 0
    outer loop
      vertex -3.03109 -1.75 0
      vertex -3 -1.7988 -2
      vertex -3.03109 -1.75 -10
    endloop
  endfacet
  facet normal 0.843391 0.537301 1.06547e-08
    outer loop
      vertex -2.86703 -2.00752 0
      vertex -3 -1.7988 -2
      vertex -3.03109 -1.75 0
    endloop
  endfacet
  facet normal 0.843391 0.537301 0
    outer loop
      vertex -3 -1.7988 -2
      vertex -2.86703 -2.00752 0
      vertex -2.86703 -2.00752 -2
    endloop
  endfacet
  facet normal 0.843391 0.537301 0
    outer loop
      vertex -3.03109 -1.75 -10
      vertex -3 -1.7988 -2
      vertex -3 -1.7988 -10
    endloop
  endfacet
  facet normal 0.976296 0.216439 0
    outer loop
      vertex -3.38074 -0.905867 0
      vertex -3.44683 -0.607768 -10
      vertex -3.44683 -0.607768 0
    endloop
  endfacet
  facet normal 0.976296 0.216439 0
    outer loop
      vertex -3.44683 -0.607768 -10
      vertex -3.38074 -0.905867 0
      vertex -3.38074 -0.905867 -10
    endloop
  endfacet
  facet normal 0.999048 0.043621 0
    outer loop
      vertex -3.48668 -0.305044 0
      vertex -3.5 0 -10
      vertex -3.5 0 0
    endloop
  endfacet
  facet normal 0.999048 0.043621 0
    outer loop
      vertex -3.5 0 -10
      vertex -3.48668 -0.305044 0
      vertex -3.48668 -0.305044 -10
    endloop
  endfacet
  facet normal -0.999048 0.043621 0
    outer loop
      vertex 3.48668 -0.305044 -10
      vertex 3.5 0 0
      vertex 3.5 0 -10
    endloop
  endfacet
  facet normal -0.999048 0.043621 0
    outer loop
      vertex 3.5 0 0
      vertex 3.48668 -0.305044 -10
      vertex 3.48668 -0.305044 0
    endloop
  endfacet
  facet normal -0.130525 0.991445 0
    outer loop
      vertex 0.607768 -3.44683 -2
      vertex 0.305044 -3.48668 0
      vertex 0.607768 -3.44683 0
    endloop
  endfacet
  facet normal -0.130525 0.991445 0
    outer loop
      vertex 0.305044 -3.48668 0
      vertex 0.607768 -3.44683 -2
      vertex 0.305044 -3.48668 -2
    endloop
  endfacet
  facet normal -0.793353 0.608762 0
    outer loop
      vertex 2.68116 -2.24976 -2
      vertex 2.86703 -2.00752 0
      vertex 2.86703 -2.00752 -2
    endloop
  endfacet
  facet normal -0.793353 0.608762 0
    outer loop
      vertex 2.86703 -2.00752 0
      vertex 2.68116 -2.24976 -2
      vertex 2.68116 -2.24976 0
    endloop
  endfacet
  facet normal 0.991445 0.130525 0
    outer loop
      vertex -3.44683 -0.607768 0
      vertex -3.48668 -0.305044 -10
      vertex -3.48668 -0.305044 0
    endloop
  endfacet
  facet normal 0.991445 0.130525 0
    outer loop
      vertex -3.48668 -0.305044 -10
      vertex -3.44683 -0.607768 0
      vertex -3.44683 -0.607768 -10
    endloop
  endfacet
endsolid OpenSCAD_Model
