solid OpenSCAD_Model
  facet normal 0.156434 0 0.987688
    outer loop
      vertex -0.463525 -2.45 2.89341
      vertex 0 -2.45 2.82
      vertex -0.463525 2.45 2.89341
    endloop
  endfacet
  facet normal 0.156434 0 0.987688
    outer loop
      vertex -0.463525 2.45 2.89341
      vertex 0 -2.45 2.82
      vertex 0 2.45 2.82
    endloop
  endfacet
  facet normal 0.45399 0 0.891007
    outer loop
      vertex -0.881678 -2.45 3.10647
      vertex -0.463525 -2.45 2.89341
      vertex -0.881678 2.45 3.10647
    endloop
  endfacet
  facet normal 0.45399 0 0.891007
    outer loop
      vertex -0.881678 2.45 3.10647
      vertex -0.463525 -2.45 2.89341
      vertex -0.463525 2.45 2.89341
    endloop
  endfacet
  facet normal 0 -1 0
    outer loop
      vertex -0.952339 -2.45 5.44009e-16
      vertex 0.952339 -2.45 5.44009e-16
      vertex 0 -2.45 2.82
    endloop
  endfacet
  facet normal 0 1 0
    outer loop
      vertex -0.952339 2.45 5.44009e-16
      vertex 0 2.45 2.82
      vertex 0.952339 2.45 5.44009e-16
    endloop
  endfacet
  facet normal 0 0 -1
    outer loop
      vertex -0.952339 2.45 5.44009e-16
      vertex 0.952339 2.45 5.44009e-16
      vertex 2.64 0 5.44009e-16
    endloop
  endfacet
  facet normal 0.707108 0 0.707106
    outer loop
      vertex -1.21352 -2.45 3.43832
      vertex -0.881678 -2.45 3.10647
      vertex -0.881678 2.45 3.10647
    endloop
  endfacet
  facet normal 0.707108 -0 0.707106
    outer loop
      vertex -1.21352 -2.45 3.43832
      vertex -0.881678 2.45 3.10647
      vertex -1.21352 2.45 3.43832
    endloop
  endfacet
  facet normal -0.446875 -0.78203 -0.434432
    outer loop
      vertex -1.41451 -2.45 0.475406
      vertex -0.952339 -2.45 1.08802e-15
      vertex -0.952339 -2.45 5.44009e-16
    endloop
  endfacet
  facet normal 0 -1 0
    outer loop
      vertex -1.41451 -2.45 0.475406
      vertex -0.952339 -2.45 5.44009e-16
      vertex 0 -2.45 2.82
    endloop
  endfacet
  facet normal -0.378241 -0.849543 -0.36771
    outer loop
      vertex -1.41451 -2.45 0.475406
      vertex -1.32 -2.28631 1.05167e-15
      vertex -0.952339 -2.45 1.08802e-15
    endloop
  endfacet
  facet normal 0 -1 -0
    outer loop
      vertex -1.41451 -2.45 0.475406
      vertex 0 -2.45 2.82
      vertex -0.463525 -2.45 2.89341
    endloop
  endfacet
  facet normal 0 1 0
    outer loop
      vertex -1.41451 2.45 0.475406
      vertex -0.463525 2.45 2.89341
      vertex 0 2.45 2.82
    endloop
  endfacet
  facet normal -0.378241 0.849543 -0.36771
    outer loop
      vertex -1.41451 2.45 0.475406
      vertex -0.952339 2.45 5.44009e-16
      vertex -1.32 2.28631 5.44009e-16
    endloop
  endfacet
  facet normal -0 1 0
    outer loop
      vertex -1.41451 2.45 0.475406
      vertex 0 2.45 2.82
      vertex -0.952339 2.45 5.44009e-16
    endloop
  endfacet
  facet normal 0.891006 0 0.453991
    outer loop
      vertex -1.42658 -2.45 3.85647
      vertex -1.21352 -2.45 3.43832
      vertex -1.21352 2.45 3.43832
    endloop
  endfacet
  facet normal 0.891006 -0 0.453991
    outer loop
      vertex -1.42658 -2.45 3.85647
      vertex -1.21352 2.45 3.43832
      vertex -1.42658 2.45 3.85647
    endloop
  endfacet
  facet normal 1 0 0
    outer loop
      vertex -1.5 -2.45 14.0205
      vertex -1.5 2.35222 14.1
      vertex -1.5 -2.35222 14.1
    endloop
  endfacet
  facet normal 1 0 0
    outer loop
      vertex -1.5 -2.45 14.0205
      vertex -1.5 2.45 14.0205
      vertex -1.5 2.35222 14.1
    endloop
  endfacet
  facet normal 1 0 0
    outer loop
      vertex -1.5 -2.45 14.0205
      vertex -1.5 2.45 4.32
      vertex -1.5 2.45 14.0205
    endloop
  endfacet
  facet normal 0.987688 0 0.156435
    outer loop
      vertex -1.5 -2.45 4.32
      vertex -1.42658 -2.45 3.85647
      vertex -1.42658 2.45 3.85647
    endloop
  endfacet
  facet normal 0.987688 -0 0.156435
    outer loop
      vertex -1.5 -2.45 4.32
      vertex -1.42658 2.45 3.85647
      vertex -1.5 2.45 4.32
    endloop
  endfacet
  facet normal 1 0 0
    outer loop
      vertex -1.5 -2.45 4.32
      vertex -1.5 2.45 4.32
      vertex -1.5 -2.45 14.0205
    endloop
  endfacet
  facet normal 0 0 -1
    outer loop
      vertex -1.7665 1.9619 5.44009e-16
      vertex -1.32 2.28631 5.44009e-16
      vertex -0.952339 2.45 5.44009e-16
    endloop
  endfacet
  facet normal -0.416767 -0.57363 0.705162
    outer loop
      vertex -1.88163 -2.45 13.7949
      vertex -1.5 -2.35222 14.1
      vertex -1.87357 -2.0808 14.1
    endloop
  endfacet
  facet normal -0.416768 -0.573628 0.705163
    outer loop
      vertex -1.88163 -2.45 13.7949
      vertex -1.5 -2.45 14.0205
      vertex -1.5 -2.35222 14.1
    endloop
  endfacet
  facet normal -0.416768 0.573628 0.705163
    outer loop
      vertex -1.88163 2.45 13.7949
      vertex -1.5 2.35222 14.1
      vertex -1.5 2.45 14.0205
    endloop
  endfacet
  facet normal -0.416767 0.57363 0.705162
    outer loop
      vertex -1.88163 2.45 13.7949
      vertex -1.87357 2.0808 14.1
      vertex -1.5 2.35222 14.1
    endloop
  endfacet
  facet normal 0 0 -1
    outer loop
      vertex -2.1358 1.55175 5.44009e-16
      vertex -0.952339 2.45 5.44009e-16
      vertex 2.64 0 5.44009e-16
    endloop
  endfacet
  facet normal 0 0 -1
    outer loop
      vertex -2.1358 1.55175 5.44009e-16
      vertex -1.7665 1.9619 5.44009e-16
      vertex -0.952339 2.45 5.44009e-16
    endloop
  endfacet
  facet normal 0 -1 -0
    outer loop
      vertex -2.19542 -2.45 1.63623
      vertex -0.463525 -2.45 2.89341
      vertex -0.881678 -2.45 3.10647
    endloop
  endfacet
  facet normal -0.546605 -0.752338 -0.36771
    outer loop
      vertex -2.19542 -2.45 1.63623
      vertex -1.32 -2.28631 1.05167e-15
      vertex -1.41451 -2.45 0.475406
    endloop
  endfacet
  facet normal 0 -1 0
    outer loop
      vertex -2.19542 -2.45 1.63623
      vertex -1.41451 -2.45 0.475406
      vertex -0.463525 -2.45 2.89341
    endloop
  endfacet
  facet normal -0.546605 -0.752338 -0.36771
    outer loop
      vertex -2.19542 -2.45 1.63623
      vertex -1.7665 -1.9619 9.79639e-16
      vertex -1.32 -2.28631 1.05167e-15
    endloop
  endfacet
  facet normal 0 1 0
    outer loop
      vertex -2.19542 2.45 1.63623
      vertex -0.463525 2.45 2.89341
      vertex -1.41451 2.45 0.475406
    endloop
  endfacet
  facet normal 0 1 0
    outer loop
      vertex -2.19542 2.45 1.63623
      vertex -0.881678 2.45 3.10647
      vertex -0.463525 2.45 2.89341
    endloop
  endfacet
  facet normal -0.546605 0.752338 -0.36771
    outer loop
      vertex -2.19542 2.45 1.63623
      vertex -1.32 2.28631 5.44009e-16
      vertex -1.7665 1.9619 5.44009e-16
    endloop
  endfacet
  facet normal -0.546605 0.752338 -0.36771
    outer loop
      vertex -2.19542 2.45 1.63623
      vertex -1.41451 2.45 0.475406
      vertex -1.32 2.28631 5.44009e-16
    endloop
  endfacet
  facet normal 0 -1 -0
    outer loop
      vertex -2.20468 -2.45 1.65
      vertex -0.881678 -2.45 3.10647
      vertex -1.21352 -2.45 3.43832
    endloop
  endfacet
  facet normal 0 -1 0
    outer loop
      vertex -2.20468 -2.45 1.65
      vertex -2.19542 -2.45 1.63623
      vertex -0.881678 -2.45 3.10647
    endloop
  endfacet
  facet normal 0 1 0
    outer loop
      vertex -2.20468 2.45 1.65
      vertex -0.881678 2.45 3.10647
      vertex -2.19542 2.45 1.63623
    endloop
  endfacet
  facet normal 0 1 0
    outer loop
      vertex -2.20468 2.45 1.65
      vertex -1.21352 2.45 3.43832
      vertex -0.881678 2.45 3.10647
    endloop
  endfacet
  facet normal -0.546611 -0.752333 -0.36771
    outer loop
      vertex -2.20547 -2.44942 1.65
      vertex -1.7665 -1.9619 9.79639e-16
      vertex -2.19542 -2.45 1.63623
    endloop
  endfacet
  facet normal -0.546626 -0.752317 -0.367722
    outer loop
      vertex -2.20547 -2.44942 1.65
      vertex -2.19542 -2.45 1.63623
      vertex -2.20468 -2.45 1.65
    endloop
  endfacet
  facet normal -0.546611 0.752333 -0.36771
    outer loop
      vertex -2.20547 2.44942 1.65
      vertex -2.19542 2.45 1.63623
      vertex -1.7665 1.9619 5.44009e-16
    endloop
  endfacet
  facet normal -0.546626 0.752317 -0.367722
    outer loop
      vertex -2.20547 2.44942 1.65
      vertex -2.20468 2.45 1.65
      vertex -2.19542 2.45 1.63623
    endloop
  endfacet
  facet normal -0.416767 -0.57363 0.705162
    outer loop
      vertex -2.20599 -2.45 13.6032
      vertex -1.88163 -2.45 13.7949
      vertex -1.87357 -2.0808 14.1
    endloop
  endfacet
  facet normal -0.416767 0.57363 0.705162
    outer loop
      vertex -2.20599 2.45 13.6032
      vertex -1.87357 2.0808 14.1
      vertex -1.88163 2.45 13.7949
    endloop
  endfacet
  facet normal -0.691077 -0.622256 -0.36771
    outer loop
      vertex -2.2077 -2.44695 1.65
      vertex -1.7665 -1.9619 9.79639e-16
      vertex -2.20547 -2.44942 1.65
    endloop
  endfacet
  facet normal -0.69108 -0.622252 -0.36771
    outer loop
      vertex -2.2077 -2.44695 1.65
      vertex -2.1358 -1.55175 8.88568e-16
      vertex -1.7665 -1.9619 9.79639e-16
    endloop
  endfacet
  facet normal -0.69108 0.622252 -0.36771
    outer loop
      vertex -2.2077 2.44695 1.65
      vertex -1.7665 1.9619 5.44009e-16
      vertex -2.1358 1.55175 5.44009e-16
    endloop
  endfacet
  facet normal -0.691077 0.622256 -0.36771
    outer loop
      vertex -2.2077 2.44695 1.65
      vertex -2.20547 2.44942 1.65
      vertex -1.7665 1.9619 5.44009e-16
    endloop
  endfacet
  facet normal 0 -1 -0
    outer loop
      vertex -2.21027 -2.45 1.65
      vertex -1.21352 -2.45 3.43832
      vertex -1.42658 -2.45 3.85647
    endloop
  endfacet
  facet normal 0 -1 -0
    outer loop
      vertex -2.21027 -2.45 1.65
      vertex -1.42658 -2.45 3.85647
      vertex -1.5 -2.45 4.32
    endloop
  endfacet
  facet normal 0 -1 0
    outer loop
      vertex -2.21027 -2.45 1.65
      vertex -1.5 -2.45 4.32
      vertex -2.21027 -2.45 12.1
    endloop
  endfacet
  facet normal 0 -1 0
    outer loop
      vertex -2.21027 -2.45 1.65
      vertex -2.20468 -2.45 1.65
      vertex -1.21352 -2.45 3.43832
    endloop
  endfacet
  facet normal 0 0 -1
    outer loop
      vertex -2.21027 -2.45 1.65
      vertex -2.20547 -2.44942 1.65
      vertex -2.20468 -2.45 1.65
    endloop
  endfacet
  facet normal 0 0 -1
    outer loop
      vertex -2.21027 -2.45 1.65
      vertex -2.2077 -2.44695 1.65
      vertex -2.20547 -2.44942 1.65
    endloop
  endfacet
  facet normal 0 -1 -0
    outer loop
      vertex -2.21027 -2.45 12.1
      vertex -1.5 -2.45 14.0205
      vertex -1.88163 -2.45 13.7949
    endloop
  endfacet
  facet normal 0 -1 0
    outer loop
      vertex -2.21027 -2.45 12.1
      vertex -1.5 -2.45 4.32
      vertex -1.5 -2.45 14.0205
    endloop
  endfacet
  facet normal 0 -1 -0
    outer loop
      vertex -2.21027 -2.45 12.1
      vertex -1.88163 -2.45 13.7949
      vertex -2.20599 -2.45 13.6032
    endloop
  endfacet
  facet normal 0 1 0
    outer loop
      vertex -2.21027 2.45 1.65
      vertex -1.21352 2.45 3.43832
      vertex -2.20468 2.45 1.65
    endloop
  endfacet
  facet normal 0 1 0
    outer loop
      vertex -2.21027 2.45 1.65
      vertex -1.42658 2.45 3.85647
      vertex -1.21352 2.45 3.43832
    endloop
  endfacet
  facet normal 0 1 0
    outer loop
      vertex -2.21027 2.45 1.65
      vertex -1.5 2.45 4.32
      vertex -1.42658 2.45 3.85647
    endloop
  endfacet
  facet normal 0 0 -1
    outer loop
      vertex -2.21027 2.45 1.65
      vertex -2.20468 2.45 1.65
      vertex -2.20547 2.44942 1.65
    endloop
  endfacet
  facet normal 0 0 -1
    outer loop
      vertex -2.21027 2.45 1.65
      vertex -2.20547 2.44942 1.65
      vertex -2.2077 2.44695 1.65
    endloop
  endfacet
  facet normal 0 1 0
    outer loop
      vertex -2.21027 2.45 1.65
      vertex -2.21027 2.45 12.1
      vertex -1.5 2.45 4.32
    endloop
  endfacet
  facet normal 0 1 -0
    outer loop
      vertex -2.21027 2.45 12.1
      vertex -1.5 2.45 14.0205
      vertex -1.5 2.45 4.32
    endloop
  endfacet
  facet normal 0 1 0
    outer loop
      vertex -2.21027 2.45 12.1
      vertex -1.88163 2.45 13.7949
      vertex -1.5 2.45 14.0205
    endloop
  endfacet
  facet normal 0 1 0
    outer loop
      vertex -2.21027 2.45 12.1
      vertex -2.20599 2.45 13.6032
      vertex -1.88163 2.45 13.7949
    endloop
  endfacet
  facet normal 0 -1 0
    outer loop
      vertex -2.21754 -2.45 12.1054
      vertex -2.21027 -2.45 12.1
      vertex -2.20599 -2.45 13.6032
    endloop
  endfacet
  facet normal 0 1 0
    outer loop
      vertex -2.21754 2.45 12.1054
      vertex -2.20599 2.45 13.6032
      vertex -2.21027 2.45 12.1
    endloop
  endfacet
  facet normal -0 0 1
    outer loop
      vertex -2.26525 -1.6458 14.1
      vertex -1.5 -2.35222 14.1
      vertex -2.26525 1.6458 14.1
    endloop
  endfacet
  facet normal 0 0 1
    outer loop
      vertex -2.26525 -1.6458 14.1
      vertex -1.87357 -2.0808 14.1
      vertex -1.5 -2.35222 14.1
    endloop
  endfacet
  facet normal -0.526924 -0.474445 0.705162
    outer loop
      vertex -2.26525 -1.6458 14.1
      vertex -2.20599 -2.45 13.6032
      vertex -1.87357 -2.0808 14.1
    endloop
  endfacet
  facet normal 0 0 1
    outer loop
      vertex -2.26525 1.6458 14.1
      vertex -1.5 -2.35222 14.1
      vertex -1.5 2.35222 14.1
    endloop
  endfacet
  facet normal 0 0 1
    outer loop
      vertex -2.26525 1.6458 14.1
      vertex -1.5 2.35222 14.1
      vertex -1.87357 2.0808 14.1
    endloop
  endfacet
  facet normal -0.526924 0.474445 0.705162
    outer loop
      vertex -2.26525 1.6458 14.1
      vertex -1.87357 2.0808 14.1
      vertex -2.20599 2.45 13.6032
    endloop
  endfacet
  facet normal 0 0 -1
    outer loop
      vertex -2.41176 1.07378 5.44009e-16
      vertex -2.1358 1.55175 5.44009e-16
      vertex 2.64 0 5.44009e-16
    endloop
  endfacet
  facet normal -0.526925 -0.474444 0.705161
    outer loop
      vertex -2.45463 -2.45 13.4174
      vertex -2.20599 -2.45 13.6032
      vertex -2.26525 -1.6458 14.1
    endloop
  endfacet
  facet normal 0 -1 0
    outer loop
      vertex -2.45463 -2.45 13.4174
      vertex -2.21754 -2.45 12.1054
      vertex -2.20599 -2.45 13.6032
    endloop
  endfacet
  facet normal 0 1 0
    outer loop
      vertex -2.45463 2.45 13.4174
      vertex -2.20599 2.45 13.6032
      vertex -2.21754 2.45 12.1054
    endloop
  endfacet
  facet normal -0.526925 0.474444 0.705161
    outer loop
      vertex -2.45463 2.45 13.4174
      vertex -2.26525 1.6458 14.1
      vertex -2.20599 2.45 13.6032
    endloop
  endfacet
  facet normal 0 0 1
    outer loop
      vertex -2.55793 -1.13886 14.1
      vertex -2.26525 -1.6458 14.1
      vertex -2.55793 1.13886 14.1
    endloop
  endfacet
  facet normal -0 0 1
    outer loop
      vertex -2.55793 1.13886 14.1
      vertex -2.26525 -1.6458 14.1
      vertex -2.26525 1.6458 14.1
    endloop
  endfacet
  facet normal 0 0 -1
    outer loop
      vertex -2.58231 0.548886 5.44009e-16
      vertex -2.41176 1.07378 5.44009e-16
      vertex 2.64 0 5.44009e-16
    endloop
  endfacet
  facet normal 0 -0 -1
    outer loop
      vertex -2.64 0 5.44009e-16
      vertex -2.58231 0.548886 5.44009e-16
      vertex 2.64 0 5.44009e-16
    endloop
  endfacet
  facet normal 0 2.22045e-16 1
    outer loop
      vertex -2.64 0 5.44009e-16
      vertex 2.64 0 5.44009e-16
      vertex 5.54929 2.45 0
    endloop
  endfacet
  facet normal -0.691081 -0.622252 -0.36771
    outer loop
      vertex -2.66654 -1.93735 1.65
      vertex -2.1358 -1.55175 8.88568e-16
      vertex -2.2077 -2.44695 1.65
    endloop
  endfacet
  facet normal -0.691081 0.622252 -0.36771
    outer loop
      vertex -2.66654 1.93735 1.65
      vertex -2.2077 2.44695 1.65
      vertex -2.1358 1.55175 5.44009e-16
    endloop
  endfacet
  facet normal 0 0 -1
    outer loop
      vertex -2.66976 -1.93969 1.65
      vertex -2.2077 -2.44695 1.65
      vertex -2.21027 -2.45 1.65
    endloop
  endfacet
  facet normal -0.743145 -0.66913 0
    outer loop
      vertex -2.66976 -1.93969 1.65
      vertex -2.21027 -2.45 1.65
      vertex -2.66976 -1.93969 12.1
    endloop
  endfacet
  facet normal 0 0 -1
    outer loop
      vertex -2.66976 -1.93969 1.65
      vertex -2.66654 -1.93735 1.65
      vertex -2.2077 -2.44695 1.65
    endloop
  endfacet
  facet normal -0.743145 -0.66913 0
    outer loop
      vertex -2.66976 -1.93969 12.1
      vertex -2.21027 -2.45 1.65
      vertex -2.21027 -2.45 12.1
    endloop
  endfacet
  facet normal -0.526918 -0.474439 -0.70517
    outer loop
      vertex -2.66976 -1.93969 12.1
      vertex -2.21027 -2.45 12.1
      vertex -2.21754 -2.45 12.1054
    endloop
  endfacet
  facet normal 0 0 -1
    outer loop
      vertex -2.66976 1.93969 1.65
      vertex -2.2077 2.44695 1.65
      vertex -2.66654 1.93735 1.65
    endloop
  endfacet
  facet normal -0 0 -1
    outer loop
      vertex -2.66976 1.93969 1.65
      vertex -2.21027 2.45 1.65
      vertex -2.2077 2.44695 1.65
    endloop
  endfacet
  facet normal -0.743145 0.66913 0
    outer loop
      vertex -2.66976 1.93969 1.65
      vertex -2.21027 2.45 12.1
      vertex -2.21027 2.45 1.65
    endloop
  endfacet
  facet normal -0.743145 0.66913 0
    outer loop
      vertex -2.66976 1.93969 1.65
      vertex -2.66976 1.93969 12.1
      vertex -2.21027 2.45 12.1
    endloop
  endfacet
  facet normal -0.526918 0.474439 -0.70517
    outer loop
      vertex -2.66976 1.93969 12.1
      vertex -2.21754 2.45 12.1054
      vertex -2.21027 2.45 12.1
    endloop
  endfacet
  facet normal 0 0 1
    outer loop
      vertex -2.73881 -0.582152 14.1
      vertex -2.55793 -1.13886 14.1
      vertex -2.73881 0.582152 14.1
    endloop
  endfacet
  facet normal -0 0 1
    outer loop
      vertex -2.73881 0.582152 14.1
      vertex -2.55793 -1.13886 14.1
      vertex -2.55793 1.13886 14.1
    endloop
  endfacet
  facet normal 0 -0 1
    outer loop
      vertex -2.8 0 14.1
      vertex -2.73881 -0.582152 14.1
      vertex -2.73881 0.582152 14.1
    endloop
  endfacet
  facet normal 0 -1 -0
    outer loop
      vertex -2.8794 -2.45 12.6
      vertex -2.21754 -2.45 12.1054
      vertex -2.45463 -2.45 13.4174
    endloop
  endfacet
  facet normal 0 -1 0
    outer loop
      vertex -2.8794 -2.45 12.6
      vertex -2.45463 -2.45 13.4174
      vertex -2.8794 -2.45 13.1
    endloop
  endfacet
  facet normal -0 1 0
    outer loop
      vertex -2.8794 2.45 12.6
      vertex -2.45463 2.45 13.4174
      vertex -2.21754 2.45 12.1054
    endloop
  endfacet
  facet normal 0 1 0
    outer loop
      vertex -2.8794 2.45 12.6
      vertex -2.8794 2.45 13.1
      vertex -2.45463 2.45 13.4174
    endloop
  endfacet
  facet normal -0.805352 -0.464971 -0.36771
    outer loop
      vertex -3.00941 -1.34349 1.65
      vertex -2.1358 -1.55175 8.88568e-16
      vertex -2.66654 -1.93735 1.65
    endloop
  endfacet
  facet normal 0 0 -1
    outer loop
      vertex -3.00941 -1.34349 1.65
      vertex -2.66654 -1.93735 1.65
      vertex -2.66976 -1.93969 1.65
    endloop
  endfacet
  facet normal -0.805352 0.464971 -0.36771
    outer loop
      vertex -3.00941 1.34349 1.65
      vertex -2.66654 1.93735 1.65
      vertex -2.1358 1.55175 5.44009e-16
    endloop
  endfacet
  facet normal 0 0 -1
    outer loop
      vertex -3.00941 1.34349 1.65
      vertex -2.66976 1.93969 1.65
      vertex -2.66654 1.93735 1.65
    endloop
  endfacet
  facet normal -0.805367 -0.464935 -0.367723
    outer loop
      vertex -3.01107 -1.34061 1.65
      vertex -2.1358 -1.55175 8.88568e-16
      vertex -3.00941 -1.34349 1.65
    endloop
  endfacet
  facet normal -0.805352 -0.46497 -0.36771
    outer loop
      vertex -3.01107 -1.34061 1.65
      vertex -2.41176 -1.07378 7.82437e-16
      vertex -2.1358 -1.55175 8.88568e-16
    endloop
  endfacet
  facet normal -0.805352 0.46497 -0.36771
    outer loop
      vertex -3.01107 1.34061 1.65
      vertex -2.1358 1.55175 5.44009e-16
      vertex -2.41176 1.07378 5.44009e-16
    endloop
  endfacet
  facet normal -0.805367 0.464935 -0.367723
    outer loop
      vertex -3.01107 1.34061 1.65
      vertex -3.00941 1.34349 1.65
      vertex -2.1358 1.55175 5.44009e-16
    endloop
  endfacet
  facet normal -0.884414 -0.287403 -0.367712
    outer loop
      vertex -3.0121 -1.33745 1.65
      vertex -2.41176 -1.07378 7.82437e-16
      vertex -3.01107 -1.34061 1.65
    endloop
  endfacet
  facet normal -0.884426 -0.287367 -0.36771
    outer loop
      vertex -3.0121 -1.33745 1.65
      vertex -2.58231 -0.548886 6.65887e-16
      vertex -2.41176 -1.07378 7.82437e-16
    endloop
  endfacet
  facet normal -0.884426 0.287367 -0.36771
    outer loop
      vertex -3.0121 1.33745 1.65
      vertex -2.41176 1.07378 5.44009e-16
      vertex -2.58231 0.548886 5.44009e-16
    endloop
  endfacet
  facet normal -0.884414 0.287403 -0.367712
    outer loop
      vertex -3.0121 1.33745 1.65
      vertex -3.01107 1.34061 1.65
      vertex -2.41176 1.07378 5.44009e-16
    endloop
  endfacet
  facet normal -0.866025 -0.5 0
    outer loop
      vertex -3.0147 -1.34223 1.65
      vertex -2.66976 -1.93969 1.65
      vertex -3.0147 -1.34223 12.1
    endloop
  endfacet
  facet normal 0 0 -1
    outer loop
      vertex -3.0147 -1.34223 1.65
      vertex -3.00941 -1.34349 1.65
      vertex -2.66976 -1.93969 1.65
    endloop
  endfacet
  facet normal 0 0 -1
    outer loop
      vertex -3.0147 -1.34223 1.65
      vertex -3.01107 -1.34061 1.65
      vertex -3.00941 -1.34349 1.65
    endloop
  endfacet
  facet normal 0 0 -1
    outer loop
      vertex -3.0147 -1.34223 1.65
      vertex -3.0121 -1.33745 1.65
      vertex -3.01107 -1.34061 1.65
    endloop
  endfacet
  facet normal -0.866025 -0.5 0
    outer loop
      vertex -3.0147 -1.34223 12.1
      vertex -2.66976 -1.93969 1.65
      vertex -2.66976 -1.93969 12.1
    endloop
  endfacet
  facet normal -0 0 -1
    outer loop
      vertex -3.0147 1.34223 1.65
      vertex -2.66976 1.93969 1.65
      vertex -3.00941 1.34349 1.65
    endloop
  endfacet
  facet normal -0.866025 0.5 0
    outer loop
      vertex -3.0147 1.34223 1.65
      vertex -2.66976 1.93969 12.1
      vertex -2.66976 1.93969 1.65
    endloop
  endfacet
  facet normal 0 0 -1
    outer loop
      vertex -3.0147 1.34223 1.65
      vertex -3.00941 1.34349 1.65
      vertex -3.01107 1.34061 1.65
    endloop
  endfacet
  facet normal 0 0 -1
    outer loop
      vertex -3.0147 1.34223 1.65
      vertex -3.01107 1.34061 1.65
      vertex -3.0121 1.33745 1.65
    endloop
  endfacet
  facet normal -0.866025 0.5 0
    outer loop
      vertex -3.0147 1.34223 1.65
      vertex -3.0147 1.34223 12.1
      vertex -2.66976 1.93969 12.1
    endloop
  endfacet
  facet normal -0.526924 -0.474445 -0.705162
    outer loop
      vertex -3.07426 -2.23358 12.6
      vertex -2.21754 -2.45 12.1054
      vertex -2.8794 -2.45 12.6
    endloop
  endfacet
  facet normal -0.526924 -0.474444 -0.705162
    outer loop
      vertex -3.07426 -2.23358 12.6
      vertex -2.66976 -1.93969 12.1
      vertex -2.21754 -2.45 12.1054
    endloop
  endfacet
  facet normal -0.743144 -0.669131 0
    outer loop
      vertex -3.07426 -2.23358 12.6
      vertex -2.8794 -2.45 12.6
      vertex -3.07426 -2.23358 13.1
    endloop
  endfacet
  facet normal -0.614052 -0.354523 -0.705162
    outer loop
      vertex -3.07426 -2.23358 12.6
      vertex -3.0147 -1.34223 12.1
      vertex -2.66976 -1.93969 12.1
    endloop
  endfacet
  facet normal -0.614052 -0.354523 0.705162
    outer loop
      vertex -3.07426 -2.23358 13.1
      vertex -2.26525 -1.6458 14.1
      vertex -2.55793 -1.13886 14.1
    endloop
  endfacet
  facet normal -0.526924 -0.474445 0.705162
    outer loop
      vertex -3.07426 -2.23358 13.1
      vertex -2.45463 -2.45 13.4174
      vertex -2.26525 -1.6458 14.1
    endloop
  endfacet
  facet normal -0.743144 -0.669131 0
    outer loop
      vertex -3.07426 -2.23358 13.1
      vertex -2.8794 -2.45 12.6
      vertex -2.8794 -2.45 13.1
    endloop
  endfacet
  facet normal -0.526924 -0.474445 0.705162
    outer loop
      vertex -3.07426 -2.23358 13.1
      vertex -2.8794 -2.45 13.1
      vertex -2.45463 -2.45 13.4174
    endloop
  endfacet
  facet normal -0.526924 0.474444 -0.705162
    outer loop
      vertex -3.07426 2.23358 12.6
      vertex -2.21754 2.45 12.1054
      vertex -2.66976 1.93969 12.1
    endloop
  endfacet
  facet normal -0.614052 0.354523 -0.705162
    outer loop
      vertex -3.07426 2.23358 12.6
      vertex -2.66976 1.93969 12.1
      vertex -3.0147 1.34223 12.1
    endloop
  endfacet
  facet normal -0.526924 0.474445 -0.705162
    outer loop
      vertex -3.07426 2.23358 12.6
      vertex -2.8794 2.45 12.6
      vertex -2.21754 2.45 12.1054
    endloop
  endfacet
  facet normal -0.743144 0.669131 0
    outer loop
      vertex -3.07426 2.23358 12.6
      vertex -2.8794 2.45 13.1
      vertex -2.8794 2.45 12.6
    endloop
  endfacet
  facet normal -0.743144 0.669131 0
    outer loop
      vertex -3.07426 2.23358 12.6
      vertex -3.07426 2.23358 13.1
      vertex -2.8794 2.45 13.1
    endloop
  endfacet
  facet normal -0.526924 0.474445 0.705162
    outer loop
      vertex -3.07426 2.23358 13.1
      vertex -2.26525 1.6458 14.1
      vertex -2.45463 2.45 13.4174
    endloop
  endfacet
  facet normal -0.526924 0.474445 0.705162
    outer loop
      vertex -3.07426 2.23358 13.1
      vertex -2.45463 2.45 13.4174
      vertex -2.8794 2.45 13.1
    endloop
  endfacet
  facet normal -0.614052 0.354523 0.705162
    outer loop
      vertex -3.07426 2.23358 13.1
      vertex -2.55793 1.13886 14.1
      vertex -2.26525 1.6458 14.1
    endloop
  endfacet
  facet normal -0.884426 -0.287366 -0.36771
    outer loop
      vertex -3.224 -0.685281 1.65
      vertex -2.58231 -0.548886 6.65887e-16
      vertex -3.0121 -1.33745 1.65
    endloop
  endfacet
  facet normal -0.884426 0.287366 -0.36771
    outer loop
      vertex -3.224 0.685281 1.65
      vertex -3.0121 1.33745 1.65
      vertex -2.58231 0.548886 5.44009e-16
    endloop
  endfacet
  facet normal -0.924844 -0.0972256 -0.367711
    outer loop
      vertex -3.22434 -0.681974 1.65
      vertex -2.58231 -0.548886 6.65887e-16
      vertex -3.224 -0.685281 1.65
    endloop
  endfacet
  facet normal -0.924846 -0.0972058 -0.36771
    outer loop
      vertex -3.22434 -0.681974 1.65
      vertex -2.64 0 5.44009e-16
      vertex -2.58231 -0.548886 6.65887e-16
    endloop
  endfacet
  facet normal -0.924846 0.0972058 -0.36771
    outer loop
      vertex -3.22434 0.681974 1.65
      vertex -2.58231 0.548886 5.44009e-16
      vertex -2.64 0 5.44009e-16
    endloop
  endfacet
  facet normal -0.924844 0.0972256 -0.367711
    outer loop
      vertex -3.22434 0.681974 1.65
      vertex -3.224 0.685281 1.65
      vertex -2.58231 0.548886 5.44009e-16
    endloop
  endfacet
  facet normal 0 0 -1
    outer loop
      vertex -3.22789 -0.686108 1.65
      vertex -3.0121 -1.33745 1.65
      vertex -3.0147 -1.34223 1.65
    endloop
  endfacet
  facet normal -0.951057 -0.309016 0
    outer loop
      vertex -3.22789 -0.686108 1.65
      vertex -3.0147 -1.34223 1.65
      vertex -3.22789 -0.686108 12.1
    endloop
  endfacet
  facet normal 0 0 -1
    outer loop
      vertex -3.22789 -0.686108 1.65
      vertex -3.224 -0.685281 1.65
      vertex -3.0121 -1.33745 1.65
    endloop
  endfacet
  facet normal 0 0 -1
    outer loop
      vertex -3.22789 -0.686108 1.65
      vertex -3.22434 -0.681974 1.65
      vertex -3.224 -0.685281 1.65
    endloop
  endfacet
  facet normal -0.951057 -0.309016 0
    outer loop
      vertex -3.22789 -0.686108 12.1
      vertex -3.0147 -1.34223 1.65
      vertex -3.0147 -1.34223 12.1
    endloop
  endfacet
  facet normal 0 0 -1
    outer loop
      vertex -3.22789 0.686108 1.65
      vertex -3.0121 1.33745 1.65
      vertex -3.224 0.685281 1.65
    endloop
  endfacet
  facet normal -0 0 -1
    outer loop
      vertex -3.22789 0.686108 1.65
      vertex -3.0147 1.34223 1.65
      vertex -3.0121 1.33745 1.65
    endloop
  endfacet
  facet normal -0.951057 0.309016 0
    outer loop
      vertex -3.22789 0.686108 1.65
      vertex -3.0147 1.34223 12.1
      vertex -3.0147 1.34223 1.65
    endloop
  endfacet
  facet normal 0 0 -1
    outer loop
      vertex -3.22789 0.686108 1.65
      vertex -3.224 0.685281 1.65
      vertex -3.22434 0.681974 1.65
    endloop
  endfacet
  facet normal -0.951057 0.309016 0
    outer loop
      vertex -3.22789 0.686108 1.65
      vertex -3.22789 0.686108 12.1
      vertex -3.0147 1.34223 12.1
    endloop
  endfacet
  facet normal -0.924846 -0.0972053 -0.36771
    outer loop
      vertex -3.29602 0 1.65
      vertex -2.64 0 5.44009e-16
      vertex -3.22434 -0.681974 1.65
    endloop
  endfacet
  facet normal -0.924846 0.0972053 -0.36771
    outer loop
      vertex -3.29602 0 1.65
      vertex -3.22434 0.681974 1.65
      vertex -2.64 0 5.44009e-16
    endloop
  endfacet
  facet normal 0 0 -1
    outer loop
      vertex -3.3 0 1.65
      vertex -3.22434 -0.681974 1.65
      vertex -3.22789 -0.686108 1.65
    endloop
  endfacet
  facet normal 0 0 -1
    outer loop
      vertex -3.3 0 1.65
      vertex -3.22434 0.681974 1.65
      vertex -3.29602 0 1.65
    endloop
  endfacet
  facet normal -0.994522 -0.104529 0
    outer loop
      vertex -3.3 0 1.65
      vertex -3.22789 -0.686108 1.65
      vertex -3.3 0 12.1
    endloop
  endfacet
  facet normal -0 0 -1
    outer loop
      vertex -3.3 0 1.65
      vertex -3.22789 0.686108 1.65
      vertex -3.22434 0.681974 1.65
    endloop
  endfacet
  facet normal -0.994522 0.104529 0
    outer loop
      vertex -3.3 0 1.65
      vertex -3.22789 0.686108 12.1
      vertex -3.22789 0.686108 1.65
    endloop
  endfacet
  facet normal 0 0 -1
    outer loop
      vertex -3.3 0 1.65
      vertex -3.29602 0 1.65
      vertex -3.22434 -0.681974 1.65
    endloop
  endfacet
  facet normal -0.994522 0.104529 0
    outer loop
      vertex -3.3 0 1.65
      vertex -3.3 0 12.1
      vertex -3.22789 0.686108 12.1
    endloop
  endfacet
  facet normal -0.994522 -0.104529 0
    outer loop
      vertex -3.3 0 12.1
      vertex -3.22789 -0.686108 1.65
      vertex -3.22789 -0.686108 12.1
    endloop
  endfacet
  facet normal 0 -1 -0
    outer loop
      vertex -3.36667 -2.45 -2
      vertex -0.952339 -2.45 5.44009e-16
      vertex -0.952339 -2.45 1.08802e-15
    endloop
  endfacet
  facet normal 0 -1 -0
    outer loop
      vertex -3.36667 -2.45 -2
      vertex 0.952339 -2.45 5.44009e-16
      vertex -0.952339 -2.45 5.44009e-16
    endloop
  endfacet
  facet normal 0 -1 0
    outer loop
      vertex -3.36667 -2.45 -2
      vertex 3.36667 -2.45 -2
      vertex 0.952339 -2.45 5.44009e-16
    endloop
  endfacet
  facet normal 0 -1.81077e-07 -1
    outer loop
      vertex -3.36667 -2.45 -2
      vertex 6 0.183334 -2
      vertex 3.36667 -2.45 -2
    endloop
  endfacet
  facet normal -0.614053 -0.354523 -0.705161
    outer loop
      vertex -3.47147 -1.5456 12.6
      vertex -3.0147 -1.34223 12.1
      vertex -3.07426 -2.23358 12.6
    endloop
  endfacet
  facet normal -0.866026 -0.499999 0
    outer loop
      vertex -3.47147 -1.5456 12.6
      vertex -3.07426 -2.23358 12.6
      vertex -3.47147 -1.5456 13.1
    endloop
  endfacet
  facet normal -0.866026 -0.499999 0
    outer loop
      vertex -3.47147 -1.5456 13.1
      vertex -3.07426 -2.23358 12.6
      vertex -3.07426 -2.23358 13.1
    endloop
  endfacet
  facet normal -0.614052 -0.354523 0.705162
    outer loop
      vertex -3.47147 -1.5456 13.1
      vertex -3.07426 -2.23358 13.1
      vertex -2.55793 -1.13886 14.1
    endloop
  endfacet
  facet normal -0.614053 0.354523 -0.705161
    outer loop
      vertex -3.47147 1.5456 12.6
      vertex -3.07426 2.23358 12.6
      vertex -3.0147 1.34223 12.1
    endloop
  endfacet
  facet normal -0.866026 0.499999 0
    outer loop
      vertex -3.47147 1.5456 12.6
      vertex -3.07426 2.23358 13.1
      vertex -3.07426 2.23358 12.6
    endloop
  endfacet
  facet normal -0.866026 0.499999 0
    outer loop
      vertex -3.47147 1.5456 12.6
      vertex -3.47147 1.5456 13.1
      vertex -3.07426 2.23358 13.1
    endloop
  endfacet
  facet normal -0.614052 0.354523 0.705162
    outer loop
      vertex -3.47147 1.5456 13.1
      vertex -2.55793 1.13886 14.1
      vertex -3.07426 2.23358 13.1
    endloop
  endfacet
  facet normal -0.674344 -0.219107 -0.705161
    outer loop
      vertex -3.71696 -0.790064 12.6
      vertex -3.0147 -1.34223 12.1
      vertex -3.47147 -1.5456 12.6
    endloop
  endfacet
  facet normal -0.674343 -0.219106 -0.705162
    outer loop
      vertex -3.71696 -0.790064 12.6
      vertex -3.22789 -0.686108 12.1
      vertex -3.0147 -1.34223 12.1
    endloop
  endfacet
  facet normal -0.705162 -0.0741157 -0.705162
    outer loop
      vertex -3.71696 -0.790064 12.6
      vertex -3.3 0 12.1
      vertex -3.22789 -0.686108 12.1
    endloop
  endfacet
  facet normal -0.951057 -0.309017 0
    outer loop
      vertex -3.71696 -0.790064 12.6
      vertex -3.47147 -1.5456 12.6
      vertex -3.71696 -0.790064 13.1
    endloop
  endfacet
  facet normal -0.674343 -0.219107 0.705162
    outer loop
      vertex -3.71696 -0.790064 13.1
      vertex -2.55793 -1.13886 14.1
      vertex -2.73881 -0.582152 14.1
    endloop
  endfacet
  facet normal -0.951057 -0.309017 0
    outer loop
      vertex -3.71696 -0.790064 13.1
      vertex -3.47147 -1.5456 12.6
      vertex -3.47147 -1.5456 13.1
    endloop
  endfacet
  facet normal -0.674343 -0.219107 0.705162
    outer loop
      vertex -3.71696 -0.790064 13.1
      vertex -3.47147 -1.5456 13.1
      vertex -2.55793 -1.13886 14.1
    endloop
  endfacet
  facet normal -0.674343 0.219106 -0.705162
    outer loop
      vertex -3.71696 0.790064 12.6
      vertex -3.0147 1.34223 12.1
      vertex -3.22789 0.686108 12.1
    endloop
  endfacet
  facet normal -0.705162 0.0741157 -0.705162
    outer loop
      vertex -3.71696 0.790064 12.6
      vertex -3.22789 0.686108 12.1
      vertex -3.3 0 12.1
    endloop
  endfacet
  facet normal -0.674344 0.219107 -0.705161
    outer loop
      vertex -3.71696 0.790064 12.6
      vertex -3.47147 1.5456 12.6
      vertex -3.0147 1.34223 12.1
    endloop
  endfacet
  facet normal -0.951057 0.309017 0
    outer loop
      vertex -3.71696 0.790064 12.6
      vertex -3.47147 1.5456 13.1
      vertex -3.47147 1.5456 12.6
    endloop
  endfacet
  facet normal -0.951057 0.309017 0
    outer loop
      vertex -3.71696 0.790064 12.6
      vertex -3.71696 0.790064 13.1
      vertex -3.47147 1.5456 13.1
    endloop
  endfacet
  facet normal -0.674343 0.219107 0.705162
    outer loop
      vertex -3.71696 0.790064 13.1
      vertex -2.55793 1.13886 14.1
      vertex -3.47147 1.5456 13.1
    endloop
  endfacet
  facet normal -0.674343 0.219107 0.705162
    outer loop
      vertex -3.71696 0.790064 13.1
      vertex -2.73881 0.582152 14.1
      vertex -2.55793 1.13886 14.1
    endloop
  endfacet
  facet normal -0.705162 -0.0741157 -0.705162
    outer loop
      vertex -3.8 0 12.6
      vertex -3.3 0 12.1
      vertex -3.71696 -0.790064 12.6
    endloop
  endfacet
  facet normal -0.994522 -0.104529 0
    outer loop
      vertex -3.8 0 12.6
      vertex -3.71696 -0.790064 12.6
      vertex -3.8 0 13.1
    endloop
  endfacet
  facet normal -0.705162 0.0741157 -0.705162
    outer loop
      vertex -3.8 0 12.6
      vertex -3.71696 0.790064 12.6
      vertex -3.3 0 12.1
    endloop
  endfacet
  facet normal -0.994522 0.104529 0
    outer loop
      vertex -3.8 0 12.6
      vertex -3.71696 0.790064 13.1
      vertex -3.71696 0.790064 12.6
    endloop
  endfacet
  facet normal -0.994522 0.104529 0
    outer loop
      vertex -3.8 0 12.6
      vertex -3.8 0 13.1
      vertex -3.71696 0.790064 13.1
    endloop
  endfacet
  facet normal -0.705162 -0.0741156 0.705162
    outer loop
      vertex -3.8 0 13.1
      vertex -2.73881 -0.582152 14.1
      vertex -2.8 0 14.1
    endloop
  endfacet
  facet normal -0.705162 0.0741157 0.705162
    outer loop
      vertex -3.8 0 13.1
      vertex -2.73881 0.582152 14.1
      vertex -3.71696 0.790064 13.1
    endloop
  endfacet
  facet normal -0.705162 0.0741156 0.705162
    outer loop
      vertex -3.8 0 13.1
      vertex -2.8 0 14.1
      vertex -2.73881 0.582152 14.1
    endloop
  endfacet
  facet normal -0.994522 -0.104529 0
    outer loop
      vertex -3.8 0 13.1
      vertex -3.71696 -0.790064 12.6
      vertex -3.71696 -0.790064 13.1
    endloop
  endfacet
  facet normal -0.705162 -0.0741157 0.705162
    outer loop
      vertex -3.8 0 13.1
      vertex -3.71696 -0.790064 13.1
      vertex -2.73881 -0.582152 14.1
    endloop
  endfacet
  facet normal 0 -1 0
    outer loop
      vertex -5.38703 -2.45 -2
      vertex -5.2944 -2.45 -2
      vertex -5.38703 -2.45 1.08802e-15
    endloop
  endfacet
  facet normal 0 2.22045e-16 1
    outer loop
      vertex -5.38703 -2.45 1.08802e-15
      vertex -0.952339 -2.45 1.08802e-15
      vertex -1.32 -2.28631 1.05167e-15
    endloop
  endfacet
  facet normal 1.23335e-23 2.22045e-16 1
    outer loop
      vertex -5.38703 -2.45 1.08802e-15
      vertex -1.32 -2.28631 1.05167e-15
      vertex -1.7665 -1.9619 9.79639e-16
    endloop
  endfacet
  facet normal 1.30393e-23 2.22045e-16 1
    outer loop
      vertex -5.38703 -2.45 1.08802e-15
      vertex -1.7665 -1.9619 9.79639e-16
      vertex -2.1358 -1.55175 8.88568e-16
    endloop
  endfacet
  facet normal 4.04339e-23 2.22045e-16 1
    outer loop
      vertex -5.38703 -2.45 1.08802e-15
      vertex -2.1358 -1.55175 8.88568e-16
      vertex -2.41176 -1.07378 7.82437e-16
    endloop
  endfacet
  facet normal 0 -1 0
    outer loop
      vertex -5.38703 -2.45 1.08802e-15
      vertex -3.36667 -2.45 -2
      vertex -0.952339 -2.45 1.08802e-15
    endloop
  endfacet
  facet normal 0 -1 0
    outer loop
      vertex -5.38703 -2.45 1.08802e-15
      vertex -3.58699 -2.45 -2
      vertex -3.36667 -2.45 -2
    endloop
  endfacet
  facet normal 0 -1 0
    outer loop
      vertex -5.38703 -2.45 1.08802e-15
      vertex -3.79037 -2.45 -2
      vertex -3.58699 -2.45 -2
    endloop
  endfacet
  facet normal 0 -1 0
    outer loop
      vertex -5.38703 -2.45 1.08802e-15
      vertex -3.97937 -2.45 -2
      vertex -3.79037 -2.45 -2
    endloop
  endfacet
  facet normal 0 -1 0
    outer loop
      vertex -5.38703 -2.45 1.08802e-15
      vertex -4.15612 -2.45 -2
      vertex -3.97937 -2.45 -2
    endloop
  endfacet
  facet normal 0 -1 0
    outer loop
      vertex -5.38703 -2.45 1.08802e-15
      vertex -4.32238 -2.45 -2
      vertex -4.15612 -2.45 -2
    endloop
  endfacet
  facet normal 0 -1 0
    outer loop
      vertex -5.38703 -2.45 1.08802e-15
      vertex -4.47964 -2.45 -2
      vertex -4.32238 -2.45 -2
    endloop
  endfacet
  facet normal 0 -1 0
    outer loop
      vertex -5.38703 -2.45 1.08802e-15
      vertex -4.62917 -2.45 -2
      vertex -4.47964 -2.45 -2
    endloop
  endfacet
  facet normal 0 -1 0
    outer loop
      vertex -5.38703 -2.45 1.08802e-15
      vertex -4.77206 -2.45 -2
      vertex -4.62917 -2.45 -2
    endloop
  endfacet
  facet normal 0 -1 0
    outer loop
      vertex -5.38703 -2.45 1.08802e-15
      vertex -4.90924 -2.45 -2
      vertex -4.77206 -2.45 -2
    endloop
  endfacet
  facet normal 0 -1 0
    outer loop
      vertex -5.38703 -2.45 1.08802e-15
      vertex -5.04154 -2.45 -2
      vertex -4.90924 -2.45 -2
    endloop
  endfacet
  facet normal 0 -1 0
    outer loop
      vertex -5.38703 -2.45 1.08802e-15
      vertex -5.16971 -2.45 -2
      vertex -5.04154 -2.45 -2
    endloop
  endfacet
  facet normal 0 -1 0
    outer loop
      vertex -5.38703 -2.45 1.08802e-15
      vertex -5.2944 -2.45 -2
      vertex -5.16971 -2.45 -2
    endloop
  endfacet
  facet normal -1.28699e-06 -6.69965e-07 -1
    outer loop
      vertex -5.43785 -2.35238 -2
      vertex -5.2944 -2.45 -2
      vertex -5.38703 -2.45 -2
    endloop
  endfacet
  facet normal -0.88701 -0.46175 0
    outer loop
      vertex -5.43785 -2.35238 -2
      vertex -5.38703 -2.45 -2
      vertex -5.43785 -2.35238 1.06634e-15
    endloop
  endfacet
  facet normal 0 2.22045e-16 1
    outer loop
      vertex -5.43785 -2.35238 1.06634e-15
      vertex -2.41176 -1.07378 7.82437e-16
      vertex -2.58231 -0.548886 6.65887e-16
    endloop
  endfacet
  facet normal -0.88701 -0.46175 0
    outer loop
      vertex -5.43785 -2.35238 1.06634e-15
      vertex -5.38703 -2.45 -2
      vertex -5.38703 -2.45 1.08802e-15
    endloop
  endfacet
  facet normal 0 2.22045e-16 1
    outer loop
      vertex -5.43785 -2.35238 1.06634e-15
      vertex -5.38703 -2.45 1.08802e-15
      vertex -2.41176 -1.07378 7.82437e-16
    endloop
  endfacet
  facet normal 0 1 0
    outer loop
      vertex -5.54929 2.45 -2
      vertex -5.54929 2.45 0
      vertex 5.54929 2.45 -2
    endloop
  endfacet
  facet normal 0 0 -1
    outer loop
      vertex -5.54929 2.45 -2
      vertex 5.54929 2.45 -2
      vertex 6 0.183334 -2
    endloop
  endfacet
  facet normal -0 2.22045e-16 1
    outer loop
      vertex -5.54929 2.45 0
      vertex -2.64 0 5.44009e-16
      vertex 5.54929 2.45 0
    endloop
  endfacet
  facet normal 0 1 -0
    outer loop
      vertex -5.54929 2.45 0
      vertex 5.54929 2.45 0
      vertex 5.54929 2.45 -2
    endloop
  endfacet
  facet normal -0.92388 -0.382683 0
    outer loop
      vertex -5.63815 -1.86879 -2
      vertex -5.43785 -2.35238 -2
      vertex -5.63815 -1.86879 9.58963e-16
    endloop
  endfacet
  facet normal -0.92388 -0.382683 0
    outer loop
      vertex -5.63815 -1.86879 9.58963e-16
      vertex -5.43785 -2.35238 -2
      vertex -5.43785 -2.35238 1.06634e-15
    endloop
  endfacet
  facet normal 0 2.22045e-16 1
    outer loop
      vertex -5.63815 -1.86879 9.58963e-16
      vertex -5.43785 -2.35238 1.06634e-15
      vertex -2.58231 -0.548886 6.65887e-16
    endloop
  endfacet
  facet normal -0.923879 0.382684 0
    outer loop
      vertex -5.63815 2.23545 -2
      vertex -5.54929 2.45 0
      vertex -5.54929 2.45 -2
    endloop
  endfacet
  facet normal -0.923879 0.382684 0
    outer loop
      vertex -5.63815 2.23545 -2
      vertex -5.63815 2.23545 4.76386e-17
      vertex -5.54929 2.45 0
    endloop
  endfacet
  facet normal 0 2.22045e-16 1
    outer loop
      vertex -5.63815 2.23545 4.76386e-17
      vertex -2.64 0 5.44009e-16
      vertex -5.54929 2.45 0
    endloop
  endfacet
  facet normal -0.953717 -0.300706 0
    outer loop
      vertex -5.79555 -1.36958 -2
      vertex -5.63815 -1.86879 -2
      vertex -5.79555 -1.36958 8.48117e-16
    endloop
  endfacet
  facet normal -0.953717 -0.300706 0
    outer loop
      vertex -5.79555 -1.36958 8.48117e-16
      vertex -5.63815 -1.86879 -2
      vertex -5.63815 -1.86879 9.58963e-16
    endloop
  endfacet
  facet normal 0 2.22045e-16 1
    outer loop
      vertex -5.79555 -1.36958 8.48117e-16
      vertex -5.63815 -1.86879 9.58963e-16
      vertex -2.58231 -0.548886 6.65887e-16
    endloop
  endfacet
  facet normal 0 0 -1
    outer loop
      vertex -5.79555 1.73625 -2
      vertex -5.54929 2.45 -2
      vertex 6 0.183334 -2
    endloop
  endfacet
  facet normal 0 0 -1
    outer loop
      vertex -5.79555 1.73625 -2
      vertex -5.63815 2.23545 -2
      vertex -5.54929 2.45 -2
    endloop
  endfacet
  facet normal -0.953717 0.300706 0
    outer loop
      vertex -5.79555 1.73625 -2
      vertex -5.63815 2.23545 4.76386e-17
      vertex -5.63815 2.23545 -2
    endloop
  endfacet
  facet normal -0.953717 0.300706 0
    outer loop
      vertex -5.79555 1.73625 -2
      vertex -5.79555 1.73625 1.58485e-16
      vertex -5.63815 2.23545 4.76386e-17
    endloop
  endfacet
  facet normal 0 2.22045e-16 1
    outer loop
      vertex -5.79555 1.73625 1.58485e-16
      vertex -2.64 0 5.44009e-16
      vertex -5.63815 2.23545 4.76386e-17
    endloop
  endfacet
  facet normal -0.976296 -0.21644 0
    outer loop
      vertex -5.90885 -0.858556 -2
      vertex -5.79555 -1.36958 -2
      vertex -5.90885 -0.858556 7.34647e-16
    endloop
  endfacet
  facet normal -3.94003e-24 2.22045e-16 1
    outer loop
      vertex -5.90885 -0.858556 7.34647e-16
      vertex -2.58231 -0.548886 6.65887e-16
      vertex -2.64 0 5.44009e-16
    endloop
  endfacet
  facet normal -0.976296 -0.21644 0
    outer loop
      vertex -5.90885 -0.858556 7.34647e-16
      vertex -5.79555 -1.36958 -2
      vertex -5.79555 -1.36958 8.48117e-16
    endloop
  endfacet
  facet normal -6.26031e-24 2.22045e-16 1
    outer loop
      vertex -5.90885 -0.858556 7.34647e-16
      vertex -5.79555 -1.36958 8.48117e-16
      vertex -2.58231 -0.548886 6.65887e-16
    endloop
  endfacet
  facet normal 0 0 -1
    outer loop
      vertex -5.90885 1.22522 -2
      vertex -5.79555 1.73625 -2
      vertex 6 0.183334 -2
    endloop
  endfacet
  facet normal -0.976296 0.21644 0
    outer loop
      vertex -5.90885 1.22522 -2
      vertex -5.79555 1.73625 1.58485e-16
      vertex -5.79555 1.73625 -2
    endloop
  endfacet
  facet normal -0.976296 0.21644 0
    outer loop
      vertex -5.90885 1.22522 -2
      vertex -5.90885 1.22522 2.71955e-16
      vertex -5.79555 1.73625 1.58485e-16
    endloop
  endfacet
  facet normal 0 2.22045e-16 1
    outer loop
      vertex -5.90885 1.22522 2.71955e-16
      vertex -2.64 0 5.44009e-16
      vertex -5.79555 1.73625 1.58485e-16
    endloop
  endfacet
  facet normal -0.991445 -0.130527 0
    outer loop
      vertex -5.97717 -0.3396 -2
      vertex -5.90885 -0.858556 -2
      vertex -5.97717 -0.3396 6.19416e-16
    endloop
  endfacet
  facet normal -0.991445 -0.130527 0
    outer loop
      vertex -5.97717 -0.3396 6.19416e-16
      vertex -5.90885 -0.858556 -2
      vertex -5.90885 -0.858556 7.34647e-16
    endloop
  endfacet
  facet normal -3.91347e-24 2.22045e-16 1
    outer loop
      vertex -5.97717 -0.3396 6.19416e-16
      vertex -5.90885 -0.858556 7.34647e-16
      vertex -2.64 0 5.44009e-16
    endloop
  endfacet
  facet normal 0 0 -1
    outer loop
      vertex -5.97717 0.706268 -2
      vertex -5.90885 1.22522 -2
      vertex 6 0.183334 -2
    endloop
  endfacet
  facet normal -0.991445 0.130527 0
    outer loop
      vertex -5.97717 0.706268 -2
      vertex -5.90885 1.22522 2.71955e-16
      vertex -5.90885 1.22522 -2
    endloop
  endfacet
  facet normal -0.991445 0.130527 0
    outer loop
      vertex -5.97717 0.706268 -2
      vertex -5.97717 0.706268 3.87186e-16
      vertex -5.90885 1.22522 2.71955e-16
    endloop
  endfacet
  facet normal -9.10947e-24 2.22045e-16 1
    outer loop
      vertex -5.97717 0.706268 3.87186e-16
      vertex -2.64 0 5.44009e-16
      vertex -5.90885 1.22522 2.71955e-16
    endloop
  endfacet
  facet normal 0 -1.81077e-07 -1
    outer loop
      vertex -6 0.183334 -2
      vertex -3.36667 -2.45 -2
      vertex -3.58699 -2.45 -2
    endloop
  endfacet
  facet normal 0 -1.81077e-07 -1
    outer loop
      vertex -6 0.183334 -2
      vertex -3.58699 -2.45 -2
      vertex -3.79037 -2.45 -2
    endloop
  endfacet
  facet normal 0 -1.81077e-07 -1
    outer loop
      vertex -6 0.183334 -2
      vertex -3.79037 -2.45 -2
      vertex -3.97937 -2.45 -2
    endloop
  endfacet
  facet normal 0 -1.81077e-07 -1
    outer loop
      vertex -6 0.183334 -2
      vertex -3.97937 -2.45 -2
      vertex -4.15612 -2.45 -2
    endloop
  endfacet
  facet normal 0 -1.81077e-07 -1
    outer loop
      vertex -6 0.183334 -2
      vertex -4.15612 -2.45 -2
      vertex -4.32238 -2.45 -2
    endloop
  endfacet
  facet normal 0 -1.81077e-07 -1
    outer loop
      vertex -6 0.183334 -2
      vertex -4.32238 -2.45 -2
      vertex -4.47964 -2.45 -2
    endloop
  endfacet
  facet normal 0 -1.81077e-07 -1
    outer loop
      vertex -6 0.183334 -2
      vertex -4.47964 -2.45 -2
      vertex -4.62917 -2.45 -2
    endloop
  endfacet
  facet normal -8.34312e-07 -6.15393e-07 -1
    outer loop
      vertex -6 0.183334 -2
      vertex -4.62917 -2.45 -2
      vertex -4.77206 -2.45 -2
    endloop
  endfacet
  facet normal 0 -2.26347e-07 -1
    outer loop
      vertex -6 0.183334 -2
      vertex -4.77206 -2.45 -2
      vertex -4.90924 -2.45 -2
    endloop
  endfacet
  facet normal 0 -2.26347e-07 -1
    outer loop
      vertex -6 0.183334 -2
      vertex -4.90924 -2.45 -2
      vertex -5.04154 -2.45 -2
    endloop
  endfacet
  facet normal -9.30098e-07 -5.64875e-07 -1
    outer loop
      vertex -6 0.183334 -2
      vertex -5.04154 -2.45 -2
      vertex -5.16971 -2.45 -2
    endloop
  endfacet
  facet normal -9.5607e-07 -5.73064e-07 -1
    outer loop
      vertex -6 0.183334 -2
      vertex -5.16971 -2.45 -2
      vertex -5.2944 -2.45 -2
    endloop
  endfacet
  facet normal -1.28014e-06 -6.59897e-07 -1
    outer loop
      vertex -6 0.183334 -2
      vertex -5.2944 -2.45 -2
      vertex -5.43785 -2.35238 -2
    endloop
  endfacet
  facet normal -1.95357e-06 -8.09195e-07 -1
    outer loop
      vertex -6 0.183334 -2
      vertex -5.43785 -2.35238 -2
      vertex -5.63815 -1.86879 -2
    endloop
  endfacet
  facet normal -3.34405e-06 -1.05437e-06 -1
    outer loop
      vertex -6 0.183334 -2
      vertex -5.63815 -1.86879 -2
      vertex -5.79555 -1.36958 -2
    endloop
  endfacet
  facet normal -6.82034e-06 -1.51204e-06 -1
    outer loop
      vertex -6 0.183334 -2
      vertex -5.79555 -1.36958 -2
      vertex -5.90885 -0.858556 -2
    endloop
  endfacet
  facet normal -2.07257e-05 -2.72861e-06 -1
    outer loop
      vertex -6 0.183334 -2
      vertex -5.90885 -0.858556 -2
      vertex -5.97717 -0.3396 -2
    endloop
  endfacet
  facet normal -0.999048 -0.0436196 0
    outer loop
      vertex -6 0.183334 -2
      vertex -5.97717 -0.3396 -2
      vertex -6 0.183334 5.03301e-16
    endloop
  endfacet
  facet normal 0 -0 -1
    outer loop
      vertex -6 0.183334 -2
      vertex -5.97717 0.706268 -2
      vertex 6 0.183334 -2
    endloop
  endfacet
  facet normal -0.999048 0.0436196 0
    outer loop
      vertex -6 0.183334 -2
      vertex -5.97717 0.706268 3.87186e-16
      vertex -5.97717 0.706268 -2
    endloop
  endfacet
  facet normal -0.999048 0.0436196 0
    outer loop
      vertex -6 0.183334 -2
      vertex -6 0.183334 5.03301e-16
      vertex -5.97717 0.706268 3.87186e-16
    endloop
  endfacet
  facet normal -0 -1.81077e-07 -1
    outer loop
      vertex -6 0.183334 -2
      vertex 6 0.183334 -2
      vertex -3.36667 -2.45 -2
    endloop
  endfacet
  facet normal -2.60278e-24 2.22045e-16 1
    outer loop
      vertex -6 0.183334 5.03301e-16
      vertex -2.64 0 5.44009e-16
      vertex -5.97717 0.706268 3.87186e-16
    endloop
  endfacet
  facet normal -0.999048 -0.0436196 0
    outer loop
      vertex -6 0.183334 5.03301e-16
      vertex -5.97717 -0.3396 -2
      vertex -5.97717 -0.3396 6.19416e-16
    endloop
  endfacet
  facet normal -3.30733e-24 2.22045e-16 1
    outer loop
      vertex -6 0.183334 5.03301e-16
      vertex -5.97717 -0.3396 6.19416e-16
      vertex -2.64 0 5.44009e-16
    endloop
  endfacet
  facet normal -0.156434 0 0.987688
    outer loop
      vertex 0 -2.45 2.82
      vertex 0.463525 -2.45 2.89341
      vertex 0 2.45 2.82
    endloop
  endfacet
  facet normal -0 -1 0
    outer loop
      vertex 0 -2.45 2.82
      vertex 0.952339 -2.45 5.44009e-16
      vertex 1.41451 -2.45 0.475406
    endloop
  endfacet
  facet normal 0 -1 0
    outer loop
      vertex 0 -2.45 2.82
      vertex 1.41451 -2.45 0.475406
      vertex 0.463525 -2.45 2.89341
    endloop
  endfacet
  facet normal -0.156434 0 0.987688
    outer loop
      vertex 0 2.45 2.82
      vertex 0.463525 -2.45 2.89341
      vertex 0.463525 2.45 2.89341
    endloop
  endfacet
  facet normal 0 1 0
    outer loop
      vertex 0 2.45 2.82
      vertex 0.463525 2.45 2.89341
      vertex 1.41451 2.45 0.475406
    endloop
  endfacet
  facet normal 0 1 -0
    outer loop
      vertex 0 2.45 2.82
      vertex 1.41451 2.45 0.475406
      vertex 0.952339 2.45 5.44009e-16
    endloop
  endfacet
  facet normal -0.45399 0 0.891007
    outer loop
      vertex 0.463525 -2.45 2.89341
      vertex 0.881678 -2.45 3.10647
      vertex 0.463525 2.45 2.89341
    endloop
  endfacet
  facet normal 0 -1 0
    outer loop
      vertex 0.463525 -2.45 2.89341
      vertex 1.41451 -2.45 0.475406
      vertex 2.19542 -2.45 1.63623
    endloop
  endfacet
  facet normal 0 -1 0
    outer loop
      vertex 0.463525 -2.45 2.89341
      vertex 2.19542 -2.45 1.63623
      vertex 0.881678 -2.45 3.10647
    endloop
  endfacet
  facet normal -0.45399 0 0.891007
    outer loop
      vertex 0.463525 2.45 2.89341
      vertex 0.881678 -2.45 3.10647
      vertex 0.881678 2.45 3.10647
    endloop
  endfacet
  facet normal 0 1 0
    outer loop
      vertex 0.463525 2.45 2.89341
      vertex 0.881678 2.45 3.10647
      vertex 2.19542 2.45 1.63623
    endloop
  endfacet
  facet normal 0 1 -0
    outer loop
      vertex 0.463525 2.45 2.89341
      vertex 2.19542 2.45 1.63623
      vertex 1.41451 2.45 0.475406
    endloop
  endfacet
  facet normal -0.707108 0 0.707106
    outer loop
      vertex 0.881678 -2.45 3.10647
      vertex 1.21352 -2.45 3.43832
      vertex 1.21352 2.45 3.43832
    endloop
  endfacet
  facet normal -0.707108 0 0.707106
    outer loop
      vertex 0.881678 -2.45 3.10647
      vertex 1.21352 2.45 3.43832
      vertex 0.881678 2.45 3.10647
    endloop
  endfacet
  facet normal 0 -1 0
    outer loop
      vertex 0.881678 -2.45 3.10647
      vertex 2.19542 -2.45 1.63623
      vertex 2.20468 -2.45 1.65
    endloop
  endfacet
  facet normal 0 -1 0
    outer loop
      vertex 0.881678 -2.45 3.10647
      vertex 2.20468 -2.45 1.65
      vertex 1.21352 -2.45 3.43832
    endloop
  endfacet
  facet normal 0 1 0
    outer loop
      vertex 0.881678 2.45 3.10647
      vertex 1.21352 2.45 3.43832
      vertex 2.20468 2.45 1.65
    endloop
  endfacet
  facet normal 0 1 -0
    outer loop
      vertex 0.881678 2.45 3.10647
      vertex 2.20468 2.45 1.65
      vertex 2.19542 2.45 1.63623
    endloop
  endfacet
  facet normal 0.378241 -0.849543 -0.36771
    outer loop
      vertex 0.952339 -2.45 1.08802e-15
      vertex 1.32 -2.28631 1.05167e-15
      vertex 1.41451 -2.45 0.475406
    endloop
  endfacet
  facet normal 0 -1 0
    outer loop
      vertex 0.952339 -2.45 1.08802e-15
      vertex 3.36667 -2.45 -2
      vertex 5.38703 -2.45 1.08802e-15
    endloop
  endfacet
  facet normal 0 2.22045e-16 1
    outer loop
      vertex 0.952339 -2.45 1.08802e-15
      vertex 5.38703 -2.45 1.08802e-15
      vertex 1.32 -2.28631 1.05167e-15
    endloop
  endfacet
  facet normal 0.446875 -0.78203 -0.434432
    outer loop
      vertex 0.952339 -2.45 5.44009e-16
      vertex 0.952339 -2.45 1.08802e-15
      vertex 1.41451 -2.45 0.475406
    endloop
  endfacet
  facet normal 0 -1 0
    outer loop
      vertex 0.952339 -2.45 5.44009e-16
      vertex 3.36667 -2.45 -2
      vertex 0.952339 -2.45 1.08802e-15
    endloop
  endfacet
  facet normal 0 0 -1
    outer loop
      vertex 0.952339 2.45 5.44009e-16
      vertex 1.32 2.28631 5.44009e-16
      vertex 1.7665 1.9619 5.44009e-16
    endloop
  endfacet
  facet normal 0.378241 0.849543 -0.36771
    outer loop
      vertex 0.952339 2.45 5.44009e-16
      vertex 1.41451 2.45 0.475406
      vertex 1.32 2.28631 5.44009e-16
    endloop
  endfacet
  facet normal 0 0 -1
    outer loop
      vertex 0.952339 2.45 5.44009e-16
      vertex 1.7665 1.9619 5.44009e-16
      vertex 2.64 0 5.44009e-16
    endloop
  endfacet
  facet normal -0.891006 0 0.453991
    outer loop
      vertex 1.21352 -2.45 3.43832
      vertex 1.42658 -2.45 3.85647
      vertex 1.42658 2.45 3.85647
    endloop
  endfacet
  facet normal -0.891006 0 0.453991
    outer loop
      vertex 1.21352 -2.45 3.43832
      vertex 1.42658 2.45 3.85647
      vertex 1.21352 2.45 3.43832
    endloop
  endfacet
  facet normal 0 -1 0
    outer loop
      vertex 1.21352 -2.45 3.43832
      vertex 2.20468 -2.45 1.65
      vertex 2.21027 -2.45 1.65
    endloop
  endfacet
  facet normal 0 -1 0
    outer loop
      vertex 1.21352 -2.45 3.43832
      vertex 2.21027 -2.45 1.65
      vertex 1.42658 -2.45 3.85647
    endloop
  endfacet
  facet normal 0 1 0
    outer loop
      vertex 1.21352 2.45 3.43832
      vertex 1.42658 2.45 3.85647
      vertex 2.21027 2.45 1.65
    endloop
  endfacet
  facet normal 0 1 -0
    outer loop
      vertex 1.21352 2.45 3.43832
      vertex 2.21027 2.45 1.65
      vertex 2.20468 2.45 1.65
    endloop
  endfacet
  facet normal 0.546605 -0.752338 -0.36771
    outer loop
      vertex 1.32 -2.28631 1.05167e-15
      vertex 1.7665 -1.9619 9.79639e-16
      vertex 2.19542 -2.45 1.63623
    endloop
  endfacet
  facet normal 0.546605 -0.752338 -0.36771
    outer loop
      vertex 1.32 -2.28631 1.05167e-15
      vertex 2.19542 -2.45 1.63623
      vertex 1.41451 -2.45 0.475406
    endloop
  endfacet
  facet normal -1.23335e-23 2.22045e-16 1
    outer loop
      vertex 1.32 -2.28631 1.05167e-15
      vertex 5.38703 -2.45 1.08802e-15
      vertex 1.7665 -1.9619 9.79639e-16
    endloop
  endfacet
  facet normal 0.546605 0.752338 -0.36771
    outer loop
      vertex 1.32 2.28631 5.44009e-16
      vertex 1.41451 2.45 0.475406
      vertex 2.19542 2.45 1.63623
    endloop
  endfacet
  facet normal 0.546605 0.752338 -0.36771
    outer loop
      vertex 1.32 2.28631 5.44009e-16
      vertex 2.19542 2.45 1.63623
      vertex 1.7665 1.9619 5.44009e-16
    endloop
  endfacet
  facet normal -0.987688 0 0.156435
    outer loop
      vertex 1.42658 -2.45 3.85647
      vertex 1.5 -2.45 4.32
      vertex 1.5 2.45 4.32
    endloop
  endfacet
  facet normal -0.987688 0 0.156435
    outer loop
      vertex 1.42658 -2.45 3.85647
      vertex 1.5 2.45 4.32
      vertex 1.42658 2.45 3.85647
    endloop
  endfacet
  facet normal 0 -1 0
    outer loop
      vertex 1.42658 -2.45 3.85647
      vertex 2.21027 -2.45 1.65
      vertex 1.5 -2.45 4.32
    endloop
  endfacet
  facet normal 0 1 0
    outer loop
      vertex 1.42658 2.45 3.85647
      vertex 1.5 2.45 4.32
      vertex 2.21027 2.45 1.65
    endloop
  endfacet
  facet normal 0 0 1
    outer loop
      vertex 1.5 -2.35222 14.1
      vertex 1.87357 -2.0808 14.1
      vertex 2.26525 -1.6458 14.1
    endloop
  endfacet
  facet normal 0.416767 -0.57363 0.705162
    outer loop
      vertex 1.5 -2.35222 14.1
      vertex 1.88163 -2.45 13.7949
      vertex 1.87357 -2.0808 14.1
    endloop
  endfacet
  facet normal 0 0 1
    outer loop
      vertex 1.5 -2.35222 14.1
      vertex 2.26525 -1.6458 14.1
      vertex 1.5 2.35222 14.1
    endloop
  endfacet
  facet normal -1 -0 0
    outer loop
      vertex 1.5 -2.45 14.0205
      vertex 1.5 -2.35222 14.1
      vertex 1.5 2.35222 14.1
    endloop
  endfacet
  facet normal -1 0 0
    outer loop
      vertex 1.5 -2.45 14.0205
      vertex 1.5 2.35222 14.1
      vertex 1.5 2.45 14.0205
    endloop
  endfacet
  facet normal -1 0 0
    outer loop
      vertex 1.5 -2.45 14.0205
      vertex 1.5 2.45 14.0205
      vertex 1.5 2.45 4.32
    endloop
  endfacet
  facet normal 0.416768 -0.573628 0.705163
    outer loop
      vertex 1.5 -2.45 14.0205
      vertex 1.88163 -2.45 13.7949
      vertex 1.5 -2.35222 14.1
    endloop
  endfacet
  facet normal 0 -1 0
    outer loop
      vertex 1.5 -2.45 14.0205
      vertex 2.21027 -2.45 12.1
      vertex 1.88163 -2.45 13.7949
    endloop
  endfacet
  facet normal -1 0 0
    outer loop
      vertex 1.5 -2.45 4.32
      vertex 1.5 -2.45 14.0205
      vertex 1.5 2.45 4.32
    endloop
  endfacet
  facet normal 0 -1 0
    outer loop
      vertex 1.5 -2.45 4.32
      vertex 2.21027 -2.45 1.65
      vertex 2.21027 -2.45 12.1
    endloop
  endfacet
  facet normal 0 -1 0
    outer loop
      vertex 1.5 -2.45 4.32
      vertex 2.21027 -2.45 12.1
      vertex 1.5 -2.45 14.0205
    endloop
  endfacet
  facet normal 0.416767 0.57363 0.705162
    outer loop
      vertex 1.5 2.35222 14.1
      vertex 1.87357 2.0808 14.1
      vertex 1.88163 2.45 13.7949
    endloop
  endfacet
  facet normal 0.416768 0.573628 0.705163
    outer loop
      vertex 1.5 2.35222 14.1
      vertex 1.88163 2.45 13.7949
      vertex 1.5 2.45 14.0205
    endloop
  endfacet
  facet normal 0 0 1
    outer loop
      vertex 1.5 2.35222 14.1
      vertex 2.26525 -1.6458 14.1
      vertex 2.26525 1.6458 14.1
    endloop
  endfacet
  facet normal 0 0 1
    outer loop
      vertex 1.5 2.35222 14.1
      vertex 2.26525 1.6458 14.1
      vertex 1.87357 2.0808 14.1
    endloop
  endfacet
  facet normal 0 1 0
    outer loop
      vertex 1.5 2.45 14.0205
      vertex 1.88163 2.45 13.7949
      vertex 2.21027 2.45 12.1
    endloop
  endfacet
  facet normal 0 1 0
    outer loop
      vertex 1.5 2.45 4.32
      vertex 1.5 2.45 14.0205
      vertex 2.21027 2.45 12.1
    endloop
  endfacet
  facet normal 0 1 -0
    outer loop
      vertex 1.5 2.45 4.32
      vertex 2.21027 2.45 12.1
      vertex 2.21027 2.45 1.65
    endloop
  endfacet
  facet normal 0.69108 -0.622252 -0.36771
    outer loop
      vertex 1.7665 -1.9619 9.79639e-16
      vertex 2.1358 -1.55175 8.88568e-16
      vertex 2.2077 -2.44695 1.65
    endloop
  endfacet
  facet normal 0.546611 -0.752333 -0.36771
    outer loop
      vertex 1.7665 -1.9619 9.79639e-16
      vertex 2.20547 -2.44942 1.65
      vertex 2.19542 -2.45 1.63623
    endloop
  endfacet
  facet normal 0.691077 -0.622256 -0.36771
    outer loop
      vertex 1.7665 -1.9619 9.79639e-16
      vertex 2.2077 -2.44695 1.65
      vertex 2.20547 -2.44942 1.65
    endloop
  endfacet
  facet normal -1.30393e-23 2.22045e-16 1
    outer loop
      vertex 1.7665 -1.9619 9.79639e-16
      vertex 5.38703 -2.45 1.08802e-15
      vertex 2.1358 -1.55175 8.88568e-16
    endloop
  endfacet
  facet normal 0 0 -1
    outer loop
      vertex 1.7665 1.9619 5.44009e-16
      vertex 2.1358 1.55175 5.44009e-16
      vertex 2.64 0 5.44009e-16
    endloop
  endfacet
  facet normal 0.546611 0.752333 -0.36771
    outer loop
      vertex 1.7665 1.9619 5.44009e-16
      vertex 2.19542 2.45 1.63623
      vertex 2.20547 2.44942 1.65
    endloop
  endfacet
  facet normal 0.691077 0.622256 -0.36771
    outer loop
      vertex 1.7665 1.9619 5.44009e-16
      vertex 2.20547 2.44942 1.65
      vertex 2.2077 2.44695 1.65
    endloop
  endfacet
  facet normal 0.69108 0.622252 -0.36771
    outer loop
      vertex 1.7665 1.9619 5.44009e-16
      vertex 2.2077 2.44695 1.65
      vertex 2.1358 1.55175 5.44009e-16
    endloop
  endfacet
  facet normal 0.416767 -0.57363 0.705162
    outer loop
      vertex 1.87357 -2.0808 14.1
      vertex 1.88163 -2.45 13.7949
      vertex 2.20599 -2.45 13.6032
    endloop
  endfacet
  facet normal 0.526924 -0.474445 0.705162
    outer loop
      vertex 1.87357 -2.0808 14.1
      vertex 2.20599 -2.45 13.6032
      vertex 2.26525 -1.6458 14.1
    endloop
  endfacet
  facet normal 0.416767 0.57363 0.705162
    outer loop
      vertex 1.87357 2.0808 14.1
      vertex 2.20599 2.45 13.6032
      vertex 1.88163 2.45 13.7949
    endloop
  endfacet
  facet normal 0.526924 0.474445 0.705162
    outer loop
      vertex 1.87357 2.0808 14.1
      vertex 2.26525 1.6458 14.1
      vertex 2.20599 2.45 13.6032
    endloop
  endfacet
  facet normal 0 -1 0
    outer loop
      vertex 1.88163 -2.45 13.7949
      vertex 2.21027 -2.45 12.1
      vertex 2.20599 -2.45 13.6032
    endloop
  endfacet
  facet normal 0 1 0
    outer loop
      vertex 1.88163 2.45 13.7949
      vertex 2.20599 2.45 13.6032
      vertex 2.21027 2.45 12.1
    endloop
  endfacet
  facet normal 0.805352 -0.46497 -0.36771
    outer loop
      vertex 2.1358 -1.55175 8.88568e-16
      vertex 2.41176 -1.07378 7.82437e-16
      vertex 3.01107 -1.34061 1.65
    endloop
  endfacet
  facet normal 0.691081 -0.622252 -0.36771
    outer loop
      vertex 2.1358 -1.55175 8.88568e-16
      vertex 2.66654 -1.93735 1.65
      vertex 2.2077 -2.44695 1.65
    endloop
  endfacet
  facet normal 0.805352 -0.464971 -0.36771
    outer loop
      vertex 2.1358 -1.55175 8.88568e-16
      vertex 3.00941 -1.34349 1.65
      vertex 2.66654 -1.93735 1.65
    endloop
  endfacet
  facet normal 0.805367 -0.464935 -0.367723
    outer loop
      vertex 2.1358 -1.55175 8.88568e-16
      vertex 3.01107 -1.34061 1.65
      vertex 3.00941 -1.34349 1.65
    endloop
  endfacet
  facet normal -4.04339e-23 2.22045e-16 1
    outer loop
      vertex 2.1358 -1.55175 8.88568e-16
      vertex 5.38703 -2.45 1.08802e-15
      vertex 2.41176 -1.07378 7.82437e-16
    endloop
  endfacet
  facet normal 0.691081 0.622252 -0.36771
    outer loop
      vertex 2.1358 1.55175 5.44009e-16
      vertex 2.2077 2.44695 1.65
      vertex 2.66654 1.93735 1.65
    endloop
  endfacet
  facet normal 0 0 -1
    outer loop
      vertex 2.1358 1.55175 5.44009e-16
      vertex 2.41176 1.07378 5.44009e-16
      vertex 2.64 0 5.44009e-16
    endloop
  endfacet
  facet normal 0.805352 0.464971 -0.36771
    outer loop
      vertex 2.1358 1.55175 5.44009e-16
      vertex 2.66654 1.93735 1.65
      vertex 3.00941 1.34349 1.65
    endloop
  endfacet
  facet normal 0.805367 0.464935 -0.367723
    outer loop
      vertex 2.1358 1.55175 5.44009e-16
      vertex 3.00941 1.34349 1.65
      vertex 3.01107 1.34061 1.65
    endloop
  endfacet
  facet normal 0.805352 0.46497 -0.36771
    outer loop
      vertex 2.1358 1.55175 5.44009e-16
      vertex 3.01107 1.34061 1.65
      vertex 2.41176 1.07378 5.44009e-16
    endloop
  endfacet
  facet normal 0.546626 -0.752317 -0.367722
    outer loop
      vertex 2.19542 -2.45 1.63623
      vertex 2.20547 -2.44942 1.65
      vertex 2.20468 -2.45 1.65
    endloop
  endfacet
  facet normal 0.546626 0.752317 -0.367722
    outer loop
      vertex 2.19542 2.45 1.63623
      vertex 2.20468 2.45 1.65
      vertex 2.20547 2.44942 1.65
    endloop
  endfacet
  facet normal 0 -0 -1
    outer loop
      vertex 2.20468 -2.45 1.65
      vertex 2.20547 -2.44942 1.65
      vertex 2.21027 -2.45 1.65
    endloop
  endfacet
  facet normal -0 0 -1
    outer loop
      vertex 2.20468 2.45 1.65
      vertex 2.21027 2.45 1.65
      vertex 2.20547 2.44942 1.65
    endloop
  endfacet
  facet normal 0 0 -1
    outer loop
      vertex 2.20547 -2.44942 1.65
      vertex 2.2077 -2.44695 1.65
      vertex 2.21027 -2.45 1.65
    endloop
  endfacet
  facet normal 0 0 -1
    outer loop
      vertex 2.20547 2.44942 1.65
      vertex 2.21027 2.45 1.65
      vertex 2.2077 2.44695 1.65
    endloop
  endfacet
  facet normal 0 -1 0
    outer loop
      vertex 2.20599 -2.45 13.6032
      vertex 2.21027 -2.45 12.1
      vertex 2.21754 -2.45 12.1054
    endloop
  endfacet
  facet normal 0 -1 0
    outer loop
      vertex 2.20599 -2.45 13.6032
      vertex 2.21754 -2.45 12.1054
      vertex 2.45463 -2.45 13.4174
    endloop
  endfacet
  facet normal 0.526925 -0.474444 0.705161
    outer loop
      vertex 2.20599 -2.45 13.6032
      vertex 2.45463 -2.45 13.4174
      vertex 2.26525 -1.6458 14.1
    endloop
  endfacet
  facet normal 0 1 -0
    outer loop
      vertex 2.20599 2.45 13.6032
      vertex 2.21754 2.45 12.1054
      vertex 2.21027 2.45 12.1
    endloop
  endfacet
  facet normal 0.526925 0.474444 0.705161
    outer loop
      vertex 2.20599 2.45 13.6032
      vertex 2.26525 1.6458 14.1
      vertex 2.45463 2.45 13.4174
    endloop
  endfacet
  facet normal 0 1 -0
    outer loop
      vertex 2.20599 2.45 13.6032
      vertex 2.45463 2.45 13.4174
      vertex 2.21754 2.45 12.1054
    endloop
  endfacet
  facet normal -0 0 -1
    outer loop
      vertex 2.2077 -2.44695 1.65
      vertex 2.66654 -1.93735 1.65
      vertex 2.66976 -1.93969 1.65
    endloop
  endfacet
  facet normal 0 0 -1
    outer loop
      vertex 2.2077 -2.44695 1.65
      vertex 2.66976 -1.93969 1.65
      vertex 2.21027 -2.45 1.65
    endloop
  endfacet
  facet normal 0 0 -1
    outer loop
      vertex 2.2077 2.44695 1.65
      vertex 2.21027 2.45 1.65
      vertex 2.66976 1.93969 1.65
    endloop
  endfacet
  facet normal 0 0 -1
    outer loop
      vertex 2.2077 2.44695 1.65
      vertex 2.66976 1.93969 1.65
      vertex 2.66654 1.93735 1.65
    endloop
  endfacet
  facet normal 0.743145 -0.66913 0
    outer loop
      vertex 2.21027 -2.45 1.65
      vertex 2.66976 -1.93969 1.65
      vertex 2.21027 -2.45 12.1
    endloop
  endfacet
  facet normal 0.743145 -0.66913 0
    outer loop
      vertex 2.21027 -2.45 12.1
      vertex 2.66976 -1.93969 1.65
      vertex 2.66976 -1.93969 12.1
    endloop
  endfacet
  facet normal 0.526918 -0.474439 -0.70517
    outer loop
      vertex 2.21027 -2.45 12.1
      vertex 2.66976 -1.93969 12.1
      vertex 2.21754 -2.45 12.1054
    endloop
  endfacet
  facet normal 0.743145 0.66913 0
    outer loop
      vertex 2.21027 2.45 1.65
      vertex 2.21027 2.45 12.1
      vertex 2.66976 1.93969 12.1
    endloop
  endfacet
  facet normal 0.743145 0.66913 0
    outer loop
      vertex 2.21027 2.45 1.65
      vertex 2.66976 1.93969 12.1
      vertex 2.66976 1.93969 1.65
    endloop
  endfacet
  facet normal 0.526918 0.474439 -0.70517
    outer loop
      vertex 2.21027 2.45 12.1
      vertex 2.21754 2.45 12.1054
      vertex 2.66976 1.93969 12.1
    endloop
  endfacet
  facet normal 0.526924 -0.474444 -0.705162
    outer loop
      vertex 2.21754 -2.45 12.1054
      vertex 2.66976 -1.93969 12.1
      vertex 3.07426 -2.23358 12.6
    endloop
  endfacet
  facet normal -0 -1 0
    outer loop
      vertex 2.21754 -2.45 12.1054
      vertex 2.8794 -2.45 12.6
      vertex 2.45463 -2.45 13.4174
    endloop
  endfacet
  facet normal 0.526924 -0.474445 -0.705162
    outer loop
      vertex 2.21754 -2.45 12.1054
      vertex 3.07426 -2.23358 12.6
      vertex 2.8794 -2.45 12.6
    endloop
  endfacet
  facet normal 0 1 0
    outer loop
      vertex 2.21754 2.45 12.1054
      vertex 2.45463 2.45 13.4174
      vertex 2.8794 2.45 12.6
    endloop
  endfacet
  facet normal 0.526924 0.474445 -0.705162
    outer loop
      vertex 2.21754 2.45 12.1054
      vertex 2.8794 2.45 12.6
      vertex 3.07426 2.23358 12.6
    endloop
  endfacet
  facet normal 0.526924 0.474444 -0.705162
    outer loop
      vertex 2.21754 2.45 12.1054
      vertex 3.07426 2.23358 12.6
      vertex 2.66976 1.93969 12.1
    endloop
  endfacet
  facet normal 0.526924 -0.474445 0.705162
    outer loop
      vertex 2.26525 -1.6458 14.1
      vertex 2.45463 -2.45 13.4174
      vertex 3.07426 -2.23358 13.1
    endloop
  endfacet
  facet normal 0 0 1
    outer loop
      vertex 2.26525 -1.6458 14.1
      vertex 2.55793 -1.13886 14.1
      vertex 2.26525 1.6458 14.1
    endloop
  endfacet
  facet normal 0.614052 -0.354523 0.705162
    outer loop
      vertex 2.26525 -1.6458 14.1
      vertex 3.07426 -2.23358 13.1
      vertex 2.55793 -1.13886 14.1
    endloop
  endfacet
  facet normal 0 0 1
    outer loop
      vertex 2.26525 1.6458 14.1
      vertex 2.55793 -1.13886 14.1
      vertex 2.55793 1.13886 14.1
    endloop
  endfacet
  facet normal 0.614052 0.354523 0.705162
    outer loop
      vertex 2.26525 1.6458 14.1
      vertex 2.55793 1.13886 14.1
      vertex 3.07426 2.23358 13.1
    endloop
  endfacet
  facet normal 0.526924 0.474445 0.705162
    outer loop
      vertex 2.26525 1.6458 14.1
      vertex 3.07426 2.23358 13.1
      vertex 2.45463 2.45 13.4174
    endloop
  endfacet
  facet normal 0.884426 -0.287367 -0.36771
    outer loop
      vertex 2.41176 -1.07378 7.82437e-16
      vertex 2.58231 -0.548886 6.65887e-16
      vertex 3.0121 -1.33745 1.65
    endloop
  endfacet
  facet normal 0.884414 -0.287403 -0.367712
    outer loop
      vertex 2.41176 -1.07378 7.82437e-16
      vertex 3.0121 -1.33745 1.65
      vertex 3.01107 -1.34061 1.65
    endloop
  endfacet
  facet normal 0 2.22045e-16 1
    outer loop
      vertex 2.41176 -1.07378 7.82437e-16
      vertex 5.38703 -2.45 1.08802e-15
      vertex 5.43785 -2.35238 1.06634e-15
    endloop
  endfacet
  facet normal 0 2.22045e-16 1
    outer loop
      vertex 2.41176 -1.07378 7.82437e-16
      vertex 5.43785 -2.35238 1.06634e-15
      vertex 5.63815 -1.86879 9.58963e-16
    endloop
  endfacet
  facet normal 0 2.22045e-16 1
    outer loop
      vertex 2.41176 -1.07378 7.82437e-16
      vertex 5.63815 -1.86879 9.58963e-16
      vertex 2.58231 -0.548886 6.65887e-16
    endloop
  endfacet
  facet normal 0 0 -1
    outer loop
      vertex 2.41176 1.07378 5.44009e-16
      vertex 2.58231 0.548886 5.44009e-16
      vertex 2.64 0 5.44009e-16
    endloop
  endfacet
  facet normal 0.884414 0.287403 -0.367712
    outer loop
      vertex 2.41176 1.07378 5.44009e-16
      vertex 3.01107 1.34061 1.65
      vertex 3.0121 1.33745 1.65
    endloop
  endfacet
  facet normal 0.884426 0.287367 -0.36771
    outer loop
      vertex 2.41176 1.07378 5.44009e-16
      vertex 3.0121 1.33745 1.65
      vertex 2.58231 0.548886 5.44009e-16
    endloop
  endfacet
  facet normal 0 -1 0
    outer loop
      vertex 2.45463 -2.45 13.4174
      vertex 2.8794 -2.45 12.6
      vertex 2.8794 -2.45 13.1
    endloop
  endfacet
  facet normal 0.526924 -0.474445 0.705162
    outer loop
      vertex 2.45463 -2.45 13.4174
      vertex 2.8794 -2.45 13.1
      vertex 3.07426 -2.23358 13.1
    endloop
  endfacet
  facet normal 0 1 -0
    outer loop
      vertex 2.45463 2.45 13.4174
      vertex 2.8794 2.45 13.1
      vertex 2.8794 2.45 12.6
    endloop
  endfacet
  facet normal 0.526924 0.474445 0.705162
    outer loop
      vertex 2.45463 2.45 13.4174
      vertex 3.07426 2.23358 13.1
      vertex 2.8794 2.45 13.1
    endloop
  endfacet
  facet normal 0 0 1
    outer loop
      vertex 2.55793 -1.13886 14.1
      vertex 2.73881 -0.582152 14.1
      vertex 2.55793 1.13886 14.1
    endloop
  endfacet
  facet normal 0.614052 -0.354523 0.705162
    outer loop
      vertex 2.55793 -1.13886 14.1
      vertex 3.07426 -2.23358 13.1
      vertex 3.47147 -1.5456 13.1
    endloop
  endfacet
  facet normal 0.674343 -0.219107 0.705162
    outer loop
      vertex 2.55793 -1.13886 14.1
      vertex 3.47147 -1.5456 13.1
      vertex 3.71696 -0.790064 13.1
    endloop
  endfacet
  facet normal 0.674343 -0.219107 0.705162
    outer loop
      vertex 2.55793 -1.13886 14.1
      vertex 3.71696 -0.790064 13.1
      vertex 2.73881 -0.582152 14.1
    endloop
  endfacet
  facet normal 0 0 1
    outer loop
      vertex 2.55793 1.13886 14.1
      vertex 2.73881 -0.582152 14.1
      vertex 2.73881 0.582152 14.1
    endloop
  endfacet
  facet normal 0.674343 0.219107 0.705162
    outer loop
      vertex 2.55793 1.13886 14.1
      vertex 2.73881 0.582152 14.1
      vertex 3.71696 0.790064 13.1
    endloop
  endfacet
  facet normal 0.614052 0.354523 0.705162
    outer loop
      vertex 2.55793 1.13886 14.1
      vertex 3.47147 1.5456 13.1
      vertex 3.07426 2.23358 13.1
    endloop
  endfacet
  facet normal 0.674343 0.219107 0.705162
    outer loop
      vertex 2.55793 1.13886 14.1
      vertex 3.71696 0.790064 13.1
      vertex 3.47147 1.5456 13.1
    endloop
  endfacet
  facet normal 0.924846 -0.0972058 -0.36771
    outer loop
      vertex 2.58231 -0.548886 6.65887e-16
      vertex 2.64 0 5.44009e-16
      vertex 3.22434 -0.681974 1.65
    endloop
  endfacet
  facet normal 0.884426 -0.287366 -0.36771
    outer loop
      vertex 2.58231 -0.548886 6.65887e-16
      vertex 3.224 -0.685281 1.65
      vertex 3.0121 -1.33745 1.65
    endloop
  endfacet
  facet normal 0.924844 -0.0972256 -0.367711
    outer loop
      vertex 2.58231 -0.548886 6.65887e-16
      vertex 3.22434 -0.681974 1.65
      vertex 3.224 -0.685281 1.65
    endloop
  endfacet
  facet normal 0 2.22045e-16 1
    outer loop
      vertex 2.58231 -0.548886 6.65887e-16
      vertex 5.63815 -1.86879 9.58963e-16
      vertex 5.79555 -1.36958 8.48117e-16
    endloop
  endfacet
  facet normal 6.26031e-24 2.22045e-16 1
    outer loop
      vertex 2.58231 -0.548886 6.65887e-16
      vertex 5.79555 -1.36958 8.48117e-16
      vertex 5.90885 -0.858556 7.34647e-16
    endloop
  endfacet
  facet normal 3.94003e-24 2.22045e-16 1
    outer loop
      vertex 2.58231 -0.548886 6.65887e-16
      vertex 5.90885 -0.858556 7.34647e-16
      vertex 2.64 0 5.44009e-16
    endloop
  endfacet
  facet normal 0.884426 0.287366 -0.36771
    outer loop
      vertex 2.58231 0.548886 5.44009e-16
      vertex 3.0121 1.33745 1.65
      vertex 3.224 0.685281 1.65
    endloop
  endfacet
  facet normal 0.924844 0.0972256 -0.367711
    outer loop
      vertex 2.58231 0.548886 5.44009e-16
      vertex 3.224 0.685281 1.65
      vertex 3.22434 0.681974 1.65
    endloop
  endfacet
  facet normal 0.924846 0.0972058 -0.36771
    outer loop
      vertex 2.58231 0.548886 5.44009e-16
      vertex 3.22434 0.681974 1.65
      vertex 2.64 0 5.44009e-16
    endloop
  endfacet
  facet normal 0.924846 0.0972053 -0.36771
    outer loop
      vertex 2.64 0 5.44009e-16
      vertex 3.22434 0.681974 1.65
      vertex 3.29602 0 1.65
    endloop
  endfacet
  facet normal 0.924846 -0.0972053 -0.36771
    outer loop
      vertex 2.64 0 5.44009e-16
      vertex 3.29602 0 1.65
      vertex 3.22434 -0.681974 1.65
    endloop
  endfacet
  facet normal 0 2.22045e-16 1
    outer loop
      vertex 2.64 0 5.44009e-16
      vertex 5.63815 2.23545 4.76386e-17
      vertex 5.54929 2.45 0
    endloop
  endfacet
  facet normal 0 2.22045e-16 1
    outer loop
      vertex 2.64 0 5.44009e-16
      vertex 5.79555 1.73625 1.58485e-16
      vertex 5.63815 2.23545 4.76386e-17
    endloop
  endfacet
  facet normal 3.91347e-24 2.22045e-16 1
    outer loop
      vertex 2.64 0 5.44009e-16
      vertex 5.90885 -0.858556 7.34647e-16
      vertex 5.97717 -0.3396 6.19416e-16
    endloop
  endfacet
  facet normal 0 2.22045e-16 1
    outer loop
      vertex 2.64 0 5.44009e-16
      vertex 5.90885 1.22522 2.71955e-16
      vertex 5.79555 1.73625 1.58485e-16
    endloop
  endfacet
  facet normal 3.30733e-24 2.22045e-16 1
    outer loop
      vertex 2.64 0 5.44009e-16
      vertex 5.97717 -0.3396 6.19416e-16
      vertex 6 0.183334 5.03301e-16
    endloop
  endfacet
  facet normal 9.10947e-24 2.22045e-16 1
    outer loop
      vertex 2.64 0 5.44009e-16
      vertex 5.97717 0.706268 3.87186e-16
      vertex 5.90885 1.22522 2.71955e-16
    endloop
  endfacet
  facet normal 2.60278e-24 2.22045e-16 1
    outer loop
      vertex 2.64 0 5.44009e-16
      vertex 6 0.183334 5.03301e-16
      vertex 5.97717 0.706268 3.87186e-16
    endloop
  endfacet
  facet normal 0 0 -1
    outer loop
      vertex 2.66654 -1.93735 1.65
      vertex 3.00941 -1.34349 1.65
      vertex 2.66976 -1.93969 1.65
    endloop
  endfacet
  facet normal 0 0 -1
    outer loop
      vertex 2.66654 1.93735 1.65
      vertex 2.66976 1.93969 1.65
      vertex 3.00941 1.34349 1.65
    endloop
  endfacet
  facet normal 0 0 -1
    outer loop
      vertex 2.66976 -1.93969 1.65
      vertex 3.00941 -1.34349 1.65
      vertex 3.0147 -1.34223 1.65
    endloop
  endfacet
  facet normal 0.866025 -0.5 0
    outer loop
      vertex 2.66976 -1.93969 1.65
      vertex 3.0147 -1.34223 1.65
      vertex 2.66976 -1.93969 12.1
    endloop
  endfacet
  facet normal 0.866025 -0.5 0
    outer loop
      vertex 2.66976 -1.93969 12.1
      vertex 3.0147 -1.34223 1.65
      vertex 3.0147 -1.34223 12.1
    endloop
  endfacet
  facet normal 0.614052 -0.354523 -0.705162
    outer loop
      vertex 2.66976 -1.93969 12.1
      vertex 3.0147 -1.34223 12.1
      vertex 3.07426 -2.23358 12.6
    endloop
  endfacet
  facet normal 0.866025 0.5 0
    outer loop
      vertex 2.66976 1.93969 1.65
      vertex 2.66976 1.93969 12.1
      vertex 3.0147 1.34223 12.1
    endloop
  endfacet
  facet normal 0 0 -1
    outer loop
      vertex 2.66976 1.93969 1.65
      vertex 3.0147 1.34223 1.65
      vertex 3.00941 1.34349 1.65
    endloop
  endfacet
  facet normal 0.866025 0.5 0
    outer loop
      vertex 2.66976 1.93969 1.65
      vertex 3.0147 1.34223 12.1
      vertex 3.0147 1.34223 1.65
    endloop
  endfacet
  facet normal 0.614052 0.354523 -0.705162
    outer loop
      vertex 2.66976 1.93969 12.1
      vertex 3.07426 2.23358 12.6
      vertex 3.0147 1.34223 12.1
    endloop
  endfacet
  facet normal 0 0 1
    outer loop
      vertex 2.73881 -0.582152 14.1
      vertex 2.8 0 14.1
      vertex 2.73881 0.582152 14.1
    endloop
  endfacet
  facet normal 0.705162 -0.0741157 0.705162
    outer loop
      vertex 2.73881 -0.582152 14.1
      vertex 3.71696 -0.790064 13.1
      vertex 3.8 0 13.1
    endloop
  endfacet
  facet normal 0.705162 -0.0741156 0.705162
    outer loop
      vertex 2.73881 -0.582152 14.1
      vertex 3.8 0 13.1
      vertex 2.8 0 14.1
    endloop
  endfacet
  facet normal 0.705162 0.0741156 0.705162
    outer loop
      vertex 2.73881 0.582152 14.1
      vertex 2.8 0 14.1
      vertex 3.8 0 13.1
    endloop
  endfacet
  facet normal 0.705162 0.0741157 0.705162
    outer loop
      vertex 2.73881 0.582152 14.1
      vertex 3.8 0 13.1
      vertex 3.71696 0.790064 13.1
    endloop
  endfacet
  facet normal 0.743144 -0.669131 0
    outer loop
      vertex 2.8794 -2.45 12.6
      vertex 3.07426 -2.23358 12.6
      vertex 2.8794 -2.45 13.1
    endloop
  endfacet
  facet normal 0.743144 -0.669131 0
    outer loop
      vertex 2.8794 -2.45 13.1
      vertex 3.07426 -2.23358 12.6
      vertex 3.07426 -2.23358 13.1
    endloop
  endfacet
  facet normal 0.743144 0.669131 0
    outer loop
      vertex 2.8794 2.45 12.6
      vertex 2.8794 2.45 13.1
      vertex 3.07426 2.23358 13.1
    endloop
  endfacet
  facet normal 0.743144 0.669131 0
    outer loop
      vertex 2.8794 2.45 12.6
      vertex 3.07426 2.23358 13.1
      vertex 3.07426 2.23358 12.6
    endloop
  endfacet
  facet normal -0 0 -1
    outer loop
      vertex 3.00941 -1.34349 1.65
      vertex 3.01107 -1.34061 1.65
      vertex 3.0147 -1.34223 1.65
    endloop
  endfacet
  facet normal 0 0 -1
    outer loop
      vertex 3.00941 1.34349 1.65
      vertex 3.0147 1.34223 1.65
      vertex 3.01107 1.34061 1.65
    endloop
  endfacet
  facet normal 0 0 -1
    outer loop
      vertex 3.01107 -1.34061 1.65
      vertex 3.0121 -1.33745 1.65
      vertex 3.0147 -1.34223 1.65
    endloop
  endfacet
  facet normal 0 0 -1
    outer loop
      vertex 3.01107 1.34061 1.65
      vertex 3.0147 1.34223 1.65
      vertex 3.0121 1.33745 1.65
    endloop
  endfacet
  facet normal -0 0 -1
    outer loop
      vertex 3.0121 -1.33745 1.65
      vertex 3.224 -0.685281 1.65
      vertex 3.22789 -0.686108 1.65
    endloop
  endfacet
  facet normal 0 0 -1
    outer loop
      vertex 3.0121 -1.33745 1.65
      vertex 3.22789 -0.686108 1.65
      vertex 3.0147 -1.34223 1.65
    endloop
  endfacet
  facet normal 0 0 -1
    outer loop
      vertex 3.0121 1.33745 1.65
      vertex 3.0147 1.34223 1.65
      vertex 3.22789 0.686108 1.65
    endloop
  endfacet
  facet normal 0 0 -1
    outer loop
      vertex 3.0121 1.33745 1.65
      vertex 3.22789 0.686108 1.65
      vertex 3.224 0.685281 1.65
    endloop
  endfacet
  facet normal 0.951057 -0.309016 0
    outer loop
      vertex 3.0147 -1.34223 1.65
      vertex 3.22789 -0.686108 1.65
      vertex 3.0147 -1.34223 12.1
    endloop
  endfacet
  facet normal 0.951057 -0.309016 0
    outer loop
      vertex 3.0147 -1.34223 12.1
      vertex 3.22789 -0.686108 1.65
      vertex 3.22789 -0.686108 12.1
    endloop
  endfacet
  facet normal 0.674343 -0.219106 -0.705162
    outer loop
      vertex 3.0147 -1.34223 12.1
      vertex 3.22789 -0.686108 12.1
      vertex 3.71696 -0.790064 12.6
    endloop
  endfacet
  facet normal 0.614053 -0.354523 -0.705161
    outer loop
      vertex 3.0147 -1.34223 12.1
      vertex 3.47147 -1.5456 12.6
      vertex 3.07426 -2.23358 12.6
    endloop
  endfacet
  facet normal 0.674344 -0.219107 -0.705161
    outer loop
      vertex 3.0147 -1.34223 12.1
      vertex 3.71696 -0.790064 12.6
      vertex 3.47147 -1.5456 12.6
    endloop
  endfacet
  facet normal 0.951057 0.309016 0
    outer loop
      vertex 3.0147 1.34223 1.65
      vertex 3.0147 1.34223 12.1
      vertex 3.22789 0.686108 12.1
    endloop
  endfacet
  facet normal 0.951057 0.309016 0
    outer loop
      vertex 3.0147 1.34223 1.65
      vertex 3.22789 0.686108 12.1
      vertex 3.22789 0.686108 1.65
    endloop
  endfacet
  facet normal 0.614053 0.354523 -0.705161
    outer loop
      vertex 3.0147 1.34223 12.1
      vertex 3.07426 2.23358 12.6
      vertex 3.47147 1.5456 12.6
    endloop
  endfacet
  facet normal 0.674344 0.219107 -0.705161
    outer loop
      vertex 3.0147 1.34223 12.1
      vertex 3.47147 1.5456 12.6
      vertex 3.71696 0.790064 12.6
    endloop
  endfacet
  facet normal 0.674343 0.219106 -0.705162
    outer loop
      vertex 3.0147 1.34223 12.1
      vertex 3.71696 0.790064 12.6
      vertex 3.22789 0.686108 12.1
    endloop
  endfacet
  facet normal 0.866026 -0.499999 0
    outer loop
      vertex 3.07426 -2.23358 12.6
      vertex 3.47147 -1.5456 12.6
      vertex 3.07426 -2.23358 13.1
    endloop
  endfacet
  facet normal 0.866026 -0.499999 0
    outer loop
      vertex 3.07426 -2.23358 13.1
      vertex 3.47147 -1.5456 12.6
      vertex 3.47147 -1.5456 13.1
    endloop
  endfacet
  facet normal 0.866026 0.499999 0
    outer loop
      vertex 3.07426 2.23358 12.6
      vertex 3.07426 2.23358 13.1
      vertex 3.47147 1.5456 13.1
    endloop
  endfacet
  facet normal 0.866026 0.499999 0
    outer loop
      vertex 3.07426 2.23358 12.6
      vertex 3.47147 1.5456 13.1
      vertex 3.47147 1.5456 12.6
    endloop
  endfacet
  facet normal 0 0 -1
    outer loop
      vertex 3.224 -0.685281 1.65
      vertex 3.22434 -0.681974 1.65
      vertex 3.22789 -0.686108 1.65
    endloop
  endfacet
  facet normal 0 0 -1
    outer loop
      vertex 3.224 0.685281 1.65
      vertex 3.22789 0.686108 1.65
      vertex 3.22434 0.681974 1.65
    endloop
  endfacet
  facet normal -0 0 -1
    outer loop
      vertex 3.22434 -0.681974 1.65
      vertex 3.29602 0 1.65
      vertex 3.3 0 1.65
    endloop
  endfacet
  facet normal 0 0 -1
    outer loop
      vertex 3.22434 -0.681974 1.65
      vertex 3.3 0 1.65
      vertex 3.22789 -0.686108 1.65
    endloop
  endfacet
  facet normal 0 0 -1
    outer loop
      vertex 3.22434 0.681974 1.65
      vertex 3.22789 0.686108 1.65
      vertex 3.3 0 1.65
    endloop
  endfacet
  facet normal 0 0 -1
    outer loop
      vertex 3.22434 0.681974 1.65
      vertex 3.3 0 1.65
      vertex 3.29602 0 1.65
    endloop
  endfacet
  facet normal 0.994522 -0.104529 0
    outer loop
      vertex 3.22789 -0.686108 1.65
      vertex 3.3 0 1.65
      vertex 3.22789 -0.686108 12.1
    endloop
  endfacet
  facet normal 0.994522 -0.104529 0
    outer loop
      vertex 3.22789 -0.686108 12.1
      vertex 3.3 0 1.65
      vertex 3.3 0 12.1
    endloop
  endfacet
  facet normal 0.705162 -0.0741157 -0.705162
    outer loop
      vertex 3.22789 -0.686108 12.1
      vertex 3.3 0 12.1
      vertex 3.71696 -0.790064 12.6
    endloop
  endfacet
  facet normal 0.994522 0.104529 0
    outer loop
      vertex 3.22789 0.686108 1.65
      vertex 3.22789 0.686108 12.1
      vertex 3.3 0 12.1
    endloop
  endfacet
  facet normal 0.994522 0.104529 0
    outer loop
      vertex 3.22789 0.686108 1.65
      vertex 3.3 0 12.1
      vertex 3.3 0 1.65
    endloop
  endfacet
  facet normal 0.705162 0.0741157 -0.705162
    outer loop
      vertex 3.22789 0.686108 12.1
      vertex 3.71696 0.790064 12.6
      vertex 3.3 0 12.1
    endloop
  endfacet
  facet normal 0.705162 0.0741157 -0.705162
    outer loop
      vertex 3.3 0 12.1
      vertex 3.71696 0.790064 12.6
      vertex 3.8 0 12.6
    endloop
  endfacet
  facet normal 0.705162 -0.0741157 -0.705162
    outer loop
      vertex 3.3 0 12.1
      vertex 3.8 0 12.6
      vertex 3.71696 -0.790064 12.6
    endloop
  endfacet
  facet normal 0 -1 0
    outer loop
      vertex 3.36667 -2.45 -2
      vertex 3.58699 -2.45 -2
      vertex 5.38703 -2.45 1.08802e-15
    endloop
  endfacet
  facet normal -0 -1.81077e-07 -1
    outer loop
      vertex 3.36667 -2.45 -2
      vertex 6 0.183334 -2
      vertex 3.58699 -2.45 -2
    endloop
  endfacet
  facet normal 0.951057 -0.309017 0
    outer loop
      vertex 3.47147 -1.5456 12.6
      vertex 3.71696 -0.790064 12.6
      vertex 3.47147 -1.5456 13.1
    endloop
  endfacet
  facet normal 0.951057 -0.309017 0
    outer loop
      vertex 3.47147 -1.5456 13.1
      vertex 3.71696 -0.790064 12.6
      vertex 3.71696 -0.790064 13.1
    endloop
  endfacet
  facet normal 0.951057 0.309017 0
    outer loop
      vertex 3.47147 1.5456 12.6
      vertex 3.47147 1.5456 13.1
      vertex 3.71696 0.790064 13.1
    endloop
  endfacet
  facet normal 0.951057 0.309017 0
    outer loop
      vertex 3.47147 1.5456 12.6
      vertex 3.71696 0.790064 13.1
      vertex 3.71696 0.790064 12.6
    endloop
  endfacet
  facet normal 0 -1 0
    outer loop
      vertex 3.58699 -2.45 -2
      vertex 3.79037 -2.45 -2
      vertex 5.38703 -2.45 1.08802e-15
    endloop
  endfacet
  facet normal -0 -1.81077e-07 -1
    outer loop
      vertex 3.58699 -2.45 -2
      vertex 6 0.183334 -2
      vertex 3.79037 -2.45 -2
    endloop
  endfacet
  facet normal 0.994522 -0.104529 0
    outer loop
      vertex 3.71696 -0.790064 12.6
      vertex 3.8 0 12.6
      vertex 3.71696 -0.790064 13.1
    endloop
  endfacet
  facet normal 0.994522 -0.104529 0
    outer loop
      vertex 3.71696 -0.790064 13.1
      vertex 3.8 0 12.6
      vertex 3.8 0 13.1
    endloop
  endfacet
  facet normal 0.994522 0.104529 0
    outer loop
      vertex 3.71696 0.790064 12.6
      vertex 3.71696 0.790064 13.1
      vertex 3.8 0 13.1
    endloop
  endfacet
  facet normal 0.994522 0.104529 0
    outer loop
      vertex 3.71696 0.790064 12.6
      vertex 3.8 0 13.1
      vertex 3.8 0 12.6
    endloop
  endfacet
  facet normal 0 -1 0
    outer loop
      vertex 3.79037 -2.45 -2
      vertex 3.97937 -2.45 -2
      vertex 5.38703 -2.45 1.08802e-15
    endloop
  endfacet
  facet normal -0 -1.81077e-07 -1
    outer loop
      vertex 3.79037 -2.45 -2
      vertex 6 0.183334 -2
      vertex 3.97937 -2.45 -2
    endloop
  endfacet
  facet normal 0 -1 0
    outer loop
      vertex 3.97937 -2.45 -2
      vertex 4.15612 -2.45 -2
      vertex 5.38703 -2.45 1.08802e-15
    endloop
  endfacet
  facet normal -0 -1.81077e-07 -1
    outer loop
      vertex 3.97937 -2.45 -2
      vertex 6 0.183334 -2
      vertex 4.15612 -2.45 -2
    endloop
  endfacet
  facet normal 0 -1 0
    outer loop
      vertex 4.15612 -2.45 -2
      vertex 4.32238 -2.45 -2
      vertex 5.38703 -2.45 1.08802e-15
    endloop
  endfacet
  facet normal -0 -1.81077e-07 -1
    outer loop
      vertex 4.15612 -2.45 -2
      vertex 6 0.183334 -2
      vertex 4.32238 -2.45 -2
    endloop
  endfacet
  facet normal 0 -1 0
    outer loop
      vertex 4.32238 -2.45 -2
      vertex 4.47964 -2.45 -2
      vertex 5.38703 -2.45 1.08802e-15
    endloop
  endfacet
  facet normal -0 -1.81077e-07 -1
    outer loop
      vertex 4.32238 -2.45 -2
      vertex 6 0.183334 -2
      vertex 4.47964 -2.45 -2
    endloop
  endfacet
  facet normal 0 -1 0
    outer loop
      vertex 4.47964 -2.45 -2
      vertex 4.62917 -2.45 -2
      vertex 5.38703 -2.45 1.08802e-15
    endloop
  endfacet
  facet normal -0 -1.81077e-07 -1
    outer loop
      vertex 4.47964 -2.45 -2
      vertex 6 0.183334 -2
      vertex 4.62917 -2.45 -2
    endloop
  endfacet
  facet normal 0 -1 0
    outer loop
      vertex 4.62917 -2.45 -2
      vertex 4.77206 -2.45 -2
      vertex 5.38703 -2.45 1.08802e-15
    endloop
  endfacet
  facet normal 8.34312e-07 -6.15393e-07 -1
    outer loop
      vertex 4.62917 -2.45 -2
      vertex 6 0.183334 -2
      vertex 4.77206 -2.45 -2
    endloop
  endfacet
  facet normal 0 -1 0
    outer loop
      vertex 4.77206 -2.45 -2
      vertex 4.90924 -2.45 -2
      vertex 5.38703 -2.45 1.08802e-15
    endloop
  endfacet
  facet normal -0 -2.26347e-07 -1
    outer loop
      vertex 4.77206 -2.45 -2
      vertex 6 0.183334 -2
      vertex 4.90924 -2.45 -2
    endloop
  endfacet
  facet normal 0 -1 0
    outer loop
      vertex 4.90924 -2.45 -2
      vertex 5.04154 -2.45 -2
      vertex 5.38703 -2.45 1.08802e-15
    endloop
  endfacet
  facet normal -0 -2.26347e-07 -1
    outer loop
      vertex 4.90924 -2.45 -2
      vertex 6 0.183334 -2
      vertex 5.04154 -2.45 -2
    endloop
  endfacet
  facet normal 0 -1 0
    outer loop
      vertex 5.04154 -2.45 -2
      vertex 5.16971 -2.45 -2
      vertex 5.38703 -2.45 1.08802e-15
    endloop
  endfacet
  facet normal 9.30098e-07 -5.64875e-07 -1
    outer loop
      vertex 5.04154 -2.45 -2
      vertex 6 0.183334 -2
      vertex 5.16971 -2.45 -2
    endloop
  endfacet
  facet normal 0 -1 0
    outer loop
      vertex 5.16971 -2.45 -2
      vertex 5.2944 -2.45 -2
      vertex 5.38703 -2.45 1.08802e-15
    endloop
  endfacet
  facet normal 9.5607e-07 -5.73064e-07 -1
    outer loop
      vertex 5.16971 -2.45 -2
      vertex 6 0.183334 -2
      vertex 5.2944 -2.45 -2
    endloop
  endfacet
  facet normal 0 -1 -0
    outer loop
      vertex 5.2944 -2.45 -2
      vertex 5.38703 -2.45 -2
      vertex 5.38703 -2.45 1.08802e-15
    endloop
  endfacet
  facet normal 1.28699e-06 -6.69965e-07 -1
    outer loop
      vertex 5.2944 -2.45 -2
      vertex 5.43785 -2.35238 -2
      vertex 5.38703 -2.45 -2
    endloop
  endfacet
  facet normal 1.28014e-06 -6.59897e-07 -1
    outer loop
      vertex 5.2944 -2.45 -2
      vertex 6 0.183334 -2
      vertex 5.43785 -2.35238 -2
    endloop
  endfacet
  facet normal 0.88701 -0.46175 0
    outer loop
      vertex 5.38703 -2.45 -2
      vertex 5.43785 -2.35238 -2
      vertex 5.38703 -2.45 1.08802e-15
    endloop
  endfacet
  facet normal 0.88701 -0.46175 0
    outer loop
      vertex 5.38703 -2.45 1.08802e-15
      vertex 5.43785 -2.35238 -2
      vertex 5.43785 -2.35238 1.06634e-15
    endloop
  endfacet
  facet normal 0.92388 -0.382683 0
    outer loop
      vertex 5.43785 -2.35238 -2
      vertex 5.63815 -1.86879 -2
      vertex 5.43785 -2.35238 1.06634e-15
    endloop
  endfacet
  facet normal 1.95357e-06 -8.09195e-07 -1
    outer loop
      vertex 5.43785 -2.35238 -2
      vertex 6 0.183334 -2
      vertex 5.63815 -1.86879 -2
    endloop
  endfacet
  facet normal 0.92388 -0.382683 0
    outer loop
      vertex 5.43785 -2.35238 1.06634e-15
      vertex 5.63815 -1.86879 -2
      vertex 5.63815 -1.86879 9.58963e-16
    endloop
  endfacet
  facet normal 0.923879 0.382684 0
    outer loop
      vertex 5.54929 2.45 -2
      vertex 5.54929 2.45 0
      vertex 5.63815 2.23545 4.76386e-17
    endloop
  endfacet
  facet normal 0 0 -1
    outer loop
      vertex 5.54929 2.45 -2
      vertex 5.63815 2.23545 -2
      vertex 5.79555 1.73625 -2
    endloop
  endfacet
  facet normal 0.923879 0.382684 0
    outer loop
      vertex 5.54929 2.45 -2
      vertex 5.63815 2.23545 4.76386e-17
      vertex 5.63815 2.23545 -2
    endloop
  endfacet
  facet normal 0 0 -1
    outer loop
      vertex 5.54929 2.45 -2
      vertex 5.79555 1.73625 -2
      vertex 6 0.183334 -2
    endloop
  endfacet
  facet normal 0.953717 -0.300706 0
    outer loop
      vertex 5.63815 -1.86879 -2
      vertex 5.79555 -1.36958 -2
      vertex 5.63815 -1.86879 9.58963e-16
    endloop
  endfacet
  facet normal 3.34405e-06 -1.05437e-06 -1
    outer loop
      vertex 5.63815 -1.86879 -2
      vertex 6 0.183334 -2
      vertex 5.79555 -1.36958 -2
    endloop
  endfacet
  facet normal 0.953717 -0.300706 0
    outer loop
      vertex 5.63815 -1.86879 9.58963e-16
      vertex 5.79555 -1.36958 -2
      vertex 5.79555 -1.36958 8.48117e-16
    endloop
  endfacet
  facet normal 0.953717 0.300706 0
    outer loop
      vertex 5.63815 2.23545 -2
      vertex 5.63815 2.23545 4.76386e-17
      vertex 5.79555 1.73625 1.58485e-16
    endloop
  endfacet
  facet normal 0.953717 0.300706 0
    outer loop
      vertex 5.63815 2.23545 -2
      vertex 5.79555 1.73625 1.58485e-16
      vertex 5.79555 1.73625 -2
    endloop
  endfacet
  facet normal 0.976296 -0.21644 0
    outer loop
      vertex 5.79555 -1.36958 -2
      vertex 5.90885 -0.858556 -2
      vertex 5.79555 -1.36958 8.48117e-16
    endloop
  endfacet
  facet normal 6.82034e-06 -1.51204e-06 -1
    outer loop
      vertex 5.79555 -1.36958 -2
      vertex 6 0.183334 -2
      vertex 5.90885 -0.858556 -2
    endloop
  endfacet
  facet normal 0.976296 -0.21644 0
    outer loop
      vertex 5.79555 -1.36958 8.48117e-16
      vertex 5.90885 -0.858556 -2
      vertex 5.90885 -0.858556 7.34647e-16
    endloop
  endfacet
  facet normal 0.976296 0.21644 0
    outer loop
      vertex 5.79555 1.73625 -2
      vertex 5.79555 1.73625 1.58485e-16
      vertex 5.90885 1.22522 2.71955e-16
    endloop
  endfacet
  facet normal 0 0 -1
    outer loop
      vertex 5.79555 1.73625 -2
      vertex 5.90885 1.22522 -2
      vertex 6 0.183334 -2
    endloop
  endfacet
  facet normal 0.976296 0.21644 0
    outer loop
      vertex 5.79555 1.73625 -2
      vertex 5.90885 1.22522 2.71955e-16
      vertex 5.90885 1.22522 -2
    endloop
  endfacet
  facet normal 0.991445 -0.130527 0
    outer loop
      vertex 5.90885 -0.858556 -2
      vertex 5.97717 -0.3396 -2
      vertex 5.90885 -0.858556 7.34647e-16
    endloop
  endfacet
  facet normal 2.07257e-05 -2.72861e-06 -1
    outer loop
      vertex 5.90885 -0.858556 -2
      vertex 6 0.183334 -2
      vertex 5.97717 -0.3396 -2
    endloop
  endfacet
  facet normal 0.991445 -0.130527 0
    outer loop
      vertex 5.90885 -0.858556 7.34647e-16
      vertex 5.97717 -0.3396 -2
      vertex 5.97717 -0.3396 6.19416e-16
    endloop
  endfacet
  facet normal 0.991445 0.130527 0
    outer loop
      vertex 5.90885 1.22522 -2
      vertex 5.90885 1.22522 2.71955e-16
      vertex 5.97717 0.706268 3.87186e-16
    endloop
  endfacet
  facet normal 0 0 -1
    outer loop
      vertex 5.90885 1.22522 -2
      vertex 5.97717 0.706268 -2
      vertex 6 0.183334 -2
    endloop
  endfacet
  facet normal 0.991445 0.130527 0
    outer loop
      vertex 5.90885 1.22522 -2
      vertex 5.97717 0.706268 3.87186e-16
      vertex 5.97717 0.706268 -2
    endloop
  endfacet
  facet normal 0.999048 -0.0436196 0
    outer loop
      vertex 5.97717 -0.3396 -2
      vertex 6 0.183334 -2
      vertex 5.97717 -0.3396 6.19416e-16
    endloop
  endfacet
  facet normal 0.999048 -0.0436196 0
    outer loop
      vertex 5.97717 -0.3396 6.19416e-16
      vertex 6 0.183334 -2
      vertex 6 0.183334 5.03301e-16
    endloop
  endfacet
  facet normal 0.999048 0.0436196 0
    outer loop
      vertex 5.97717 0.706268 -2
      vertex 5.97717 0.706268 3.87186e-16
      vertex 6 0.183334 5.03301e-16
    endloop
  endfacet
  facet normal 0.999048 0.0436196 0
    outer loop
      vertex 5.97717 0.706268 -2
      vertex 6 0.183334 5.03301e-16
      vertex 6 0.183334 -2
    endloop
  endfacet
endsolid OpenSCAD_Model
