solid OpenSCAD_Model
  facet normal 0.156436 0 0.987688
    outer loop
      vertex -0.463525 -2.55 1.12341
      vertex 0 -2.55 1.05
      vertex -0.463525 2.5 1.12341
    endloop
  endfacet
  facet normal 0.156436 0 0.987688
    outer loop
      vertex -0.463525 2.5 1.12341
      vertex 0 -2.55 1.05
      vertex 0 2.5 1.05
    endloop
  endfacet
  facet normal 0.45399 0 0.891007
    outer loop
      vertex -0.881678 -2.55 1.33647
      vertex -0.463525 -2.55 1.12341
      vertex -0.881678 2.5 1.33647
    endloop
  endfacet
  facet normal 0.45399 0 0.891007
    outer loop
      vertex -0.881678 2.5 1.33647
      vertex -0.463525 -2.55 1.12341
      vertex -0.463525 2.5 1.12341
    endloop
  endfacet
  facet normal 0.707107 0 0.707107
    outer loop
      vertex -1.21352 -2.55 1.66832
      vertex -0.881678 -2.55 1.33647
      vertex -0.881678 2.5 1.33647
    endloop
  endfacet
  facet normal 0.707107 -0 0.707107
    outer loop
      vertex -1.21352 -2.55 1.66832
      vertex -0.881678 2.5 1.33647
      vertex -1.21352 2.5 1.66832
    endloop
  endfacet
  facet normal 0.891007 0 0.45399
    outer loop
      vertex -1.42658 -2.55 2.08647
      vertex -1.21352 -2.55 1.66832
      vertex -1.21352 2.5 1.66832
    endloop
  endfacet
  facet normal 0.891007 -0 0.45399
    outer loop
      vertex -1.42658 -2.55 2.08647
      vertex -1.21352 2.5 1.66832
      vertex -1.42658 2.5 2.08647
    endloop
  endfacet
  facet normal 1 -0 0
    outer loop
      vertex -1.5 -2.50015 5.25
      vertex -1.5 2.5 2.55
      vertex -1.5 2.45015 5.25
    endloop
  endfacet
  facet normal 0.987688 0 0.156436
    outer loop
      vertex -1.5 -2.55 2.55
      vertex -1.42658 -2.55 2.08647
      vertex -1.42658 2.5 2.08647
    endloop
  endfacet
  facet normal 0.987688 -0 0.156436
    outer loop
      vertex -1.5 -2.55 2.55
      vertex -1.42658 2.5 2.08647
      vertex -1.5 2.5 2.55
    endloop
  endfacet
  facet normal 1 0 0
    outer loop
      vertex -1.5 -2.55 2.55
      vertex -1.5 -2.50015 5.25
      vertex -1.5 -2.55 5.18917
    endloop
  endfacet
  facet normal 1 0 0
    outer loop
      vertex -1.5 -2.55 2.55
      vertex -1.5 2.5 2.55
      vertex -1.5 -2.50015 5.25
    endloop
  endfacet
  facet normal 1 0 0
    outer loop
      vertex -1.5 2.45015 5.25
      vertex -1.5 2.5 2.55
      vertex -1.5 2.5 5.18917
    endloop
  endfacet
  facet normal 0 0 1
    outer loop
      vertex -1.94048 -2.18012 5.25
      vertex -1.5 -2.50015 5.25
      vertex -1.94048 2.13012 5.25
    endloop
  endfacet
  facet normal -0.489891 -0.674277 0.552591
    outer loop
      vertex -1.94048 -2.18012 5.25
      vertex -1.5 -2.55 5.18917
      vertex -1.5 -2.50015 5.25
    endloop
  endfacet
  facet normal -0 0 1
    outer loop
      vertex -1.94048 2.13012 5.25
      vertex -1.5 -2.50015 5.25
      vertex -1.5 2.45015 5.25
    endloop
  endfacet
  facet normal -0.489892 0.674278 0.552589
    outer loop
      vertex -1.94048 2.13012 5.25
      vertex -1.5 2.45015 5.25
      vertex -1.5 2.5 5.18917
    endloop
  endfacet
  facet normal 0 -1 0
    outer loop
      vertex -1.94336 -2.55 4.79611
      vertex -1.5 -2.55 2.55
      vertex -1.5 -2.55 5.18917
    endloop
  endfacet
  facet normal -0.489891 -0.674277 0.552591
    outer loop
      vertex -1.94336 -2.55 4.79611
      vertex -1.5 -2.55 5.18917
      vertex -1.94048 -2.18012 5.25
    endloop
  endfacet
  facet normal 0 1 -0
    outer loop
      vertex -1.94336 2.5 4.79611
      vertex -1.5 2.5 5.18917
      vertex -1.5 2.5 2.55
    endloop
  endfacet
  facet normal -0.489891 0.674277 0.552591
    outer loop
      vertex -1.94336 2.5 4.79611
      vertex -1.94048 2.13012 5.25
      vertex -1.5 2.5 5.18917
    endloop
  endfacet
  facet normal -1 -0 0
    outer loop
      vertex -10.25 -2.5 -5.5
      vertex -10.25 -2.5 5.55112e-16
      vertex -10.25 2.5 -5.55112e-16
    endloop
  endfacet
  facet normal -0 0 -1
    outer loop
      vertex -10.25 -2.5 -5.5
      vertex -10.25 2.5 -5.5
      vertex -8.5 2.5 -5.5
    endloop
  endfacet
  facet normal -1 0 0
    outer loop
      vertex -10.25 -2.5 -5.5
      vertex -10.25 2.5 -5.55112e-16
      vertex -10.25 2.5 -5.5
    endloop
  endfacet
  facet normal 0 -1 0
    outer loop
      vertex -10.25 -2.5 -5.5
      vertex -8.5 -2.5 -5.5
      vertex -9.25 -2.5 -4.5
    endloop
  endfacet
  facet normal 0 0 -1
    outer loop
      vertex -10.25 -2.5 -5.5
      vertex -8.5 2.5 -5.5
      vertex -8.5 -2.5 -5.5
    endloop
  endfacet
  facet normal 0 -1 0
    outer loop
      vertex -10.25 -2.5 -5.5
      vertex -9.25 -2.5 -4.5
      vertex -10.25 -2.5 5.55112e-16
    endloop
  endfacet
  facet normal 0 2.22045e-16 1
    outer loop
      vertex -10.25 -2.5 5.55112e-16
      vertex -2.32159 -2.5 5.55112e-16
      vertex -2.75066 -2.02347 4.493e-16
    endloop
  endfacet
  facet normal 0 2.22045e-16 1
    outer loop
      vertex -10.25 -2.5 5.55112e-16
      vertex -2.75066 -2.02347 4.493e-16
      vertex -3.10605 -1.4079 3.12617e-16
    endloop
  endfacet
  facet normal 0 2.22045e-16 1
    outer loop
      vertex -10.25 -2.5 5.55112e-16
      vertex -3.10605 -1.4079 3.12617e-16
      vertex -3.3257 -0.7319 1.62514e-16
    endloop
  endfacet
  facet normal 0 2.22045e-16 1
    outer loop
      vertex -10.25 -2.5 5.55112e-16
      vertex -3.3257 -0.7319 1.62514e-16
      vertex -3.4 -0.025 5.55112e-18
    endloop
  endfacet
  facet normal 0 2.22045e-16 1
    outer loop
      vertex -10.25 -2.5 5.55112e-16
      vertex -3.4 -0.025 5.55112e-18
      vertex -10.25 2.5 -5.55112e-16
    endloop
  endfacet
  facet normal 0 -1 0
    outer loop
      vertex -10.25 -2.5 5.55112e-16
      vertex -9.25 -2.5 -1
      vertex -2.32159 -2.5 5.55112e-16
    endloop
  endfacet
  facet normal 0 -1 0
    outer loop
      vertex -10.25 -2.5 5.55112e-16
      vertex -9.25 -2.5 -4.5
      vertex -9.25 -2.5 -1
    endloop
  endfacet
  facet normal 0 1 0
    outer loop
      vertex -10.25 2.5 -5.5
      vertex -10.25 2.5 -5.55112e-16
      vertex -9.25 2.5 -4.5
    endloop
  endfacet
  facet normal 0 1 0
    outer loop
      vertex -10.25 2.5 -5.5
      vertex -9.25 2.5 -4.5
      vertex -8.5 2.5 -5.5
    endloop
  endfacet
  facet normal 0 2.22045e-16 1
    outer loop
      vertex -10.25 2.5 -5.55112e-16
      vertex -3.4 -0.025 5.55112e-18
      vertex 10.25 2.5 -5.55112e-16
    endloop
  endfacet
  facet normal 0 1 -0
    outer loop
      vertex -10.25 2.5 -5.55112e-16
      vertex -9.25 2.5 -1
      vertex -9.25 2.5 -4.5
    endloop
  endfacet
  facet normal 0 1 0
    outer loop
      vertex -10.25 2.5 -5.55112e-16
      vertex 10.25 2.5 -5.55112e-16
      vertex 9.25 2.5 -1
    endloop
  endfacet
  facet normal 0 1 -0
    outer loop
      vertex -10.25 2.5 -5.55112e-16
      vertex 9.25 2.5 -1
      vertex -9.25 2.5 -1
    endloop
  endfacet
  facet normal 0 -1 0
    outer loop
      vertex -2.27352 -2.55 4.50342
      vertex -1.5 -2.55 2.55
      vertex -1.94336 -2.55 4.79611
    endloop
  endfacet
  facet normal -0.489892 -0.674277 0.552591
    outer loop
      vertex -2.27352 -2.55 4.50342
      vertex -1.94336 -2.55 4.79611
      vertex -1.94048 -2.18012 5.25
    endloop
  endfacet
  facet normal -0.489892 0.674277 0.552591
    outer loop
      vertex -2.27352 2.5 4.50342
      vertex -1.94048 2.13012 5.25
      vertex -1.94336 2.5 4.79611
    endloop
  endfacet
  facet normal 0 1 0
    outer loop
      vertex -2.27352 2.5 4.50342
      vertex -1.94336 2.5 4.79611
      vertex -1.5 2.5 2.55
    endloop
  endfacet
  facet normal 0 -1 0
    outer loop
      vertex -2.27657 -2.55 2.25
      vertex -1.21352 -2.55 1.66832
      vertex -1.42658 -2.55 2.08647
    endloop
  endfacet
  facet normal 0 -1 0
    outer loop
      vertex -2.27657 -2.55 2.25
      vertex -1.42658 -2.55 2.08647
      vertex -1.5 -2.55 2.55
    endloop
  endfacet
  facet normal 0 -1 -0
    outer loop
      vertex -2.27657 -2.55 5.55112e-18
      vertex -0.463525 -2.55 1.12341
      vertex -0.881678 -2.55 1.33647
    endloop
  endfacet
  facet normal 0 -1 -0
    outer loop
      vertex -2.27657 -2.55 5.55112e-18
      vertex -0.881678 -2.55 1.33647
      vertex -1.21352 -2.55 1.66832
    endloop
  endfacet
  facet normal 0 -1 0
    outer loop
      vertex -2.27657 -2.55 5.55112e-18
      vertex -1.21352 -2.55 1.66832
      vertex -2.27657 -2.55 2.25
    endloop
  endfacet
  facet normal 0 -1 -0
    outer loop
      vertex -2.27657 -2.55 5.55112e-18
      vertex 0 -2.55 1.05
      vertex -0.463525 -2.55 1.12341
    endloop
  endfacet
  facet normal 0 -1 0
    outer loop
      vertex -2.27657 -2.55 5.55112e-18
      vertex 2.27657 -2.55 5.55112e-18
      vertex 0 -2.55 1.05
    endloop
  endfacet
  facet normal 0 0 -1
    outer loop
      vertex -2.27657 -2.55 5.55112e-18
      vertex 2.32159 -2.5 5.55112e-18
      vertex 2.27657 -2.55 5.55112e-18
    endloop
  endfacet
  facet normal 0 1 0
    outer loop
      vertex -2.27657 2.5 2.25
      vertex -1.42658 2.5 2.08647
      vertex -1.21352 2.5 1.66832
    endloop
  endfacet
  facet normal 0 1 0
    outer loop
      vertex -2.27657 2.5 2.25
      vertex -1.5 2.5 2.55
      vertex -1.42658 2.5 2.08647
    endloop
  endfacet
  facet normal 0 1 0
    outer loop
      vertex -2.27657 2.5 5.55112e-18
      vertex -0.463525 2.5 1.12341
      vertex 0 2.5 1.05
    endloop
  endfacet
  facet normal 0 1 0
    outer loop
      vertex -2.27657 2.5 5.55112e-18
      vertex -0.881678 2.5 1.33647
      vertex -0.463525 2.5 1.12341
    endloop
  endfacet
  facet normal 0 1 0
    outer loop
      vertex -2.27657 2.5 5.55112e-18
      vertex -1.21352 2.5 1.66832
      vertex -0.881678 2.5 1.33647
    endloop
  endfacet
  facet normal 0 1 0
    outer loop
      vertex -2.27657 2.5 5.55112e-18
      vertex -2.27657 2.5 2.25
      vertex -1.21352 2.5 1.66832
    endloop
  endfacet
  facet normal 0 1 0
    outer loop
      vertex -2.27657 2.5 5.55112e-18
      vertex 0 2.5 1.05
      vertex 2.27657 2.5 5.55112e-18
    endloop
  endfacet
  facet normal 0 0 -1
    outer loop
      vertex -2.27657 2.5 5.55112e-18
      vertex 2.27657 2.5 5.55112e-18
      vertex 3.4 -0.025 5.55112e-18
    endloop
  endfacet
  facet normal 0 -1 0
    outer loop
      vertex -2.2814 -2.55 2.25542
      vertex -2.27657 -2.55 2.25
      vertex -1.5 -2.55 2.55
    endloop
  endfacet
  facet normal 0 1 0
    outer loop
      vertex -2.2814 2.5 2.25542
      vertex -1.5 2.5 2.55
      vertex -2.27657 2.5 2.25
    endloop
  endfacet
  facet normal -0.743145 -0.66913 -0
    outer loop
      vertex -2.32159 -2.5 5.55112e-16
      vertex -2.27657 -2.55 5.55112e-18
      vertex -2.27657 -2.55 2.25
    endloop
  endfacet
  facet normal -0.743145 -0.66913 0
    outer loop
      vertex -2.32159 -2.5 5.55112e-18
      vertex -2.27657 -2.55 5.55112e-18
      vertex -2.32159 -2.5 5.55112e-16
    endloop
  endfacet
  facet normal -0 0 -1
    outer loop
      vertex -2.32159 -2.5 5.55112e-18
      vertex 2.32159 -2.5 5.55112e-18
      vertex -2.27657 -2.55 5.55112e-18
    endloop
  endfacet
  facet normal 0 0 1
    outer loop
      vertex -2.34615 -1.72958 5.25
      vertex -1.94048 -2.18012 5.25
      vertex -2.34615 1.67958 5.25
    endloop
  endfacet
  facet normal -0 0 1
    outer loop
      vertex -2.34615 1.67958 5.25
      vertex -1.94048 -2.18012 5.25
      vertex -1.94048 2.13012 5.25
    endloop
  endfacet
  facet normal 0 0 1
    outer loop
      vertex -2.64928 -1.20454 5.25
      vertex -2.34615 -1.72958 5.25
      vertex -2.64928 1.15454 5.25
    endloop
  endfacet
  facet normal -0 0 1
    outer loop
      vertex -2.64928 1.15454 5.25
      vertex -2.34615 -1.72958 5.25
      vertex -2.34615 1.67958 5.25
    endloop
  endfacet
  facet normal -0.619374 -0.557686 -0.552596
    outer loop
      vertex -2.75066 -2.02347 2.25
      vertex -2.27657 -2.55 2.25
      vertex -2.2814 -2.55 2.25542
    endloop
  endfacet
  facet normal -0.743145 -0.66913 -7.56626e-09
    outer loop
      vertex -2.75066 -2.02347 2.25
      vertex -2.32159 -2.5 5.55112e-16
      vertex -2.27657 -2.55 2.25
    endloop
  endfacet
  facet normal -0.743145 -0.66913 0
    outer loop
      vertex -2.75066 -2.02347 4.493e-16
      vertex -2.32159 -2.5 5.55112e-16
      vertex -2.75066 -2.02347 2.25
    endloop
  endfacet
  facet normal -0.619374 0.557686 -0.552596
    outer loop
      vertex -2.75066 1.97347 2.25
      vertex -2.2814 2.5 2.25542
      vertex -2.27657 2.5 2.25
    endloop
  endfacet
  facet normal -0.743145 0.66913 0
    outer loop
      vertex -2.75066 1.97347 5.55112e-18
      vertex -2.27657 2.5 2.25
      vertex -2.27657 2.5 5.55112e-18
    endloop
  endfacet
  facet normal 0 0 -1
    outer loop
      vertex -2.75066 1.97347 5.55112e-18
      vertex -2.27657 2.5 5.55112e-18
      vertex 3.4 -0.025 5.55112e-18
    endloop
  endfacet
  facet normal -0.743145 0.66913 0
    outer loop
      vertex -2.75066 1.97347 5.55112e-18
      vertex -2.75066 1.97347 2.25
      vertex -2.27657 2.5 2.25
    endloop
  endfacet
  facet normal 0 0 1
    outer loop
      vertex -2.83663 -0.627943 5.25
      vertex -2.64928 -1.20454 5.25
      vertex -2.83663 0.577943 5.25
    endloop
  endfacet
  facet normal -0 0 1
    outer loop
      vertex -2.83663 0.577943 5.25
      vertex -2.64928 -1.20454 5.25
      vertex -2.64928 1.15454 5.25
    endloop
  endfacet
  facet normal 0 -0 1
    outer loop
      vertex -2.9 -0.025 5.25
      vertex -2.83663 -0.627943 5.25
      vertex -2.83663 0.577943 5.25
    endloop
  endfacet
  facet normal 0 -1 0
    outer loop
      vertex -2.9457 -2.55 3
      vertex -1.5 -2.55 2.55
      vertex -2.9457 -2.55 3.75
    endloop
  endfacet
  facet normal 0 -1 0
    outer loop
      vertex -2.9457 -2.55 3
      vertex -2.2814 -2.55 2.25542
      vertex -1.5 -2.55 2.55
    endloop
  endfacet
  facet normal 0 -1 0
    outer loop
      vertex -2.9457 -2.55 3.75
      vertex -1.5 -2.55 2.55
      vertex -2.27352 -2.55 4.50342
    endloop
  endfacet
  facet normal 0 1 0
    outer loop
      vertex -2.9457 2.5 3
      vertex -1.5 2.5 2.55
      vertex -2.2814 2.5 2.25542
    endloop
  endfacet
  facet normal 0 1 0
    outer loop
      vertex -2.9457 2.5 3
      vertex -2.9457 2.5 3.75
      vertex -1.5 2.5 2.55
    endloop
  endfacet
  facet normal 0 1 0
    outer loop
      vertex -2.9457 2.5 3.75
      vertex -2.27352 2.5 4.50342
      vertex -1.5 2.5 2.55
    endloop
  endfacet
  facet normal -0.866025 -0.5 0
    outer loop
      vertex -3.10605 -1.4079 2.25
      vertex -2.75066 -2.02347 4.493e-16
      vertex -2.75066 -2.02347 2.25
    endloop
  endfacet
  facet normal -0.866025 -0.5 0
    outer loop
      vertex -3.10605 -1.4079 3.12617e-16
      vertex -2.75066 -2.02347 4.493e-16
      vertex -3.10605 -1.4079 2.25
    endloop
  endfacet
  facet normal -0.866025 0.5 0
    outer loop
      vertex -3.10605 1.3579 5.55112e-18
      vertex -2.75066 1.97347 2.25
      vertex -2.75066 1.97347 5.55112e-18
    endloop
  endfacet
  facet normal 0 0 -1
    outer loop
      vertex -3.10605 1.3579 5.55112e-18
      vertex -2.75066 1.97347 5.55112e-18
      vertex 3.4 -0.025 5.55112e-18
    endloop
  endfacet
  facet normal -0.866025 0.5 0
    outer loop
      vertex -3.10605 1.3579 5.55112e-18
      vertex -3.10605 1.3579 2.25
      vertex -2.75066 1.97347 2.25
    endloop
  endfacet
  facet normal -0.619376 -0.557689 -0.552591
    outer loop
      vertex -3.15517 -2.31736 3
      vertex -2.2814 -2.55 2.25542
      vertex -2.9457 -2.55 3
    endloop
  endfacet
  facet normal -0.619376 -0.557688 -0.552591
    outer loop
      vertex -3.15517 -2.31736 3
      vertex -2.75066 -2.02347 2.25
      vertex -2.2814 -2.55 2.25542
    endloop
  endfacet
  facet normal -0.743144 -0.669131 0
    outer loop
      vertex -3.15517 -2.31736 3
      vertex -2.9457 -2.55 3
      vertex -3.15517 -2.31736 3.75
    endloop
  endfacet
  facet normal -0.721791 -0.416726 -0.552591
    outer loop
      vertex -3.15517 -2.31736 3
      vertex -3.10605 -1.4079 2.25
      vertex -2.75066 -2.02347 2.25
    endloop
  endfacet
  facet normal -0.619376 -0.557688 0.552591
    outer loop
      vertex -3.15517 -2.31736 3.75
      vertex -1.94048 -2.18012 5.25
      vertex -2.34615 -1.72958 5.25
    endloop
  endfacet
  facet normal -0.619376 -0.557689 0.552591
    outer loop
      vertex -3.15517 -2.31736 3.75
      vertex -2.27352 -2.55 4.50342
      vertex -1.94048 -2.18012 5.25
    endloop
  endfacet
  facet normal -0.72179 -0.416727 0.552591
    outer loop
      vertex -3.15517 -2.31736 3.75
      vertex -2.34615 -1.72958 5.25
      vertex -2.64928 -1.20454 5.25
    endloop
  endfacet
  facet normal -0.743144 -0.669131 0
    outer loop
      vertex -3.15517 -2.31736 3.75
      vertex -2.9457 -2.55 3
      vertex -2.9457 -2.55 3.75
    endloop
  endfacet
  facet normal -0.619376 -0.557689 0.552591
    outer loop
      vertex -3.15517 -2.31736 3.75
      vertex -2.9457 -2.55 3.75
      vertex -2.27352 -2.55 4.50342
    endloop
  endfacet
  facet normal -0.619376 0.557688 -0.552591
    outer loop
      vertex -3.15517 2.26736 3
      vertex -2.2814 2.5 2.25542
      vertex -2.75066 1.97347 2.25
    endloop
  endfacet
  facet normal -0.721791 0.416727 -0.552591
    outer loop
      vertex -3.15517 2.26736 3
      vertex -2.75066 1.97347 2.25
      vertex -3.10605 1.3579 2.25
    endloop
  endfacet
  facet normal -0.619376 0.557689 -0.552591
    outer loop
      vertex -3.15517 2.26736 3
      vertex -2.9457 2.5 3
      vertex -2.2814 2.5 2.25542
    endloop
  endfacet
  facet normal -0.743144 0.669131 0
    outer loop
      vertex -3.15517 2.26736 3
      vertex -2.9457 2.5 3.75
      vertex -2.9457 2.5 3
    endloop
  endfacet
  facet normal -0.743144 0.669131 0
    outer loop
      vertex -3.15517 2.26736 3
      vertex -3.15517 2.26736 3.75
      vertex -2.9457 2.5 3.75
    endloop
  endfacet
  facet normal -0.619376 0.557689 0.552591
    outer loop
      vertex -3.15517 2.26736 3.75
      vertex -1.94048 2.13012 5.25
      vertex -2.27352 2.5 4.50342
    endloop
  endfacet
  facet normal -0.619376 0.557689 0.552591
    outer loop
      vertex -3.15517 2.26736 3.75
      vertex -2.27352 2.5 4.50342
      vertex -2.9457 2.5 3.75
    endloop
  endfacet
  facet normal -0.619376 0.557688 0.552591
    outer loop
      vertex -3.15517 2.26736 3.75
      vertex -2.34615 1.67958 5.25
      vertex -1.94048 2.13012 5.25
    endloop
  endfacet
  facet normal -0.721791 0.416727 0.552591
    outer loop
      vertex -3.15517 2.26736 3.75
      vertex -2.64928 1.15454 5.25
      vertex -2.34615 1.67958 5.25
    endloop
  endfacet
  facet normal -0.951056 -0.309017 0
    outer loop
      vertex -3.3257 -0.7319 1.62514e-16
      vertex -3.10605 -1.4079 3.12617e-16
      vertex -3.3257 -0.7319 2.25
    endloop
  endfacet
  facet normal -0.951056 -0.309017 0
    outer loop
      vertex -3.3257 -0.7319 2.25
      vertex -3.10605 -1.4079 3.12617e-16
      vertex -3.10605 -1.4079 2.25
    endloop
  endfacet
  facet normal -0.951056 0.309017 0
    outer loop
      vertex -3.3257 0.6819 5.55112e-18
      vertex -3.10605 1.3579 2.25
      vertex -3.10605 1.3579 5.55112e-18
    endloop
  endfacet
  facet normal 0 0 -1
    outer loop
      vertex -3.3257 0.6819 5.55112e-18
      vertex -3.10605 1.3579 5.55112e-18
      vertex 3.4 -0.025 5.55112e-18
    endloop
  endfacet
  facet normal -0.951056 0.309017 0
    outer loop
      vertex -3.3257 0.6819 5.55112e-18
      vertex -3.3257 0.6819 2.25
      vertex -3.10605 1.3579 2.25
    endloop
  endfacet
  facet normal -0.994522 -0.104528 0
    outer loop
      vertex -3.4 -0.025 2.25
      vertex -3.3257 -0.7319 1.62514e-16
      vertex -3.3257 -0.7319 2.25
    endloop
  endfacet
  facet normal -0.994522 -0.104528 0
    outer loop
      vertex -3.4 -0.025 5.55112e-18
      vertex -3.3257 -0.7319 1.62514e-16
      vertex -3.4 -0.025 2.25
    endloop
  endfacet
  facet normal -0.994522 0.104528 0
    outer loop
      vertex -3.4 -0.025 5.55112e-18
      vertex -3.3257 0.6819 2.25
      vertex -3.3257 0.6819 5.55112e-18
    endloop
  endfacet
  facet normal 0 -0 -1
    outer loop
      vertex -3.4 -0.025 5.55112e-18
      vertex -3.3257 0.6819 5.55112e-18
      vertex 3.4 -0.025 5.55112e-18
    endloop
  endfacet
  facet normal -0.994522 0.104528 0
    outer loop
      vertex -3.4 -0.025 5.55112e-18
      vertex -3.4 -0.025 2.25
      vertex -3.3257 0.6819 2.25
    endloop
  endfacet
  facet normal 0 2.22045e-16 1
    outer loop
      vertex -3.4 -0.025 5.55112e-18
      vertex 3.4 -0.025 5.55112e-18
      vertex 10.25 2.5 -5.55112e-16
    endloop
  endfacet
  facet normal -0.721791 -0.416726 -0.552591
    outer loop
      vertex -3.56283 -1.61127 3
      vertex -3.10605 -1.4079 2.25
      vertex -3.15517 -2.31736 3
    endloop
  endfacet
  facet normal -0.866025 -0.5 0
    outer loop
      vertex -3.56283 -1.61127 3
      vertex -3.15517 -2.31736 3
      vertex -3.56283 -1.61127 3.75
    endloop
  endfacet
  facet normal -0.79266 -0.257551 -0.552591
    outer loop
      vertex -3.56283 -1.61127 3
      vertex -3.3257 -0.7319 2.25
      vertex -3.10605 -1.4079 2.25
    endloop
  endfacet
  facet normal -0.79266 -0.257551 0.552591
    outer loop
      vertex -3.56283 -1.61127 3.75
      vertex -2.64928 -1.20454 5.25
      vertex -2.83663 -0.627943 5.25
    endloop
  endfacet
  facet normal -0.866025 -0.5 0
    outer loop
      vertex -3.56283 -1.61127 3.75
      vertex -3.15517 -2.31736 3
      vertex -3.15517 -2.31736 3.75
    endloop
  endfacet
  facet normal -0.721791 -0.416726 0.552591
    outer loop
      vertex -3.56283 -1.61127 3.75
      vertex -3.15517 -2.31736 3.75
      vertex -2.64928 -1.20454 5.25
    endloop
  endfacet
  facet normal -0.79266 0.257551 -0.552591
    outer loop
      vertex -3.56283 1.56127 3
      vertex -3.10605 1.3579 2.25
      vertex -3.3257 0.6819 2.25
    endloop
  endfacet
  facet normal -0.721791 0.416726 -0.552591
    outer loop
      vertex -3.56283 1.56127 3
      vertex -3.15517 2.26736 3
      vertex -3.10605 1.3579 2.25
    endloop
  endfacet
  facet normal -0.866025 0.5 0
    outer loop
      vertex -3.56283 1.56127 3
      vertex -3.15517 2.26736 3.75
      vertex -3.15517 2.26736 3
    endloop
  endfacet
  facet normal -0.866025 0.5 0
    outer loop
      vertex -3.56283 1.56127 3
      vertex -3.56283 1.56127 3.75
      vertex -3.15517 2.26736 3.75
    endloop
  endfacet
  facet normal -0.721791 0.416726 0.552591
    outer loop
      vertex -3.56283 1.56127 3.75
      vertex -2.64928 1.15454 5.25
      vertex -3.15517 2.26736 3.75
    endloop
  endfacet
  facet normal -0.79266 0.257551 0.552591
    outer loop
      vertex -3.56283 1.56127 3.75
      vertex -2.83663 0.577943 5.25
      vertex -2.64928 1.15454 5.25
    endloop
  endfacet
  facet normal -0.792661 -0.257551 -0.552591
    outer loop
      vertex -3.81478 -0.835855 3
      vertex -3.3257 -0.7319 2.25
      vertex -3.56283 -1.61127 3
    endloop
  endfacet
  facet normal -0.951057 -0.309017 0
    outer loop
      vertex -3.81478 -0.835855 3
      vertex -3.56283 -1.61127 3
      vertex -3.81478 -0.835855 3.75
    endloop
  endfacet
  facet normal -0.951057 -0.309017 0
    outer loop
      vertex -3.81478 -0.835855 3.75
      vertex -3.56283 -1.61127 3
      vertex -3.56283 -1.61127 3.75
    endloop
  endfacet
  facet normal -0.79266 -0.257551 0.552591
    outer loop
      vertex -3.81478 -0.835855 3.75
      vertex -3.56283 -1.61127 3.75
      vertex -2.83663 -0.627943 5.25
    endloop
  endfacet
  facet normal -0.792661 0.257551 -0.552591
    outer loop
      vertex -3.81478 0.785855 3
      vertex -3.56283 1.56127 3
      vertex -3.3257 0.6819 2.25
    endloop
  endfacet
  facet normal -0.951057 0.309017 0
    outer loop
      vertex -3.81478 0.785855 3
      vertex -3.56283 1.56127 3.75
      vertex -3.56283 1.56127 3
    endloop
  endfacet
  facet normal -0.951057 0.309017 0
    outer loop
      vertex -3.81478 0.785855 3
      vertex -3.81478 0.785855 3.75
      vertex -3.56283 1.56127 3.75
    endloop
  endfacet
  facet normal -0.79266 0.257551 0.552591
    outer loop
      vertex -3.81478 0.785855 3.75
      vertex -2.83663 0.577943 5.25
      vertex -3.56283 1.56127 3.75
    endloop
  endfacet
  facet normal -0.828887 -0.0871194 -0.552591
    outer loop
      vertex -3.9 -0.025 3
      vertex -3.3257 -0.7319 2.25
      vertex -3.81478 -0.835855 3
    endloop
  endfacet
  facet normal -0.828887 0.0871192 -0.552591
    outer loop
      vertex -3.9 -0.025 3
      vertex -3.3257 0.6819 2.25
      vertex -3.4 -0.025 2.25
    endloop
  endfacet
  facet normal -0.828887 -0.0871192 -0.552591
    outer loop
      vertex -3.9 -0.025 3
      vertex -3.4 -0.025 2.25
      vertex -3.3257 -0.7319 2.25
    endloop
  endfacet
  facet normal -0.994522 -0.104528 0
    outer loop
      vertex -3.9 -0.025 3
      vertex -3.81478 -0.835855 3
      vertex -3.9 -0.025 3.75
    endloop
  endfacet
  facet normal -0.828887 0.0871194 -0.552591
    outer loop
      vertex -3.9 -0.025 3
      vertex -3.81478 0.785855 3
      vertex -3.3257 0.6819 2.25
    endloop
  endfacet
  facet normal -0.994522 0.104528 0
    outer loop
      vertex -3.9 -0.025 3
      vertex -3.81478 0.785855 3.75
      vertex -3.81478 0.785855 3
    endloop
  endfacet
  facet normal -0.994522 0.104528 0
    outer loop
      vertex -3.9 -0.025 3
      vertex -3.9 -0.025 3.75
      vertex -3.81478 0.785855 3.75
    endloop
  endfacet
  facet normal -0.828887 -0.0871192 0.552591
    outer loop
      vertex -3.9 -0.025 3.75
      vertex -2.83663 -0.627943 5.25
      vertex -2.9 -0.025 5.25
    endloop
  endfacet
  facet normal -0.828887 0.0871194 0.552591
    outer loop
      vertex -3.9 -0.025 3.75
      vertex -2.83663 0.577943 5.25
      vertex -3.81478 0.785855 3.75
    endloop
  endfacet
  facet normal -0.828887 0.0871192 0.552591
    outer loop
      vertex -3.9 -0.025 3.75
      vertex -2.9 -0.025 5.25
      vertex -2.83663 0.577943 5.25
    endloop
  endfacet
  facet normal -0.994522 -0.104528 0
    outer loop
      vertex -3.9 -0.025 3.75
      vertex -3.81478 -0.835855 3
      vertex -3.81478 -0.835855 3.75
    endloop
  endfacet
  facet normal -0.828887 -0.0871194 0.552591
    outer loop
      vertex -3.9 -0.025 3.75
      vertex -3.81478 -0.835855 3.75
      vertex -2.83663 -0.627943 5.25
    endloop
  endfacet
  facet normal 1 -0 0
    outer loop
      vertex -8.5 -2.5 -4.5
      vertex -8.5 2.5 -5.5
      vertex -8.5 2.5 -4.5
    endloop
  endfacet
  facet normal 1 0 0
    outer loop
      vertex -8.5 -2.5 -5.5
      vertex -8.5 2.5 -5.5
      vertex -8.5 -2.5 -4.5
    endloop
  endfacet
  facet normal 0 -1 -0
    outer loop
      vertex -9.25 -2.5 -1
      vertex -2.32159 -2.5 5.55112e-18
      vertex -2.32159 -2.5 5.55112e-16
    endloop
  endfacet
  facet normal -0 0 -1
    outer loop
      vertex -9.25 -2.5 -1
      vertex -9.25 2.5 -1
      vertex 9.25 2.5 -1
    endloop
  endfacet
  facet normal 1 -0 0
    outer loop
      vertex -9.25 -2.5 -1
      vertex -9.25 2.5 -4.5
      vertex -9.25 2.5 -1
    endloop
  endfacet
  facet normal 0 -1 -0
    outer loop
      vertex -9.25 -2.5 -1
      vertex 2.32159 -2.5 5.55112e-18
      vertex -2.32159 -2.5 5.55112e-18
    endloop
  endfacet
  facet normal 0 -1 0
    outer loop
      vertex -9.25 -2.5 -1
      vertex 9.25 -2.5 -1
      vertex 2.32159 -2.5 5.55112e-18
    endloop
  endfacet
  facet normal 0 0 -1
    outer loop
      vertex -9.25 -2.5 -1
      vertex 9.25 2.5 -1
      vertex 9.25 -2.5 -1
    endloop
  endfacet
  facet normal 0 0 1
    outer loop
      vertex -9.25 -2.5 -4.5
      vertex -8.5 -2.5 -4.5
      vertex -9.25 2.5 -4.5
    endloop
  endfacet
  facet normal 0 -1 0
    outer loop
      vertex -9.25 -2.5 -4.5
      vertex -8.5 -2.5 -5.5
      vertex -8.5 -2.5 -4.5
    endloop
  endfacet
  facet normal 1 0 0
    outer loop
      vertex -9.25 -2.5 -4.5
      vertex -9.25 2.5 -4.5
      vertex -9.25 -2.5 -1
    endloop
  endfacet
  facet normal -0 0 1
    outer loop
      vertex -9.25 2.5 -4.5
      vertex -8.5 -2.5 -4.5
      vertex -8.5 2.5 -4.5
    endloop
  endfacet
  facet normal 0 1 0
    outer loop
      vertex -9.25 2.5 -4.5
      vertex -8.5 2.5 -4.5
      vertex -8.5 2.5 -5.5
    endloop
  endfacet
  facet normal -0.156436 0 0.987688
    outer loop
      vertex 0 -2.55 1.05
      vertex 0.463525 -2.55 1.12341
      vertex 0 2.5 1.05
    endloop
  endfacet
  facet normal 0 -1 0
    outer loop
      vertex 0 -2.55 1.05
      vertex 2.27657 -2.55 5.55112e-18
      vertex 0.463525 -2.55 1.12341
    endloop
  endfacet
  facet normal -0.156436 0 0.987688
    outer loop
      vertex 0 2.5 1.05
      vertex 0.463525 -2.55 1.12341
      vertex 0.463525 2.5 1.12341
    endloop
  endfacet
  facet normal 0 1 0
    outer loop
      vertex 0 2.5 1.05
      vertex 0.463525 2.5 1.12341
      vertex 2.27657 2.5 5.55112e-18
    endloop
  endfacet
  facet normal -0.45399 0 0.891007
    outer loop
      vertex 0.463525 -2.55 1.12341
      vertex 0.881678 -2.55 1.33647
      vertex 0.463525 2.5 1.12341
    endloop
  endfacet
  facet normal 0 -1 0
    outer loop
      vertex 0.463525 -2.55 1.12341
      vertex 2.27657 -2.55 5.55112e-18
      vertex 0.881678 -2.55 1.33647
    endloop
  endfacet
  facet normal -0.45399 0 0.891007
    outer loop
      vertex 0.463525 2.5 1.12341
      vertex 0.881678 -2.55 1.33647
      vertex 0.881678 2.5 1.33647
    endloop
  endfacet
  facet normal 0 1 0
    outer loop
      vertex 0.463525 2.5 1.12341
      vertex 0.881678 2.5 1.33647
      vertex 2.27657 2.5 5.55112e-18
    endloop
  endfacet
  facet normal -0.707107 0 0.707107
    outer loop
      vertex 0.881678 -2.55 1.33647
      vertex 1.21352 -2.55 1.66832
      vertex 1.21352 2.5 1.66832
    endloop
  endfacet
  facet normal -0.707107 0 0.707107
    outer loop
      vertex 0.881678 -2.55 1.33647
      vertex 1.21352 2.5 1.66832
      vertex 0.881678 2.5 1.33647
    endloop
  endfacet
  facet normal 0 -1 0
    outer loop
      vertex 0.881678 -2.55 1.33647
      vertex 2.27657 -2.55 5.55112e-18
      vertex 1.21352 -2.55 1.66832
    endloop
  endfacet
  facet normal 0 1 0
    outer loop
      vertex 0.881678 2.5 1.33647
      vertex 1.21352 2.5 1.66832
      vertex 2.27657 2.5 5.55112e-18
    endloop
  endfacet
  facet normal -0.891007 0 0.45399
    outer loop
      vertex 1.21352 -2.55 1.66832
      vertex 1.42658 -2.55 2.08647
      vertex 1.42658 2.5 2.08647
    endloop
  endfacet
  facet normal -0.891007 0 0.45399
    outer loop
      vertex 1.21352 -2.55 1.66832
      vertex 1.42658 2.5 2.08647
      vertex 1.21352 2.5 1.66832
    endloop
  endfacet
  facet normal 0 -1 0
    outer loop
      vertex 1.21352 -2.55 1.66832
      vertex 2.27657 -2.55 2.25
      vertex 1.42658 -2.55 2.08647
    endloop
  endfacet
  facet normal 0 -1 0
    outer loop
      vertex 1.21352 -2.55 1.66832
      vertex 2.27657 -2.55 5.55112e-18
      vertex 2.27657 -2.55 2.25
    endloop
  endfacet
  facet normal 0 1 0
    outer loop
      vertex 1.21352 2.5 1.66832
      vertex 1.42658 2.5 2.08647
      vertex 2.27657 2.5 2.25
    endloop
  endfacet
  facet normal 0 1 -0
    outer loop
      vertex 1.21352 2.5 1.66832
      vertex 2.27657 2.5 2.25
      vertex 2.27657 2.5 5.55112e-18
    endloop
  endfacet
  facet normal -0.987688 0 0.156436
    outer loop
      vertex 1.42658 -2.55 2.08647
      vertex 1.5 -2.55 2.55
      vertex 1.5 2.5 2.55
    endloop
  endfacet
  facet normal -0.987688 0 0.156436
    outer loop
      vertex 1.42658 -2.55 2.08647
      vertex 1.5 2.5 2.55
      vertex 1.42658 2.5 2.08647
    endloop
  endfacet
  facet normal 0 -1 0
    outer loop
      vertex 1.42658 -2.55 2.08647
      vertex 2.27657 -2.55 2.25
      vertex 1.5 -2.55 2.55
    endloop
  endfacet
  facet normal 0 1 0
    outer loop
      vertex 1.42658 2.5 2.08647
      vertex 1.5 2.5 2.55
      vertex 2.27657 2.5 2.25
    endloop
  endfacet
  facet normal -1 0 0
    outer loop
      vertex 1.5 -2.50015 5.25
      vertex 1.5 2.45015 5.25
      vertex 1.5 2.5 2.55
    endloop
  endfacet
  facet normal 0 0 1
    outer loop
      vertex 1.5 -2.50015 5.25
      vertex 1.94048 -2.18012 5.25
      vertex 1.5 2.45015 5.25
    endloop
  endfacet
  facet normal -1 0 0
    outer loop
      vertex 1.5 -2.55 2.55
      vertex 1.5 -2.50015 5.25
      vertex 1.5 2.5 2.55
    endloop
  endfacet
  facet normal -1 0 0
    outer loop
      vertex 1.5 -2.55 2.55
      vertex 1.5 -2.55 5.18917
      vertex 1.5 -2.50015 5.25
    endloop
  endfacet
  facet normal 0 -1 0
    outer loop
      vertex 1.5 -2.55 2.55
      vertex 1.94336 -2.55 4.79611
      vertex 1.5 -2.55 5.18917
    endloop
  endfacet
  facet normal 0 -1 -0
    outer loop
      vertex 1.5 -2.55 2.55
      vertex 2.27352 -2.55 4.50342
      vertex 1.94336 -2.55 4.79611
    endloop
  endfacet
  facet normal 0 -1 0
    outer loop
      vertex 1.5 -2.55 2.55
      vertex 2.27657 -2.55 2.25
      vertex 2.2814 -2.55 2.25542
    endloop
  endfacet
  facet normal 0 -1 0
    outer loop
      vertex 1.5 -2.55 2.55
      vertex 2.2814 -2.55 2.25542
      vertex 2.9457 -2.55 3
    endloop
  endfacet
  facet normal 0 -1 -0
    outer loop
      vertex 1.5 -2.55 2.55
      vertex 2.9457 -2.55 3
      vertex 2.9457 -2.55 3.75
    endloop
  endfacet
  facet normal 0 -1 -0
    outer loop
      vertex 1.5 -2.55 2.55
      vertex 2.9457 -2.55 3.75
      vertex 2.27352 -2.55 4.50342
    endloop
  endfacet
  facet normal 0.489891 -0.674277 0.552591
    outer loop
      vertex 1.5 -2.55 5.18917
      vertex 1.94048 -2.18012 5.25
      vertex 1.5 -2.50015 5.25
    endloop
  endfacet
  facet normal 0.489891 -0.674277 0.552591
    outer loop
      vertex 1.5 -2.55 5.18917
      vertex 1.94336 -2.55 4.79611
      vertex 1.94048 -2.18012 5.25
    endloop
  endfacet
  facet normal -1 0 0
    outer loop
      vertex 1.5 2.45015 5.25
      vertex 1.5 2.5 5.18917
      vertex 1.5 2.5 2.55
    endloop
  endfacet
  facet normal 0 0 1
    outer loop
      vertex 1.5 2.45015 5.25
      vertex 1.94048 -2.18012 5.25
      vertex 1.94048 2.13012 5.25
    endloop
  endfacet
  facet normal 0.489892 0.674278 0.552589
    outer loop
      vertex 1.5 2.45015 5.25
      vertex 1.94048 2.13012 5.25
      vertex 1.5 2.5 5.18917
    endloop
  endfacet
  facet normal 0 1 0
    outer loop
      vertex 1.5 2.5 2.55
      vertex 1.5 2.5 5.18917
      vertex 1.94336 2.5 4.79611
    endloop
  endfacet
  facet normal 0 1 0
    outer loop
      vertex 1.5 2.5 2.55
      vertex 1.94336 2.5 4.79611
      vertex 2.27352 2.5 4.50342
    endloop
  endfacet
  facet normal 0 1 0
    outer loop
      vertex 1.5 2.5 2.55
      vertex 2.27352 2.5 4.50342
      vertex 2.9457 2.5 3.75
    endloop
  endfacet
  facet normal 0 1 -0
    outer loop
      vertex 1.5 2.5 2.55
      vertex 2.2814 2.5 2.25542
      vertex 2.27657 2.5 2.25
    endloop
  endfacet
  facet normal 0 1 -0
    outer loop
      vertex 1.5 2.5 2.55
      vertex 2.9457 2.5 3
      vertex 2.2814 2.5 2.25542
    endloop
  endfacet
  facet normal 0 1 0
    outer loop
      vertex 1.5 2.5 2.55
      vertex 2.9457 2.5 3.75
      vertex 2.9457 2.5 3
    endloop
  endfacet
  facet normal 0.489891 0.674277 0.552591
    outer loop
      vertex 1.5 2.5 5.18917
      vertex 1.94048 2.13012 5.25
      vertex 1.94336 2.5 4.79611
    endloop
  endfacet
  facet normal 0.489892 -0.674277 0.552591
    outer loop
      vertex 1.94048 -2.18012 5.25
      vertex 1.94336 -2.55 4.79611
      vertex 2.27352 -2.55 4.50342
    endloop
  endfacet
  facet normal 0.619376 -0.557689 0.552591
    outer loop
      vertex 1.94048 -2.18012 5.25
      vertex 2.27352 -2.55 4.50342
      vertex 3.15517 -2.31736 3.75
    endloop
  endfacet
  facet normal 0 0 1
    outer loop
      vertex 1.94048 -2.18012 5.25
      vertex 2.34615 -1.72958 5.25
      vertex 1.94048 2.13012 5.25
    endloop
  endfacet
  facet normal 0.619376 -0.557688 0.552591
    outer loop
      vertex 1.94048 -2.18012 5.25
      vertex 3.15517 -2.31736 3.75
      vertex 2.34615 -1.72958 5.25
    endloop
  endfacet
  facet normal 0.489892 0.674277 0.552591
    outer loop
      vertex 1.94048 2.13012 5.25
      vertex 2.27352 2.5 4.50342
      vertex 1.94336 2.5 4.79611
    endloop
  endfacet
  facet normal 0 0 1
    outer loop
      vertex 1.94048 2.13012 5.25
      vertex 2.34615 -1.72958 5.25
      vertex 2.34615 1.67958 5.25
    endloop
  endfacet
  facet normal 0.619376 0.557688 0.552591
    outer loop
      vertex 1.94048 2.13012 5.25
      vertex 2.34615 1.67958 5.25
      vertex 3.15517 2.26736 3.75
    endloop
  endfacet
  facet normal 0.619376 0.557689 0.552591
    outer loop
      vertex 1.94048 2.13012 5.25
      vertex 3.15517 2.26736 3.75
      vertex 2.27352 2.5 4.50342
    endloop
  endfacet
  facet normal 1 0 0
    outer loop
      vertex 10.25 -2.5 -5.5
      vertex 10.25 2.5 -5.5
      vertex 10.25 -2.5 5.55112e-16
    endloop
  endfacet
  facet normal 1 0 0
    outer loop
      vertex 10.25 -2.5 5.55112e-16
      vertex 10.25 2.5 -5.5
      vertex 10.25 2.5 -5.55112e-16
    endloop
  endfacet
  facet normal 0.619376 -0.557689 0.552591
    outer loop
      vertex 2.27352 -2.55 4.50342
      vertex 2.9457 -2.55 3.75
      vertex 3.15517 -2.31736 3.75
    endloop
  endfacet
  facet normal 0.619376 0.557689 0.552591
    outer loop
      vertex 2.27352 2.5 4.50342
      vertex 3.15517 2.26736 3.75
      vertex 2.9457 2.5 3.75
    endloop
  endfacet
  facet normal 0.743145 -0.66913 -7.56626e-09
    outer loop
      vertex 2.27657 -2.55 2.25
      vertex 2.32159 -2.5 5.55112e-16
      vertex 2.75066 -2.02347 2.25
    endloop
  endfacet
  facet normal 0.619374 -0.557686 -0.552596
    outer loop
      vertex 2.27657 -2.55 2.25
      vertex 2.75066 -2.02347 2.25
      vertex 2.2814 -2.55 2.25542
    endloop
  endfacet
  facet normal 0.743145 -0.66913 0
    outer loop
      vertex 2.27657 -2.55 5.55112e-18
      vertex 2.32159 -2.5 5.55112e-16
      vertex 2.27657 -2.55 2.25
    endloop
  endfacet
  facet normal 0.743145 -0.66913 0
    outer loop
      vertex 2.27657 -2.55 5.55112e-18
      vertex 2.32159 -2.5 5.55112e-18
      vertex 2.32159 -2.5 5.55112e-16
    endloop
  endfacet
  facet normal 0.619374 0.557686 -0.552596
    outer loop
      vertex 2.27657 2.5 2.25
      vertex 2.2814 2.5 2.25542
      vertex 2.75066 1.97347 2.25
    endloop
  endfacet
  facet normal 0.743145 0.66913 0
    outer loop
      vertex 2.27657 2.5 5.55112e-18
      vertex 2.27657 2.5 2.25
      vertex 2.75066 1.97347 2.25
    endloop
  endfacet
  facet normal 0.743145 0.66913 0
    outer loop
      vertex 2.27657 2.5 5.55112e-18
      vertex 2.75066 1.97347 2.25
      vertex 2.75066 1.97347 5.55112e-18
    endloop
  endfacet
  facet normal 0 0 -1
    outer loop
      vertex 2.27657 2.5 5.55112e-18
      vertex 2.75066 1.97347 5.55112e-18
      vertex 3.4 -0.025 5.55112e-18
    endloop
  endfacet
  facet normal 0.619376 -0.557688 -0.552591
    outer loop
      vertex 2.2814 -2.55 2.25542
      vertex 2.75066 -2.02347 2.25
      vertex 3.15517 -2.31736 3
    endloop
  endfacet
  facet normal 0.619376 -0.557689 -0.552591
    outer loop
      vertex 2.2814 -2.55 2.25542
      vertex 3.15517 -2.31736 3
      vertex 2.9457 -2.55 3
    endloop
  endfacet
  facet normal 0.619376 0.557689 -0.552591
    outer loop
      vertex 2.2814 2.5 2.25542
      vertex 2.9457 2.5 3
      vertex 3.15517 2.26736 3
    endloop
  endfacet
  facet normal 0.619376 0.557688 -0.552591
    outer loop
      vertex 2.2814 2.5 2.25542
      vertex 3.15517 2.26736 3
      vertex 2.75066 1.97347 2.25
    endloop
  endfacet
  facet normal 0 2.22045e-16 1
    outer loop
      vertex 2.32159 -2.5 5.55112e-16
      vertex 10.25 -2.5 5.55112e-16
      vertex 2.75066 -2.02347 4.493e-16
    endloop
  endfacet
  facet normal 0.743145 -0.66913 0
    outer loop
      vertex 2.32159 -2.5 5.55112e-16
      vertex 2.75066 -2.02347 4.493e-16
      vertex 2.75066 -2.02347 2.25
    endloop
  endfacet
  facet normal 0 -1 0
    outer loop
      vertex 2.32159 -2.5 5.55112e-16
      vertex 9.25 -2.5 -1
      vertex 10.25 -2.5 5.55112e-16
    endloop
  endfacet
  facet normal 0 -1 0
    outer loop
      vertex 2.32159 -2.5 5.55112e-18
      vertex 9.25 -2.5 -1
      vertex 2.32159 -2.5 5.55112e-16
    endloop
  endfacet
  facet normal 0 0 1
    outer loop
      vertex 2.34615 -1.72958 5.25
      vertex 2.64928 -1.20454 5.25
      vertex 2.34615 1.67958 5.25
    endloop
  endfacet
  facet normal 0.72179 -0.416727 0.552591
    outer loop
      vertex 2.34615 -1.72958 5.25
      vertex 3.15517 -2.31736 3.75
      vertex 2.64928 -1.20454 5.25
    endloop
  endfacet
  facet normal 0 0 1
    outer loop
      vertex 2.34615 1.67958 5.25
      vertex 2.64928 -1.20454 5.25
      vertex 2.64928 1.15454 5.25
    endloop
  endfacet
  facet normal 0.721791 0.416727 0.552591
    outer loop
      vertex 2.34615 1.67958 5.25
      vertex 2.64928 1.15454 5.25
      vertex 3.15517 2.26736 3.75
    endloop
  endfacet
  facet normal 0 0 1
    outer loop
      vertex 2.64928 -1.20454 5.25
      vertex 2.83663 -0.627943 5.25
      vertex 2.64928 1.15454 5.25
    endloop
  endfacet
  facet normal 0.721791 -0.416726 0.552591
    outer loop
      vertex 2.64928 -1.20454 5.25
      vertex 3.15517 -2.31736 3.75
      vertex 3.56283 -1.61127 3.75
    endloop
  endfacet
  facet normal 0.79266 -0.257551 0.552591
    outer loop
      vertex 2.64928 -1.20454 5.25
      vertex 3.56283 -1.61127 3.75
      vertex 2.83663 -0.627943 5.25
    endloop
  endfacet
  facet normal 0 0 1
    outer loop
      vertex 2.64928 1.15454 5.25
      vertex 2.83663 -0.627943 5.25
      vertex 2.83663 0.577943 5.25
    endloop
  endfacet
  facet normal 0.79266 0.257551 0.552591
    outer loop
      vertex 2.64928 1.15454 5.25
      vertex 2.83663 0.577943 5.25
      vertex 3.56283 1.56127 3.75
    endloop
  endfacet
  facet normal 0.721791 0.416726 0.552591
    outer loop
      vertex 2.64928 1.15454 5.25
      vertex 3.56283 1.56127 3.75
      vertex 3.15517 2.26736 3.75
    endloop
  endfacet
  facet normal 0.721791 -0.416726 -0.552591
    outer loop
      vertex 2.75066 -2.02347 2.25
      vertex 3.10605 -1.4079 2.25
      vertex 3.15517 -2.31736 3
    endloop
  endfacet
  facet normal 0.866025 -0.5 0
    outer loop
      vertex 2.75066 -2.02347 2.25
      vertex 3.10605 -1.4079 3.12617e-16
      vertex 3.10605 -1.4079 2.25
    endloop
  endfacet
  facet normal 0 2.22045e-16 1
    outer loop
      vertex 2.75066 -2.02347 4.493e-16
      vertex 10.25 -2.5 5.55112e-16
      vertex 3.10605 -1.4079 3.12617e-16
    endloop
  endfacet
  facet normal 0.866025 -0.5 0
    outer loop
      vertex 2.75066 -2.02347 4.493e-16
      vertex 3.10605 -1.4079 3.12617e-16
      vertex 2.75066 -2.02347 2.25
    endloop
  endfacet
  facet normal 0.721791 0.416727 -0.552591
    outer loop
      vertex 2.75066 1.97347 2.25
      vertex 3.15517 2.26736 3
      vertex 3.10605 1.3579 2.25
    endloop
  endfacet
  facet normal 0.866025 0.5 0
    outer loop
      vertex 2.75066 1.97347 5.55112e-18
      vertex 2.75066 1.97347 2.25
      vertex 3.10605 1.3579 2.25
    endloop
  endfacet
  facet normal 0.866025 0.5 0
    outer loop
      vertex 2.75066 1.97347 5.55112e-18
      vertex 3.10605 1.3579 2.25
      vertex 3.10605 1.3579 5.55112e-18
    endloop
  endfacet
  facet normal 0 0 -1
    outer loop
      vertex 2.75066 1.97347 5.55112e-18
      vertex 3.10605 1.3579 5.55112e-18
      vertex 3.4 -0.025 5.55112e-18
    endloop
  endfacet
  facet normal 0 0 1
    outer loop
      vertex 2.83663 -0.627943 5.25
      vertex 2.9 -0.025 5.25
      vertex 2.83663 0.577943 5.25
    endloop
  endfacet
  facet normal 0.79266 -0.257551 0.552591
    outer loop
      vertex 2.83663 -0.627943 5.25
      vertex 3.56283 -1.61127 3.75
      vertex 3.81478 -0.835855 3.75
    endloop
  endfacet
  facet normal 0.828887 -0.0871194 0.552591
    outer loop
      vertex 2.83663 -0.627943 5.25
      vertex 3.81478 -0.835855 3.75
      vertex 3.9 -0.025 3.75
    endloop
  endfacet
  facet normal 0.828887 -0.0871192 0.552591
    outer loop
      vertex 2.83663 -0.627943 5.25
      vertex 3.9 -0.025 3.75
      vertex 2.9 -0.025 5.25
    endloop
  endfacet
  facet normal 0.828887 0.0871192 0.552591
    outer loop
      vertex 2.83663 0.577943 5.25
      vertex 2.9 -0.025 5.25
      vertex 3.9 -0.025 3.75
    endloop
  endfacet
  facet normal 0.79266 0.257551 0.552591
    outer loop
      vertex 2.83663 0.577943 5.25
      vertex 3.81478 0.785855 3.75
      vertex 3.56283 1.56127 3.75
    endloop
  endfacet
  facet normal 0.828887 0.0871194 0.552591
    outer loop
      vertex 2.83663 0.577943 5.25
      vertex 3.9 -0.025 3.75
      vertex 3.81478 0.785855 3.75
    endloop
  endfacet
  facet normal 0.743144 -0.669131 0
    outer loop
      vertex 2.9457 -2.55 3
      vertex 3.15517 -2.31736 3
      vertex 2.9457 -2.55 3.75
    endloop
  endfacet
  facet normal 0.743144 -0.669131 0
    outer loop
      vertex 2.9457 -2.55 3.75
      vertex 3.15517 -2.31736 3
      vertex 3.15517 -2.31736 3.75
    endloop
  endfacet
  facet normal 0.743144 0.669131 0
    outer loop
      vertex 2.9457 2.5 3
      vertex 2.9457 2.5 3.75
      vertex 3.15517 2.26736 3.75
    endloop
  endfacet
  facet normal 0.743144 0.669131 0
    outer loop
      vertex 2.9457 2.5 3
      vertex 3.15517 2.26736 3.75
      vertex 3.15517 2.26736 3
    endloop
  endfacet
  facet normal 0.951056 -0.309017 0
    outer loop
      vertex 3.10605 -1.4079 2.25
      vertex 3.3257 -0.7319 1.62514e-16
      vertex 3.3257 -0.7319 2.25
    endloop
  endfacet
  facet normal 0.79266 -0.257551 -0.552591
    outer loop
      vertex 3.10605 -1.4079 2.25
      vertex 3.3257 -0.7319 2.25
      vertex 3.56283 -1.61127 3
    endloop
  endfacet
  facet normal 0.721791 -0.416726 -0.552591
    outer loop
      vertex 3.10605 -1.4079 2.25
      vertex 3.56283 -1.61127 3
      vertex 3.15517 -2.31736 3
    endloop
  endfacet
  facet normal 0 2.22045e-16 1
    outer loop
      vertex 3.10605 -1.4079 3.12617e-16
      vertex 10.25 -2.5 5.55112e-16
      vertex 3.3257 -0.7319 1.62514e-16
    endloop
  endfacet
  facet normal 0.951056 -0.309017 0
    outer loop
      vertex 3.10605 -1.4079 3.12617e-16
      vertex 3.3257 -0.7319 1.62514e-16
      vertex 3.10605 -1.4079 2.25
    endloop
  endfacet
  facet normal 0.721791 0.416726 -0.552591
    outer loop
      vertex 3.10605 1.3579 2.25
      vertex 3.15517 2.26736 3
      vertex 3.56283 1.56127 3
    endloop
  endfacet
  facet normal 0.79266 0.257551 -0.552591
    outer loop
      vertex 3.10605 1.3579 2.25
      vertex 3.56283 1.56127 3
      vertex 3.3257 0.6819 2.25
    endloop
  endfacet
  facet normal 0.951056 0.309017 0
    outer loop
      vertex 3.10605 1.3579 5.55112e-18
      vertex 3.10605 1.3579 2.25
      vertex 3.3257 0.6819 2.25
    endloop
  endfacet
  facet normal 0.951056 0.309017 0
    outer loop
      vertex 3.10605 1.3579 5.55112e-18
      vertex 3.3257 0.6819 2.25
      vertex 3.3257 0.6819 5.55112e-18
    endloop
  endfacet
  facet normal 0 0 -1
    outer loop
      vertex 3.10605 1.3579 5.55112e-18
      vertex 3.3257 0.6819 5.55112e-18
      vertex 3.4 -0.025 5.55112e-18
    endloop
  endfacet
  facet normal 0.866025 -0.5 0
    outer loop
      vertex 3.15517 -2.31736 3
      vertex 3.56283 -1.61127 3
      vertex 3.15517 -2.31736 3.75
    endloop
  endfacet
  facet normal 0.866025 -0.5 0
    outer loop
      vertex 3.15517 -2.31736 3.75
      vertex 3.56283 -1.61127 3
      vertex 3.56283 -1.61127 3.75
    endloop
  endfacet
  facet normal 0.866025 0.5 0
    outer loop
      vertex 3.15517 2.26736 3
      vertex 3.15517 2.26736 3.75
      vertex 3.56283 1.56127 3.75
    endloop
  endfacet
  facet normal 0.866025 0.5 0
    outer loop
      vertex 3.15517 2.26736 3
      vertex 3.56283 1.56127 3.75
      vertex 3.56283 1.56127 3
    endloop
  endfacet
  facet normal 0 2.22045e-16 1
    outer loop
      vertex 3.3257 -0.7319 1.62514e-16
      vertex 10.25 -2.5 5.55112e-16
      vertex 3.4 -0.025 5.55112e-18
    endloop
  endfacet
  facet normal 0.994522 -0.104528 0
    outer loop
      vertex 3.3257 -0.7319 1.62514e-16
      vertex 3.4 -0.025 5.55112e-18
      vertex 3.3257 -0.7319 2.25
    endloop
  endfacet
  facet normal 0.828887 -0.0871192 -0.552591
    outer loop
      vertex 3.3257 -0.7319 2.25
      vertex 3.4 -0.025 2.25
      vertex 3.9 -0.025 3
    endloop
  endfacet
  facet normal 0.994522 -0.104528 0
    outer loop
      vertex 3.3257 -0.7319 2.25
      vertex 3.4 -0.025 5.55112e-18
      vertex 3.4 -0.025 2.25
    endloop
  endfacet
  facet normal 0.792661 -0.257551 -0.552591
    outer loop
      vertex 3.3257 -0.7319 2.25
      vertex 3.81478 -0.835855 3
      vertex 3.56283 -1.61127 3
    endloop
  endfacet
  facet normal 0.828887 -0.0871194 -0.552591
    outer loop
      vertex 3.3257 -0.7319 2.25
      vertex 3.9 -0.025 3
      vertex 3.81478 -0.835855 3
    endloop
  endfacet
  facet normal 0.792661 0.257551 -0.552591
    outer loop
      vertex 3.3257 0.6819 2.25
      vertex 3.56283 1.56127 3
      vertex 3.81478 0.785855 3
    endloop
  endfacet
  facet normal 0.828887 0.0871194 -0.552591
    outer loop
      vertex 3.3257 0.6819 2.25
      vertex 3.81478 0.785855 3
      vertex 3.9 -0.025 3
    endloop
  endfacet
  facet normal 0.828887 0.0871192 -0.552591
    outer loop
      vertex 3.3257 0.6819 2.25
      vertex 3.9 -0.025 3
      vertex 3.4 -0.025 2.25
    endloop
  endfacet
  facet normal 0.994522 0.104528 0
    outer loop
      vertex 3.3257 0.6819 5.55112e-18
      vertex 3.3257 0.6819 2.25
      vertex 3.4 -0.025 2.25
    endloop
  endfacet
  facet normal 0.994522 0.104528 0
    outer loop
      vertex 3.3257 0.6819 5.55112e-18
      vertex 3.4 -0.025 2.25
      vertex 3.4 -0.025 5.55112e-18
    endloop
  endfacet
  facet normal 0 2.22045e-16 1
    outer loop
      vertex 3.4 -0.025 5.55112e-18
      vertex 10.25 -2.5 5.55112e-16
      vertex 10.25 2.5 -5.55112e-16
    endloop
  endfacet
  facet normal 0.951057 -0.309017 0
    outer loop
      vertex 3.56283 -1.61127 3
      vertex 3.81478 -0.835855 3
      vertex 3.56283 -1.61127 3.75
    endloop
  endfacet
  facet normal 0.951057 -0.309017 0
    outer loop
      vertex 3.56283 -1.61127 3.75
      vertex 3.81478 -0.835855 3
      vertex 3.81478 -0.835855 3.75
    endloop
  endfacet
  facet normal 0.951057 0.309017 0
    outer loop
      vertex 3.56283 1.56127 3
      vertex 3.56283 1.56127 3.75
      vertex 3.81478 0.785855 3.75
    endloop
  endfacet
  facet normal 0.951057 0.309017 0
    outer loop
      vertex 3.56283 1.56127 3
      vertex 3.81478 0.785855 3.75
      vertex 3.81478 0.785855 3
    endloop
  endfacet
  facet normal 0.994522 -0.104528 0
    outer loop
      vertex 3.81478 -0.835855 3
      vertex 3.9 -0.025 3
      vertex 3.81478 -0.835855 3.75
    endloop
  endfacet
  facet normal 0.994522 -0.104528 0
    outer loop
      vertex 3.81478 -0.835855 3.75
      vertex 3.9 -0.025 3
      vertex 3.9 -0.025 3.75
    endloop
  endfacet
  facet normal 0.994522 0.104528 0
    outer loop
      vertex 3.81478 0.785855 3
      vertex 3.81478 0.785855 3.75
      vertex 3.9 -0.025 3.75
    endloop
  endfacet
  facet normal 0.994522 0.104528 0
    outer loop
      vertex 3.81478 0.785855 3
      vertex 3.9 -0.025 3.75
      vertex 3.9 -0.025 3
    endloop
  endfacet
  facet normal 0 0 1
    outer loop
      vertex 8.5 -2.5 -4.5
      vertex 9.25 -2.5 -4.5
      vertex 8.5 2.5 -4.5
    endloop
  endfacet
  facet normal 0 -1 0
    outer loop
      vertex 8.5 -2.5 -5.5
      vertex 10.25 -2.5 -5.5
      vertex 9.25 -2.5 -4.5
    endloop
  endfacet
  facet normal 0 0 -1
    outer loop
      vertex 8.5 -2.5 -5.5
      vertex 10.25 2.5 -5.5
      vertex 10.25 -2.5 -5.5
    endloop
  endfacet
  facet normal -1 -0 0
    outer loop
      vertex 8.5 -2.5 -5.5
      vertex 8.5 -2.5 -4.5
      vertex 8.5 2.5 -4.5
    endloop
  endfacet
  facet normal -1 0 0
    outer loop
      vertex 8.5 -2.5 -5.5
      vertex 8.5 2.5 -4.5
      vertex 8.5 2.5 -5.5
    endloop
  endfacet
  facet normal -0 0 -1
    outer loop
      vertex 8.5 -2.5 -5.5
      vertex 8.5 2.5 -5.5
      vertex 10.25 2.5 -5.5
    endloop
  endfacet
  facet normal 0 -1 0
    outer loop
      vertex 8.5 -2.5 -5.5
      vertex 9.25 -2.5 -4.5
      vertex 8.5 -2.5 -4.5
    endloop
  endfacet
  facet normal -0 0 1
    outer loop
      vertex 8.5 2.5 -4.5
      vertex 9.25 -2.5 -4.5
      vertex 9.25 2.5 -4.5
    endloop
  endfacet
  facet normal 0 1 0
    outer loop
      vertex 8.5 2.5 -5.5
      vertex 8.5 2.5 -4.5
      vertex 9.25 2.5 -4.5
    endloop
  endfacet
  facet normal 0 1 0
    outer loop
      vertex 8.5 2.5 -5.5
      vertex 9.25 2.5 -4.5
      vertex 10.25 2.5 -5.5
    endloop
  endfacet
  facet normal 0 -1 0
    outer loop
      vertex 9.25 -2.5 -4.5
      vertex 10.25 -2.5 -5.5
      vertex 10.25 -2.5 5.55112e-16
    endloop
  endfacet
  facet normal 0 -1 0
    outer loop
      vertex 9.25 -2.5 -4.5
      vertex 10.25 -2.5 5.55112e-16
      vertex 9.25 -2.5 -1
    endloop
  endfacet
  facet normal -1 -0 0
    outer loop
      vertex 9.25 -2.5 -4.5
      vertex 9.25 -2.5 -1
      vertex 9.25 2.5 -1
    endloop
  endfacet
  facet normal -1 0 0
    outer loop
      vertex 9.25 -2.5 -4.5
      vertex 9.25 2.5 -1
      vertex 9.25 2.5 -4.5
    endloop
  endfacet
  facet normal 0 1 -0
    outer loop
      vertex 9.25 2.5 -4.5
      vertex 10.25 2.5 -5.55112e-16
      vertex 10.25 2.5 -5.5
    endloop
  endfacet
  facet normal 0 1 0
    outer loop
      vertex 9.25 2.5 -4.5
      vertex 9.25 2.5 -1
      vertex 10.25 2.5 -5.55112e-16
    endloop
  endfacet
endsolid OpenSCAD_Model
