solid CATIA STL
  facet normal  7.071068e-001  7.071068e-001  0.000000e+000
    outer loop
      vertex  3.535534e+001  2.474874e+001  1.500000e+001
      vertex  4.242641e+001  1.767767e+001  0.000000e+000
      vertex  3.535534e+001  2.474874e+001  0.000000e+000
    endloop
  endfacet
  facet normal  7.071068e-001  7.071068e-001  0.000000e+000
    outer loop
      vertex  4.242641e+001  1.767767e+001  0.000000e+000
      vertex  3.535534e+001  2.474874e+001  1.500000e+001
      vertex  4.242641e+001  1.767767e+001  2.500000e+001
    endloop
  endfacet
  facet normal  7.071068e-001  7.071068e-001  0.000000e+000
    outer loop
      vertex  4.242641e+001  1.767767e+001  2.500000e+001
      vertex  3.535534e+001  2.474874e+001  1.500000e+001
      vertex  2.474874e+001  3.535534e+001  1.500000e+001
    endloop
  endfacet
  facet normal  7.071068e-001  7.071068e-001  0.000000e+000
    outer loop
      vertex  4.242641e+001  1.767767e+001  2.500000e+001
      vertex  2.474874e+001  3.535534e+001  1.500000e+001
      vertex  1.767767e+001  4.242641e+001  2.500000e+001
    endloop
  endfacet
  facet normal  7.071068e-001  7.071068e-001  0.000000e+000
    outer loop
      vertex  1.767767e+001  4.242641e+001  2.500000e+001
      vertex  2.474874e+001  3.535534e+001  1.500000e+001
      vertex  2.474874e+001  3.535534e+001  0.000000e+000
    endloop
  endfacet
  facet normal  7.071068e-001  7.071068e-001  0.000000e+000
    outer loop
      vertex  1.767767e+001  4.242641e+001  2.500000e+001
      vertex  2.474874e+001  3.535534e+001  0.000000e+000
      vertex  1.767767e+001  4.242641e+001  0.000000e+000
    endloop
  endfacet
  facet normal -7.071068e-001 -7.071068e-001  0.000000e+000
    outer loop
      vertex -2.474874e+001 -3.535534e+001  0.000000e+000
      vertex -1.767767e+001 -4.242641e+001  0.000000e+000
      vertex -2.474874e+001 -3.535534e+001  1.500000e+001
    endloop
  endfacet
  facet normal -7.071068e-001 -7.071068e-001  0.000000e+000
    outer loop
      vertex -2.474874e+001 -3.535534e+001  1.500000e+001
      vertex -1.767767e+001 -4.242641e+001  0.000000e+000
      vertex -1.767767e+001 -4.242641e+001  2.500000e+001
    endloop
  endfacet
  facet normal -7.071068e-001 -7.071068e-001  0.000000e+000
    outer loop
      vertex -2.474874e+001 -3.535534e+001  1.500000e+001
      vertex -1.767767e+001 -4.242641e+001  2.500000e+001
      vertex -3.535534e+001 -2.474874e+001  1.500000e+001
    endloop
  endfacet
  facet normal -7.071068e-001 -7.071068e-001  0.000000e+000
    outer loop
      vertex -3.535534e+001 -2.474874e+001  1.500000e+001
      vertex -1.767767e+001 -4.242641e+001  2.500000e+001
      vertex -4.242641e+001 -1.767767e+001  2.500000e+001
    endloop
  endfacet
  facet normal -7.071068e-001 -7.071068e-001  0.000000e+000
    outer loop
      vertex -3.535534e+001 -2.474874e+001  1.500000e+001
      vertex -4.242641e+001 -1.767767e+001  2.500000e+001
      vertex -3.535534e+001 -2.474874e+001  0.000000e+000
    endloop
  endfacet
  facet normal -7.071068e-001 -7.071068e-001  0.000000e+000
    outer loop
      vertex -3.535534e+001 -2.474874e+001  0.000000e+000
      vertex -4.242641e+001 -1.767767e+001  2.500000e+001
      vertex -4.242641e+001 -1.767767e+001  0.000000e+000
    endloop
  endfacet
  facet normal  -0.000000e+000  0.000000e+000 -1.000000e+000
    outer loop
      vertex  7.105427e-015  6.717515e+001  0.000000e+000
      vertex  2.121320e+001  4.596194e+001  0.000000e+000
      vertex  1.767767e+001  4.242641e+001  0.000000e+000
    endloop
  endfacet
  facet normal  -0.000000e+000  0.000000e+000 -1.000000e+000
    outer loop
      vertex  7.105427e-015  6.717515e+001  0.000000e+000
      vertex  1.767767e+001  4.242641e+001  0.000000e+000
      vertex -3.535534e+000  2.121320e+001  0.000000e+000
    endloop
  endfacet
  facet normal  -0.000000e+000  0.000000e+000 -1.000000e+000
    outer loop
      vertex  7.105427e-015  6.717515e+001  0.000000e+000
      vertex -3.535534e+000  2.121320e+001  0.000000e+000
      vertex -1.060660e+001  1.414214e+001  0.000000e+000
    endloop
  endfacet
  facet normal  0.000000e+000  0.000000e+000 -1.000000e+000
    outer loop
      vertex  7.105427e-015  6.717515e+001  0.000000e+000
      vertex -1.060660e+001  1.414214e+001  0.000000e+000
      vertex -3.181981e+001  3.535534e+001  0.000000e+000
    endloop
  endfacet
  facet normal  -0.000000e+000  0.000000e+000 -1.000000e+000
    outer loop
      vertex -3.535534e+001  3.181981e+001  0.000000e+000
      vertex -1.414214e+001  1.060660e+001  0.000000e+000
      vertex -2.121320e+001  3.535534e+000  0.000000e+000
    endloop
  endfacet
  facet normal  -0.000000e+000  0.000000e+000 -1.000000e+000
    outer loop
      vertex -3.535534e+001  3.181981e+001  0.000000e+000
      vertex -2.121320e+001  3.535534e+000  0.000000e+000
      vertex -4.242641e+001 -1.767767e+001  0.000000e+000
    endloop
  endfacet
  facet normal  -0.000000e+000  0.000000e+000 -1.000000e+000
    outer loop
      vertex -3.535534e+001  3.181981e+001  0.000000e+000
      vertex -4.242641e+001 -1.767767e+001  0.000000e+000
      vertex -4.596194e+001 -2.121320e+001  0.000000e+000
    endloop
  endfacet
  facet normal  0.000000e+000  0.000000e+000 -1.000000e+000
    outer loop
      vertex -3.535534e+001  3.181981e+001  0.000000e+000
      vertex -4.596194e+001 -2.121320e+001  0.000000e+000
      vertex -6.717515e+001  0.000000e+000  0.000000e+000
    endloop
  endfacet
  facet normal  0.000000e+000  0.000000e+000 -1.000000e+000
    outer loop
      vertex  2.474874e+001  3.535534e+001  0.000000e+000
      vertex -3.535534e+000  2.121320e+001  0.000000e+000
      vertex  1.767767e+001  4.242641e+001  0.000000e+000
    endloop
  endfacet
  facet normal  0.000000e+000  0.000000e+000 -1.000000e+000
    outer loop
      vertex -3.535534e+000  2.121320e+001  0.000000e+000
      vertex  2.474874e+001  3.535534e+001  0.000000e+000
      vertex  3.552714e-015  1.767767e+001  0.000000e+000
    endloop
  endfacet
  facet normal  0.000000e+000  -0.000000e+000 -9.999999e-001
    outer loop
      vertex  3.552714e-015  1.767767e+001  0.000000e+000
      vertex  2.474874e+001  3.535534e+001  0.000000e+000
      vertex -3.535534e+001 -2.474874e+001  0.000000e+000
    endloop
  endfacet
  facet normal  0.000000e+000  0.000000e+000 -1.000000e+000
    outer loop
      vertex  3.552714e-015  1.767767e+001  0.000000e+000
      vertex -3.535534e+001 -2.474874e+001  0.000000e+000
      vertex -1.767767e+001  0.000000e+000  0.000000e+000
    endloop
  endfacet
  facet normal  0.000000e+000  0.000000e+000 -1.000000e+000
    outer loop
      vertex -1.767767e+001  0.000000e+000  0.000000e+000
      vertex -3.535534e+001 -2.474874e+001  0.000000e+000
      vertex -4.242641e+001 -1.767767e+001  0.000000e+000
    endloop
  endfacet
  facet normal  0.000000e+000  0.000000e+000 -1.000000e+000
    outer loop
      vertex -1.767767e+001  0.000000e+000  0.000000e+000
      vertex -4.242641e+001 -1.767767e+001  0.000000e+000
      vertex -2.121320e+001  3.535534e+000  0.000000e+000
    endloop
  endfacet
  facet normal  0.000000e+000  0.000000e+000 -1.000000e+000
    outer loop
      vertex -7.105427e-015 -6.717515e+001  0.000000e+000
      vertex -2.121320e+001 -4.596194e+001  0.000000e+000
      vertex -1.767767e+001 -4.242641e+001  0.000000e+000
    endloop
  endfacet
  facet normal  0.000000e+000  0.000000e+000 -1.000000e+000
    outer loop
      vertex -7.105427e-015 -6.717515e+001  0.000000e+000
      vertex -1.767767e+001 -4.242641e+001  0.000000e+000
      vertex  3.535534e+000 -2.121320e+001  0.000000e+000
    endloop
  endfacet
  facet normal  0.000000e+000  -0.000000e+000 -1.000000e+000
    outer loop
      vertex -7.105427e-015 -6.717515e+001  0.000000e+000
      vertex  3.535534e+000 -2.121320e+001  0.000000e+000
      vertex  1.060660e+001 -1.414214e+001  0.000000e+000
    endloop
  endfacet
  facet normal  0.000000e+000  -0.000000e+000 -1.000000e+000
    outer loop
      vertex -7.105427e-015 -6.717515e+001  0.000000e+000
      vertex  1.060660e+001 -1.414214e+001  0.000000e+000
      vertex  3.181981e+001 -3.535534e+001  0.000000e+000
    endloop
  endfacet
  facet normal  0.000000e+000  0.000000e+000 -1.000000e+000
    outer loop
      vertex  3.535534e+001 -3.181981e+001  0.000000e+000
      vertex  1.414214e+001 -1.060660e+001  0.000000e+000
      vertex  2.121320e+001 -3.535534e+000  0.000000e+000
    endloop
  endfacet
  facet normal  0.000000e+000  0.000000e+000 -1.000000e+000
    outer loop
      vertex  3.535534e+001 -3.181981e+001  0.000000e+000
      vertex  2.121320e+001 -3.535534e+000  0.000000e+000
      vertex  4.242641e+001  1.767767e+001  0.000000e+000
    endloop
  endfacet
  facet normal  0.000000e+000  -0.000000e+000 -1.000000e+000
    outer loop
      vertex  3.535534e+001 -3.181981e+001  0.000000e+000
      vertex  4.242641e+001  1.767767e+001  0.000000e+000
      vertex  4.596194e+001  2.121320e+001  0.000000e+000
    endloop
  endfacet
  facet normal  0.000000e+000  -0.000000e+000 -1.000000e+000
    outer loop
      vertex  3.535534e+001 -3.181981e+001  0.000000e+000
      vertex  4.596194e+001  2.121320e+001  0.000000e+000
      vertex  6.717515e+001  0.000000e+000  0.000000e+000
    endloop
  endfacet
  facet normal  0.000000e+000  0.000000e+000 -1.000000e+000
    outer loop
      vertex -2.474874e+001 -3.535534e+001  0.000000e+000
      vertex  3.535534e+000 -2.121320e+001  0.000000e+000
      vertex -1.767767e+001 -4.242641e+001  0.000000e+000
    endloop
  endfacet
  facet normal  0.000000e+000  0.000000e+000 -1.000000e+000
    outer loop
      vertex  3.535534e+000 -2.121320e+001  0.000000e+000
      vertex -2.474874e+001 -3.535534e+001  0.000000e+000
      vertex -3.552714e-015 -1.767767e+001  0.000000e+000
    endloop
  endfacet
  facet normal  -0.000000e+000  0.000000e+000 -9.999999e-001
    outer loop
      vertex -3.552714e-015 -1.767767e+001  0.000000e+000
      vertex -2.474874e+001 -3.535534e+001  0.000000e+000
      vertex  3.535534e+001  2.474874e+001  0.000000e+000
    endloop
  endfacet
  facet normal  0.000000e+000  0.000000e+000 -1.000000e+000
    outer loop
      vertex -3.552714e-015 -1.767767e+001  0.000000e+000
      vertex  3.535534e+001  2.474874e+001  0.000000e+000
      vertex  1.767767e+001  0.000000e+000  0.000000e+000
    endloop
  endfacet
  facet normal  0.000000e+000  0.000000e+000 -1.000000e+000
    outer loop
      vertex  1.767767e+001  0.000000e+000  0.000000e+000
      vertex  3.535534e+001  2.474874e+001  0.000000e+000
      vertex  4.242641e+001  1.767767e+001  0.000000e+000
    endloop
  endfacet
  facet normal  0.000000e+000  0.000000e+000 -1.000000e+000
    outer loop
      vertex  1.767767e+001  0.000000e+000  0.000000e+000
      vertex  4.242641e+001  1.767767e+001  0.000000e+000
      vertex  2.121320e+001 -3.535534e+000  0.000000e+000
    endloop
  endfacet
  facet normal  7.071068e-001 -7.071068e-001  0.000000e+000
    outer loop
      vertex  2.474874e+001  3.535534e+001  1.500000e+001
      vertex -3.535534e+001 -2.474874e+001  1.500000e+001
      vertex  2.474874e+001  3.535534e+001  0.000000e+000
    endloop
  endfacet
  facet normal  7.071068e-001 -7.071068e-001  0.000000e+000
    outer loop
      vertex  2.474874e+001  3.535534e+001  0.000000e+000
      vertex -3.535534e+001 -2.474874e+001  1.500000e+001
      vertex -3.535534e+001 -2.474874e+001  0.000000e+000
    endloop
  endfacet
  facet normal -7.071068e-001  7.071068e-001  0.000000e+000
    outer loop
      vertex -2.474874e+001 -3.535534e+001  1.500000e+001
      vertex  3.535534e+001  2.474874e+001  1.500000e+001
      vertex -2.474874e+001 -3.535534e+001  0.000000e+000
    endloop
  endfacet
  facet normal -7.071068e-001  7.071068e-001  0.000000e+000
    outer loop
      vertex -2.474874e+001 -3.535534e+001  0.000000e+000
      vertex  3.535534e+001  2.474874e+001  1.500000e+001
      vertex  3.535534e+001  2.474874e+001  0.000000e+000
    endloop
  endfacet
  facet normal  0.000000e+000  0.000000e+000 -1.000000e+000
    outer loop
      vertex -3.535534e+001 -2.474874e+001  1.500000e+001
      vertex  2.474874e+001  3.535534e+001  1.500000e+001
      vertex -2.474874e+001 -3.535534e+001  1.500000e+001
    endloop
  endfacet
  facet normal  0.000000e+000  0.000000e+000 -1.000000e+000
    outer loop
      vertex -2.474874e+001 -3.535534e+001  1.500000e+001
      vertex  2.474874e+001  3.535534e+001  1.500000e+001
      vertex  3.535534e+001  2.474874e+001  1.500000e+001
    endloop
  endfacet
  facet normal -7.071068e-001  7.071068e-001  0.000000e+000
    outer loop
      vertex  4.596194e+001  2.121320e+001  2.500000e+001
      vertex  4.596194e+001  2.121320e+001  0.000000e+000
      vertex  4.242641e+001  1.767767e+001  2.500000e+001
    endloop
  endfacet
  facet normal -7.071068e-001  7.071068e-001  0.000000e+000
    outer loop
      vertex  4.242641e+001  1.767767e+001  2.500000e+001
      vertex  4.596194e+001  2.121320e+001  0.000000e+000
      vertex  4.242641e+001  1.767767e+001  0.000000e+000
    endloop
  endfacet
  facet normal -7.071068e-001  7.071068e-001  0.000000e+000
    outer loop
      vertex -1.767767e+001 -4.242641e+001  2.500000e+001
      vertex -1.767767e+001 -4.242641e+001  0.000000e+000
      vertex -2.121320e+001 -4.596194e+001  2.500000e+001
    endloop
  endfacet
  facet normal -7.071068e-001  7.071068e-001  0.000000e+000
    outer loop
      vertex -2.121320e+001 -4.596194e+001  2.500000e+001
      vertex -1.767767e+001 -4.242641e+001  0.000000e+000
      vertex -2.121320e+001 -4.596194e+001  0.000000e+000
    endloop
  endfacet
  facet normal  7.071068e-001 -7.071068e-001  0.000000e+000
    outer loop
      vertex  2.121320e+001  4.596194e+001  2.500000e+001
      vertex  1.767767e+001  4.242641e+001  2.500000e+001
      vertex  2.121320e+001  4.596194e+001  0.000000e+000
    endloop
  endfacet
  facet normal  7.071068e-001 -7.071068e-001  0.000000e+000
    outer loop
      vertex  2.121320e+001  4.596194e+001  0.000000e+000
      vertex  1.767767e+001  4.242641e+001  2.500000e+001
      vertex  1.767767e+001  4.242641e+001  0.000000e+000
    endloop
  endfacet
  facet normal  7.071068e-001 -7.071068e-001  0.000000e+000
    outer loop
      vertex -4.242641e+001 -1.767767e+001  2.500000e+001
      vertex -4.596194e+001 -2.121320e+001  2.500000e+001
      vertex -4.242641e+001 -1.767767e+001  0.000000e+000
    endloop
  endfacet
  facet normal  7.071068e-001 -7.071068e-001  0.000000e+000
    outer loop
      vertex -4.242641e+001 -1.767767e+001  0.000000e+000
      vertex -4.596194e+001 -2.121320e+001  2.500000e+001
      vertex -4.596194e+001 -2.121320e+001  0.000000e+000
    endloop
  endfacet
  facet normal  0.000000e+000  0.000000e+000  1.000000e+000
    outer loop
      vertex  3.552714e-015  1.767767e+001  2.500000e+001
      vertex  1.767767e+001  4.242641e+001  2.500000e+001
      vertex -3.535534e+000  2.121320e+001  2.500000e+001
    endloop
  endfacet
  facet normal  0.000000e+000  0.000000e+000  1.000000e+000
    outer loop
      vertex -1.767767e+001  0.000000e+000  2.500000e+001
      vertex -2.121320e+001  3.535534e+000  2.500000e+001
      vertex -4.242641e+001 -1.767767e+001  2.500000e+001
    endloop
  endfacet
  facet normal  0.000000e+000  0.000000e+000  1.000000e+000
    outer loop
      vertex -1.767767e+001  0.000000e+000  2.500000e+001
      vertex -4.242641e+001 -1.767767e+001  2.500000e+001
      vertex -3.552714e-015 -1.767767e+001  2.500000e+001
    endloop
  endfacet
  facet normal  0.000000e+000  -0.000000e+000  1.000000e+000
    outer loop
      vertex -1.767767e+001  0.000000e+000  2.500000e+001
      vertex -3.552714e-015 -1.767767e+001  2.500000e+001
      vertex  1.767767e+001  0.000000e+000  2.500000e+001
    endloop
  endfacet
  facet normal  0.000000e+000  0.000000e+000  1.000000e+000
    outer loop
      vertex -1.767767e+001  0.000000e+000  2.500000e+001
      vertex  1.767767e+001  0.000000e+000  2.500000e+001
      vertex  3.552714e-015  1.767767e+001  2.500000e+001
    endloop
  endfacet
  facet normal  -0.000000e+000  0.000000e+000  1.000000e+000
    outer loop
      vertex  7.105427e-015  6.717515e+001  2.500000e+001
      vertex -3.181981e+001  3.535534e+001  2.500000e+001
      vertex -1.060660e+001  1.414214e+001  2.500000e+001
    endloop
  endfacet
  facet normal  0.000000e+000  0.000000e+000  1.000000e+000
    outer loop
      vertex  7.105427e-015  6.717515e+001  2.500000e+001
      vertex -1.060660e+001  1.414214e+001  2.500000e+001
      vertex -3.535534e+000  2.121320e+001  2.500000e+001
    endloop
  endfacet
  facet normal  0.000000e+000  0.000000e+000  1.000000e+000
    outer loop
      vertex  7.105427e-015  6.717515e+001  2.500000e+001
      vertex -3.535534e+000  2.121320e+001  2.500000e+001
      vertex  1.767767e+001  4.242641e+001  2.500000e+001
    endloop
  endfacet
  facet normal  0.000000e+000  -0.000000e+000  1.000000e+000
    outer loop
      vertex  7.105427e-015  6.717515e+001  2.500000e+001
      vertex  1.767767e+001  4.242641e+001  2.500000e+001
      vertex  2.121320e+001  4.596194e+001  2.500000e+001
    endloop
  endfacet
  facet normal  -0.000000e+000  0.000000e+000  1.000000e+000
    outer loop
      vertex -3.535534e+001  3.181981e+001  2.500000e+001
      vertex -6.717515e+001  0.000000e+000  2.500000e+001
      vertex -4.596194e+001 -2.121320e+001  2.500000e+001
    endloop
  endfacet
  facet normal  0.000000e+000  0.000000e+000  1.000000e+000
    outer loop
      vertex -3.535534e+001  3.181981e+001  2.500000e+001
      vertex -4.596194e+001 -2.121320e+001  2.500000e+001
      vertex -4.242641e+001 -1.767767e+001  2.500000e+001
    endloop
  endfacet
  facet normal  0.000000e+000  0.000000e+000  1.000000e+000
    outer loop
      vertex -3.535534e+001  3.181981e+001  2.500000e+001
      vertex -4.242641e+001 -1.767767e+001  2.500000e+001
      vertex -2.121320e+001  3.535534e+000  2.500000e+001
    endloop
  endfacet
  facet normal  0.000000e+000  -0.000000e+000  1.000000e+000
    outer loop
      vertex -3.535534e+001  3.181981e+001  2.500000e+001
      vertex -2.121320e+001  3.535534e+000  2.500000e+001
      vertex -1.414214e+001  1.060660e+001  2.500000e+001
    endloop
  endfacet
  facet normal  0.000000e+000  0.000000e+000  1.000000e+000
    outer loop
      vertex -7.105427e-015 -6.717515e+001  2.500000e+001
      vertex  3.181981e+001 -3.535534e+001  2.500000e+001
      vertex  1.060660e+001 -1.414214e+001  2.500000e+001
    endloop
  endfacet
  facet normal  0.000000e+000  0.000000e+000  1.000000e+000
    outer loop
      vertex -7.105427e-015 -6.717515e+001  2.500000e+001
      vertex  1.060660e+001 -1.414214e+001  2.500000e+001
      vertex  3.535534e+000 -2.121320e+001  2.500000e+001
    endloop
  endfacet
  facet normal  0.000000e+000  0.000000e+000  1.000000e+000
    outer loop
      vertex -7.105427e-015 -6.717515e+001  2.500000e+001
      vertex  3.535534e+000 -2.121320e+001  2.500000e+001
      vertex -1.767767e+001 -4.242641e+001  2.500000e+001
    endloop
  endfacet
  facet normal  0.000000e+000  0.000000e+000  1.000000e+000
    outer loop
      vertex -7.105427e-015 -6.717515e+001  2.500000e+001
      vertex -1.767767e+001 -4.242641e+001  2.500000e+001
      vertex -2.121320e+001 -4.596194e+001  2.500000e+001
    endloop
  endfacet
  facet normal  0.000000e+000  0.000000e+000  1.000000e+000
    outer loop
      vertex  3.535534e+001 -3.181981e+001  2.500000e+001
      vertex  6.717515e+001  0.000000e+000  2.500000e+001
      vertex  4.596194e+001  2.121320e+001  2.500000e+001
    endloop
  endfacet
  facet normal  0.000000e+000  0.000000e+000  1.000000e+000
    outer loop
      vertex  3.535534e+001 -3.181981e+001  2.500000e+001
      vertex  4.596194e+001  2.121320e+001  2.500000e+001
      vertex  4.242641e+001  1.767767e+001  2.500000e+001
    endloop
  endfacet
  facet normal  0.000000e+000  0.000000e+000  1.000000e+000
    outer loop
      vertex  3.535534e+001 -3.181981e+001  2.500000e+001
      vertex  4.242641e+001  1.767767e+001  2.500000e+001
      vertex  2.121320e+001 -3.535534e+000  2.500000e+001
    endloop
  endfacet
  facet normal  0.000000e+000  0.000000e+000  1.000000e+000
    outer loop
      vertex  3.535534e+001 -3.181981e+001  2.500000e+001
      vertex  2.121320e+001 -3.535534e+000  2.500000e+001
      vertex  1.414214e+001 -1.060660e+001  2.500000e+001
    endloop
  endfacet
  facet normal  0.000000e+000  0.000000e+000  1.000000e+000
    outer loop
      vertex -1.767767e+001 -4.242641e+001  2.500000e+001
      vertex  3.535534e+000 -2.121320e+001  2.500000e+001
      vertex -4.242641e+001 -1.767767e+001  2.500000e+001
    endloop
  endfacet
  facet normal  -0.000000e+000  0.000000e+000  1.000000e+000
    outer loop
      vertex -4.242641e+001 -1.767767e+001  2.500000e+001
      vertex  3.535534e+000 -2.121320e+001  2.500000e+001
      vertex -3.552714e-015 -1.767767e+001  2.500000e+001
    endloop
  endfacet
  facet normal  0.000000e+000  0.000000e+000  1.000000e+000
    outer loop
      vertex  2.121320e+001 -3.535534e+000  2.500000e+001
      vertex  4.242641e+001  1.767767e+001  2.500000e+001
      vertex  1.767767e+001  0.000000e+000  2.500000e+001
    endloop
  endfacet
  facet normal  0.000000e+000  0.000000e+000  1.000000e+000
    outer loop
      vertex  1.767767e+001  0.000000e+000  2.500000e+001
      vertex  4.242641e+001  1.767767e+001  2.500000e+001
      vertex  1.767767e+001  4.242641e+001  2.500000e+001
    endloop
  endfacet
  facet normal  0.000000e+000  0.000000e+000  1.000000e+000
    outer loop
      vertex  1.767767e+001  0.000000e+000  2.500000e+001
      vertex  1.767767e+001  4.242641e+001  2.500000e+001
      vertex  3.552714e-015  1.767767e+001  2.500000e+001
    endloop
  endfacet
  facet normal  7.071067e-001  7.071069e-001  0.000000e+000
    outer loop
      vertex  4.596194e+001  2.121320e+001  2.500000e+001
      vertex  6.717515e+001  0.000000e+000  2.500000e+001
      vertex  4.596194e+001  2.121320e+001  0.000000e+000
    endloop
  endfacet
  facet normal  7.071067e-001  7.071069e-001  0.000000e+000
    outer loop
      vertex  4.596194e+001  2.121320e+001  0.000000e+000
      vertex  6.717515e+001  0.000000e+000  2.500000e+001
      vertex  6.717515e+001  0.000000e+000  0.000000e+000
    endloop
  endfacet
  facet normal -7.071069e-001 -7.071067e-001  0.000000e+000
    outer loop
      vertex -2.121320e+001 -4.596194e+001  2.500000e+001
      vertex -2.121320e+001 -4.596194e+001  0.000000e+000
      vertex -7.105427e-015 -6.717515e+001  2.500000e+001
    endloop
  endfacet
  facet normal -7.071069e-001 -7.071067e-001  -0.000000e+000
    outer loop
      vertex -7.105427e-015 -6.717515e+001  2.500000e+001
      vertex -2.121320e+001 -4.596194e+001  0.000000e+000
      vertex -7.105427e-015 -6.717515e+001  0.000000e+000
    endloop
  endfacet
  facet normal  7.071069e-001 -7.071068e-001  0.000000e+000
    outer loop
      vertex -7.105427e-015 -6.717515e+001  2.500000e+001
      vertex -7.105427e-015 -6.717515e+001  0.000000e+000
      vertex  3.181981e+001 -3.535534e+001  2.500000e+001
    endloop
  endfacet
  facet normal  7.071069e-001 -7.071068e-001  0.000000e+000
    outer loop
      vertex  3.181981e+001 -3.535534e+001  2.500000e+001
      vertex -7.105427e-015 -6.717515e+001  0.000000e+000
      vertex  3.181981e+001 -3.535534e+001  0.000000e+000
    endloop
  endfacet
  facet normal  7.071068e-001  7.071068e-001  -0.000000e+000
    outer loop
      vertex  3.181981e+001 -3.535534e+001  2.500000e+001
      vertex  3.181981e+001 -3.535534e+001  0.000000e+000
      vertex  1.060660e+001 -1.414214e+001  2.500000e+001
    endloop
  endfacet
  facet normal  7.071068e-001  7.071068e-001  0.000000e+000
    outer loop
      vertex  1.060660e+001 -1.414214e+001  2.500000e+001
      vertex  3.181981e+001 -3.535534e+001  0.000000e+000
      vertex  1.060660e+001 -1.414214e+001  0.000000e+000
    endloop
  endfacet
  facet normal -7.071068e-001  7.071068e-001  0.000000e+000
    outer loop
      vertex  1.060660e+001 -1.414214e+001  2.500000e+001
      vertex  1.060660e+001 -1.414214e+001  0.000000e+000
      vertex  3.535534e+000 -2.121320e+001  2.500000e+001
    endloop
  endfacet
  facet normal -7.071068e-001  7.071068e-001  0.000000e+000
    outer loop
      vertex  3.535534e+000 -2.121320e+001  2.500000e+001
      vertex  1.060660e+001 -1.414214e+001  0.000000e+000
      vertex  3.535534e+000 -2.121320e+001  0.000000e+000
    endloop
  endfacet
  facet normal  7.071068e-001  7.071068e-001  0.000000e+000
    outer loop
      vertex -3.552714e-015 -1.767767e+001  0.000000e+000
      vertex -3.552714e-015 -1.767767e+001  2.500000e+001
      vertex  3.535534e+000 -2.121320e+001  0.000000e+000
    endloop
  endfacet
  facet normal  7.071068e-001  7.071068e-001  -0.000000e+000
    outer loop
      vertex  3.535534e+000 -2.121320e+001  0.000000e+000
      vertex -3.552714e-015 -1.767767e+001  2.500000e+001
      vertex  3.535534e+000 -2.121320e+001  2.500000e+001
    endloop
  endfacet
  facet normal  7.071068e-001 -7.071068e-001  0.000000e+000
    outer loop
      vertex  1.767767e+001  0.000000e+000  0.000000e+000
      vertex  1.767767e+001  0.000000e+000  2.500000e+001
      vertex -3.552714e-015 -1.767767e+001  0.000000e+000
    endloop
  endfacet
  facet normal  7.071068e-001 -7.071068e-001  0.000000e+000
    outer loop
      vertex -3.552714e-015 -1.767767e+001  0.000000e+000
      vertex  1.767767e+001  0.000000e+000  2.500000e+001
      vertex -3.552714e-015 -1.767767e+001  2.500000e+001
    endloop
  endfacet
  facet normal  7.071068e-001 -7.071069e-001  0.000000e+000
    outer loop
      vertex  3.535534e+001 -3.181981e+001  2.500000e+001
      vertex  3.535534e+001 -3.181981e+001  0.000000e+000
      vertex  6.717515e+001  0.000000e+000  2.500000e+001
    endloop
  endfacet
  facet normal  7.071068e-001 -7.071069e-001  0.000000e+000
    outer loop
      vertex  6.717515e+001  0.000000e+000  2.500000e+001
      vertex  3.535534e+001 -3.181981e+001  0.000000e+000
      vertex  6.717515e+001  0.000000e+000  0.000000e+000
    endloop
  endfacet
  facet normal -7.071068e-001 -7.071068e-001  0.000000e+000
    outer loop
      vertex  1.767767e+001  0.000000e+000  0.000000e+000
      vertex  2.121320e+001 -3.535534e+000  0.000000e+000
      vertex  1.767767e+001  0.000000e+000  2.500000e+001
    endloop
  endfacet
  facet normal -7.071068e-001 -7.071068e-001  0.000000e+000
    outer loop
      vertex  1.767767e+001  0.000000e+000  2.500000e+001
      vertex  2.121320e+001 -3.535534e+000  0.000000e+000
      vertex  2.121320e+001 -3.535534e+000  2.500000e+001
    endloop
  endfacet
  facet normal -7.071068e-001 -7.071068e-001  0.000000e+000
    outer loop
      vertex  3.535534e+001 -3.181981e+001  2.500000e+001
      vertex  1.414214e+001 -1.060660e+001  2.500000e+001
      vertex  3.535534e+001 -3.181981e+001  0.000000e+000
    endloop
  endfacet
  facet normal -7.071068e-001 -7.071068e-001  0.000000e+000
    outer loop
      vertex  3.535534e+001 -3.181981e+001  0.000000e+000
      vertex  1.414214e+001 -1.060660e+001  2.500000e+001
      vertex  1.414214e+001 -1.060660e+001  0.000000e+000
    endloop
  endfacet
  facet normal -7.071068e-001  7.071068e-001  0.000000e+000
    outer loop
      vertex  2.121320e+001 -3.535534e+000  2.500000e+001
      vertex  2.121320e+001 -3.535534e+000  0.000000e+000
      vertex  1.414214e+001 -1.060660e+001  2.500000e+001
    endloop
  endfacet
  facet normal -7.071068e-001  7.071068e-001  0.000000e+000
    outer loop
      vertex  1.414214e+001 -1.060660e+001  2.500000e+001
      vertex  2.121320e+001 -3.535534e+000  0.000000e+000
      vertex  1.414214e+001 -1.060660e+001  0.000000e+000
    endloop
  endfacet
  facet normal -7.071069e-001  7.071068e-001  0.000000e+000
    outer loop
      vertex -3.181981e+001  3.535534e+001  2.500000e+001
      vertex  7.105427e-015  6.717515e+001  2.500000e+001
      vertex -3.181981e+001  3.535534e+001  0.000000e+000
    endloop
  endfacet
  facet normal -7.071069e-001  7.071068e-001  0.000000e+000
    outer loop
      vertex -3.181981e+001  3.535534e+001  0.000000e+000
      vertex  7.105427e-015  6.717515e+001  2.500000e+001
      vertex  7.105427e-015  6.717515e+001  0.000000e+000
    endloop
  endfacet
  facet normal  7.071069e-001  7.071067e-001  0.000000e+000
    outer loop
      vertex  7.105427e-015  6.717515e+001  2.500000e+001
      vertex  2.121320e+001  4.596194e+001  2.500000e+001
      vertex  7.105427e-015  6.717515e+001  0.000000e+000
    endloop
  endfacet
  facet normal  7.071069e-001  7.071067e-001  0.000000e+000
    outer loop
      vertex  7.105427e-015  6.717515e+001  0.000000e+000
      vertex  2.121320e+001  4.596194e+001  2.500000e+001
      vertex  2.121320e+001  4.596194e+001  0.000000e+000
    endloop
  endfacet
  facet normal -7.071067e-001 -7.071069e-001  0.000000e+000
    outer loop
      vertex -6.717515e+001  0.000000e+000  2.500000e+001
      vertex -6.717515e+001  0.000000e+000  0.000000e+000
      vertex -4.596194e+001 -2.121320e+001  2.500000e+001
    endloop
  endfacet
  facet normal -7.071067e-001 -7.071069e-001  -0.000000e+000
    outer loop
      vertex -4.596194e+001 -2.121320e+001  2.500000e+001
      vertex -6.717515e+001  0.000000e+000  0.000000e+000
      vertex -4.596194e+001 -2.121320e+001  0.000000e+000
    endloop
  endfacet
  facet normal -7.071068e-001  7.071069e-001  0.000000e+000
    outer loop
      vertex -6.717515e+001  0.000000e+000  2.500000e+001
      vertex -3.535534e+001  3.181981e+001  2.500000e+001
      vertex -6.717515e+001  0.000000e+000  0.000000e+000
    endloop
  endfacet
  facet normal -7.071068e-001  7.071069e-001  0.000000e+000
    outer loop
      vertex -6.717515e+001  0.000000e+000  0.000000e+000
      vertex -3.535534e+001  3.181981e+001  2.500000e+001
      vertex -3.535534e+001  3.181981e+001  0.000000e+000
    endloop
  endfacet
  facet normal  7.071068e-001  7.071068e-001  -0.000000e+000
    outer loop
      vertex -1.414214e+001  1.060660e+001  2.500000e+001
      vertex -1.414214e+001  1.060660e+001  0.000000e+000
      vertex -3.535534e+001  3.181981e+001  2.500000e+001
    endloop
  endfacet
  facet normal  7.071068e-001  7.071068e-001  0.000000e+000
    outer loop
      vertex -3.535534e+001  3.181981e+001  2.500000e+001
      vertex -1.414214e+001  1.060660e+001  0.000000e+000
      vertex -3.535534e+001  3.181981e+001  0.000000e+000
    endloop
  endfacet
  facet normal  7.071068e-001 -7.071068e-001  0.000000e+000
    outer loop
      vertex -1.414214e+001  1.060660e+001  2.500000e+001
      vertex -2.121320e+001  3.535534e+000  2.500000e+001
      vertex -1.414214e+001  1.060660e+001  0.000000e+000
    endloop
  endfacet
  facet normal  7.071068e-001 -7.071068e-001  0.000000e+000
    outer loop
      vertex -1.414214e+001  1.060660e+001  0.000000e+000
      vertex -2.121320e+001  3.535534e+000  2.500000e+001
      vertex -2.121320e+001  3.535534e+000  0.000000e+000
    endloop
  endfacet
  facet normal  7.071068e-001  7.071068e-001  0.000000e+000
    outer loop
      vertex -2.121320e+001  3.535534e+000  0.000000e+000
      vertex -2.121320e+001  3.535534e+000  2.500000e+001
      vertex -1.767767e+001  0.000000e+000  0.000000e+000
    endloop
  endfacet
  facet normal  7.071068e-001  7.071068e-001  -0.000000e+000
    outer loop
      vertex -1.767767e+001  0.000000e+000  0.000000e+000
      vertex -2.121320e+001  3.535534e+000  2.500000e+001
      vertex -1.767767e+001  0.000000e+000  2.500000e+001
    endloop
  endfacet
  facet normal -7.071068e-001  7.071068e-001  0.000000e+000
    outer loop
      vertex  3.552714e-015  1.767767e+001  0.000000e+000
      vertex -1.767767e+001  0.000000e+000  0.000000e+000
      vertex  3.552714e-015  1.767767e+001  2.500000e+001
    endloop
  endfacet
  facet normal -7.071068e-001  7.071068e-001  0.000000e+000
    outer loop
      vertex  3.552714e-015  1.767767e+001  2.500000e+001
      vertex -1.767767e+001  0.000000e+000  0.000000e+000
      vertex -1.767767e+001  0.000000e+000  2.500000e+001
    endloop
  endfacet
  facet normal -7.071068e-001 -7.071068e-001  0.000000e+000
    outer loop
      vertex -1.060660e+001  1.414214e+001  2.500000e+001
      vertex -3.181981e+001  3.535534e+001  2.500000e+001
      vertex -1.060660e+001  1.414214e+001  0.000000e+000
    endloop
  endfacet
  facet normal -7.071068e-001 -7.071068e-001  0.000000e+000
    outer loop
      vertex -1.060660e+001  1.414214e+001  0.000000e+000
      vertex -3.181981e+001  3.535534e+001  2.500000e+001
      vertex -3.181981e+001  3.535534e+001  0.000000e+000
    endloop
  endfacet
  facet normal -7.071068e-001 -7.071068e-001  0.000000e+000
    outer loop
      vertex -3.535534e+000  2.121320e+001  0.000000e+000
      vertex  3.552714e-015  1.767767e+001  0.000000e+000
      vertex -3.535534e+000  2.121320e+001  2.500000e+001
    endloop
  endfacet
  facet normal -7.071068e-001 -7.071068e-001  0.000000e+000
    outer loop
      vertex -3.535534e+000  2.121320e+001  2.500000e+001
      vertex  3.552714e-015  1.767767e+001  0.000000e+000
      vertex  3.552714e-015  1.767767e+001  2.500000e+001
    endloop
  endfacet
  facet normal  7.071068e-001 -7.071068e-001  0.000000e+000
    outer loop
      vertex -3.535534e+000  2.121320e+001  2.500000e+001
      vertex -1.060660e+001  1.414214e+001  2.500000e+001
      vertex -3.535534e+000  2.121320e+001  0.000000e+000
    endloop
  endfacet
  facet normal  7.071068e-001 -7.071068e-001  0.000000e+000
    outer loop
      vertex -3.535534e+000  2.121320e+001  0.000000e+000
      vertex -1.060660e+001  1.414214e+001  2.500000e+001
      vertex -1.060660e+001  1.414214e+001  0.000000e+000
    endloop
  endfacet
endsolid CATIA STL
