solid OpenSCAD_Model
  facet normal -0.33689 -0.941544 0
    outer loop
      vertex -11.4805 -27.7164 0
      vertex -8.70854 -28.7082 0
      vertex -8.70854 -28.7082 2
    endloop
  endfacet
  facet normal -0.33689 -0.941544 0
    outer loop
      vertex -11.4805 -27.7164 0
      vertex -8.70854 -28.7082 2
      vertex -11.4805 -27.7164 2
    endloop
  endfacet
  facet normal -0.33689 0.941544 0
    outer loop
      vertex -11.4805 27.7164 0
      vertex -11.4805 27.7164 2
      vertex -8.70854 28.7082 2
    endloop
  endfacet
  facet normal -0.33689 0.941544 0
    outer loop
      vertex -11.4805 27.7164 0
      vertex -8.70854 28.7082 2
      vertex -8.70854 28.7082 0
    endloop
  endfacet
  facet normal -0.427555 -0.903989 0
    outer loop
      vertex -14.1419 -26.4576 0
      vertex -11.4805 -27.7164 0
      vertex -11.4805 -27.7164 2
    endloop
  endfacet
  facet normal -0.427555 -0.903989 0
    outer loop
      vertex -14.1419 -26.4576 0
      vertex -11.4805 -27.7164 2
      vertex -14.1419 -26.4576 2
    endloop
  endfacet
  facet normal -0.427555 0.903989 0
    outer loop
      vertex -14.1419 26.4576 0
      vertex -11.4805 27.7164 2
      vertex -11.4805 27.7164 0
    endloop
  endfacet
  facet normal -0.427555 0.903989 0
    outer loop
      vertex -14.1419 26.4576 0
      vertex -14.1419 26.4576 2
      vertex -11.4805 27.7164 2
    endloop
  endfacet
  facet normal -0.514103 -0.857729 0
    outer loop
      vertex -16.6671 -24.9441 0
      vertex -14.1419 -26.4576 0
      vertex -14.1419 -26.4576 2
    endloop
  endfacet
  facet normal -0.514103 -0.857729 0
    outer loop
      vertex -16.6671 -24.9441 0
      vertex -14.1419 -26.4576 2
      vertex -16.6671 -24.9441 2
    endloop
  endfacet
  facet normal -0.514103 0.857729 0
    outer loop
      vertex -16.6671 24.9441 0
      vertex -14.1419 26.4576 2
      vertex -14.1419 26.4576 0
    endloop
  endfacet
  facet normal -0.514103 0.857729 0
    outer loop
      vertex -16.6671 24.9441 0
      vertex -16.6671 24.9441 2
      vertex -14.1419 26.4576 2
    endloop
  endfacet
  facet normal -0.595699 -0.803208 0
    outer loop
      vertex -19.0318 -23.1903 0
      vertex -16.6671 -24.9441 0
      vertex -16.6671 -24.9441 2
    endloop
  endfacet
  facet normal -0.595699 -0.803208 0
    outer loop
      vertex -19.0318 -23.1903 0
      vertex -16.6671 -24.9441 2
      vertex -19.0318 -23.1903 2
    endloop
  endfacet
  facet normal -0.595699 0.803208 0
    outer loop
      vertex -19.0318 23.1903 0
      vertex -16.6671 24.9441 2
      vertex -16.6671 24.9441 0
    endloop
  endfacet
  facet normal -0.595699 0.803208 0
    outer loop
      vertex -19.0318 23.1903 0
      vertex -19.0318 23.1903 2
      vertex -16.6671 24.9441 2
    endloop
  endfacet
  facet normal -0.0490676 -0.998795 0
    outer loop
      vertex -2.94051 -29.8555 0
      vertex 0 -30 0
      vertex 0 -30 2
    endloop
  endfacet
  facet normal -0.0490676 -0.998795 0
    outer loop
      vertex -2.94051 -29.8555 0
      vertex 0 -30 2
      vertex -2.94051 -29.8555 2
    endloop
  endfacet
  facet normal -0.0490676 0.998795 0
    outer loop
      vertex -2.94051 29.8555 0
      vertex -2.94051 29.8555 2
      vertex 0 30 2
    endloop
  endfacet
  facet normal -0.0490676 0.998795 0
    outer loop
      vertex -2.94051 29.8555 0
      vertex 0 30 2
      vertex 0 30 0
    endloop
  endfacet
  facet normal -0.671559 -0.740951 0
    outer loop
      vertex -21.2132 -21.2132 0
      vertex -19.0318 -23.1903 0
      vertex -19.0318 -23.1903 2
    endloop
  endfacet
  facet normal -0.671559 -0.740951 0
    outer loop
      vertex -21.2132 -21.2132 0
      vertex -19.0318 -23.1903 2
      vertex -21.2132 -21.2132 2
    endloop
  endfacet
  facet normal -0.671559 0.740951 0
    outer loop
      vertex -21.2132 21.2132 0
      vertex -19.0318 23.1903 2
      vertex -19.0318 23.1903 0
    endloop
  endfacet
  facet normal -0.671559 0.740951 0
    outer loop
      vertex -21.2132 21.2132 0
      vertex -21.2132 21.2132 2
      vertex -19.0318 23.1903 2
    endloop
  endfacet
  facet normal -0.740951 -0.671559 0
    outer loop
      vertex -23.1903 -19.0318 0
      vertex -21.2132 -21.2132 0
      vertex -21.2132 -21.2132 2
    endloop
  endfacet
  facet normal -0.740951 -0.671559 0
    outer loop
      vertex -23.1903 -19.0318 0
      vertex -21.2132 -21.2132 2
      vertex -23.1903 -19.0318 2
    endloop
  endfacet
  facet normal -0.740951 0.671559 0
    outer loop
      vertex -23.1903 19.0318 0
      vertex -21.2132 21.2132 2
      vertex -21.2132 21.2132 0
    endloop
  endfacet
  facet normal -0.740951 0.671559 0
    outer loop
      vertex -23.1903 19.0318 0
      vertex -23.1903 19.0318 2
      vertex -21.2132 21.2132 2
    endloop
  endfacet
  facet normal -0.803208 -0.595699 0
    outer loop
      vertex -24.9441 -16.6671 0
      vertex -23.1903 -19.0318 0
      vertex -23.1903 -19.0318 2
    endloop
  endfacet
  facet normal -0.803208 -0.595699 0
    outer loop
      vertex -24.9441 -16.6671 0
      vertex -23.1903 -19.0318 2
      vertex -24.9441 -16.6671 2
    endloop
  endfacet
  facet normal -0.803208 0.595699 0
    outer loop
      vertex -24.9441 16.6671 0
      vertex -23.1903 19.0318 2
      vertex -23.1903 19.0318 0
    endloop
  endfacet
  facet normal -0.803208 0.595699 0
    outer loop
      vertex -24.9441 16.6671 0
      vertex -24.9441 16.6671 2
      vertex -23.1903 19.0318 2
    endloop
  endfacet
  facet normal -0.857729 -0.514103 0
    outer loop
      vertex -26.4576 -14.1419 0
      vertex -24.9441 -16.6671 0
      vertex -24.9441 -16.6671 2
    endloop
  endfacet
  facet normal -0.857729 -0.514103 0
    outer loop
      vertex -26.4576 -14.1419 0
      vertex -24.9441 -16.6671 2
      vertex -26.4576 -14.1419 2
    endloop
  endfacet
  facet normal -0.857729 0.514103 0
    outer loop
      vertex -26.4576 14.1419 0
      vertex -24.9441 16.6671 2
      vertex -24.9441 16.6671 0
    endloop
  endfacet
  facet normal -0.857729 0.514103 0
    outer loop
      vertex -26.4576 14.1419 0
      vertex -26.4576 14.1419 2
      vertex -24.9441 16.6671 2
    endloop
  endfacet
  facet normal -0.903989 -0.427555 0
    outer loop
      vertex -27.7164 -11.4805 0
      vertex -26.4576 -14.1419 0
      vertex -26.4576 -14.1419 2
    endloop
  endfacet
  facet normal -0.903989 -0.427555 0
    outer loop
      vertex -27.7164 -11.4805 0
      vertex -26.4576 -14.1419 2
      vertex -27.7164 -11.4805 2
    endloop
  endfacet
  facet normal -0.903989 0.427555 0
    outer loop
      vertex -27.7164 11.4805 0
      vertex -26.4576 14.1419 2
      vertex -26.4576 14.1419 0
    endloop
  endfacet
  facet normal -0.903989 0.427555 0
    outer loop
      vertex -27.7164 11.4805 0
      vertex -27.7164 11.4805 2
      vertex -26.4576 14.1419 2
    endloop
  endfacet
  facet normal -0.941544 -0.33689 0
    outer loop
      vertex -28.7082 -8.70854 0
      vertex -27.7164 -11.4805 0
      vertex -27.7164 -11.4805 2
    endloop
  endfacet
  facet normal -0.941544 -0.33689 0
    outer loop
      vertex -28.7082 -8.70854 0
      vertex -27.7164 -11.4805 2
      vertex -28.7082 -8.70854 2
    endloop
  endfacet
  facet normal -0.941544 0.33689 0
    outer loop
      vertex -28.7082 8.70854 0
      vertex -27.7164 11.4805 2
      vertex -27.7164 11.4805 0
    endloop
  endfacet
  facet normal -0.941544 0.33689 0
    outer loop
      vertex -28.7082 8.70854 0
      vertex -28.7082 8.70854 2
      vertex -27.7164 11.4805 2
    endloop
  endfacet
  facet normal -0.970031 -0.24298 0
    outer loop
      vertex -29.4236 -5.85271 0
      vertex -28.7082 -8.70854 0
      vertex -28.7082 -8.70854 2
    endloop
  endfacet
  facet normal -0.970031 -0.24298 0
    outer loop
      vertex -29.4236 -5.85271 0
      vertex -28.7082 -8.70854 2
      vertex -29.4236 -5.85271 2
    endloop
  endfacet
  facet normal -0.970031 0.24298 0
    outer loop
      vertex -29.4236 5.85271 0
      vertex -28.7082 8.70854 2
      vertex -28.7082 8.70854 0
    endloop
  endfacet
  facet normal -0.970031 0.24298 0
    outer loop
      vertex -29.4236 5.85271 0
      vertex -29.4236 5.85271 2
      vertex -28.7082 8.70854 2
    endloop
  endfacet
  facet normal -0.989176 -0.146731 0
    outer loop
      vertex -29.8555 -2.94051 0
      vertex -29.4236 -5.85271 0
      vertex -29.4236 -5.85271 2
    endloop
  endfacet
  facet normal -0.989176 -0.146731 0
    outer loop
      vertex -29.8555 -2.94051 0
      vertex -29.4236 -5.85271 2
      vertex -29.8555 -2.94051 2
    endloop
  endfacet
  facet normal -0.989176 0.146731 0
    outer loop
      vertex -29.8555 2.94051 0
      vertex -29.4236 5.85271 2
      vertex -29.4236 5.85271 0
    endloop
  endfacet
  facet normal -0.989176 0.146731 0
    outer loop
      vertex -29.8555 2.94051 0
      vertex -29.8555 2.94051 2
      vertex -29.4236 5.85271 2
    endloop
  endfacet
  facet normal 0 0 -1
    outer loop
      vertex -30 0 0
      vertex -11.4805 -27.7164 0
      vertex -14.1419 -26.4576 0
    endloop
  endfacet
  facet normal 0 0 -1
    outer loop
      vertex -30 0 0
      vertex -11.4805 27.7164 0
      vertex -8.70854 28.7082 0
    endloop
  endfacet
  facet normal 0 0 -1
    outer loop
      vertex -30 0 0
      vertex -14.1419 -26.4576 0
      vertex -16.6671 -24.9441 0
    endloop
  endfacet
  facet normal 0 0 -1
    outer loop
      vertex -30 0 0
      vertex -14.1419 26.4576 0
      vertex -11.4805 27.7164 0
    endloop
  endfacet
  facet normal 0 0 -1
    outer loop
      vertex -30 0 0
      vertex -16.6671 -24.9441 0
      vertex -19.0318 -23.1903 0
    endloop
  endfacet
  facet normal 0 0 -1
    outer loop
      vertex -30 0 0
      vertex -16.6671 24.9441 0
      vertex -14.1419 26.4576 0
    endloop
  endfacet
  facet normal 0 0 -1
    outer loop
      vertex -30 0 0
      vertex -19.0318 -23.1903 0
      vertex -21.2132 -21.2132 0
    endloop
  endfacet
  facet normal 0 0 -1
    outer loop
      vertex -30 0 0
      vertex -19.0318 23.1903 0
      vertex -16.6671 24.9441 0
    endloop
  endfacet
  facet normal 0 0 -1
    outer loop
      vertex -30 0 0
      vertex -2.94051 -29.8555 0
      vertex -5.85271 -29.4236 0
    endloop
  endfacet
  facet normal 0 0 -1
    outer loop
      vertex -30 0 0
      vertex -2.94051 29.8555 0
      vertex 0 30 0
    endloop
  endfacet
  facet normal 0 0 -1
    outer loop
      vertex -30 0 0
      vertex -21.2132 -21.2132 0
      vertex -23.1903 -19.0318 0
    endloop
  endfacet
  facet normal 0 0 -1
    outer loop
      vertex -30 0 0
      vertex -21.2132 21.2132 0
      vertex -19.0318 23.1903 0
    endloop
  endfacet
  facet normal 0 0 -1
    outer loop
      vertex -30 0 0
      vertex -23.1903 -19.0318 0
      vertex -24.9441 -16.6671 0
    endloop
  endfacet
  facet normal 0 0 -1
    outer loop
      vertex -30 0 0
      vertex -23.1903 19.0318 0
      vertex -21.2132 21.2132 0
    endloop
  endfacet
  facet normal 0 0 -1
    outer loop
      vertex -30 0 0
      vertex -24.9441 -16.6671 0
      vertex -26.4576 -14.1419 0
    endloop
  endfacet
  facet normal 0 0 -1
    outer loop
      vertex -30 0 0
      vertex -24.9441 16.6671 0
      vertex -23.1903 19.0318 0
    endloop
  endfacet
  facet normal 0 0 -1
    outer loop
      vertex -30 0 0
      vertex -26.4576 -14.1419 0
      vertex -27.7164 -11.4805 0
    endloop
  endfacet
  facet normal 0 0 -1
    outer loop
      vertex -30 0 0
      vertex -26.4576 14.1419 0
      vertex -24.9441 16.6671 0
    endloop
  endfacet
  facet normal 0 0 -1
    outer loop
      vertex -30 0 0
      vertex -27.7164 -11.4805 0
      vertex -28.7082 -8.70854 0
    endloop
  endfacet
  facet normal 0 0 -1
    outer loop
      vertex -30 0 0
      vertex -27.7164 11.4805 0
      vertex -26.4576 14.1419 0
    endloop
  endfacet
  facet normal 0 0 -1
    outer loop
      vertex -30 0 0
      vertex -28.7082 -8.70854 0
      vertex -29.4236 -5.85271 0
    endloop
  endfacet
  facet normal 0 0 -1
    outer loop
      vertex -30 0 0
      vertex -28.7082 8.70854 0
      vertex -27.7164 11.4805 0
    endloop
  endfacet
  facet normal 0 0 -1
    outer loop
      vertex -30 0 0
      vertex -29.4236 -5.85271 0
      vertex -29.8555 -2.94051 0
    endloop
  endfacet
  facet normal 0 0 -1
    outer loop
      vertex -30 0 0
      vertex -29.4236 5.85271 0
      vertex -28.7082 8.70854 0
    endloop
  endfacet
  facet normal -0.998795 -0.0490676 0
    outer loop
      vertex -30 0 0
      vertex -29.8555 -2.94051 0
      vertex -29.8555 -2.94051 2
    endloop
  endfacet
  facet normal -0.998795 -0.0490676 0
    outer loop
      vertex -30 0 0
      vertex -29.8555 -2.94051 2
      vertex -30 0 2
    endloop
  endfacet
  facet normal 0 0 -1
    outer loop
      vertex -30 0 0
      vertex -29.8555 2.94051 0
      vertex -29.4236 5.85271 0
    endloop
  endfacet
  facet normal -0.998795 0.0490676 0
    outer loop
      vertex -30 0 0
      vertex -29.8555 2.94051 2
      vertex -29.8555 2.94051 0
    endloop
  endfacet
  facet normal -0.998795 0.0490676 0
    outer loop
      vertex -30 0 0
      vertex -30 0 2
      vertex -29.8555 2.94051 2
    endloop
  endfacet
  facet normal 0 0 -1
    outer loop
      vertex -30 0 0
      vertex -5.85271 -29.4236 0
      vertex -8.70854 -28.7082 0
    endloop
  endfacet
  facet normal 0 0 -1
    outer loop
      vertex -30 0 0
      vertex -5.85271 29.4236 0
      vertex -2.94051 29.8555 0
    endloop
  endfacet
  facet normal 0 0 -1
    outer loop
      vertex -30 0 0
      vertex -8.70854 -28.7082 0
      vertex -11.4805 -27.7164 0
    endloop
  endfacet
  facet normal 0 0 -1
    outer loop
      vertex -30 0 0
      vertex -8.70854 28.7082 0
      vertex -5.85271 29.4236 0
    endloop
  endfacet
  facet normal 0 0 -1
    outer loop
      vertex -30 0 0
      vertex 0 -30 0
      vertex -2.94051 -29.8555 0
    endloop
  endfacet
  facet normal 0 0 -1
    outer loop
      vertex -30 0 0
      vertex 0 30 0
      vertex 2.94051 29.8555 0
    endloop
  endfacet
  facet normal 0 0 -1
    outer loop
      vertex -30 0 0
      vertex 11.4805 -27.7164 0
      vertex 8.70854 -28.7082 0
    endloop
  endfacet
  facet normal 0 0 -1
    outer loop
      vertex -30 0 0
      vertex 11.4805 27.7164 0
      vertex 14.1419 26.4576 0
    endloop
  endfacet
  facet normal 0 0 -1
    outer loop
      vertex -30 0 0
      vertex 14.1419 -26.4576 0
      vertex 11.4805 -27.7164 0
    endloop
  endfacet
  facet normal 0 0 -1
    outer loop
      vertex -30 0 0
      vertex 14.1419 26.4576 0
      vertex 16.6671 24.9441 0
    endloop
  endfacet
  facet normal 0 0 -1
    outer loop
      vertex -30 0 0
      vertex 16.6671 -24.9441 0
      vertex 14.1419 -26.4576 0
    endloop
  endfacet
  facet normal 0 0 -1
    outer loop
      vertex -30 0 0
      vertex 16.6671 24.9441 0
      vertex 19.0318 23.1903 0
    endloop
  endfacet
  facet normal 0 0 -1
    outer loop
      vertex -30 0 0
      vertex 19.0318 -23.1903 0
      vertex 16.6671 -24.9441 0
    endloop
  endfacet
  facet normal 0 0 -1
    outer loop
      vertex -30 0 0
      vertex 19.0318 23.1903 0
      vertex 21.2132 21.2132 0
    endloop
  endfacet
  facet normal 0 0 -1
    outer loop
      vertex -30 0 0
      vertex 2.94051 -29.8555 0
      vertex 0 -30 0
    endloop
  endfacet
  facet normal 0 0 -1
    outer loop
      vertex -30 0 0
      vertex 2.94051 29.8555 0
      vertex 5.85271 29.4236 0
    endloop
  endfacet
  facet normal 0 0 -1
    outer loop
      vertex -30 0 0
      vertex 21.2132 -21.2132 0
      vertex 19.0318 -23.1903 0
    endloop
  endfacet
  facet normal 0 0 -1
    outer loop
      vertex -30 0 0
      vertex 21.2132 21.2132 0
      vertex 23.1903 19.0318 0
    endloop
  endfacet
  facet normal 0 0 -1
    outer loop
      vertex -30 0 0
      vertex 23.1903 -19.0318 0
      vertex 21.2132 -21.2132 0
    endloop
  endfacet
  facet normal 0 0 -1
    outer loop
      vertex -30 0 0
      vertex 23.1903 19.0318 0
      vertex 24.9441 16.6671 0
    endloop
  endfacet
  facet normal 0 0 -1
    outer loop
      vertex -30 0 0
      vertex 24.9441 -16.6671 0
      vertex 23.1903 -19.0318 0
    endloop
  endfacet
  facet normal 0 0 -1
    outer loop
      vertex -30 0 0
      vertex 24.9441 16.6671 0
      vertex 26.4576 14.1419 0
    endloop
  endfacet
  facet normal 0 0 -1
    outer loop
      vertex -30 0 0
      vertex 26.4576 -14.1419 0
      vertex 24.9441 -16.6671 0
    endloop
  endfacet
  facet normal 0 0 -1
    outer loop
      vertex -30 0 0
      vertex 26.4576 14.1419 0
      vertex 27.7164 11.4805 0
    endloop
  endfacet
  facet normal 0 0 -1
    outer loop
      vertex -30 0 0
      vertex 27.7164 -11.4805 0
      vertex 26.4576 -14.1419 0
    endloop
  endfacet
  facet normal 0 0 -1
    outer loop
      vertex -30 0 0
      vertex 27.7164 11.4805 0
      vertex 28.7082 8.70854 0
    endloop
  endfacet
  facet normal 0 0 -1
    outer loop
      vertex -30 0 0
      vertex 28.7082 -8.70854 0
      vertex 27.7164 -11.4805 0
    endloop
  endfacet
  facet normal 0 0 -1
    outer loop
      vertex -30 0 0
      vertex 28.7082 8.70854 0
      vertex 29.4236 5.85271 0
    endloop
  endfacet
  facet normal 0 0 -1
    outer loop
      vertex -30 0 0
      vertex 29.4236 -5.85271 0
      vertex 28.7082 -8.70854 0
    endloop
  endfacet
  facet normal 0 0 -1
    outer loop
      vertex -30 0 0
      vertex 29.4236 5.85271 0
      vertex 29.8555 2.94051 0
    endloop
  endfacet
  facet normal 0 0 -1
    outer loop
      vertex -30 0 0
      vertex 29.8555 -2.94051 0
      vertex 29.4236 -5.85271 0
    endloop
  endfacet
  facet normal 0 0 -1
    outer loop
      vertex -30 0 0
      vertex 29.8555 2.94051 0
      vertex 30 0 0
    endloop
  endfacet
  facet normal 0 0 -1
    outer loop
      vertex -30 0 0
      vertex 30 0 0
      vertex 29.8555 -2.94051 0
    endloop
  endfacet
  facet normal 0 0 -1
    outer loop
      vertex -30 0 0
      vertex 5.85271 -29.4236 0
      vertex 2.94051 -29.8555 0
    endloop
  endfacet
  facet normal 0 0 -1
    outer loop
      vertex -30 0 0
      vertex 5.85271 29.4236 0
      vertex 8.70854 28.7082 0
    endloop
  endfacet
  facet normal 0 0 -1
    outer loop
      vertex -30 0 0
      vertex 8.70854 -28.7082 0
      vertex 5.85271 -29.4236 0
    endloop
  endfacet
  facet normal 0 0 -1
    outer loop
      vertex -30 0 0
      vertex 8.70854 28.7082 0
      vertex 11.4805 27.7164 0
    endloop
  endfacet
  facet normal 0 0 1
    outer loop
      vertex -30 0 2
      vertex -11.4805 -27.7164 2
      vertex -8.70854 -28.7082 2
    endloop
  endfacet
  facet normal 0 0 1
    outer loop
      vertex -30 0 2
      vertex -11.4805 27.7164 2
      vertex -14.1419 26.4576 2
    endloop
  endfacet
  facet normal 0 0 1
    outer loop
      vertex -30 0 2
      vertex -14.1419 -26.4576 2
      vertex -11.4805 -27.7164 2
    endloop
  endfacet
  facet normal 0 0 1
    outer loop
      vertex -30 0 2
      vertex -14.1419 26.4576 2
      vertex -16.6671 24.9441 2
    endloop
  endfacet
  facet normal 0 0 1
    outer loop
      vertex -30 0 2
      vertex -16.6671 -24.9441 2
      vertex -14.1419 -26.4576 2
    endloop
  endfacet
  facet normal 0 0 1
    outer loop
      vertex -30 0 2
      vertex -16.6671 24.9441 2
      vertex -19.0318 23.1903 2
    endloop
  endfacet
  facet normal 0 0 1
    outer loop
      vertex -30 0 2
      vertex -19.0318 -23.1903 2
      vertex -16.6671 -24.9441 2
    endloop
  endfacet
  facet normal 0 0 1
    outer loop
      vertex -30 0 2
      vertex -19.0318 23.1903 2
      vertex -21.2132 21.2132 2
    endloop
  endfacet
  facet normal 0 0 1
    outer loop
      vertex -30 0 2
      vertex -2.94051 -29.8555 2
      vertex 0 -30 2
    endloop
  endfacet
  facet normal 0 0 1
    outer loop
      vertex -30 0 2
      vertex -2.94051 29.8555 2
      vertex -5.85271 29.4236 2
    endloop
  endfacet
  facet normal 0 0 1
    outer loop
      vertex -30 0 2
      vertex -21.2132 -21.2132 2
      vertex -19.0318 -23.1903 2
    endloop
  endfacet
  facet normal 0 0 1
    outer loop
      vertex -30 0 2
      vertex -21.2132 21.2132 2
      vertex -23.1903 19.0318 2
    endloop
  endfacet
  facet normal 0 0 1
    outer loop
      vertex -30 0 2
      vertex -23.1903 -19.0318 2
      vertex -21.2132 -21.2132 2
    endloop
  endfacet
  facet normal 0 0 1
    outer loop
      vertex -30 0 2
      vertex -23.1903 19.0318 2
      vertex -24.9441 16.6671 2
    endloop
  endfacet
  facet normal 0 0 1
    outer loop
      vertex -30 0 2
      vertex -24.9441 -16.6671 2
      vertex -23.1903 -19.0318 2
    endloop
  endfacet
  facet normal 0 0 1
    outer loop
      vertex -30 0 2
      vertex -24.9441 16.6671 2
      vertex -26.4576 14.1419 2
    endloop
  endfacet
  facet normal 0 0 1
    outer loop
      vertex -30 0 2
      vertex -26.4576 -14.1419 2
      vertex -24.9441 -16.6671 2
    endloop
  endfacet
  facet normal 0 0 1
    outer loop
      vertex -30 0 2
      vertex -26.4576 14.1419 2
      vertex -27.7164 11.4805 2
    endloop
  endfacet
  facet normal 0 0 1
    outer loop
      vertex -30 0 2
      vertex -27.7164 -11.4805 2
      vertex -26.4576 -14.1419 2
    endloop
  endfacet
  facet normal 0 0 1
    outer loop
      vertex -30 0 2
      vertex -27.7164 11.4805 2
      vertex -28.7082 8.70854 2
    endloop
  endfacet
  facet normal 0 0 1
    outer loop
      vertex -30 0 2
      vertex -28.7082 -8.70854 2
      vertex -27.7164 -11.4805 2
    endloop
  endfacet
  facet normal 0 0 1
    outer loop
      vertex -30 0 2
      vertex -28.7082 8.70854 2
      vertex -29.4236 5.85271 2
    endloop
  endfacet
  facet normal 0 0 1
    outer loop
      vertex -30 0 2
      vertex -29.4236 -5.85271 2
      vertex -28.7082 -8.70854 2
    endloop
  endfacet
  facet normal 0 0 1
    outer loop
      vertex -30 0 2
      vertex -29.4236 5.85271 2
      vertex -29.8555 2.94051 2
    endloop
  endfacet
  facet normal 0 0 1
    outer loop
      vertex -30 0 2
      vertex -29.8555 -2.94051 2
      vertex -29.4236 -5.85271 2
    endloop
  endfacet
  facet normal 0 0 1
    outer loop
      vertex -30 0 2
      vertex -5.85271 -29.4236 2
      vertex -2.94051 -29.8555 2
    endloop
  endfacet
  facet normal 0 0 1
    outer loop
      vertex -30 0 2
      vertex -5.85271 29.4236 2
      vertex -8.70854 28.7082 2
    endloop
  endfacet
  facet normal 0 0 1
    outer loop
      vertex -30 0 2
      vertex -8.70854 -28.7082 2
      vertex -5.85271 -29.4236 2
    endloop
  endfacet
  facet normal 0 0 1
    outer loop
      vertex -30 0 2
      vertex -8.70854 28.7082 2
      vertex -11.4805 27.7164 2
    endloop
  endfacet
  facet normal 0 0 1
    outer loop
      vertex -30 0 2
      vertex 0 -30 2
      vertex 2.94051 -29.8555 2
    endloop
  endfacet
  facet normal 0 0 1
    outer loop
      vertex -30 0 2
      vertex 0 30 2
      vertex -2.94051 29.8555 2
    endloop
  endfacet
  facet normal 0 0 1
    outer loop
      vertex -30 0 2
      vertex 11.4805 -27.7164 2
      vertex 14.1419 -26.4576 2
    endloop
  endfacet
  facet normal 0 0 1
    outer loop
      vertex -30 0 2
      vertex 11.4805 27.7164 2
      vertex 8.70854 28.7082 2
    endloop
  endfacet
  facet normal 0 0 1
    outer loop
      vertex -30 0 2
      vertex 14.1419 -26.4576 2
      vertex 16.6671 -24.9441 2
    endloop
  endfacet
  facet normal 0 0 1
    outer loop
      vertex -30 0 2
      vertex 14.1419 26.4576 2
      vertex 11.4805 27.7164 2
    endloop
  endfacet
  facet normal 0 0 1
    outer loop
      vertex -30 0 2
      vertex 16.6671 -24.9441 2
      vertex 19.0318 -23.1903 2
    endloop
  endfacet
  facet normal 0 0 1
    outer loop
      vertex -30 0 2
      vertex 16.6671 24.9441 2
      vertex 14.1419 26.4576 2
    endloop
  endfacet
  facet normal 0 0 1
    outer loop
      vertex -30 0 2
      vertex 19.0318 -23.1903 2
      vertex 21.2132 -21.2132 2
    endloop
  endfacet
  facet normal 0 0 1
    outer loop
      vertex -30 0 2
      vertex 19.0318 23.1903 2
      vertex 16.6671 24.9441 2
    endloop
  endfacet
  facet normal 0 0 1
    outer loop
      vertex -30 0 2
      vertex 2.94051 -29.8555 2
      vertex 5.85271 -29.4236 2
    endloop
  endfacet
  facet normal 0 0 1
    outer loop
      vertex -30 0 2
      vertex 2.94051 29.8555 2
      vertex 0 30 2
    endloop
  endfacet
  facet normal 0 0 1
    outer loop
      vertex -30 0 2
      vertex 21.2132 -21.2132 2
      vertex 23.1903 -19.0318 2
    endloop
  endfacet
  facet normal 0 0 1
    outer loop
      vertex -30 0 2
      vertex 21.2132 21.2132 2
      vertex 19.0318 23.1903 2
    endloop
  endfacet
  facet normal 0 0 1
    outer loop
      vertex -30 0 2
      vertex 23.1903 -19.0318 2
      vertex 24.9441 -16.6671 2
    endloop
  endfacet
  facet normal 0 0 1
    outer loop
      vertex -30 0 2
      vertex 23.1903 19.0318 2
      vertex 21.2132 21.2132 2
    endloop
  endfacet
  facet normal 0 0 1
    outer loop
      vertex -30 0 2
      vertex 24.9441 -16.6671 2
      vertex 26.4576 -14.1419 2
    endloop
  endfacet
  facet normal 0 0 1
    outer loop
      vertex -30 0 2
      vertex 24.9441 16.6671 2
      vertex 23.1903 19.0318 2
    endloop
  endfacet
  facet normal 0 0 1
    outer loop
      vertex -30 0 2
      vertex 26.4576 -14.1419 2
      vertex 27.7164 -11.4805 2
    endloop
  endfacet
  facet normal 0 0 1
    outer loop
      vertex -30 0 2
      vertex 26.4576 14.1419 2
      vertex 24.9441 16.6671 2
    endloop
  endfacet
  facet normal 0 0 1
    outer loop
      vertex -30 0 2
      vertex 27.7164 -11.4805 2
      vertex 28.7082 -8.70854 2
    endloop
  endfacet
  facet normal 0 0 1
    outer loop
      vertex -30 0 2
      vertex 27.7164 11.4805 2
      vertex 26.4576 14.1419 2
    endloop
  endfacet
  facet normal 0 0 1
    outer loop
      vertex -30 0 2
      vertex 28.7082 -8.70854 2
      vertex 29.4236 -5.85271 2
    endloop
  endfacet
  facet normal 0 0 1
    outer loop
      vertex -30 0 2
      vertex 28.7082 8.70854 2
      vertex 27.7164 11.4805 2
    endloop
  endfacet
  facet normal 0 0 1
    outer loop
      vertex -30 0 2
      vertex 29.4236 -5.85271 2
      vertex 29.8555 -2.94051 2
    endloop
  endfacet
  facet normal 0 0 1
    outer loop
      vertex -30 0 2
      vertex 29.4236 5.85271 2
      vertex 28.7082 8.70854 2
    endloop
  endfacet
  facet normal 0 0 1
    outer loop
      vertex -30 0 2
      vertex 29.8555 -2.94051 2
      vertex 30 0 2
    endloop
  endfacet
  facet normal 0 0 1
    outer loop
      vertex -30 0 2
      vertex 29.8555 2.94051 2
      vertex 29.4236 5.85271 2
    endloop
  endfacet
  facet normal 0 0 1
    outer loop
      vertex -30 0 2
      vertex 30 0 2
      vertex 29.8555 2.94051 2
    endloop
  endfacet
  facet normal 0 0 1
    outer loop
      vertex -30 0 2
      vertex 5.85271 -29.4236 2
      vertex 8.70854 -28.7082 2
    endloop
  endfacet
  facet normal 0 0 1
    outer loop
      vertex -30 0 2
      vertex 5.85271 29.4236 2
      vertex 2.94051 29.8555 2
    endloop
  endfacet
  facet normal 0 0 1
    outer loop
      vertex -30 0 2
      vertex 8.70854 -28.7082 2
      vertex 11.4805 -27.7164 2
    endloop
  endfacet
  facet normal 0 0 1
    outer loop
      vertex -30 0 2
      vertex 8.70854 28.7082 2
      vertex 5.85271 29.4236 2
    endloop
  endfacet
  facet normal -0.146731 -0.989176 0
    outer loop
      vertex -5.85271 -29.4236 0
      vertex -2.94051 -29.8555 0
      vertex -2.94051 -29.8555 2
    endloop
  endfacet
  facet normal -0.146731 -0.989176 0
    outer loop
      vertex -5.85271 -29.4236 0
      vertex -2.94051 -29.8555 2
      vertex -5.85271 -29.4236 2
    endloop
  endfacet
  facet normal -0.146731 0.989176 0
    outer loop
      vertex -5.85271 29.4236 0
      vertex -2.94051 29.8555 2
      vertex -2.94051 29.8555 0
    endloop
  endfacet
  facet normal -0.146731 0.989176 0
    outer loop
      vertex -5.85271 29.4236 0
      vertex -5.85271 29.4236 2
      vertex -2.94051 29.8555 2
    endloop
  endfacet
  facet normal -0.24298 -0.970031 0
    outer loop
      vertex -8.70854 -28.7082 0
      vertex -5.85271 -29.4236 0
      vertex -5.85271 -29.4236 2
    endloop
  endfacet
  facet normal -0.24298 -0.970031 0
    outer loop
      vertex -8.70854 -28.7082 0
      vertex -5.85271 -29.4236 2
      vertex -8.70854 -28.7082 2
    endloop
  endfacet
  facet normal -0.24298 0.970031 0
    outer loop
      vertex -8.70854 28.7082 0
      vertex -5.85271 29.4236 2
      vertex -5.85271 29.4236 0
    endloop
  endfacet
  facet normal -0.24298 0.970031 0
    outer loop
      vertex -8.70854 28.7082 0
      vertex -8.70854 28.7082 2
      vertex -5.85271 29.4236 2
    endloop
  endfacet
  facet normal 0.0490676 -0.998795 0
    outer loop
      vertex 0 -30 0
      vertex 2.94051 -29.8555 0
      vertex 2.94051 -29.8555 2
    endloop
  endfacet
  facet normal 0.0490676 -0.998795 0
    outer loop
      vertex 0 -30 0
      vertex 2.94051 -29.8555 2
      vertex 0 -30 2
    endloop
  endfacet
  facet normal 0.0490676 0.998795 0
    outer loop
      vertex 0 30 0
      vertex 0 30 2
      vertex 2.94051 29.8555 2
    endloop
  endfacet
  facet normal 0.0490676 0.998795 0
    outer loop
      vertex 0 30 0
      vertex 2.94051 29.8555 2
      vertex 2.94051 29.8555 0
    endloop
  endfacet
  facet normal 0.427555 -0.903989 0
    outer loop
      vertex 11.4805 -27.7164 0
      vertex 14.1419 -26.4576 0
      vertex 14.1419 -26.4576 2
    endloop
  endfacet
  facet normal 0.427555 -0.903989 0
    outer loop
      vertex 11.4805 -27.7164 0
      vertex 14.1419 -26.4576 2
      vertex 11.4805 -27.7164 2
    endloop
  endfacet
  facet normal 0.427555 0.903989 0
    outer loop
      vertex 11.4805 27.7164 0
      vertex 11.4805 27.7164 2
      vertex 14.1419 26.4576 2
    endloop
  endfacet
  facet normal 0.427555 0.903989 0
    outer loop
      vertex 11.4805 27.7164 0
      vertex 14.1419 26.4576 2
      vertex 14.1419 26.4576 0
    endloop
  endfacet
  facet normal 0.514103 -0.857729 0
    outer loop
      vertex 14.1419 -26.4576 0
      vertex 16.6671 -24.9441 0
      vertex 16.6671 -24.9441 2
    endloop
  endfacet
  facet normal 0.514103 -0.857729 0
    outer loop
      vertex 14.1419 -26.4576 0
      vertex 16.6671 -24.9441 2
      vertex 14.1419 -26.4576 2
    endloop
  endfacet
  facet normal 0.514103 0.857729 0
    outer loop
      vertex 14.1419 26.4576 0
      vertex 14.1419 26.4576 2
      vertex 16.6671 24.9441 2
    endloop
  endfacet
  facet normal 0.514103 0.857729 0
    outer loop
      vertex 14.1419 26.4576 0
      vertex 16.6671 24.9441 2
      vertex 16.6671 24.9441 0
    endloop
  endfacet
  facet normal 0.595699 -0.803208 0
    outer loop
      vertex 16.6671 -24.9441 0
      vertex 19.0318 -23.1903 0
      vertex 19.0318 -23.1903 2
    endloop
  endfacet
  facet normal 0.595699 -0.803208 0
    outer loop
      vertex 16.6671 -24.9441 0
      vertex 19.0318 -23.1903 2
      vertex 16.6671 -24.9441 2
    endloop
  endfacet
  facet normal 0.595699 0.803208 0
    outer loop
      vertex 16.6671 24.9441 0
      vertex 16.6671 24.9441 2
      vertex 19.0318 23.1903 2
    endloop
  endfacet
  facet normal 0.595699 0.803208 0
    outer loop
      vertex 16.6671 24.9441 0
      vertex 19.0318 23.1903 2
      vertex 19.0318 23.1903 0
    endloop
  endfacet
  facet normal 0.671559 -0.740951 0
    outer loop
      vertex 19.0318 -23.1903 0
      vertex 21.2132 -21.2132 0
      vertex 21.2132 -21.2132 2
    endloop
  endfacet
  facet normal 0.671559 -0.740951 0
    outer loop
      vertex 19.0318 -23.1903 0
      vertex 21.2132 -21.2132 2
      vertex 19.0318 -23.1903 2
    endloop
  endfacet
  facet normal 0.671559 0.740951 0
    outer loop
      vertex 19.0318 23.1903 0
      vertex 19.0318 23.1903 2
      vertex 21.2132 21.2132 2
    endloop
  endfacet
  facet normal 0.671559 0.740951 0
    outer loop
      vertex 19.0318 23.1903 0
      vertex 21.2132 21.2132 2
      vertex 21.2132 21.2132 0
    endloop
  endfacet
  facet normal 0.146731 -0.989176 0
    outer loop
      vertex 2.94051 -29.8555 0
      vertex 5.85271 -29.4236 0
      vertex 5.85271 -29.4236 2
    endloop
  endfacet
  facet normal 0.146731 -0.989176 0
    outer loop
      vertex 2.94051 -29.8555 0
      vertex 5.85271 -29.4236 2
      vertex 2.94051 -29.8555 2
    endloop
  endfacet
  facet normal 0.146731 0.989176 0
    outer loop
      vertex 2.94051 29.8555 0
      vertex 2.94051 29.8555 2
      vertex 5.85271 29.4236 2
    endloop
  endfacet
  facet normal 0.146731 0.989176 0
    outer loop
      vertex 2.94051 29.8555 0
      vertex 5.85271 29.4236 2
      vertex 5.85271 29.4236 0
    endloop
  endfacet
  facet normal 0.740951 -0.671559 0
    outer loop
      vertex 21.2132 -21.2132 0
      vertex 23.1903 -19.0318 0
      vertex 23.1903 -19.0318 2
    endloop
  endfacet
  facet normal 0.740951 -0.671559 0
    outer loop
      vertex 21.2132 -21.2132 0
      vertex 23.1903 -19.0318 2
      vertex 21.2132 -21.2132 2
    endloop
  endfacet
  facet normal 0.740951 0.671559 0
    outer loop
      vertex 21.2132 21.2132 0
      vertex 21.2132 21.2132 2
      vertex 23.1903 19.0318 2
    endloop
  endfacet
  facet normal 0.740951 0.671559 0
    outer loop
      vertex 21.2132 21.2132 0
      vertex 23.1903 19.0318 2
      vertex 23.1903 19.0318 0
    endloop
  endfacet
  facet normal 0.803208 -0.595699 0
    outer loop
      vertex 23.1903 -19.0318 0
      vertex 24.9441 -16.6671 0
      vertex 24.9441 -16.6671 2
    endloop
  endfacet
  facet normal 0.803208 -0.595699 0
    outer loop
      vertex 23.1903 -19.0318 0
      vertex 24.9441 -16.6671 2
      vertex 23.1903 -19.0318 2
    endloop
  endfacet
  facet normal 0.803208 0.595699 0
    outer loop
      vertex 23.1903 19.0318 0
      vertex 23.1903 19.0318 2
      vertex 24.9441 16.6671 2
    endloop
  endfacet
  facet normal 0.803208 0.595699 0
    outer loop
      vertex 23.1903 19.0318 0
      vertex 24.9441 16.6671 2
      vertex 24.9441 16.6671 0
    endloop
  endfacet
  facet normal 0.857729 -0.514103 0
    outer loop
      vertex 24.9441 -16.6671 0
      vertex 26.4576 -14.1419 0
      vertex 26.4576 -14.1419 2
    endloop
  endfacet
  facet normal 0.857729 -0.514103 0
    outer loop
      vertex 24.9441 -16.6671 0
      vertex 26.4576 -14.1419 2
      vertex 24.9441 -16.6671 2
    endloop
  endfacet
  facet normal 0.857729 0.514103 0
    outer loop
      vertex 24.9441 16.6671 0
      vertex 24.9441 16.6671 2
      vertex 26.4576 14.1419 2
    endloop
  endfacet
  facet normal 0.857729 0.514103 0
    outer loop
      vertex 24.9441 16.6671 0
      vertex 26.4576 14.1419 2
      vertex 26.4576 14.1419 0
    endloop
  endfacet
  facet normal 0.903989 -0.427555 0
    outer loop
      vertex 26.4576 -14.1419 0
      vertex 27.7164 -11.4805 0
      vertex 27.7164 -11.4805 2
    endloop
  endfacet
  facet normal 0.903989 -0.427555 0
    outer loop
      vertex 26.4576 -14.1419 0
      vertex 27.7164 -11.4805 2
      vertex 26.4576 -14.1419 2
    endloop
  endfacet
  facet normal 0.903989 0.427555 0
    outer loop
      vertex 26.4576 14.1419 0
      vertex 26.4576 14.1419 2
      vertex 27.7164 11.4805 2
    endloop
  endfacet
  facet normal 0.903989 0.427555 0
    outer loop
      vertex 26.4576 14.1419 0
      vertex 27.7164 11.4805 2
      vertex 27.7164 11.4805 0
    endloop
  endfacet
  facet normal 0.941544 -0.33689 0
    outer loop
      vertex 27.7164 -11.4805 0
      vertex 28.7082 -8.70854 0
      vertex 28.7082 -8.70854 2
    endloop
  endfacet
  facet normal 0.941544 -0.33689 0
    outer loop
      vertex 27.7164 -11.4805 0
      vertex 28.7082 -8.70854 2
      vertex 27.7164 -11.4805 2
    endloop
  endfacet
  facet normal 0.941544 0.33689 0
    outer loop
      vertex 27.7164 11.4805 0
      vertex 27.7164 11.4805 2
      vertex 28.7082 8.70854 2
    endloop
  endfacet
  facet normal 0.941544 0.33689 0
    outer loop
      vertex 27.7164 11.4805 0
      vertex 28.7082 8.70854 2
      vertex 28.7082 8.70854 0
    endloop
  endfacet
  facet normal 0.970031 -0.24298 0
    outer loop
      vertex 28.7082 -8.70854 0
      vertex 29.4236 -5.85271 0
      vertex 29.4236 -5.85271 2
    endloop
  endfacet
  facet normal 0.970031 -0.24298 0
    outer loop
      vertex 28.7082 -8.70854 0
      vertex 29.4236 -5.85271 2
      vertex 28.7082 -8.70854 2
    endloop
  endfacet
  facet normal 0.970031 0.24298 0
    outer loop
      vertex 28.7082 8.70854 0
      vertex 28.7082 8.70854 2
      vertex 29.4236 5.85271 2
    endloop
  endfacet
  facet normal 0.970031 0.24298 0
    outer loop
      vertex 28.7082 8.70854 0
      vertex 29.4236 5.85271 2
      vertex 29.4236 5.85271 0
    endloop
  endfacet
  facet normal 0.989176 -0.146731 0
    outer loop
      vertex 29.4236 -5.85271 0
      vertex 29.8555 -2.94051 0
      vertex 29.8555 -2.94051 2
    endloop
  endfacet
  facet normal 0.989176 -0.146731 0
    outer loop
      vertex 29.4236 -5.85271 0
      vertex 29.8555 -2.94051 2
      vertex 29.4236 -5.85271 2
    endloop
  endfacet
  facet normal 0.989176 0.146731 0
    outer loop
      vertex 29.4236 5.85271 0
      vertex 29.4236 5.85271 2
      vertex 29.8555 2.94051 2
    endloop
  endfacet
  facet normal 0.989176 0.146731 0
    outer loop
      vertex 29.4236 5.85271 0
      vertex 29.8555 2.94051 2
      vertex 29.8555 2.94051 0
    endloop
  endfacet
  facet normal 0.998795 -0.0490676 0
    outer loop
      vertex 29.8555 -2.94051 0
      vertex 30 0 0
      vertex 30 0 2
    endloop
  endfacet
  facet normal 0.998795 -0.0490676 0
    outer loop
      vertex 29.8555 -2.94051 0
      vertex 30 0 2
      vertex 29.8555 -2.94051 2
    endloop
  endfacet
  facet normal 0.998795 0.0490676 0
    outer loop
      vertex 29.8555 2.94051 0
      vertex 29.8555 2.94051 2
      vertex 30 0 2
    endloop
  endfacet
  facet normal 0.998795 0.0490676 0
    outer loop
      vertex 29.8555 2.94051 0
      vertex 30 0 2
      vertex 30 0 0
    endloop
  endfacet
  facet normal 0.24298 -0.970031 0
    outer loop
      vertex 5.85271 -29.4236 0
      vertex 8.70854 -28.7082 0
      vertex 8.70854 -28.7082 2
    endloop
  endfacet
  facet normal 0.24298 -0.970031 0
    outer loop
      vertex 5.85271 -29.4236 0
      vertex 8.70854 -28.7082 2
      vertex 5.85271 -29.4236 2
    endloop
  endfacet
  facet normal 0.24298 0.970031 0
    outer loop
      vertex 5.85271 29.4236 0
      vertex 5.85271 29.4236 2
      vertex 8.70854 28.7082 2
    endloop
  endfacet
  facet normal 0.24298 0.970031 0
    outer loop
      vertex 5.85271 29.4236 0
      vertex 8.70854 28.7082 2
      vertex 8.70854 28.7082 0
    endloop
  endfacet
  facet normal 0.33689 -0.941544 0
    outer loop
      vertex 8.70854 -28.7082 0
      vertex 11.4805 -27.7164 0
      vertex 11.4805 -27.7164 2
    endloop
  endfacet
  facet normal 0.33689 -0.941544 0
    outer loop
      vertex 8.70854 -28.7082 0
      vertex 11.4805 -27.7164 2
      vertex 8.70854 -28.7082 2
    endloop
  endfacet
  facet normal 0.33689 0.941544 0
    outer loop
      vertex 8.70854 28.7082 0
      vertex 11.4805 27.7164 2
      vertex 11.4805 27.7164 0
    endloop
  endfacet
  facet normal 0.33689 0.941544 0
    outer loop
      vertex 8.70854 28.7082 0
      vertex 8.70854 28.7082 2
      vertex 11.4805 27.7164 2
    endloop
  endfacet
endsolid OpenSCAD_Model
