solid OpenSCAD_Model
  facet normal 0.994522 0 -0.104528
    outer loop
      vertex 3.4 2.5 2.525
      vertex 3.3257 1.56963e-016 1.8181
      vertex 3.3257 2.5 1.8181
    endloop
  endfacet
  facet normal 0.994522 0 -0.104528
    outer loop
      vertex 3.3257 1.56963e-016 1.8181
      vertex 3.4 2.5 2.525
      vertex 3.4 0 2.525
    endloop
  endfacet
  facet normal -0.994522 0 -0.104528
    outer loop
      vertex -3.3257 1.56963e-016 1.8181
      vertex -3.4 2.5 2.525
      vertex -3.3257 2.5 1.8181
    endloop
  endfacet
  facet normal -0.994522 -0 -0.104528
    outer loop
      vertex -3.4 2.5 2.525
      vertex -3.3257 1.56963e-016 1.8181
      vertex -3.4 0 2.525
    endloop
  endfacet
  facet normal 0.743145 0 -0.66913
    outer loop
      vertex 2.75066 2.5 0.526531
      vertex 2.27657 5.60663e-016 3.8147e-007
      vertex 2.27657 2.5 3.8147e-007
    endloop
  endfacet
  facet normal 0.743145 0 -0.66913
    outer loop
      vertex 2.27657 5.60663e-016 3.8147e-007
      vertex 2.75066 2.5 0.526531
      vertex 2.75066 4.43749e-016 0.526531
    endloop
  endfacet
  facet normal 0.951056 0 -0.309017
    outer loop
      vertex 3.3257 2.5 1.8181
      vertex 3.10605 3.07066e-016 1.1421
      vertex 3.10605 2.5 1.1421
    endloop
  endfacet
  facet normal 0.951056 0 -0.309017
    outer loop
      vertex 3.10605 3.07066e-016 1.1421
      vertex 3.3257 2.5 1.8181
      vertex 3.3257 1.56963e-016 1.8181
    endloop
  endfacet
  facet normal 0.866025 -0 0.5
    outer loop
      vertex 2.75066 0 4.52347
      vertex 3.10605 2.5 3.9079
      vertex 2.75066 2.5 4.52347
    endloop
  endfacet
  facet normal 0.866025 0 0.5
    outer loop
      vertex 3.10605 2.5 3.9079
      vertex 2.75066 0 4.52347
      vertex 3.10605 0 3.9079
    endloop
  endfacet
  facet normal 0.866025 0 -0.5
    outer loop
      vertex 3.10605 2.5 1.1421
      vertex 2.75066 4.43749e-016 0.526531
      vertex 2.75066 2.5 0.526531
    endloop
  endfacet
  facet normal 0.866025 0 -0.5
    outer loop
      vertex 2.75066 4.43749e-016 0.526531
      vertex 3.10605 2.5 1.1421
      vertex 3.10605 3.07066e-016 1.1421
    endloop
  endfacet
  facet normal -0.866025 0 -0.5
    outer loop
      vertex -2.75066 4.43749e-016 0.526531
      vertex -3.10605 2.5 1.1421
      vertex -2.75066 2.5 0.526531
    endloop
  endfacet
  facet normal -0.866025 -0 -0.5
    outer loop
      vertex -3.10605 2.5 1.1421
      vertex -2.75066 4.43749e-016 0.526531
      vertex -3.10605 3.07066e-016 1.1421
    endloop
  endfacet
  facet normal -0.743145 0 -0.66913
    outer loop
      vertex -2.27657 5.60663e-016 3.8147e-007
      vertex -2.75066 2.5 0.526531
      vertex -2.27657 2.5 3.8147e-007
    endloop
  endfacet
  facet normal -0.743145 -0 -0.66913
    outer loop
      vertex -2.75066 2.5 0.526531
      vertex -2.27657 5.60663e-016 3.8147e-007
      vertex -2.75066 4.43749e-016 0.526531
    endloop
  endfacet
  facet normal -0.951056 0 -0.309017
    outer loop
      vertex -3.10605 3.07066e-016 1.1421
      vertex -3.3257 2.5 1.8181
      vertex -3.10605 2.5 1.1421
    endloop
  endfacet
  facet normal -0.951056 -0 -0.309017
    outer loop
      vertex -3.3257 2.5 1.8181
      vertex -3.10605 3.07066e-016 1.1421
      vertex -3.3257 1.56963e-016 1.8181
    endloop
  endfacet
  facet normal 0.994522 -0 0.104528
    outer loop
      vertex 3.3257 0 3.2319
      vertex 3.4 2.5 2.525
      vertex 3.3257 2.5 3.2319
    endloop
  endfacet
  facet normal 0.994522 0 0.104528
    outer loop
      vertex 3.4 2.5 2.525
      vertex 3.3257 0 3.2319
      vertex 3.4 0 2.525
    endloop
  endfacet
  facet normal 0 -1 -2.22045e-016
    outer loop
      vertex -3.3257 1.56963e-016 1.8181
      vertex 3.4 0 2.525
      vertex -3.4 0 2.525
    endloop
  endfacet
  facet normal 0 -1 -2.22045e-016
    outer loop
      vertex -3.3257 1.56963e-016 1.8181
      vertex 3.3257 1.56963e-016 1.8181
      vertex 3.4 0 2.525
    endloop
  endfacet
  facet normal 0 -1 -2.22045e-016
    outer loop
      vertex -3.10605 3.07066e-016 1.1421
      vertex 3.3257 1.56963e-016 1.8181
      vertex -3.3257 1.56963e-016 1.8181
    endloop
  endfacet
  facet normal 0 -1 -2.22045e-016
    outer loop
      vertex -3.10605 3.07066e-016 1.1421
      vertex 3.10605 3.07066e-016 1.1421
      vertex 3.3257 1.56963e-016 1.8181
    endloop
  endfacet
  facet normal 0 -1 -2.22045e-016
    outer loop
      vertex -2.75066 4.43749e-016 0.526531
      vertex 3.10605 3.07066e-016 1.1421
      vertex -3.10605 3.07066e-016 1.1421
    endloop
  endfacet
  facet normal 0 -1 -2.22045e-016
    outer loop
      vertex -2.75066 4.43749e-016 0.526531
      vertex 2.75066 4.43749e-016 0.526531
      vertex 3.10605 3.07066e-016 1.1421
    endloop
  endfacet
  facet normal 0 -1 -2.22045e-016
    outer loop
      vertex -2.27657 5.60663e-016 3.8147e-007
      vertex 2.75066 4.43749e-016 0.526531
      vertex -2.75066 4.43749e-016 0.526531
    endloop
  endfacet
  facet normal 0 -1 -2.22045e-016
    outer loop
      vertex 2.75066 4.43749e-016 0.526531
      vertex -2.27657 5.60663e-016 3.8147e-007
      vertex 2.27657 5.60663e-016 3.8147e-007
    endloop
  endfacet
  facet normal 0 -1 -2.22045e-016
    outer loop
      vertex -2.27657 -5.60662e-016 5.05
      vertex 2.27657 -5.60663e-016 5.05
      vertex -2.27657 -5.60663e-016 5.05
    endloop
  endfacet
  facet normal 0 -1 -2.22045e-016
    outer loop
      vertex 2.27657 -5.60663e-016 5.05
      vertex -2.27657 -5.60662e-016 5.05
      vertex 2.27657 -5.60662e-016 5.05
    endloop
  endfacet
  facet normal 0.743145 -5.67546e-008 0.66913
    outer loop
      vertex 2.27657 2.5 5.05
      vertex 2.27657 0 5.05
      vertex 2.75066 2.5 4.52347
    endloop
  endfacet
  facet normal 0.894427 -0 0.447214
    outer loop
      vertex 2.27657 -5.60663e-016 5.05
      vertex 2.27657 0 5.05
      vertex 2.27657 2.5 5.05
    endloop
  endfacet
  facet normal 0.894427 0 0.447214
    outer loop
      vertex 2.27657 0 5.05
      vertex 2.27657 -5.60663e-016 5.05
      vertex 2.27657 -5.60662e-016 5.05
    endloop
  endfacet
  facet normal 0.743145 0 0.66913
    outer loop
      vertex 2.75066 2.5 4.52347
      vertex 2.27657 0 5.05
      vertex 2.75066 0 4.52347
    endloop
  endfacet
  facet normal 0.951056 -0 0.309017
    outer loop
      vertex 3.10605 0 3.9079
      vertex 3.3257 2.5 3.2319
      vertex 3.10605 2.5 3.9079
    endloop
  endfacet
  facet normal 0.951056 0 0.309017
    outer loop
      vertex 3.3257 2.5 3.2319
      vertex 3.10605 0 3.9079
      vertex 3.3257 0 3.2319
    endloop
  endfacet
  facet normal -0.866025 0 0.5
    outer loop
      vertex -3.10605 0 3.9079
      vertex -2.75066 2.5 4.52347
      vertex -3.10605 2.5 3.9079
    endloop
  endfacet
  facet normal -0.866025 0 0.5
    outer loop
      vertex -2.75066 2.5 4.52347
      vertex -3.10605 0 3.9079
      vertex -2.75066 0 4.52347
    endloop
  endfacet
  facet normal -0.743145 0 0.66913
    outer loop
      vertex -2.75066 0 4.52347
      vertex -2.27657 2.5 5.05
      vertex -2.75066 2.5 4.52347
    endloop
  endfacet
  facet normal -0.743145 -5.67546e-008 0.66913
    outer loop
      vertex -2.27657 0 5.05
      vertex -2.27657 2.5 5.05
      vertex -2.75066 0 4.52347
    endloop
  endfacet
  facet normal -0.894427 0 0.447214
    outer loop
      vertex -2.27657 -5.60663e-016 5.05
      vertex -2.27657 0 5.05
      vertex -2.27657 -5.60662e-016 5.05
    endloop
  endfacet
  facet normal -0.894427 0 0.447214
    outer loop
      vertex -2.27657 0 5.05
      vertex -2.27657 -5.60663e-016 5.05
      vertex -2.27657 2.5 5.05
    endloop
  endfacet
  facet normal -0.951056 0 0.309017
    outer loop
      vertex -3.3257 0 3.2319
      vertex -3.10605 2.5 3.9079
      vertex -3.3257 2.5 3.2319
    endloop
  endfacet
  facet normal -0.951056 0 0.309017
    outer loop
      vertex -3.10605 2.5 3.9079
      vertex -3.3257 0 3.2319
      vertex -3.10605 0 3.9079
    endloop
  endfacet
  facet normal -0.994522 0 0.104528
    outer loop
      vertex -3.4 0 2.525
      vertex -3.3257 2.5 3.2319
      vertex -3.4 2.5 2.525
    endloop
  endfacet
  facet normal -0.994522 0 0.104528
    outer loop
      vertex -3.3257 2.5 3.2319
      vertex -3.4 0 2.525
      vertex -3.3257 0 3.2319
    endloop
  endfacet
  facet normal 0.828887 -0.552591 -0.0871192
    outer loop
      vertex 3.4 2.5 2.525
      vertex 3.3257 2.5 1.8181
      vertex 3.9 3.25 2.525
    endloop
  endfacet
  facet normal 0.619376 -0.552591 0.557689
    outer loop
      vertex 2.9457 3.25 5.05
      vertex 2.2814 2.50542 5.05
      vertex 3.15517 3.25 4.81736
    endloop
  endfacet
  facet normal 0.828887 -0.552591 0.0871194
    outer loop
      vertex 3.81478 3.25 3.33586
      vertex 3.3257 2.5 3.2319
      vertex 3.9 3.25 2.525
    endloop
  endfacet
  facet normal 0.619376 -0.552591 -0.557689
    outer loop
      vertex 3.15517 3.25 0.232638
      vertex 2.2814 2.50542 3.8147e-007
      vertex 2.9457 3.25 3.8147e-007
    endloop
  endfacet
  facet normal -0.828887 -0.552591 0.0871192
    outer loop
      vertex -3.3257 2.5 3.2319
      vertex -3.9 3.25 2.525
      vertex -3.4 2.5 2.525
    endloop
  endfacet
  facet normal 0.792661 -0.552591 -0.257551
    outer loop
      vertex 3.81478 3.25 1.71415
      vertex 3.3257 2.5 1.8181
      vertex 3.56283 3.25 0.938728
    endloop
  endfacet
  facet normal -0.828887 -0.552591 -0.0871194
    outer loop
      vertex -3.3257 2.5 1.8181
      vertex -3.9 3.25 2.525
      vertex -3.81478 3.25 1.71415
    endloop
  endfacet
  facet normal -0.619376 -0.552591 -0.557689
    outer loop
      vertex -2.2814 2.50542 3.8147e-007
      vertex -3.15517 3.25 0.232638
      vertex -2.9457 3.25 3.8147e-007
    endloop
  endfacet
  facet normal 0.721791 -0.552591 -0.416727
    outer loop
      vertex 3.10605 2.5 1.1421
      vertex 2.75066 2.5 0.526531
      vertex 3.15517 3.25 0.232638
    endloop
  endfacet
  facet normal 0.828887 -0.552591 -0.0871194
    outer loop
      vertex 3.9 3.25 2.525
      vertex 3.3257 2.5 1.8181
      vertex 3.81478 3.25 1.71415
    endloop
  endfacet
  facet normal 0.792661 -0.552591 0.257551
    outer loop
      vertex 3.56283 3.25 4.11127
      vertex 3.3257 2.5 3.2319
      vertex 3.81478 3.25 3.33586
    endloop
  endfacet
  facet normal 0.79266 -0.552591 0.257551
    outer loop
      vertex 3.56283 3.25 4.11127
      vertex 3.10605 2.5 3.9079
      vertex 3.3257 2.5 3.2319
    endloop
  endfacet
  facet normal 0.721791 -0.552591 0.416726
    outer loop
      vertex 3.15517 3.25 4.81736
      vertex 3.10605 2.5 3.9079
      vertex 3.56283 3.25 4.11127
    endloop
  endfacet
  facet normal -0.721791 -0.552591 0.416727
    outer loop
      vertex -2.75066 2.5 4.52347
      vertex -3.15517 3.25 4.81736
      vertex -3.10605 2.5 3.9079
    endloop
  endfacet
  facet normal -0.619376 -0.552591 0.557689
    outer loop
      vertex -2.9457 3.25 5.05
      vertex -3.15517 3.25 4.81736
      vertex -2.2814 2.50542 5.05
    endloop
  endfacet
  facet normal -0.792661 -0.552591 -0.257551
    outer loop
      vertex -3.3257 2.5 1.8181
      vertex -3.81478 3.25 1.71415
      vertex -3.56283 3.25 0.938728
    endloop
  endfacet
  facet normal -0.79266 -0.552591 -0.257551
    outer loop
      vertex -3.3257 2.5 1.8181
      vertex -3.56283 3.25 0.938728
      vertex -3.10605 2.5 1.1421
    endloop
  endfacet
  facet normal -0.721791 -0.552591 -0.416726
    outer loop
      vertex -3.10605 2.5 1.1421
      vertex -3.56283 3.25 0.938728
      vertex -3.15517 3.25 0.232638
    endloop
  endfacet
  facet normal 0.721791 -0.552591 -0.416726
    outer loop
      vertex 3.56283 3.25 0.938728
      vertex 3.10605 2.5 1.1421
      vertex 3.15517 3.25 0.232638
    endloop
  endfacet
  facet normal 0.79266 -0.552591 -0.257551
    outer loop
      vertex 3.3257 2.5 1.8181
      vertex 3.10605 2.5 1.1421
      vertex 3.56283 3.25 0.938728
    endloop
  endfacet
  facet normal 0.828887 -0.552591 0.0871192
    outer loop
      vertex 3.9 3.25 2.525
      vertex 3.3257 2.5 3.2319
      vertex 3.4 2.5 2.525
    endloop
  endfacet
  facet normal 0.721791 -0.552591 0.416727
    outer loop
      vertex 3.15517 3.25 4.81736
      vertex 2.75066 2.5 4.52347
      vertex 3.10605 2.5 3.9079
    endloop
  endfacet
  facet normal 0.619374 -0.552596 0.557686
    outer loop
      vertex 2.75066 2.5 4.52347
      vertex 2.2814 2.50542 5.05
      vertex 2.27657 2.5 5.05
    endloop
  endfacet
  facet normal 0.619376 -0.552591 0.557688
    outer loop
      vertex 2.2814 2.50542 5.05
      vertex 2.75066 2.5 4.52347
      vertex 3.15517 3.25 4.81736
    endloop
  endfacet
  facet normal -0.721791 -0.552591 0.416726
    outer loop
      vertex -3.15517 3.25 4.81736
      vertex -3.56283 3.25 4.11127
      vertex -3.10605 2.5 3.9079
    endloop
  endfacet
  facet normal -0.79266 -0.552591 0.257551
    outer loop
      vertex -3.10605 2.5 3.9079
      vertex -3.56283 3.25 4.11127
      vertex -3.3257 2.5 3.2319
    endloop
  endfacet
  facet normal -0.828887 -0.552591 -0.0871192
    outer loop
      vertex -3.4 2.5 2.525
      vertex -3.9 3.25 2.525
      vertex -3.3257 2.5 1.8181
    endloop
  endfacet
  facet normal -0.721791 -0.552591 -0.416727
    outer loop
      vertex -3.10605 2.5 1.1421
      vertex -3.15517 3.25 0.232638
      vertex -2.75066 2.5 0.526531
    endloop
  endfacet
  facet normal -0.619374 -0.552596 -0.557686
    outer loop
      vertex -2.75066 2.5 0.526531
      vertex -2.2814 2.50542 3.8147e-007
      vertex -2.27657 2.5 3.8147e-007
    endloop
  endfacet
  facet normal -0.619376 -0.552591 -0.557688
    outer loop
      vertex -2.2814 2.50542 3.8147e-007
      vertex -2.75066 2.5 0.526531
      vertex -3.15517 3.25 0.232638
    endloop
  endfacet
  facet normal 0.619376 -0.552591 -0.557688
    outer loop
      vertex 2.75066 2.5 0.526531
      vertex 2.2814 2.50542 3.8147e-007
      vertex 3.15517 3.25 0.232638
    endloop
  endfacet
  facet normal 0.619374 -0.552596 -0.557686
    outer loop
      vertex 2.2814 2.50542 3.8147e-007
      vertex 2.75066 2.5 0.526531
      vertex 2.27657 2.5 3.8147e-007
    endloop
  endfacet
  facet normal -0.792661 -0.552591 0.257551
    outer loop
      vertex -3.56283 3.25 4.11127
      vertex -3.81478 3.25 3.33586
      vertex -3.3257 2.5 3.2319
    endloop
  endfacet
  facet normal -0.828887 -0.552591 0.0871194
    outer loop
      vertex -3.81478 3.25 3.33586
      vertex -3.9 3.25 2.525
      vertex -3.3257 2.5 3.2319
    endloop
  endfacet
  facet normal -0.619376 -0.552591 0.557688
    outer loop
      vertex -2.75066 2.5 4.52347
      vertex -2.2814 2.50542 5.05
      vertex -3.15517 3.25 4.81736
    endloop
  endfacet
  facet normal -0.619374 -0.552596 0.557686
    outer loop
      vertex -2.2814 2.50542 5.05
      vertex -2.75066 2.5 4.52347
      vertex -2.27657 2.5 5.05
    endloop
  endfacet
  facet normal 0.994522 0 -0.104528
    outer loop
      vertex 3.9 3.25 2.525
      vertex 3.81478 4 1.71415
      vertex 3.9 4 2.525
    endloop
  endfacet
  facet normal 0.994522 0 -0.104528
    outer loop
      vertex 3.81478 4 1.71415
      vertex 3.9 3.25 2.525
      vertex 3.81478 3.25 1.71415
    endloop
  endfacet
  facet normal -0.994522 0 -0.104528
    outer loop
      vertex -3.81478 3.25 1.71415
      vertex -3.9 4 2.525
      vertex -3.81478 4 1.71415
    endloop
  endfacet
  facet normal -0.994522 -0 -0.104528
    outer loop
      vertex -3.9 4 2.525
      vertex -3.81478 3.25 1.71415
      vertex -3.9 3.25 2.525
    endloop
  endfacet
  facet normal -0.743144 0 -0.669131
    outer loop
      vertex -2.9457 3.25 3.8147e-007
      vertex -3.15517 4 0.232638
      vertex -2.9457 4 3.8147e-007
    endloop
  endfacet
  facet normal -0.743144 -0 -0.669131
    outer loop
      vertex -3.15517 4 0.232638
      vertex -2.9457 3.25 3.8147e-007
      vertex -3.15517 3.25 0.232638
    endloop
  endfacet
  facet normal -0.866025 0 -0.5
    outer loop
      vertex -3.15517 3.25 0.232638
      vertex -3.56283 4 0.938728
      vertex -3.15517 4 0.232638
    endloop
  endfacet
  facet normal -0.866025 -0 -0.5
    outer loop
      vertex -3.56283 4 0.938728
      vertex -3.15517 3.25 0.232638
      vertex -3.56283 3.25 0.938728
    endloop
  endfacet
  facet normal 0.866025 -0 0.5
    outer loop
      vertex 3.15517 3.25 4.81736
      vertex 3.56283 4 4.11127
      vertex 3.15517 4 4.81736
    endloop
  endfacet
  facet normal 0.866025 0 0.5
    outer loop
      vertex 3.56283 4 4.11127
      vertex 3.15517 3.25 4.81736
      vertex 3.56283 3.25 4.11127
    endloop
  endfacet
  facet normal 0.866025 0 -0.5
    outer loop
      vertex 3.56283 3.25 0.938728
      vertex 3.15517 4 0.232638
      vertex 3.56283 4 0.938728
    endloop
  endfacet
  facet normal 0.866025 0 -0.5
    outer loop
      vertex 3.15517 4 0.232638
      vertex 3.56283 3.25 0.938728
      vertex 3.15517 3.25 0.232638
    endloop
  endfacet
  facet normal 0.951057 0 -0.309017
    outer loop
      vertex 3.81478 3.25 1.71415
      vertex 3.56283 4 0.938728
      vertex 3.81478 4 1.71415
    endloop
  endfacet
  facet normal 0.951057 0 -0.309017
    outer loop
      vertex 3.56283 4 0.938728
      vertex 3.81478 3.25 1.71415
      vertex 3.56283 3.25 0.938728
    endloop
  endfacet
  facet normal 0.743144 0 -0.669131
    outer loop
      vertex 3.15517 3.25 0.232638
      vertex 2.9457 4 3.8147e-007
      vertex 3.15517 4 0.232638
    endloop
  endfacet
  facet normal 0.743144 0 -0.669131
    outer loop
      vertex 2.9457 4 3.8147e-007
      vertex 3.15517 3.25 0.232638
      vertex 2.9457 3.25 3.8147e-007
    endloop
  endfacet
  facet normal -0.951057 0 -0.309017
    outer loop
      vertex -3.56283 3.25 0.938728
      vertex -3.81478 4 1.71415
      vertex -3.56283 4 0.938728
    endloop
  endfacet
  facet normal -0.951057 -0 -0.309017
    outer loop
      vertex -3.81478 4 1.71415
      vertex -3.56283 3.25 0.938728
      vertex -3.81478 3.25 1.71415
    endloop
  endfacet
  facet normal 0.743144 -0 0.669131
    outer loop
      vertex 2.9457 3.25 5.05
      vertex 3.15517 4 4.81736
      vertex 2.9457 4 5.05
    endloop
  endfacet
  facet normal 0.743144 0 0.669131
    outer loop
      vertex 3.15517 4 4.81736
      vertex 2.9457 3.25 5.05
      vertex 3.15517 3.25 4.81736
    endloop
  endfacet
  facet normal 0.951057 -0 0.309017
    outer loop
      vertex 3.56283 3.25 4.11127
      vertex 3.81478 4 3.33586
      vertex 3.56283 4 4.11127
    endloop
  endfacet
  facet normal 0.951057 0 0.309017
    outer loop
      vertex 3.81478 4 3.33586
      vertex 3.56283 3.25 4.11127
      vertex 3.81478 3.25 3.33586
    endloop
  endfacet
  facet normal 0.994522 -0 0.104528
    outer loop
      vertex 3.81478 3.25 3.33586
      vertex 3.9 4 2.525
      vertex 3.81478 4 3.33586
    endloop
  endfacet
  facet normal 0.994522 0 0.104528
    outer loop
      vertex 3.9 4 2.525
      vertex 3.81478 3.25 3.33586
      vertex 3.9 3.25 2.525
    endloop
  endfacet
  facet normal -0.866025 0 0.5
    outer loop
      vertex -3.56283 3.25 4.11127
      vertex -3.15517 4 4.81736
      vertex -3.56283 4 4.11127
    endloop
  endfacet
  facet normal -0.866025 0 0.5
    outer loop
      vertex -3.15517 4 4.81736
      vertex -3.56283 3.25 4.11127
      vertex -3.15517 3.25 4.81736
    endloop
  endfacet
  facet normal -0.994522 0 0.104528
    outer loop
      vertex -3.9 3.25 2.525
      vertex -3.81478 4 3.33586
      vertex -3.9 4 2.525
    endloop
  endfacet
  facet normal -0.994522 0 0.104528
    outer loop
      vertex -3.81478 4 3.33586
      vertex -3.9 3.25 2.525
      vertex -3.81478 3.25 3.33586
    endloop
  endfacet
  facet normal -0.743144 0 0.669131
    outer loop
      vertex -3.15517 3.25 4.81736
      vertex -2.9457 4 5.05
      vertex -3.15517 4 4.81736
    endloop
  endfacet
  facet normal -0.743144 0 0.669131
    outer loop
      vertex -2.9457 4 5.05
      vertex -3.15517 3.25 4.81736
      vertex -2.9457 3.25 5.05
    endloop
  endfacet
  facet normal -0.951057 0 0.309017
    outer loop
      vertex -3.81478 3.25 3.33586
      vertex -3.56283 4 4.11127
      vertex -3.81478 4 3.33586
    endloop
  endfacet
  facet normal -0.951057 0 0.309017
    outer loop
      vertex -3.56283 4 4.11127
      vertex -3.81478 3.25 3.33586
      vertex -3.56283 3.25 4.11127
    endloop
  endfacet
  facet normal 0.828887 0.552591 -0.0871191
    outer loop
      vertex 3.9 4 2.525
      vertex 2.83663 5.5 1.92206
      vertex 2.9 5.5 2.525
    endloop
  endfacet
  facet normal 0.828887 0.552591 -0.0871194
    outer loop
      vertex 3.81478 4 1.71415
      vertex 2.83663 5.5 1.92206
      vertex 3.9 4 2.525
    endloop
  endfacet
  facet normal -0.828887 0.552591 -0.0871191
    outer loop
      vertex -2.83663 5.5 1.92206
      vertex -3.9 4 2.525
      vertex -2.9 5.5 2.525
    endloop
  endfacet
  facet normal 0.79266 0.552591 -0.257551
    outer loop
      vertex 3.56283 4 0.938728
      vertex 2.64928 5.5 1.34546
      vertex 2.83663 5.5 1.92206
    endloop
  endfacet
  facet normal 0.721791 0.552591 0.416726
    outer loop
      vertex 3.56283 4 4.11127
      vertex 2.64928 5.5 3.70454
      vertex 3.15517 4 4.81736
    endloop
  endfacet
  facet normal 0.489891 0.552591 -0.674277
    outer loop
      vertex 1.5 5.43917 3.8147e-007
      vertex 1.94048 5.5 0.36988
      vertex 1.94336 5.04611 3.8147e-007
    endloop
  endfacet
  facet normal 0.489892 0.55259 -0.674277
    outer loop
      vertex 1.94048 5.5 0.36988
      vertex 1.5 5.43917 3.8147e-007
      vertex 1.5 5.5 0.0498536
    endloop
  endfacet
  facet normal -0.828887 0.552591 0.0871194
    outer loop
      vertex -2.83663 5.5 3.12794
      vertex -3.9 4 2.525
      vertex -3.81478 4 3.33586
    endloop
  endfacet
  facet normal -0.79266 0.552591 0.257551
    outer loop
      vertex -2.83663 5.5 3.12794
      vertex -3.81478 4 3.33586
      vertex -3.56283 4 4.11127
    endloop
  endfacet
  facet normal 0.489892 0.552591 0.674277
    outer loop
      vertex 2.27352 4.75342 5.05
      vertex 1.94048 5.5 4.68012
      vertex 1.94336 5.04611 5.05
    endloop
  endfacet
  facet normal 0.79266 0.552591 0.257551
    outer loop
      vertex 3.81478 4 3.33586
      vertex 2.83663 5.5 3.12794
      vertex 3.56283 4 4.11127
    endloop
  endfacet
  facet normal 0.721791 0.552591 -0.416726
    outer loop
      vertex 3.15517 4 0.232638
      vertex 2.64928 5.5 1.34546
      vertex 3.56283 4 0.938728
    endloop
  endfacet
  facet normal 0.79266 0.552591 -0.257551
    outer loop
      vertex 3.56283 4 0.938728
      vertex 2.83663 5.5 1.92206
      vertex 3.81478 4 1.71415
    endloop
  endfacet
  facet normal -0.721791 0.552591 -0.416727
    outer loop
      vertex -2.34615 5.5 0.820423
      vertex -3.15517 4 0.232638
      vertex -2.64928 5.5 1.34546
    endloop
  endfacet
  facet normal -0.619376 0.552591 -0.557689
    outer loop
      vertex -3.15517 4 0.232638
      vertex -2.27352 4.75342 3.8147e-007
      vertex -2.9457 4 3.8147e-007
    endloop
  endfacet
  facet normal -0.619376 0.552591 -0.557689
    outer loop
      vertex -2.27352 4.75342 3.8147e-007
      vertex -3.15517 4 0.232638
      vertex -1.94048 5.5 0.36988
    endloop
  endfacet
  facet normal 0.619376 0.552591 -0.557688
    outer loop
      vertex 3.15517 4 0.232638
      vertex 1.94048 5.5 0.36988
      vertex 2.34615 5.5 0.820423
    endloop
  endfacet
  facet normal -0.721791 0.552591 0.416726
    outer loop
      vertex -2.64928 5.5 3.70454
      vertex -3.56283 4 4.11127
      vertex -3.15517 4 4.81736
    endloop
  endfacet
  facet normal -0.79266 0.552591 0.257551
    outer loop
      vertex -2.83663 5.5 3.12794
      vertex -3.56283 4 4.11127
      vertex -2.64928 5.5 3.70454
    endloop
  endfacet
  facet normal -0.619376 0.552591 0.557688
    outer loop
      vertex -2.34615 5.5 4.22958
      vertex -3.15517 4 4.81736
      vertex -1.94048 5.5 4.68012
    endloop
  endfacet
  facet normal -0.619376 0.552591 0.557689
    outer loop
      vertex -3.15517 4 4.81736
      vertex -2.27352 4.75342 5.05
      vertex -1.94048 5.5 4.68012
    endloop
  endfacet
  facet normal -0.619376 0.552591 0.557689
    outer loop
      vertex -2.27352 4.75342 5.05
      vertex -3.15517 4 4.81736
      vertex -2.9457 4 5.05
    endloop
  endfacet
  facet normal 0.489891 0.552591 0.674277
    outer loop
      vertex 1.5 5.43917 5.05
      vertex 1.94048 5.5 4.68012
      vertex 1.5 5.5 5.00015
    endloop
  endfacet
  facet normal 0.489891 0.552591 0.674277
    outer loop
      vertex 1.94048 5.5 4.68012
      vertex 1.5 5.43917 5.05
      vertex 1.94336 5.04611 5.05
    endloop
  endfacet
  facet normal 0.619376 0.552591 0.557688
    outer loop
      vertex 2.34615 5.5 4.22958
      vertex 1.94048 5.5 4.68012
      vertex 3.15517 4 4.81736
    endloop
  endfacet
  facet normal 0.619376 0.552591 0.557689
    outer loop
      vertex 3.15517 4 4.81736
      vertex 2.27352 4.75342 5.05
      vertex 2.9457 4 5.05
    endloop
  endfacet
  facet normal 0.619376 0.552591 0.557689
    outer loop
      vertex 2.27352 4.75342 5.05
      vertex 3.15517 4 4.81736
      vertex 1.94048 5.5 4.68012
    endloop
  endfacet
  facet normal 0.79266 0.552591 0.257551
    outer loop
      vertex 2.83663 5.5 3.12794
      vertex 2.64928 5.5 3.70454
      vertex 3.56283 4 4.11127
    endloop
  endfacet
  facet normal -0.721791 0.552591 -0.416726
    outer loop
      vertex -3.15517 4 0.232638
      vertex -3.56283 4 0.938728
      vertex -2.64928 5.5 1.34546
    endloop
  endfacet
  facet normal -0.79266 0.552591 -0.257551
    outer loop
      vertex -2.64928 5.5 1.34546
      vertex -3.56283 4 0.938728
      vertex -2.83663 5.5 1.92206
    endloop
  endfacet
  facet normal 0 1 0
    outer loop
      vertex 2.34615 5.5 4.22958
      vertex 1.5 5.5 5.00015
      vertex 1.94048 5.5 4.68012
    endloop
  endfacet
  facet normal 0 1 0
    outer loop
      vertex 2.64928 5.5 3.70454
      vertex 1.5 5.5 5.00015
      vertex 2.34615 5.5 4.22958
    endloop
  endfacet
  facet normal 0 1 0
    outer loop
      vertex 2.83663 5.5 3.12794
      vertex 1.5 5.5 5.00015
      vertex 2.64928 5.5 3.70454
    endloop
  endfacet
  facet normal 0 1 0
    outer loop
      vertex 2.9 5.5 2.525
      vertex 1.5 5.5 5.00015
      vertex 2.83663 5.5 3.12794
    endloop
  endfacet
  facet normal 0 1 -0
    outer loop
      vertex 2.83663 5.5 1.92206
      vertex 1.5 5.5 5.00015
      vertex 2.9 5.5 2.525
    endloop
  endfacet
  facet normal 0 1 -0
    outer loop
      vertex 2.64928 5.5 1.34546
      vertex 1.5 5.5 5.00015
      vertex 2.83663 5.5 1.92206
    endloop
  endfacet
  facet normal 0 1 -0
    outer loop
      vertex 2.34615 5.5 0.820423
      vertex 1.5 5.5 5.00015
      vertex 2.64928 5.5 1.34546
    endloop
  endfacet
  facet normal 0 1 -0
    outer loop
      vertex 1.94048 5.5 0.36988
      vertex 1.5 5.5 5.00015
      vertex 2.34615 5.5 0.820423
    endloop
  endfacet
  facet normal 0 1 0
    outer loop
      vertex 1.5 5.5 5.00015
      vertex 1.94048 5.5 0.36988
      vertex 1.5 5.5 0.0498536
    endloop
  endfacet
  facet normal 0 1 0
    outer loop
      vertex -1.5 5.5 5.00015
      vertex -2.34615 5.5 4.22958
      vertex -1.94048 5.5 4.68012
    endloop
  endfacet
  facet normal 0 1 0
    outer loop
      vertex -1.5 5.5 5.00015
      vertex -2.64928 5.5 3.70454
      vertex -2.34615 5.5 4.22958
    endloop
  endfacet
  facet normal 0 1 0
    outer loop
      vertex -1.5 5.5 5.00015
      vertex -2.83663 5.5 3.12794
      vertex -2.64928 5.5 3.70454
    endloop
  endfacet
  facet normal 0 1 0
    outer loop
      vertex -1.5 5.5 5.00015
      vertex -2.9 5.5 2.525
      vertex -2.83663 5.5 3.12794
    endloop
  endfacet
  facet normal 0 1 0
    outer loop
      vertex -1.5 5.5 5.00015
      vertex -2.83663 5.5 1.92206
      vertex -2.9 5.5 2.525
    endloop
  endfacet
  facet normal 0 1 0
    outer loop
      vertex -1.5 5.5 5.00015
      vertex -2.64928 5.5 1.34546
      vertex -2.83663 5.5 1.92206
    endloop
  endfacet
  facet normal 0 1 0
    outer loop
      vertex -1.5 5.5 5.00015
      vertex -2.34615 5.5 0.820423
      vertex -2.64928 5.5 1.34546
    endloop
  endfacet
  facet normal 0 1 0
    outer loop
      vertex -1.5 5.5 5.00015
      vertex -1.94048 5.5 0.36988
      vertex -2.34615 5.5 0.820423
    endloop
  endfacet
  facet normal -0 1 0
    outer loop
      vertex -1.94048 5.5 0.36988
      vertex -1.5 5.5 5.00015
      vertex -1.5 5.5 0.0498536
    endloop
  endfacet
  facet normal 0.721791 0.552591 -0.416727
    outer loop
      vertex 3.15517 4 0.232638
      vertex 2.34615 5.5 0.820423
      vertex 2.64928 5.5 1.34546
    endloop
  endfacet
  facet normal 0.619376 0.552591 -0.557689
    outer loop
      vertex 3.15517 4 0.232638
      vertex 2.27352 4.75342 3.8147e-007
      vertex 1.94048 5.5 0.36988
    endloop
  endfacet
  facet normal 0.619376 0.552591 -0.557689
    outer loop
      vertex 2.27352 4.75342 3.8147e-007
      vertex 3.15517 4 0.232638
      vertex 2.9457 4 3.8147e-007
    endloop
  endfacet
  facet normal 0.489892 0.552591 -0.674277
    outer loop
      vertex 1.94336 5.04611 3.8147e-007
      vertex 1.94048 5.5 0.36988
      vertex 2.27352 4.75342 3.8147e-007
    endloop
  endfacet
  facet normal -0.828887 0.552591 0.0871192
    outer loop
      vertex -2.9 5.5 2.525
      vertex -3.9 4 2.525
      vertex -2.83663 5.5 3.12794
    endloop
  endfacet
  facet normal -0.721791 0.552591 0.416727
    outer loop
      vertex -2.64928 5.5 3.70454
      vertex -3.15517 4 4.81736
      vertex -2.34615 5.5 4.22958
    endloop
  endfacet
  facet normal -0.489892 0.552591 0.674277
    outer loop
      vertex -1.94048 5.5 4.68012
      vertex -2.27352 4.75342 5.05
      vertex -1.94336 5.04611 5.05
    endloop
  endfacet
  facet normal 0.721791 0.552591 0.416727
    outer loop
      vertex 2.64928 5.5 3.70454
      vertex 2.34615 5.5 4.22958
      vertex 3.15517 4 4.81736
    endloop
  endfacet
  facet normal 0.828887 0.552591 0.0871194
    outer loop
      vertex 3.9 4 2.525
      vertex 2.83663 5.5 3.12794
      vertex 3.81478 4 3.33586
    endloop
  endfacet
  facet normal 0.828887 0.552591 0.0871192
    outer loop
      vertex 2.9 5.5 2.525
      vertex 2.83663 5.5 3.12794
      vertex 3.9 4 2.525
    endloop
  endfacet
  facet normal -0.79266 0.552591 -0.257551
    outer loop
      vertex -3.56283 4 0.938728
      vertex -3.81478 4 1.71415
      vertex -2.83663 5.5 1.92206
    endloop
  endfacet
  facet normal -0.828887 0.552591 -0.0871194
    outer loop
      vertex -3.81478 4 1.71415
      vertex -3.9 4 2.525
      vertex -2.83663 5.5 1.92206
    endloop
  endfacet
  facet normal -0.489892 0.552591 -0.674277
    outer loop
      vertex -1.94336 5.04611 3.8147e-007
      vertex -2.27352 4.75342 3.8147e-007
      vertex -1.94048 5.5 0.36988
    endloop
  endfacet
  facet normal -0.489892 0.55259 -0.674277
    outer loop
      vertex -1.5 5.43917 3.8147e-007
      vertex -1.94048 5.5 0.36988
      vertex -1.5 5.5 0.0498536
    endloop
  endfacet
  facet normal -0.489891 0.552591 -0.674277
    outer loop
      vertex -1.94048 5.5 0.36988
      vertex -1.5 5.43917 3.8147e-007
      vertex -1.94336 5.04611 3.8147e-007
    endloop
  endfacet
  facet normal -0.619376 0.552591 -0.557688
    outer loop
      vertex -1.94048 5.5 0.36988
      vertex -3.15517 4 0.232638
      vertex -2.34615 5.5 0.820423
    endloop
  endfacet
  facet normal -0.489891 0.552591 0.674277
    outer loop
      vertex -1.94048 5.5 4.68012
      vertex -1.5 5.43917 5.05
      vertex -1.5 5.5 5.00015
    endloop
  endfacet
  facet normal -0.489891 0.552591 0.674277
    outer loop
      vertex -1.5 5.43917 5.05
      vertex -1.94048 5.5 4.68012
      vertex -1.94336 5.04611 5.05
    endloop
  endfacet
  facet normal 1 -0 0
    outer loop
      vertex -1.5 2.6 5.05
      vertex -1.5 5.5 5.00015
      vertex -1.5 5.43917 5.05
    endloop
  endfacet
  facet normal 1 0 0
    outer loop
      vertex -1.5 5.5 5.00015
      vertex -1.5 2.6 5.05
      vertex -1.5 5.5 0.0498536
    endloop
  endfacet
  facet normal 1 0 0
    outer loop
      vertex -1.5 2.6 3.8147e-007
      vertex -1.5 5.5 0.0498536
      vertex -1.5 2.6 5.05
    endloop
  endfacet
  facet normal 1 0 0
    outer loop
      vertex -1.5 5.5 0.0498536
      vertex -1.5 2.6 3.8147e-007
      vertex -1.5 5.43917 3.8147e-007
    endloop
  endfacet
  facet normal -1 0 0
    outer loop
      vertex 1.5 2.6 3.8147e-007
      vertex 1.5 5.5 0.0498536
      vertex 1.5 5.43917 3.8147e-007
    endloop
  endfacet
  facet normal -1 -0 0
    outer loop
      vertex 1.5 5.5 0.0498536
      vertex 1.5 2.6 3.8147e-007
      vertex 1.5 5.5 5.00015
    endloop
  endfacet
  facet normal -1 0 0
    outer loop
      vertex 1.5 2.6 5.05
      vertex 1.5 5.5 5.00015
      vertex 1.5 2.6 3.8147e-007
    endloop
  endfacet
  facet normal -1 0 0
    outer loop
      vertex 1.5 5.5 5.00015
      vertex 1.5 2.6 5.05
      vertex 1.5 5.43917 5.05
    endloop
  endfacet
  facet normal 0.987688 0.156435 0
    outer loop
      vertex -1.42658 2.13647 5.05
      vertex -1.5 2.6 3.8147e-007
      vertex -1.5 2.6 5.05
    endloop
  endfacet
  facet normal 0.987688 0.156435 0
    outer loop
      vertex -1.5 2.6 3.8147e-007
      vertex -1.42658 2.13647 5.05
      vertex -1.42658 2.13647 3.8147e-007
    endloop
  endfacet
  facet normal 0.156436 0.987688 -0
    outer loop
      vertex 0 1.1 3.8147e-007
      vertex -0.463525 1.17342 5.05
      vertex 0 1.1 5.05
    endloop
  endfacet
  facet normal 0.156436 0.987688 0
    outer loop
      vertex -0.463525 1.17342 5.05
      vertex 0 1.1 3.8147e-007
      vertex -0.463525 1.17342 3.8147e-007
    endloop
  endfacet
  facet normal -0.707108 0.707106 0
    outer loop
      vertex 0.881678 1.38647 3.8147e-007
      vertex 1.21352 1.71832 5.05
      vertex 1.21352 1.71832 3.8147e-007
    endloop
  endfacet
  facet normal -0.707108 0.707106 0
    outer loop
      vertex 1.21352 1.71832 5.05
      vertex 0.881678 1.38647 3.8147e-007
      vertex 0.881678 1.38647 5.05
    endloop
  endfacet
  facet normal -0.156436 0.987688 0
    outer loop
      vertex 0.463525 1.17342 3.8147e-007
      vertex 0 1.1 5.05
      vertex 0.463525 1.17342 5.05
    endloop
  endfacet
  facet normal -0.156436 0.987688 0
    outer loop
      vertex 0 1.1 5.05
      vertex 0.463525 1.17342 3.8147e-007
      vertex 0 1.1 3.8147e-007
    endloop
  endfacet
  facet normal 0.453989 0.891007 -0
    outer loop
      vertex -0.463525 1.17342 3.8147e-007
      vertex -0.881678 1.38647 5.05
      vertex -0.463525 1.17342 5.05
    endloop
  endfacet
  facet normal 0.453989 0.891007 0
    outer loop
      vertex -0.881678 1.38647 5.05
      vertex -0.463525 1.17342 3.8147e-007
      vertex -0.881678 1.38647 3.8147e-007
    endloop
  endfacet
  facet normal -0.453989 0.891007 0
    outer loop
      vertex 0.881678 1.38647 3.8147e-007
      vertex 0.463525 1.17342 5.05
      vertex 0.881678 1.38647 5.05
    endloop
  endfacet
  facet normal -0.453989 0.891007 0
    outer loop
      vertex 0.463525 1.17342 5.05
      vertex 0.881678 1.38647 3.8147e-007
      vertex 0.463525 1.17342 3.8147e-007
    endloop
  endfacet
  facet normal 0.891006 0.453991 0
    outer loop
      vertex -1.21352 1.71832 5.05
      vertex -1.42658 2.13647 3.8147e-007
      vertex -1.42658 2.13647 5.05
    endloop
  endfacet
  facet normal 0.891006 0.453991 0
    outer loop
      vertex -1.42658 2.13647 3.8147e-007
      vertex -1.21352 1.71832 5.05
      vertex -1.21352 1.71832 3.8147e-007
    endloop
  endfacet
  facet normal 0.707108 0.707106 0
    outer loop
      vertex -0.881678 1.38647 5.05
      vertex -1.21352 1.71832 3.8147e-007
      vertex -1.21352 1.71832 5.05
    endloop
  endfacet
  facet normal 0.707108 0.707106 0
    outer loop
      vertex -1.21352 1.71832 3.8147e-007
      vertex -0.881678 1.38647 5.05
      vertex -0.881678 1.38647 3.8147e-007
    endloop
  endfacet
  facet normal -0.891006 0.453991 0
    outer loop
      vertex 1.21352 1.71832 3.8147e-007
      vertex 1.42658 2.13647 5.05
      vertex 1.42658 2.13647 3.8147e-007
    endloop
  endfacet
  facet normal -0.891006 0.453991 0
    outer loop
      vertex 1.42658 2.13647 5.05
      vertex 1.21352 1.71832 3.8147e-007
      vertex 1.21352 1.71832 5.05
    endloop
  endfacet
  facet normal -0.987688 0.156435 0
    outer loop
      vertex 1.42658 2.13647 3.8147e-007
      vertex 1.5 2.6 5.05
      vertex 1.5 2.6 3.8147e-007
    endloop
  endfacet
  facet normal -0.987688 0.156435 0
    outer loop
      vertex 1.5 2.6 5.05
      vertex 1.42658 2.13647 3.8147e-007
      vertex 1.42658 2.13647 5.05
    endloop
  endfacet
  facet normal 0 0 1
    outer loop
      vertex -1.5 5.43917 5.05
      vertex -1.94336 5.04611 5.05
      vertex -1.5 2.6 5.05
    endloop
  endfacet
  facet normal 0 0 1
    outer loop
      vertex 1.5 2.6 5.05
      vertex 2.9457 3.25 5.05
      vertex 2.9457 4 5.05
    endloop
  endfacet
  facet normal 0 0 1
    outer loop
      vertex 2.9457 3.25 5.05
      vertex 1.5 2.6 5.05
      vertex 2.2814 2.50542 5.05
    endloop
  endfacet
  facet normal 0 0 1
    outer loop
      vertex 1.5 2.6 5.05
      vertex 2.9457 4 5.05
      vertex 2.27352 4.75342 5.05
    endloop
  endfacet
  facet normal 0 0 1
    outer loop
      vertex 2.2814 2.50542 5.05
      vertex 1.5 2.6 5.05
      vertex 2.27657 2.5 5.05
    endloop
  endfacet
  facet normal 0 0 1
    outer loop
      vertex 1.5 2.6 5.05
      vertex 2.27352 4.75342 5.05
      vertex 1.94336 5.04611 5.05
    endloop
  endfacet
  facet normal 0 0 1
    outer loop
      vertex 1.5 2.6 5.05
      vertex 1.94336 5.04611 5.05
      vertex 1.5 5.43917 5.05
    endloop
  endfacet
  facet normal 0 0 1
    outer loop
      vertex 1.42658 2.13647 5.05
      vertex 2.27657 2.5 5.05
      vertex 1.5 2.6 5.05
    endloop
  endfacet
  facet normal 0 0 1
    outer loop
      vertex 1.21352 1.71832 5.05
      vertex 2.27657 2.5 5.05
      vertex 1.42658 2.13647 5.05
    endloop
  endfacet
  facet normal 0 0 1
    outer loop
      vertex 2.27657 2.5 5.05
      vertex 1.21352 1.71832 5.05
      vertex 2.27657 -5.60663e-016 5.05
    endloop
  endfacet
  facet normal -0 0 1
    outer loop
      vertex 0.881678 1.38647 5.05
      vertex 2.27657 -5.60663e-016 5.05
      vertex 1.21352 1.71832 5.05
    endloop
  endfacet
  facet normal -0 0 1
    outer loop
      vertex 0.463525 1.17342 5.05
      vertex 2.27657 -5.60663e-016 5.05
      vertex 0.881678 1.38647 5.05
    endloop
  endfacet
  facet normal -0 0 1
    outer loop
      vertex 0 1.1 5.05
      vertex 2.27657 -5.60663e-016 5.05
      vertex 0.463525 1.17342 5.05
    endloop
  endfacet
  facet normal 0 0 1
    outer loop
      vertex -2.27657 -5.60663e-016 5.05
      vertex 0 1.1 5.05
      vertex -0.463525 1.17342 5.05
    endloop
  endfacet
  facet normal -0 0 1
    outer loop
      vertex -2.27352 4.75342 5.05
      vertex -1.5 2.6 5.05
      vertex -1.94336 5.04611 5.05
    endloop
  endfacet
  facet normal -0 0 1
    outer loop
      vertex -2.9457 4 5.05
      vertex -1.5 2.6 5.05
      vertex -2.27352 4.75342 5.05
    endloop
  endfacet
  facet normal 0 -0 1
    outer loop
      vertex -2.27657 2.5 5.05
      vertex -1.5 2.6 5.05
      vertex -2.2814 2.50542 5.05
    endloop
  endfacet
  facet normal 0 0 1
    outer loop
      vertex -2.27657 2.5 5.05
      vertex -1.21352 1.71832 5.05
      vertex -1.42658 2.13647 5.05
    endloop
  endfacet
  facet normal 0 0 1
    outer loop
      vertex -2.27657 -5.60663e-016 5.05
      vertex -1.21352 1.71832 5.05
      vertex -2.27657 2.5 5.05
    endloop
  endfacet
  facet normal 0 0 1
    outer loop
      vertex 0 1.1 5.05
      vertex -2.27657 -5.60663e-016 5.05
      vertex 2.27657 -5.60663e-016 5.05
    endloop
  endfacet
  facet normal 0 0 1
    outer loop
      vertex -0.881678 1.38647 5.05
      vertex -2.27657 -5.60663e-016 5.05
      vertex -0.463525 1.17342 5.05
    endloop
  endfacet
  facet normal 0 0 1
    outer loop
      vertex -1.21352 1.71832 5.05
      vertex -2.27657 -5.60663e-016 5.05
      vertex -0.881678 1.38647 5.05
    endloop
  endfacet
  facet normal 0 0 1
    outer loop
      vertex -1.5 2.6 5.05
      vertex -2.27657 2.5 5.05
      vertex -1.42658 2.13647 5.05
    endloop
  endfacet
  facet normal -0 0 1
    outer loop
      vertex -2.9457 3.25 5.05
      vertex -1.5 2.6 5.05
      vertex -2.9457 4 5.05
    endloop
  endfacet
  facet normal 0 0 1
    outer loop
      vertex -1.5 2.6 5.05
      vertex -2.9457 3.25 5.05
      vertex -2.2814 2.50542 5.05
    endloop
  endfacet
  facet normal 0 0 -1
    outer loop
      vertex 1.21352 1.71832 3.8147e-007
      vertex 2.27657 2.5 3.8147e-007
      vertex 2.27657 5.60663e-016 3.8147e-007
    endloop
  endfacet
  facet normal 0 0 -1
    outer loop
      vertex 2.27657 2.5 3.8147e-007
      vertex 1.5 2.6 3.8147e-007
      vertex 2.27352 4.75342 3.8147e-007
    endloop
  endfacet
  facet normal -0 0 -1
    outer loop
      vertex 2.27352 4.75342 3.8147e-007
      vertex 1.5 2.6 3.8147e-007
      vertex 1.94336 5.04611 3.8147e-007
    endloop
  endfacet
  facet normal -0 0 -1
    outer loop
      vertex 2.27657 2.5 3.8147e-007
      vertex 1.42658 2.13647 3.8147e-007
      vertex 1.5 2.6 3.8147e-007
    endloop
  endfacet
  facet normal 0 0 -1
    outer loop
      vertex 2.27657 2.5 3.8147e-007
      vertex 1.21352 1.71832 3.8147e-007
      vertex 1.42658 2.13647 3.8147e-007
    endloop
  endfacet
  facet normal 0 0 -1
    outer loop
      vertex 2.27657 5.60663e-016 3.8147e-007
      vertex 0.881678 1.38647 3.8147e-007
      vertex 1.21352 1.71832 3.8147e-007
    endloop
  endfacet
  facet normal 0 0 -1
    outer loop
      vertex 2.27657 5.60663e-016 3.8147e-007
      vertex 0.463525 1.17342 3.8147e-007
      vertex 0.881678 1.38647 3.8147e-007
    endloop
  endfacet
  facet normal 0 0 -1
    outer loop
      vertex 2.27657 5.60663e-016 3.8147e-007
      vertex 0 1.1 3.8147e-007
      vertex 0.463525 1.17342 3.8147e-007
    endloop
  endfacet
  facet normal 0 0 -1
    outer loop
      vertex -2.27657 5.60663e-016 3.8147e-007
      vertex 0 1.1 3.8147e-007
      vertex 2.27657 5.60663e-016 3.8147e-007
    endloop
  endfacet
  facet normal 0 0 -1
    outer loop
      vertex -1.5 2.6 3.8147e-007
      vertex -1.94336 5.04611 3.8147e-007
      vertex -1.5 5.43917 3.8147e-007
    endloop
  endfacet
  facet normal 0 0 -1
    outer loop
      vertex -2.27657 2.5 3.8147e-007
      vertex -1.5 2.6 3.8147e-007
      vertex -1.42658 2.13647 3.8147e-007
    endloop
  endfacet
  facet normal 0 0 -1
    outer loop
      vertex -1.5 2.6 3.8147e-007
      vertex -2.27352 4.75342 3.8147e-007
      vertex -1.94336 5.04611 3.8147e-007
    endloop
  endfacet
  facet normal -0 0 -1
    outer loop
      vertex 0 1.1 3.8147e-007
      vertex -2.27657 5.60663e-016 3.8147e-007
      vertex -0.463525 1.17342 3.8147e-007
    endloop
  endfacet
  facet normal 0 0 -1
    outer loop
      vertex -2.27657 5.60663e-016 3.8147e-007
      vertex -0.881678 1.38647 3.8147e-007
      vertex -0.463525 1.17342 3.8147e-007
    endloop
  endfacet
  facet normal 0 0 -1
    outer loop
      vertex -2.27657 5.60663e-016 3.8147e-007
      vertex -1.21352 1.71832 3.8147e-007
      vertex -0.881678 1.38647 3.8147e-007
    endloop
  endfacet
  facet normal 0 0 -1
    outer loop
      vertex -2.27657 2.5 3.8147e-007
      vertex -1.21352 1.71832 3.8147e-007
      vertex -2.27657 5.60663e-016 3.8147e-007
    endloop
  endfacet
  facet normal 0 0 -1
    outer loop
      vertex -1.21352 1.71832 3.8147e-007
      vertex -2.27657 2.5 3.8147e-007
      vertex -1.42658 2.13647 3.8147e-007
    endloop
  endfacet
  facet normal 0 0 -1
    outer loop
      vertex -1.5 2.6 3.8147e-007
      vertex -2.27657 2.5 3.8147e-007
      vertex -2.2814 2.50542 3.8147e-007
    endloop
  endfacet
  facet normal 0 0 -1
    outer loop
      vertex -2.9457 3.25 3.8147e-007
      vertex -1.5 2.6 3.8147e-007
      vertex -2.2814 2.50542 3.8147e-007
    endloop
  endfacet
  facet normal 0 0 -1
    outer loop
      vertex -2.9457 4 3.8147e-007
      vertex -1.5 2.6 3.8147e-007
      vertex -2.9457 3.25 3.8147e-007
    endloop
  endfacet
  facet normal 0 0 -1
    outer loop
      vertex -1.5 2.6 3.8147e-007
      vertex -2.9457 4 3.8147e-007
      vertex -2.27352 4.75342 3.8147e-007
    endloop
  endfacet
  facet normal 0 0 -1
    outer loop
      vertex 2.2814 2.50542 3.8147e-007
      vertex 2.9457 4 3.8147e-007
      vertex 2.9457 3.25 3.8147e-007
    endloop
  endfacet
  facet normal 0 0 -1
    outer loop
      vertex 2.27352 4.75342 3.8147e-007
      vertex 2.2814 2.50542 3.8147e-007
      vertex 2.27657 2.5 3.8147e-007
    endloop
  endfacet
  facet normal 0 0 -1
    outer loop
      vertex 2.2814 2.50542 3.8147e-007
      vertex 2.27352 4.75342 3.8147e-007
      vertex 2.9457 4 3.8147e-007
    endloop
  endfacet
  facet normal -0 0 -1
    outer loop
      vertex 1.94336 5.04611 3.8147e-007
      vertex 1.5 2.6 3.8147e-007
      vertex 1.5 5.43917 3.8147e-007
    endloop
  endfacet
  facet normal 0.999048 -0 0.0436196
    outer loop
      vertex 5.97717 -2 2.85627
      vertex 6 0 2.33333
      vertex 5.97717 0 2.85627
    endloop
  endfacet
  facet normal 0.999048 0 0.0436196
    outer loop
      vertex 6 0 2.33333
      vertex 5.97717 -2 2.85627
      vertex 6 -2 2.33333
    endloop
  endfacet
  facet normal 0.991445 -0 0.130527
    outer loop
      vertex 5.90885 -2 3.37522
      vertex 5.97717 0 2.85627
      vertex 5.90885 0 3.37522
    endloop
  endfacet
  facet normal 0.991445 0 0.130527
    outer loop
      vertex 5.97717 0 2.85627
      vertex 5.90885 -2 3.37522
      vertex 5.97717 -2 2.85627
    endloop
  endfacet
  facet normal -1.95356e-006 -1 8.09193e-007
    outer loop
      vertex -5.63815 -2 4.38545
      vertex -6 -2 2.33333
      vertex -5.43785 -2 4.86904
    endloop
  endfacet
  facet normal 8.08721e-007 -1 5.96517e-007
    outer loop
      vertex 4.7332 -2 5.05
      vertex 4.58579 -2 5.05
      vertex 6 -2 2.33333
    endloop
  endfacet
  facet normal 0.887011 -0 0.461748
    outer loop
      vertex 5.34365 -2 5.05
      vertex 5.43785 0 4.86904
      vertex 5.34365 0 5.05
    endloop
  endfacet
  facet normal 0.887011 0 0.461748
    outer loop
      vertex 5.43785 0 4.86904
      vertex 5.34365 -2 5.05
      vertex 5.43785 -2 4.86904
    endloop
  endfacet
  facet normal 9.26743e-007 -1 5.55485e-007
    outer loop
      vertex 5.27207 -2 5.05
      vertex 5.14344 -2 5.05
      vertex 6 -2 2.33333
    endloop
  endfacet
  facet normal 0.953717 -0 0.300705
    outer loop
      vertex 5.63815 -2 4.38545
      vertex 5.79555 0 3.88625
      vertex 5.63815 0 4.38545
    endloop
  endfacet
  facet normal 0.953717 0 0.300705
    outer loop
      vertex 5.79555 0 3.88625
      vertex 5.63815 -2 4.38545
      vertex 5.79555 -2 3.88625
    endloop
  endfacet
  facet normal 0 -1 1.75523e-007
    outer loop
      vertex 4.09777 -2 5.05
      vertex 3.91543 -2 5.05
      vertex 6 -2 2.33333
    endloop
  endfacet
  facet normal -0.92388 0 0.382683
    outer loop
      vertex -5.63815 -2 4.38545
      vertex -5.43785 0 4.86904
      vertex -5.63815 0 4.38545
    endloop
  endfacet
  facet normal -0.92388 0 0.382683
    outer loop
      vertex -5.43785 0 4.86904
      vertex -5.63815 -2 4.38545
      vertex -5.43785 -2 4.86904
    endloop
  endfacet
  facet normal 0 -1 2.63284e-007
    outer loop
      vertex -5.14344 -2 5.05
      vertex -6 -2 2.33333
      vertex -5.01121 -2 5.05
    endloop
  endfacet
  facet normal 0 -1 1.75523e-007
    outer loop
      vertex 4 -2 2.33333
      vertex -3.28333 -2 5.05
      vertex -6 -2 2.33333
    endloop
  endfacet
  facet normal 0 -1 1.75523e-007
    outer loop
      vertex -3.28333 -2 5.05
      vertex 4 -2 2.33333
      vertex 3.28333 -2 5.05
    endloop
  endfacet
  facet normal 0 -1 1.75523e-007
    outer loop
      vertex 5 -2 2.33333
      vertex 3.28333 -2 5.05
      vertex 4 -2 2.33333
    endloop
  endfacet
  facet normal 0 -1 1.75523e-007
    outer loop
      vertex 3.28333 -2 5.05
      vertex 5 -2 2.33333
      vertex 6 -2 2.33333
    endloop
  endfacet
  facet normal 1.95356e-006 -1 8.09193e-007
    outer loop
      vertex 5.63815 -2 4.38545
      vertex 5.43785 -2 4.86904
      vertex 6 -2 2.33333
    endloop
  endfacet
  facet normal 0.92388 -0 0.382683
    outer loop
      vertex 5.43785 -2 4.86904
      vertex 5.63815 0 4.38545
      vertex 5.43785 0 4.86904
    endloop
  endfacet
  facet normal 0.92388 0 0.382683
    outer loop
      vertex 5.63815 0 4.38545
      vertex 5.43785 -2 4.86904
      vertex 5.63815 -2 4.38545
    endloop
  endfacet
  facet normal 6.82034e-006 -1 1.51204e-006
    outer loop
      vertex 5.90885 -2 3.37522
      vertex 5.79555 -2 3.88625
      vertex 6 -2 2.33333
    endloop
  endfacet
  facet normal 8.73365e-007 -1 5.81164e-007
    outer loop
      vertex 5.01121 -2 5.05
      vertex 4.87472 -2 5.05
      vertex 6 -2 2.33333
    endloop
  endfacet
  facet normal 0 -1 1.75523e-007
    outer loop
      vertex 4.43153 -2 5.05
      vertex 4.26929 -2 5.05
      vertex 6 -2 2.33333
    endloop
  endfacet
  facet normal 0 -1 1.75523e-007
    outer loop
      vertex 3.51063 -2 5.05
      vertex 3.28333 -2 5.05
      vertex 6 -2 2.33333
    endloop
  endfacet
  facet normal -0.991445 0 0.130527
    outer loop
      vertex -5.97717 -2 2.85627
      vertex -5.90885 0 3.37522
      vertex -5.97717 0 2.85627
    endloop
  endfacet
  facet normal -0.991445 0 0.130527
    outer loop
      vertex -5.90885 0 3.37522
      vertex -5.97717 -2 2.85627
      vertex -5.90885 -2 3.37522
    endloop
  endfacet
  facet normal 0 1 0
    outer loop
      vertex 3.10605 0 3.9079
      vertex 5.34365 0 5.05
      vertex 5.43785 0 4.86904
    endloop
  endfacet
  facet normal 0 1 0
    outer loop
      vertex 5.34365 0 5.05
      vertex 2.75066 0 4.52347
      vertex 2.27657 0 5.05
    endloop
  endfacet
  facet normal 0 1 0
    outer loop
      vertex 3.10605 0 3.9079
      vertex 5.43785 0 4.86904
      vertex 5.63815 0 4.38545
    endloop
  endfacet
  facet normal 0 1 0
    outer loop
      vertex 5.34365 0 5.05
      vertex 3.10605 0 3.9079
      vertex 2.75066 0 4.52347
    endloop
  endfacet
  facet normal 0 1 0
    outer loop
      vertex 3.3257 0 3.2319
      vertex 5.63815 0 4.38545
      vertex 5.79555 0 3.88625
    endloop
  endfacet
  facet normal 0 1 0
    outer loop
      vertex 3.3257 0 3.2319
      vertex 5.79555 0 3.88625
      vertex 5.90885 0 3.37522
    endloop
  endfacet
  facet normal 0 1 0
    outer loop
      vertex 5.63815 0 4.38545
      vertex 3.3257 0 3.2319
      vertex 3.10605 0 3.9079
    endloop
  endfacet
  facet normal 0 1 0
    outer loop
      vertex 3.4 0 2.525
      vertex 5.90885 0 3.37522
      vertex 5.97717 0 2.85627
    endloop
  endfacet
  facet normal 0 1 0
    outer loop
      vertex 5.90885 0 3.37522
      vertex 3.4 0 2.525
      vertex 3.3257 0 3.2319
    endloop
  endfacet
  facet normal 0 1 -0
    outer loop
      vertex 5.97717 0 1.8104
      vertex 3.4 0 2.525
      vertex 6 0 2.33333
    endloop
  endfacet
  facet normal 0 1 0
    outer loop
      vertex 6 0 2.33333
      vertex 3.4 0 2.525
      vertex 5.97717 0 2.85627
    endloop
  endfacet
  facet normal 0 1 -0
    outer loop
      vertex -2.75066 0 4.52347
      vertex -5.34365 0 5.05
      vertex -2.27657 0 5.05
    endloop
  endfacet
  facet normal 0 1 -0
    outer loop
      vertex -3.10605 0 3.9079
      vertex -5.34365 0 5.05
      vertex -2.75066 0 4.52347
    endloop
  endfacet
  facet normal 0 1 0
    outer loop
      vertex -5.34365 0 5.05
      vertex -3.10605 0 3.9079
      vertex -5.43785 0 4.86904
    endloop
  endfacet
  facet normal 0 1 0
    outer loop
      vertex -5.43785 0 4.86904
      vertex -3.10605 0 3.9079
      vertex -5.63815 0 4.38545
    endloop
  endfacet
  facet normal 0 1 -0
    outer loop
      vertex -3.3257 0 3.2319
      vertex -5.63815 0 4.38545
      vertex -3.10605 0 3.9079
    endloop
  endfacet
  facet normal 0 1 0
    outer loop
      vertex -5.63815 0 4.38545
      vertex -3.3257 0 3.2319
      vertex -5.79555 0 3.88625
    endloop
  endfacet
  facet normal 0 1 0
    outer loop
      vertex -5.79555 0 3.88625
      vertex -3.3257 0 3.2319
      vertex -5.90885 0 3.37522
    endloop
  endfacet
  facet normal 0 1 -0
    outer loop
      vertex -3.4 0 2.525
      vertex -5.90885 0 3.37522
      vertex -3.3257 0 3.2319
    endloop
  endfacet
  facet normal 0 1 0
    outer loop
      vertex -5.90885 0 3.37522
      vertex -3.4 0 2.525
      vertex -5.97717 0 2.85627
    endloop
  endfacet
  facet normal 0 1 0
    outer loop
      vertex -3.4 0 2.525
      vertex -6 0 2.33333
      vertex -5.97717 0 2.85627
    endloop
  endfacet
  facet normal 0 1 -0
    outer loop
      vertex 5.90885 0 1.29144
      vertex 3.4 0 2.525
      vertex 5.97717 0 1.8104
    endloop
  endfacet
  facet normal 0 1 -0
    outer loop
      vertex 5.79555 0 0.780418
      vertex 3.4 0 2.525
      vertex 5.90885 0 1.29144
    endloop
  endfacet
  facet normal 0 1 0
    outer loop
      vertex -3.4 0 2.525
      vertex -5.97717 0 1.8104
      vertex -6 0 2.33333
    endloop
  endfacet
  facet normal 0 1 -0
    outer loop
      vertex 5.63815 0 0.281212
      vertex 3.4 0 2.525
      vertex 5.79555 0 0.780418
    endloop
  endfacet
  facet normal 0 1 0
    outer loop
      vertex -3.4 0 2.525
      vertex -5.90885 0 1.29144
      vertex -5.97717 0 1.8104
    endloop
  endfacet
  facet normal 0 1 0
    outer loop
      vertex 3.4 0 2.525
      vertex 5.52167 0 0
      vertex -3.4 0 2.525
    endloop
  endfacet
  facet normal 0 1 0
    outer loop
      vertex -3.4 0 2.525
      vertex -5.79555 0 0.780418
      vertex -5.90885 0 1.29144
    endloop
  endfacet
  facet normal 0 1 0
    outer loop
      vertex 3.4 0 2.525
      vertex 5.63815 0 0.281212
      vertex 5.52167 0 0
    endloop
  endfacet
  facet normal 0 1 0
    outer loop
      vertex -5.52167 0 0
      vertex -3.4 0 2.525
      vertex 5.52167 0 0
    endloop
  endfacet
  facet normal -0 1 0
    outer loop
      vertex -5.63815 0 0.281212
      vertex -3.4 0 2.525
      vertex -5.52167 0 0
    endloop
  endfacet
  facet normal 0 1 0
    outer loop
      vertex -3.4 0 2.525
      vertex -5.63815 0 0.281212
      vertex -5.79555 0 0.780418
    endloop
  endfacet
  facet normal 0 -1 1.75523e-007
    outer loop
      vertex -4.43153 -2 5.05
      vertex -6 -2 2.33333
      vertex -4.26929 -2 5.05
    endloop
  endfacet
  facet normal -9.26743e-007 -1 5.55485e-007
    outer loop
      vertex -5.27207 -2 5.05
      vertex -6 -2 2.33333
      vertex -5.14344 -2 5.05
    endloop
  endfacet
  facet normal 0 -1 1.75523e-007
    outer loop
      vertex -3.91543 -2 5.05
      vertex -6 -2 2.33333
      vertex -3.72045 -2 5.05
    endloop
  endfacet
  facet normal -0.887011 0 0.461748
    outer loop
      vertex -5.43785 -2 4.86904
      vertex -5.34365 0 5.05
      vertex -5.43785 0 4.86904
    endloop
  endfacet
  facet normal -0.887011 0 0.461748
    outer loop
      vertex -5.34365 0 5.05
      vertex -5.43785 -2 4.86904
      vertex -5.34365 -2 5.05
    endloop
  endfacet
  facet normal -0.976296 0 0.21644
    outer loop
      vertex -5.90885 -2 3.37522
      vertex -5.79555 0 3.88625
      vertex -5.90885 0 3.37522
    endloop
  endfacet
  facet normal -0.976296 0 0.21644
    outer loop
      vertex -5.79555 0 3.88625
      vertex -5.90885 -2 3.37522
      vertex -5.79555 -2 3.88625
    endloop
  endfacet
  facet normal 0 -1 1.75523e-007
    outer loop
      vertex -3.51063 -2 5.05
      vertex -6 -2 2.33333
      vertex -3.28333 -2 5.05
    endloop
  endfacet
  facet normal -8.73365e-007 -1 5.81164e-007
    outer loop
      vertex -5.01121 -2 5.05
      vertex -6 -2 2.33333
      vertex -4.87472 -2 5.05
    endloop
  endfacet
  facet normal 0 -1 2.19404e-007
    outer loop
      vertex -4.87472 -2 5.05
      vertex -6 -2 2.33333
      vertex -4.7332 -2 5.05
    endloop
  endfacet
  facet normal 0.976296 -0 0.21644
    outer loop
      vertex 5.79555 -2 3.88625
      vertex 5.90885 0 3.37522
      vertex 5.79555 0 3.88625
    endloop
  endfacet
  facet normal 0.976296 0 0.21644
    outer loop
      vertex 5.90885 0 3.37522
      vertex 5.79555 -2 3.88625
      vertex 5.90885 -2 3.37522
    endloop
  endfacet
  facet normal 2.07257e-005 -1 2.72861e-006
    outer loop
      vertex 5.97717 -2 2.85627
      vertex 5.90885 -2 3.37522
      vertex 6 -2 2.33333
    endloop
  endfacet
  facet normal 1.66551e-006 -1 8.6701e-007
    outer loop
      vertex 5.27207 -2 5.05
      vertex 5.43785 -2 4.86904
      vertex 5.34365 -2 5.05
    endloop
  endfacet
  facet normal 1.49029e-006 -1 7.06487e-007
    outer loop
      vertex 5.43785 -2 4.86904
      vertex 5.27207 -2 5.05
      vertex 6 -2 2.33333
    endloop
  endfacet
  facet normal 0 -1 2.63284e-007
    outer loop
      vertex 5.14344 -2 5.05
      vertex 5.01121 -2 5.05
      vertex 6 -2 2.33333
    endloop
  endfacet
  facet normal 0 -1 2.19404e-007
    outer loop
      vertex 4.87472 -2 5.05
      vertex 4.7332 -2 5.05
      vertex 6 -2 2.33333
    endloop
  endfacet
  facet normal 0 -1 1.75523e-007
    outer loop
      vertex 4.58579 -2 5.05
      vertex 4.43153 -2 5.05
      vertex 6 -2 2.33333
    endloop
  endfacet
  facet normal 0 -1 1.75523e-007
    outer loop
      vertex 3.91543 -2 5.05
      vertex 3.72045 -2 5.05
      vertex 6 -2 2.33333
    endloop
  endfacet
  facet normal -0.953717 0 0.300705
    outer loop
      vertex -5.79555 -2 3.88625
      vertex -5.63815 0 4.38545
      vertex -5.79555 0 3.88625
    endloop
  endfacet
  facet normal -0.953717 0 0.300705
    outer loop
      vertex -5.63815 0 4.38545
      vertex -5.79555 -2 3.88625
      vertex -5.63815 -2 4.38545
    endloop
  endfacet
  facet normal -0.999048 0 0.0436196
    outer loop
      vertex -6 0 2.33333
      vertex -5.97717 -2 2.85627
      vertex -5.97717 0 2.85627
    endloop
  endfacet
  facet normal -0.999048 0 0.0436196
    outer loop
      vertex -5.97717 -2 2.85627
      vertex -6 0 2.33333
      vertex -6 -2 2.33333
    endloop
  endfacet
  facet normal 0 -1 1.75523e-007
    outer loop
      vertex 4.26929 -2 5.05
      vertex 4.09777 -2 5.05
      vertex 6 -2 2.33333
    endloop
  endfacet
  facet normal -1.66551e-006 -1 8.6701e-007
    outer loop
      vertex -5.43785 -2 4.86904
      vertex -5.27207 -2 5.05
      vertex -5.34365 -2 5.05
    endloop
  endfacet
  facet normal -1.49029e-006 -1 7.06487e-007
    outer loop
      vertex -5.27207 -2 5.05
      vertex -5.43785 -2 4.86904
      vertex -6 -2 2.33333
    endloop
  endfacet
  facet normal 0 -1 1.75523e-007
    outer loop
      vertex -3.72045 -2 5.05
      vertex -6 -2 2.33333
      vertex -3.51063 -2 5.05
    endloop
  endfacet
  facet normal -0.999048 0 -0.0436196
    outer loop
      vertex -5.97717 -5.5 1.8104
      vertex -6 -3.5 2.33333
      vertex -5.97717 -3.5 1.8104
    endloop
  endfacet
  facet normal -0.999048 -0 -0.0436196
    outer loop
      vertex -6 -3.5 2.33333
      vertex -5.97717 -5.5 1.8104
      vertex -6 -5.5 2.33333
    endloop
  endfacet
  facet normal -0.999048 0 -0.0436196
    outer loop
      vertex -5.97717 -2 1.8104
      vertex -6 0 2.33333
      vertex -5.97717 0 1.8104
    endloop
  endfacet
  facet normal -0.999048 -0 -0.0436196
    outer loop
      vertex -6 0 2.33333
      vertex -5.97717 -2 1.8104
      vertex -6 -2 2.33333
    endloop
  endfacet
  facet normal 0 1 0
    outer loop
      vertex 5.43785 -2 4.86904
      vertex 5 -2 5.05
      vertex 5.34365 -2 5.05
    endloop
  endfacet
  facet normal 0 1 0
    outer loop
      vertex 5.63815 -2 4.38545
      vertex 5 -2 5.05
      vertex 5.43785 -2 4.86904
    endloop
  endfacet
  facet normal 0 1 0
    outer loop
      vertex 5 -2 2.33333
      vertex 5.63815 -2 4.38545
      vertex 5.79555 -2 3.88625
    endloop
  endfacet
  facet normal 0 1 0
    outer loop
      vertex 5 -2 2.33333
      vertex 5.79555 -2 3.88625
      vertex 5.90885 -2 3.37522
    endloop
  endfacet
  facet normal 0 1 0
    outer loop
      vertex 5 -2 2.33333
      vertex 5.90885 -2 3.37522
      vertex 5.97717 -2 2.85627
    endloop
  endfacet
  facet normal 0 1 0
    outer loop
      vertex 5 -2 2.33333
      vertex 5.97717 -2 2.85627
      vertex 6 -2 2.33333
    endloop
  endfacet
  facet normal 0 1 0
    outer loop
      vertex 5.63815 -2 4.38545
      vertex 5 -2 2.33333
      vertex 5 -2 5.05
    endloop
  endfacet
  facet normal 0 -1 0
    outer loop
      vertex -5.97717 -2 1.8104
      vertex 4 -2 2.33333
      vertex -6 -2 2.33333
    endloop
  endfacet
  facet normal 0 -1 0
    outer loop
      vertex -5.90885 -2 1.29144
      vertex 4 -2 2.33333
      vertex -5.97717 -2 1.8104
    endloop
  endfacet
  facet normal 0 -1 0
    outer loop
      vertex -5.79555 -2 0.780418
      vertex 4 -2 2.33333
      vertex -5.90885 -2 1.29144
    endloop
  endfacet
  facet normal 0 -1 0
    outer loop
      vertex -5.63815 -2 0.281212
      vertex 4 -2 2.33333
      vertex -5.79555 -2 0.780418
    endloop
  endfacet
  facet normal 0 -1 0
    outer loop
      vertex -5.52167 -2 0
      vertex 4 -2 2.33333
      vertex -5.63815 -2 0.281212
    endloop
  endfacet
  facet normal 0 -1 -0
    outer loop
      vertex 4 -2 2.33333
      vertex -5.52167 -2 0
      vertex 4 -2 0
    endloop
  endfacet
  facet normal 0 1 -0
    outer loop
      vertex 5 -2 2.33333
      vertex 4 -2 5.05
      vertex 5 -2 5.05
    endloop
  endfacet
  facet normal 0 1 0
    outer loop
      vertex 4 -2 5.05
      vertex 5 -2 2.33333
      vertex 4 -2 2.33333
    endloop
  endfacet
  facet normal 0 -1 1.75523e-007
    outer loop
      vertex -4.09777 -2 5.05
      vertex -6 -2 2.33333
      vertex -3.91543 -2 5.05
    endloop
  endfacet
  facet normal 0 -1 1.75523e-007
    outer loop
      vertex -4.26929 -2 5.05
      vertex -6 -2 2.33333
      vertex -4.09777 -2 5.05
    endloop
  endfacet
  facet normal 0.991445 0 -0.130527
    outer loop
      vertex 5.97717 -5.5 1.8104
      vertex 5.90885 0 1.29144
      vertex 5.97717 0 1.8104
    endloop
  endfacet
  facet normal 0.991445 0 -0.130527
    outer loop
      vertex 5.90885 0 1.29144
      vertex 5.97717 -5.5 1.8104
      vertex 5.90885 -5.5 1.29144
    endloop
  endfacet
  facet normal 0.999048 0 -0.0436196
    outer loop
      vertex 6 -2 2.33333
      vertex 5.97717 0 1.8104
      vertex 6 0 2.33333
    endloop
  endfacet
  facet normal 0.999048 0 -0.0436196
    outer loop
      vertex 5.97717 -5.5 1.8104
      vertex 6 -2 2.33333
      vertex 6 -5.5 2.33333
    endloop
  endfacet
  facet normal 0.999048 0 -0.0436196
    outer loop
      vertex 6 -2 2.33333
      vertex 5.97717 -5.5 1.8104
      vertex 5.97717 0 1.8104
    endloop
  endfacet
  facet normal -0.991445 0 -0.130527
    outer loop
      vertex -5.90885 -5.5 1.29144
      vertex -5.97717 -3.5 1.8104
      vertex -5.90885 -3.5 1.29144
    endloop
  endfacet
  facet normal -0.991445 -0 -0.130527
    outer loop
      vertex -5.97717 -3.5 1.8104
      vertex -5.90885 -5.5 1.29144
      vertex -5.97717 -5.5 1.8104
    endloop
  endfacet
  facet normal -0.991445 0 -0.130527
    outer loop
      vertex -5.90885 -2 1.29144
      vertex -5.97717 0 1.8104
      vertex -5.90885 0 1.29144
    endloop
  endfacet
  facet normal -0.991445 -0 -0.130527
    outer loop
      vertex -5.97717 0 1.8104
      vertex -5.90885 -2 1.29144
      vertex -5.97717 -2 1.8104
    endloop
  endfacet
  facet normal 3.34406e-006 -1 1.05437e-006
    outer loop
      vertex 5.79555 -2 3.88625
      vertex 5.63815 -2 4.38545
      vertex 6 -2 2.33333
    endloop
  endfacet
  facet normal 0 -1 1.75523e-007
    outer loop
      vertex 3.72045 -2 5.05
      vertex 3.51063 -2 5.05
      vertex 6 -2 2.33333
    endloop
  endfacet
  facet normal -8.08721e-007 -1 5.96517e-007
    outer loop
      vertex -4.7332 -2 5.05
      vertex -6 -2 2.33333
      vertex -4.58579 -2 5.05
    endloop
  endfacet
  facet normal 0 -1 1.75523e-007
    outer loop
      vertex -4.58579 -2 5.05
      vertex -6 -2 2.33333
      vertex -4.43153 -2 5.05
    endloop
  endfacet
  facet normal -2.07257e-005 -1 2.72861e-006
    outer loop
      vertex -5.97717 -2 2.85627
      vertex -6 -2 2.33333
      vertex -5.90885 -2 3.37522
    endloop
  endfacet
  facet normal 0.953717 0 -0.300706
    outer loop
      vertex 5.79555 -5.5 0.780418
      vertex 5.63815 0 0.281212
      vertex 5.79555 0 0.780418
    endloop
  endfacet
  facet normal 0.953717 0 -0.300706
    outer loop
      vertex 5.63815 0 0.281212
      vertex 5.79555 -5.5 0.780418
      vertex 5.63815 -5.5 0.281212
    endloop
  endfacet
  facet normal 0.976296 0 -0.21644
    outer loop
      vertex 5.90885 -5.5 1.29144
      vertex 5.79555 0 0.780418
      vertex 5.90885 0 1.29144
    endloop
  endfacet
  facet normal 0.976296 0 -0.21644
    outer loop
      vertex 5.79555 0 0.780418
      vertex 5.90885 -5.5 1.29144
      vertex 5.79555 -5.5 0.780418
    endloop
  endfacet
  facet normal 0.92388 0 -0.382683
    outer loop
      vertex 5.63815 -5.5 0.281212
      vertex 5.52167 0 0
      vertex 5.63815 0 0.281212
    endloop
  endfacet
  facet normal 0.92388 0 -0.382683
    outer loop
      vertex 5.52167 0 0
      vertex 5.63815 -5.5 0.281212
      vertex 5.52167 -5.5 0
    endloop
  endfacet
  facet normal -0.953717 0 -0.300706
    outer loop
      vertex -5.63815 -5.5 0.281212
      vertex -5.79555 -3.5 0.780418
      vertex -5.63815 -3.5 0.281212
    endloop
  endfacet
  facet normal -0.953717 -0 -0.300706
    outer loop
      vertex -5.79555 -3.5 0.780418
      vertex -5.63815 -5.5 0.281212
      vertex -5.79555 -5.5 0.780418
    endloop
  endfacet
  facet normal -0.953717 0 -0.300706
    outer loop
      vertex -5.63815 -2 0.281212
      vertex -5.79555 0 0.780418
      vertex -5.63815 0 0.281212
    endloop
  endfacet
  facet normal -0.953717 -0 -0.300706
    outer loop
      vertex -5.79555 0 0.780418
      vertex -5.63815 -2 0.281212
      vertex -5.79555 -2 0.780418
    endloop
  endfacet
  facet normal -0.92388 0 -0.382683
    outer loop
      vertex -5.52167 -5.5 0
      vertex -5.63815 -3.5 0.281212
      vertex -5.52167 -3.5 0
    endloop
  endfacet
  facet normal -0.92388 -0 -0.382683
    outer loop
      vertex -5.63815 -3.5 0.281212
      vertex -5.52167 -5.5 0
      vertex -5.63815 -5.5 0.281212
    endloop
  endfacet
  facet normal -0.92388 0 -0.382683
    outer loop
      vertex -5.52167 -2 0
      vertex -5.63815 0 0.281212
      vertex -5.52167 0 0
    endloop
  endfacet
  facet normal -0.92388 -0 -0.382683
    outer loop
      vertex -5.63815 0 0.281212
      vertex -5.52167 -2 0
      vertex -5.63815 -2 0.281212
    endloop
  endfacet
  facet normal -0.976296 0 -0.21644
    outer loop
      vertex -5.79555 -5.5 0.780418
      vertex -5.90885 -3.5 1.29144
      vertex -5.79555 -3.5 0.780418
    endloop
  endfacet
  facet normal -0.976296 -0 -0.21644
    outer loop
      vertex -5.90885 -3.5 1.29144
      vertex -5.79555 -5.5 0.780418
      vertex -5.90885 -5.5 1.29144
    endloop
  endfacet
  facet normal -0.976296 0 -0.21644
    outer loop
      vertex -5.79555 -2 0.780418
      vertex -5.90885 0 1.29144
      vertex -5.79555 0 0.780418
    endloop
  endfacet
  facet normal -0.976296 -0 -0.21644
    outer loop
      vertex -5.90885 0 1.29144
      vertex -5.79555 -2 0.780418
      vertex -5.90885 -2 1.29144
    endloop
  endfacet
  facet normal -6.82034e-006 -1 1.51204e-006
    outer loop
      vertex -5.90885 -2 3.37522
      vertex -6 -2 2.33333
      vertex -5.79555 -2 3.88625
    endloop
  endfacet
  facet normal -3.34406e-006 -1 1.05437e-006
    outer loop
      vertex -5.79555 -2 3.88625
      vertex -6 -2 2.33333
      vertex -5.63815 -2 4.38545
    endloop
  endfacet
  facet normal -0 0 1
    outer loop
      vertex -5.34365 0 5.05
      vertex -2.27657 -5.60662e-016 5.05
      vertex -2.27657 0 5.05
    endloop
  endfacet
  facet normal 0 0 1
    outer loop
      vertex -2.27657 -5.60662e-016 5.05
      vertex -3.51063 -2 5.05
      vertex -3.28333 -2 5.05
    endloop
  endfacet
  facet normal 0 0 1
    outer loop
      vertex -2.27657 -5.60662e-016 5.05
      vertex -3.72045 -2 5.05
      vertex -3.51063 -2 5.05
    endloop
  endfacet
  facet normal 0 0 1
    outer loop
      vertex -2.27657 -5.60662e-016 5.05
      vertex -3.91543 -2 5.05
      vertex -3.72045 -2 5.05
    endloop
  endfacet
  facet normal 0 0 1
    outer loop
      vertex -2.27657 -5.60662e-016 5.05
      vertex -5.34365 0 5.05
      vertex -3.91543 -2 5.05
    endloop
  endfacet
  facet normal 0 0 1
    outer loop
      vertex -3.91543 -2 5.05
      vertex -5.34365 0 5.05
      vertex -4.09777 -2 5.05
    endloop
  endfacet
  facet normal 0 0 1
    outer loop
      vertex -4.09777 -2 5.05
      vertex -5.34365 0 5.05
      vertex -4.26929 -2 5.05
    endloop
  endfacet
  facet normal 0 0 1
    outer loop
      vertex -4.26929 -2 5.05
      vertex -5.34365 0 5.05
      vertex -4.43153 -2 5.05
    endloop
  endfacet
  facet normal 0 0 1
    outer loop
      vertex -4.43153 -2 5.05
      vertex -5.34365 0 5.05
      vertex -4.58579 -2 5.05
    endloop
  endfacet
  facet normal 0 0 1
    outer loop
      vertex -4.58579 -2 5.05
      vertex -5.34365 0 5.05
      vertex -4.7332 -2 5.05
    endloop
  endfacet
  facet normal 0 0 1
    outer loop
      vertex -4.7332 -2 5.05
      vertex -5.34365 0 5.05
      vertex -4.87472 -2 5.05
    endloop
  endfacet
  facet normal 0 0 1
    outer loop
      vertex -4.87472 -2 5.05
      vertex -5.34365 0 5.05
      vertex -5.01121 -2 5.05
    endloop
  endfacet
  facet normal 0 0 1
    outer loop
      vertex -5.01121 -2 5.05
      vertex -5.34365 0 5.05
      vertex -5.14344 -2 5.05
    endloop
  endfacet
  facet normal 0 0 1
    outer loop
      vertex -5.14344 -2 5.05
      vertex -5.34365 0 5.05
      vertex -5.27207 -2 5.05
    endloop
  endfacet
  facet normal 0 0 1
    outer loop
      vertex -5.27207 -2 5.05
      vertex -5.34365 0 5.05
      vertex -5.34365 -2 5.05
    endloop
  endfacet
  facet normal 0 0 1
    outer loop
      vertex 5.34365 0 5.05
      vertex 5.27207 -2 5.05
      vertex 5.34365 -2 5.05
    endloop
  endfacet
  facet normal 0 0 1
    outer loop
      vertex 5.34365 0 5.05
      vertex 5.14344 -2 5.05
      vertex 5.27207 -2 5.05
    endloop
  endfacet
  facet normal 0 0 1
    outer loop
      vertex 5.34365 0 5.05
      vertex 5.01121 -2 5.05
      vertex 5.14344 -2 5.05
    endloop
  endfacet
  facet normal 0 0 1
    outer loop
      vertex 5.34365 0 5.05
      vertex 4.87472 -2 5.05
      vertex 5.01121 -2 5.05
    endloop
  endfacet
  facet normal 0 0 1
    outer loop
      vertex 5.34365 0 5.05
      vertex 4.7332 -2 5.05
      vertex 4.87472 -2 5.05
    endloop
  endfacet
  facet normal 0 0 1
    outer loop
      vertex 5.34365 0 5.05
      vertex 4.58579 -2 5.05
      vertex 4.7332 -2 5.05
    endloop
  endfacet
  facet normal 0 0 1
    outer loop
      vertex 5.34365 0 5.05
      vertex 4.43153 -2 5.05
      vertex 4.58579 -2 5.05
    endloop
  endfacet
  facet normal 0 0 1
    outer loop
      vertex 5.34365 0 5.05
      vertex 4.26929 -2 5.05
      vertex 4.43153 -2 5.05
    endloop
  endfacet
  facet normal 0 0 1
    outer loop
      vertex 5.34365 0 5.05
      vertex 4.09777 -2 5.05
      vertex 4.26929 -2 5.05
    endloop
  endfacet
  facet normal 0 0 1
    outer loop
      vertex 5.34365 0 5.05
      vertex 3.91543 -2 5.05
      vertex 4.09777 -2 5.05
    endloop
  endfacet
  facet normal 0 0 1
    outer loop
      vertex 5.34365 0 5.05
      vertex 3.72045 -2 5.05
      vertex 3.91543 -2 5.05
    endloop
  endfacet
  facet normal -0 0 1
    outer loop
      vertex 2.27657 -5.60662e-016 5.05
      vertex 3.72045 -2 5.05
      vertex 5.34365 0 5.05
    endloop
  endfacet
  facet normal 0 0 1
    outer loop
      vertex 3.72045 -2 5.05
      vertex 2.27657 -5.60662e-016 5.05
      vertex 3.51063 -2 5.05
    endloop
  endfacet
  facet normal 0 0 1
    outer loop
      vertex 2.27657 -5.60662e-016 5.05
      vertex 5.34365 0 5.05
      vertex 2.27657 0 5.05
    endloop
  endfacet
  facet normal 0 0 1
    outer loop
      vertex 3.51063 -2 5.05
      vertex 2.27657 -5.60662e-016 5.05
      vertex 3.28333 -2 5.05
    endloop
  endfacet
  facet normal -0 0 1
    outer loop
      vertex -2.27657 -5.60662e-016 5.05
      vertex 3.28333 -2 5.05
      vertex 2.27657 -5.60662e-016 5.05
    endloop
  endfacet
  facet normal 0 0 1
    outer loop
      vertex 3.28333 -2 5.05
      vertex -2.27657 -5.60662e-016 5.05
      vertex -3.28333 -2 5.05
    endloop
  endfacet
  facet normal 0 0 -1
    outer loop
      vertex 5.52167 -5.5 0
      vertex 4 -3.5 0
      vertex 5.52167 0 0
    endloop
  endfacet
  facet normal 0 0 -1
    outer loop
      vertex -5.52167 -5.5 0
      vertex 4 -3.5 0
      vertex 5.52167 -5.5 0
    endloop
  endfacet
  facet normal -0 0 -1
    outer loop
      vertex 4 -3.5 0
      vertex -5.52167 -5.5 0
      vertex -5.52167 -3.5 0
    endloop
  endfacet
  facet normal 0 0 -1
    outer loop
      vertex 4 -2 0
      vertex 5.52167 0 0
      vertex 4 -3.5 0
    endloop
  endfacet
  facet normal 0 0 -1
    outer loop
      vertex -5.52167 0 0
      vertex 4 -2 0
      vertex -5.52167 -2 0
    endloop
  endfacet
  facet normal 0 0 -1
    outer loop
      vertex 4 -2 0
      vertex -5.52167 0 0
      vertex 5.52167 0 0
    endloop
  endfacet
  facet normal 0.999048 -0 0.0436196
    outer loop
      vertex 5.97717 -5.5 2.85627
      vertex 6 -2 2.33333
      vertex 5.97717 -2 2.85627
    endloop
  endfacet
  facet normal 0.999048 0 0.0436196
    outer loop
      vertex 6 -2 2.33333
      vertex 5.97717 -5.5 2.85627
      vertex 6 -5.5 2.33333
    endloop
  endfacet
  facet normal 0.991445 -0 0.130527
    outer loop
      vertex 5.90885 -5.5 3.37522
      vertex 5.97717 -2 2.85627
      vertex 5.90885 -2 3.37522
    endloop
  endfacet
  facet normal 0.991445 0 0.130527
    outer loop
      vertex 5.97717 -2 2.85627
      vertex 5.90885 -5.5 3.37522
      vertex 5.97717 -5.5 2.85627
    endloop
  endfacet
  facet normal -0.976296 0 0.21644
    outer loop
      vertex -5.90885 -5.5 3.37522
      vertex -5.79555 -3.5 3.88625
      vertex -5.90885 -3.5 3.37522
    endloop
  endfacet
  facet normal -0.976296 0 0.21644
    outer loop
      vertex -5.79555 -3.5 3.88625
      vertex -5.90885 -5.5 3.37522
      vertex -5.79555 -5.5 3.88625
    endloop
  endfacet
  facet normal 0 -1 2.17363e-007
    outer loop
      vertex 4.83518 -5.5 5.05
      vertex 4.71062 -5.5 5.05
      vertex 5.97717 -5.5 2.85627
    endloop
  endfacet
  facet normal 0.887011 -0 0.461748
    outer loop
      vertex 5.34365 -5.5 5.05
      vertex 5.43785 -2 4.86904
      vertex 5.34365 -2 5.05
    endloop
  endfacet
  facet normal 0.887011 0 0.461748
    outer loop
      vertex 5.43785 -2 4.86904
      vertex 5.34365 -5.5 5.05
      vertex 5.43785 -5.5 4.86904
    endloop
  endfacet
  facet normal 0 -1 4.34727e-007
    outer loop
      vertex 5.28549 -5.5 5.05
      vertex 5.17872 -5.5 5.05
      vertex 5.97717 -5.5 2.85627
    endloop
  endfacet
  facet normal 0 -1 2.17363e-007
    outer loop
      vertex 4.29386 -5.5 5.05
      vertex 4.13641 -5.5 5.05
      vertex 5.97717 -5.5 2.85627
    endloop
  endfacet
  facet normal -0.92388 0 0.382683
    outer loop
      vertex -5.63815 -5.5 4.38545
      vertex -5.43785 -3.5 4.86904
      vertex -5.63815 -3.5 4.38545
    endloop
  endfacet
  facet normal -0.92388 0 0.382683
    outer loop
      vertex -5.43785 -3.5 4.86904
      vertex -5.63815 -5.5 4.38545
      vertex -5.43785 -5.5 4.86904
    endloop
  endfacet
  facet normal 0 -1 2.17363e-007
    outer loop
      vertex -4.71062 -5.5 5.05
      vertex -5.97717 -5.5 2.85627
      vertex -4.57961 -5.5 5.05
    endloop
  endfacet
  facet normal 0 -1 2.17363e-007
    outer loop
      vertex -4.4411 -5.5 5.05
      vertex -5.97717 -5.5 2.85627
      vertex -4.29386 -5.5 5.05
    endloop
  endfacet
  facet normal -6.66268e-006 -1 2.10073e-006
    outer loop
      vertex -5.79555 -5.5 3.88625
      vertex -5.97717 -5.5 2.85627
      vertex -5.63815 -5.5 4.38545
    endloop
  endfacet
  facet normal 3.23942e-006 -1 1.34181e-006
    outer loop
      vertex 5.63815 -5.5 4.38545
      vertex 5.43785 -5.5 4.86904
      vertex 5.97717 -5.5 2.85627
    endloop
  endfacet
  facet normal 0.92388 -0 0.382683
    outer loop
      vertex 5.43785 -5.5 4.86904
      vertex 5.63815 -2 4.38545
      vertex 5.43785 -2 4.86904
    endloop
  endfacet
  facet normal 0.92388 0 0.382683
    outer loop
      vertex 5.63815 -2 4.38545
      vertex 5.43785 -5.5 4.86904
      vertex 5.63815 -5.5 4.38545
    endloop
  endfacet
  facet normal 0 -1 2.17363e-007
    outer loop
      vertex 5.06849 -5.5 5.05
      vertex 4.95421 -5.5 5.05
      vertex 5.97717 -5.5 2.85627
    endloop
  endfacet
  facet normal 0 -1 2.17363e-007
    outer loop
      vertex 3.78344 -5.5 5.05
      vertex 3.58313 -5.5 5.05
      vertex 5.97717 -5.5 2.85627
    endloop
  endfacet
  facet normal 0 -1 2.17363e-007
    outer loop
      vertex 4.57961 -5.5 5.05
      vertex 4.4411 -5.5 5.05
      vertex 5.97717 -5.5 2.85627
    endloop
  endfacet
  facet normal -0.887011 0 0.461748
    outer loop
      vertex -5.43785 -5.5 4.86904
      vertex -5.34365 -3.5 5.05
      vertex -5.43785 -3.5 4.86904
    endloop
  endfacet
  facet normal -0.887011 0 0.461748
    outer loop
      vertex -5.34365 -3.5 5.05
      vertex -5.43785 -5.5 4.86904
      vertex -5.34365 -5.5 5.05
    endloop
  endfacet
  facet normal 0 -1 0
    outer loop
      vertex -6 -5.5 2.33333
      vertex 5.97717 -5.5 2.85627
      vertex -5.97717 -5.5 2.85627
    endloop
  endfacet
  facet normal 0 -1 0
    outer loop
      vertex -6 -5.5 2.33333
      vertex 6 -5.5 2.33333
      vertex 5.97717 -5.5 2.85627
    endloop
  endfacet
  facet normal 0 -1 0
    outer loop
      vertex -5.97717 -5.5 1.8104
      vertex 6 -5.5 2.33333
      vertex -6 -5.5 2.33333
    endloop
  endfacet
  facet normal 0 -1 0
    outer loop
      vertex -5.97717 -5.5 1.8104
      vertex 5.97717 -5.5 1.8104
      vertex 6 -5.5 2.33333
    endloop
  endfacet
  facet normal 0 -1 0
    outer loop
      vertex -5.90885 -5.5 1.29144
      vertex 5.97717 -5.5 1.8104
      vertex -5.97717 -5.5 1.8104
    endloop
  endfacet
  facet normal 0 -1 0
    outer loop
      vertex -5.90885 -5.5 1.29144
      vertex 5.90885 -5.5 1.29144
      vertex 5.97717 -5.5 1.8104
    endloop
  endfacet
  facet normal 0 -1 0
    outer loop
      vertex -5.79555 -5.5 0.780418
      vertex 5.90885 -5.5 1.29144
      vertex -5.90885 -5.5 1.29144
    endloop
  endfacet
  facet normal 0 -1 0
    outer loop
      vertex -5.79555 -5.5 0.780418
      vertex 5.79555 -5.5 0.780418
      vertex 5.90885 -5.5 1.29144
    endloop
  endfacet
  facet normal 0 -1 0
    outer loop
      vertex -5.52167 -5.5 0
      vertex -5.79555 -5.5 0.780418
      vertex -5.63815 -5.5 0.281212
    endloop
  endfacet
  facet normal 0 -1 0
    outer loop
      vertex -5.79555 -5.5 0.780418
      vertex -5.52167 -5.5 0
      vertex 5.79555 -5.5 0.780418
    endloop
  endfacet
  facet normal 0 -1 0
    outer loop
      vertex 5.52167 -5.5 0
      vertex 5.79555 -5.5 0.780418
      vertex -5.52167 -5.5 0
    endloop
  endfacet
  facet normal 0 -1 0
    outer loop
      vertex 5.79555 -5.5 0.780418
      vertex 5.52167 -5.5 0
      vertex 5.63815 -5.5 0.281212
    endloop
  endfacet
  facet normal 0 -1 0
    outer loop
      vertex -5.43785 -5.5 4.86904
      vertex -5.28549 -5.5 5.05
      vertex -5.34365 -5.5 5.05
    endloop
  endfacet
  facet normal -8.2543e-007 -1 6.94984e-007
    outer loop
      vertex -5.28549 -5.5 5.05
      vertex -5.43785 -5.5 4.86904
      vertex -5.97717 -5.5 2.85627
    endloop
  endfacet
  facet normal -0.991445 0 0.130527
    outer loop
      vertex -5.97717 -3.5 2.85627
      vertex -5.90885 -5.5 3.37522
      vertex -5.90885 -3.5 3.37522
    endloop
  endfacet
  facet normal -0.991445 0 0.130527
    outer loop
      vertex -5.90885 -5.5 3.37522
      vertex -5.97717 -3.5 2.85627
      vertex -5.97717 -5.5 2.85627
    endloop
  endfacet
  facet normal 0 -1 2.17363e-007
    outer loop
      vertex -4.95421 -5.5 5.05
      vertex -5.97717 -5.5 2.85627
      vertex -4.83518 -5.5 5.05
    endloop
  endfacet
  facet normal 0.976296 -0 0.21644
    outer loop
      vertex 5.79555 -5.5 3.88625
      vertex 5.90885 -2 3.37522
      vertex 5.79555 -2 3.88625
    endloop
  endfacet
  facet normal 0.976296 0 0.21644
    outer loop
      vertex 5.90885 -2 3.37522
      vertex 5.79555 -5.5 3.88625
      vertex 5.90885 -5.5 3.37522
    endloop
  endfacet
  facet normal 0.953717 -0 0.300705
    outer loop
      vertex 5.63815 -5.5 4.38545
      vertex 5.79555 -2 3.88625
      vertex 5.63815 -2 4.38545
    endloop
  endfacet
  facet normal 0.953717 0 0.300705
    outer loop
      vertex 5.79555 -2 3.88625
      vertex 5.63815 -5.5 4.38545
      vertex 5.79555 -5.5 3.88625
    endloop
  endfacet
  facet normal 2.04092e-005 -1 4.52461e-006
    outer loop
      vertex 5.90885 -5.5 3.37522
      vertex 5.79555 -5.5 3.88625
      vertex 5.97717 -5.5 2.85627
    endloop
  endfacet
  facet normal 0 -1 0
    outer loop
      vertex 5.28549 -5.5 5.05
      vertex 5.43785 -5.5 4.86904
      vertex 5.34365 -5.5 5.05
    endloop
  endfacet
  facet normal 8.2543e-007 -1 6.94984e-007
    outer loop
      vertex 5.43785 -5.5 4.86904
      vertex 5.28549 -5.5 5.05
      vertex 5.97717 -5.5 2.85627
    endloop
  endfacet
  facet normal 4.32618e-006 -1 2.00933e-006
    outer loop
      vertex 5.17872 -5.5 5.05
      vertex 5.06849 -5.5 5.05
      vertex 5.97717 -5.5 2.85627
    endloop
  endfacet
  facet normal 0 -1 2.17363e-007
    outer loop
      vertex 4.95421 -5.5 5.05
      vertex 4.83518 -5.5 5.05
      vertex 5.97717 -5.5 2.85627
    endloop
  endfacet
  facet normal 0 -1 2.17363e-007
    outer loop
      vertex 4.71062 -5.5 5.05
      vertex 4.57961 -5.5 5.05
      vertex 5.97717 -5.5 2.85627
    endloop
  endfacet
  facet normal 0 -1 2.17363e-007
    outer loop
      vertex 4.13641 -5.5 5.05
      vertex 3.96698 -5.5 5.05
      vertex 5.97717 -5.5 2.85627
    endloop
  endfacet
  facet normal 0 -1 2.17363e-007
    outer loop
      vertex -3.78344 -5.5 5.05
      vertex -5.97717 -5.5 2.85627
      vertex -3.58313 -5.5 5.05
    endloop
  endfacet
  facet normal 0 -1 2.17363e-007
    outer loop
      vertex -5.97717 -5.5 2.85627
      vertex 3.58313 -5.5 5.05
      vertex -3.58313 -5.5 5.05
    endloop
  endfacet
  facet normal 0 -1 2.17363e-007
    outer loop
      vertex 3.58313 -5.5 5.05
      vertex -5.97717 -5.5 2.85627
      vertex 5.97717 -5.5 2.85627
    endloop
  endfacet
  facet normal 0 -1 2.17363e-007
    outer loop
      vertex 4.4411 -5.5 5.05
      vertex 4.29386 -5.5 5.05
      vertex 5.97717 -5.5 2.85627
    endloop
  endfacet
  facet normal 0 -1 2.17363e-007
    outer loop
      vertex -4.13641 -5.5 5.05
      vertex -5.97717 -5.5 2.85627
      vertex -3.96698 -5.5 5.05
    endloop
  endfacet
  facet normal 0 -1 2.17363e-007
    outer loop
      vertex -3.96698 -5.5 5.05
      vertex -5.97717 -5.5 2.85627
      vertex -3.78344 -5.5 5.05
    endloop
  endfacet
  facet normal 0 -1 4.34727e-007
    outer loop
      vertex -5.28549 -5.5 5.05
      vertex -5.97717 -5.5 2.85627
      vertex -5.17872 -5.5 5.05
    endloop
  endfacet
  facet normal -0.999048 0 0.0436196
    outer loop
      vertex -6 -5.5 2.33333
      vertex -5.97717 -3.5 2.85627
      vertex -6 -3.5 2.33333
    endloop
  endfacet
  facet normal -0.999048 0 0.0436196
    outer loop
      vertex -5.97717 -3.5 2.85627
      vertex -6 -5.5 2.33333
      vertex -5.97717 -5.5 2.85627
    endloop
  endfacet
  facet normal -0.953717 0 0.300705
    outer loop
      vertex -5.79555 -5.5 3.88625
      vertex -5.63815 -3.5 4.38545
      vertex -5.79555 -3.5 3.88625
    endloop
  endfacet
  facet normal -0.953717 0 0.300705
    outer loop
      vertex -5.63815 -3.5 4.38545
      vertex -5.79555 -5.5 3.88625
      vertex -5.63815 -5.5 4.38545
    endloop
  endfacet
  facet normal 0 -1 2.17363e-007
    outer loop
      vertex -4.83518 -5.5 5.05
      vertex -5.97717 -5.5 2.85627
      vertex -4.71062 -5.5 5.05
    endloop
  endfacet
  facet normal 0 -1 2.17363e-007
    outer loop
      vertex -5.06849 -5.5 5.05
      vertex -5.97717 -5.5 2.85627
      vertex -4.95421 -5.5 5.05
    endloop
  endfacet
  facet normal 0 -1 2.17363e-007
    outer loop
      vertex -4.29386 -5.5 5.05
      vertex -5.97717 -5.5 2.85627
      vertex -4.13641 -5.5 5.05
    endloop
  endfacet
  facet normal 6.66268e-006 -1 2.10073e-006
    outer loop
      vertex 5.79555 -5.5 3.88625
      vertex 5.63815 -5.5 4.38545
      vertex 5.97717 -5.5 2.85627
    endloop
  endfacet
  facet normal 0 -1 2.17363e-007
    outer loop
      vertex 3.96698 -5.5 5.05
      vertex 3.78344 -5.5 5.05
      vertex 5.97717 -5.5 2.85627
    endloop
  endfacet
  facet normal -3.23942e-006 -1 1.34181e-006
    outer loop
      vertex -5.63815 -5.5 4.38545
      vertex -5.97717 -5.5 2.85627
      vertex -5.43785 -5.5 4.86904
    endloop
  endfacet
  facet normal -4.32618e-006 -1 2.00933e-006
    outer loop
      vertex -5.17872 -5.5 5.05
      vertex -5.97717 -5.5 2.85627
      vertex -5.06849 -5.5 5.05
    endloop
  endfacet
  facet normal -2.04092e-005 -1 4.52461e-006
    outer loop
      vertex -5.90885 -5.5 3.37522
      vertex -5.97717 -5.5 2.85627
      vertex -5.79555 -5.5 3.88625
    endloop
  endfacet
  facet normal 0 -1 2.17363e-007
    outer loop
      vertex -4.57961 -5.5 5.05
      vertex -5.97717 -5.5 2.85627
      vertex -4.4411 -5.5 5.05
    endloop
  endfacet
  facet normal -0 0 1
    outer loop
      vertex 4 -3.5 5.05
      vertex 5.34365 -5.5 5.05
      vertex 5.34365 -2 5.05
    endloop
  endfacet
  facet normal 0 0 1
    outer loop
      vertex 5.34365 -5.5 5.05
      vertex 4 -3.5 5.05
      vertex 5.28549 -5.5 5.05
    endloop
  endfacet
  facet normal 0 0 1
    outer loop
      vertex 5.28549 -5.5 5.05
      vertex 4 -3.5 5.05
      vertex 5.17872 -5.5 5.05
    endloop
  endfacet
  facet normal 0 0 1
    outer loop
      vertex 4 -3.5 5.05
      vertex 5.34365 -2 5.05
      vertex 5 -2 5.05
    endloop
  endfacet
  facet normal 0 0 1
    outer loop
      vertex 5.17872 -5.5 5.05
      vertex 4 -3.5 5.05
      vertex 5.06849 -5.5 5.05
    endloop
  endfacet
  facet normal 0 0 1
    outer loop
      vertex 5.06849 -5.5 5.05
      vertex 4 -3.5 5.05
      vertex 4.95421 -5.5 5.05
    endloop
  endfacet
  facet normal 0 0 1
    outer loop
      vertex 4.95421 -5.5 5.05
      vertex 4 -3.5 5.05
      vertex 4.83518 -5.5 5.05
    endloop
  endfacet
  facet normal 0 0 1
    outer loop
      vertex 4.83518 -5.5 5.05
      vertex 4 -3.5 5.05
      vertex 4.71062 -5.5 5.05
    endloop
  endfacet
  facet normal 0 0 1
    outer loop
      vertex 4.71062 -5.5 5.05
      vertex 4 -3.5 5.05
      vertex 4.57961 -5.5 5.05
    endloop
  endfacet
  facet normal 0 0 1
    outer loop
      vertex 4.57961 -5.5 5.05
      vertex 4 -3.5 5.05
      vertex 4.4411 -5.5 5.05
    endloop
  endfacet
  facet normal 0 0 1
    outer loop
      vertex 4.4411 -5.5 5.05
      vertex 4 -3.5 5.05
      vertex 4.29386 -5.5 5.05
    endloop
  endfacet
  facet normal 0 0 1
    outer loop
      vertex 4 -3.5 5.05
      vertex 5 -2 5.05
      vertex 4 -2 5.05
    endloop
  endfacet
  facet normal 0 0 1
    outer loop
      vertex 4.29386 -5.5 5.05
      vertex 4 -3.5 5.05
      vertex 4.13641 -5.5 5.05
    endloop
  endfacet
  facet normal 0 0 1
    outer loop
      vertex 4 -3.5 5.05
      vertex 3.96698 -5.5 5.05
      vertex 4.13641 -5.5 5.05
    endloop
  endfacet
  facet normal 0 0 1
    outer loop
      vertex 4 -3.5 5.05
      vertex 3.78344 -5.5 5.05
      vertex 3.96698 -5.5 5.05
    endloop
  endfacet
  facet normal 0 0 1
    outer loop
      vertex 4 -3.5 5.05
      vertex 3.58313 -5.5 5.05
      vertex 3.78344 -5.5 5.05
    endloop
  endfacet
  facet normal 0 0 1
    outer loop
      vertex 4 -3.5 5.05
      vertex -3.58313 -5.5 5.05
      vertex 3.58313 -5.5 5.05
    endloop
  endfacet
  facet normal -0 0 1
    outer loop
      vertex -5.34365 -3.5 5.05
      vertex -3.58313 -5.5 5.05
      vertex 4 -3.5 5.05
    endloop
  endfacet
  facet normal 0 0 1
    outer loop
      vertex -3.58313 -5.5 5.05
      vertex -5.34365 -3.5 5.05
      vertex -3.78344 -5.5 5.05
    endloop
  endfacet
  facet normal 0 0 1
    outer loop
      vertex -3.78344 -5.5 5.05
      vertex -5.34365 -3.5 5.05
      vertex -3.96698 -5.5 5.05
    endloop
  endfacet
  facet normal 0 0 1
    outer loop
      vertex -3.96698 -5.5 5.05
      vertex -5.34365 -3.5 5.05
      vertex -4.13641 -5.5 5.05
    endloop
  endfacet
  facet normal 0 0 1
    outer loop
      vertex -4.13641 -5.5 5.05
      vertex -5.34365 -3.5 5.05
      vertex -4.29386 -5.5 5.05
    endloop
  endfacet
  facet normal 0 0 1
    outer loop
      vertex -4.29386 -5.5 5.05
      vertex -5.34365 -3.5 5.05
      vertex -4.4411 -5.5 5.05
    endloop
  endfacet
  facet normal 0 0 1
    outer loop
      vertex -4.4411 -5.5 5.05
      vertex -5.34365 -3.5 5.05
      vertex -4.57961 -5.5 5.05
    endloop
  endfacet
  facet normal 0 0 1
    outer loop
      vertex -4.57961 -5.5 5.05
      vertex -5.34365 -3.5 5.05
      vertex -4.71062 -5.5 5.05
    endloop
  endfacet
  facet normal 0 0 1
    outer loop
      vertex -4.71062 -5.5 5.05
      vertex -5.34365 -3.5 5.05
      vertex -4.83518 -5.5 5.05
    endloop
  endfacet
  facet normal 0 0 1
    outer loop
      vertex -4.83518 -5.5 5.05
      vertex -5.34365 -3.5 5.05
      vertex -4.95421 -5.5 5.05
    endloop
  endfacet
  facet normal 0 0 1
    outer loop
      vertex -4.95421 -5.5 5.05
      vertex -5.34365 -3.5 5.05
      vertex -5.06849 -5.5 5.05
    endloop
  endfacet
  facet normal 0 0 1
    outer loop
      vertex -5.06849 -5.5 5.05
      vertex -5.34365 -3.5 5.05
      vertex -5.17872 -5.5 5.05
    endloop
  endfacet
  facet normal 0 0 1
    outer loop
      vertex -5.17872 -5.5 5.05
      vertex -5.34365 -3.5 5.05
      vertex -5.28549 -5.5 5.05
    endloop
  endfacet
  facet normal 0 0 1
    outer loop
      vertex -5.28549 -5.5 5.05
      vertex -5.34365 -3.5 5.05
      vertex -5.34365 -5.5 5.05
    endloop
  endfacet
  facet normal -1 0 0
    outer loop
      vertex 4 -3.5 0
      vertex 4 -2 2.33333
      vertex 4 -2 0
    endloop
  endfacet
  facet normal -1 0 0
    outer loop
      vertex 4 -3.5 5.05
      vertex 4 -2 2.33333
      vertex 4 -3.5 0
    endloop
  endfacet
  facet normal -1 0 0
    outer loop
      vertex 4 -2 2.33333
      vertex 4 -3.5 5.05
      vertex 4 -2 5.05
    endloop
  endfacet
  facet normal 0 1 0
    outer loop
      vertex -5.63815 -3.5 4.38545
      vertex -5.34365 -3.5 5.05
      vertex 4 -3.5 5.05
    endloop
  endfacet
  facet normal 0 1 0
    outer loop
      vertex -5.34365 -3.5 5.05
      vertex -5.63815 -3.5 4.38545
      vertex -5.43785 -3.5 4.86904
    endloop
  endfacet
  facet normal 0 1 0
    outer loop
      vertex 4 -3.5 5.05
      vertex -5.79555 -3.5 3.88625
      vertex -5.63815 -3.5 4.38545
    endloop
  endfacet
  facet normal 0 1 0
    outer loop
      vertex 4 -3.5 5.05
      vertex -5.90885 -3.5 3.37522
      vertex -5.79555 -3.5 3.88625
    endloop
  endfacet
  facet normal 0 1 -0
    outer loop
      vertex 4 -3.5 0
      vertex -5.90885 -3.5 3.37522
      vertex 4 -3.5 5.05
    endloop
  endfacet
  facet normal 0 1 0
    outer loop
      vertex -5.90885 -3.5 3.37522
      vertex 4 -3.5 0
      vertex -5.97717 -3.5 2.85627
    endloop
  endfacet
  facet normal 0 1 0
    outer loop
      vertex -5.97717 -3.5 2.85627
      vertex 4 -3.5 0
      vertex -6 -3.5 2.33333
    endloop
  endfacet
  facet normal 0 1 0
    outer loop
      vertex -6 -3.5 2.33333
      vertex 4 -3.5 0
      vertex -5.97717 -3.5 1.8104
    endloop
  endfacet
  facet normal 0 1 0
    outer loop
      vertex -5.97717 -3.5 1.8104
      vertex 4 -3.5 0
      vertex -5.90885 -3.5 1.29144
    endloop
  endfacet
  facet normal 0 1 0
    outer loop
      vertex -5.90885 -3.5 1.29144
      vertex 4 -3.5 0
      vertex -5.79555 -3.5 0.780418
    endloop
  endfacet
  facet normal 0 1 0
    outer loop
      vertex -5.79555 -3.5 0.780418
      vertex 4 -3.5 0
      vertex -5.63815 -3.5 0.281212
    endloop
  endfacet
  facet normal 0 1 0
    outer loop
      vertex -5.63815 -3.5 0.281212
      vertex 4 -3.5 0
      vertex -5.52167 -3.5 0
    endloop
  endfacet
endsolid OpenSCAD_Model
